# Blender 5.0.1
# www.blender.org
mtllib buttonButtonGlassPart.mtl
o Cube.002
v -0.530488 0.062207 0.530488
v -0.530488 0.062207 -0.530487
v 0.530488 0.062207 -0.530488
v 0.530488 0.062207 0.530487
v -0.830385 0.062207 0.830385
v -0.830385 0.062207 -0.830385
v 0.830385 0.062207 -0.830385
v 0.830385 0.062207 0.830385
v 0.270968 0.183715 -0.812905
v -0.270968 0.183715 -0.812905
v 0.270968 0.183715 0.812905
v -0.270968 0.183715 0.812905
v -0.750223 0.062206 0.000000
v 0.750223 0.062207 -0.000000
v 0.270968 0.062207 0.812905
v 0.270968 0.062207 -0.812905
v -0.812905 0.183715 0.270968
v -0.270968 0.062207 0.812905
v -0.000000 0.062207 -0.750223
v 0.000000 0.062207 0.750223
v -0.270968 0.062207 -0.812905
v -0.693115 0.062206 -0.287098
v 0.693115 0.062207 0.287098
v 0.287098 0.062207 -0.693115
v -0.287098 0.062207 0.693115
v -0.693115 0.062206 0.287098
v 0.693115 0.062207 -0.287098
v -0.287098 0.062207 -0.693115
v 0.287098 0.062207 0.693115
v -0.693115 0.131463 -0.287098
v -0.530488 0.131463 -0.530487
v 0.693115 0.131463 0.287098
v 0.530488 0.131463 0.530487
v 0.287098 0.131463 -0.693115
v 0.530488 0.131463 -0.530488
v -0.287098 0.131463 0.693115
v -0.530488 0.131463 0.530488
v -0.693115 0.131463 0.287098
v -0.750223 0.131463 0.000000
v 0.693115 0.131463 -0.287098
v 0.750223 0.131463 -0.000000
v -0.287098 0.131463 -0.693115
v -0.000000 0.131463 -0.750223
v 0.287098 0.131463 0.693115
v 0.000000 0.131463 0.750223
v -0.812905 0.183715 -0.270968
v 0.812905 0.183715 -0.270968
v 0.812905 0.183715 0.270968
v 0.270968 0.183715 0.270968
v 0.270968 0.183715 -0.270968
v -0.270968 0.183715 0.270968
v -0.270968 0.183715 -0.270968
v 0.812905 0.062207 -0.270968
v 0.812905 0.062207 0.270968
v -0.812905 0.062207 0.270968
v -0.812905 0.062207 -0.270968
v -0.830385 0.202274 -0.830385
v -0.303588 0.202274 -0.830385
v -0.303588 0.062207 -0.830385
v 0.300441 0.062207 -0.830385
v 0.300441 0.202274 -0.830385
v -0.303588 0.202274 0.830385
v -0.303588 0.202274 0.316041
v 0.300441 0.202274 0.830385
v 0.300441 0.202274 0.316041
v -0.830385 0.202274 0.830385
v 0.830385 0.202274 0.830385
v 0.830385 0.202274 -0.830385
v -0.830385 0.202274 -0.303739
v 0.830385 0.202274 0.316041
v 0.300441 0.062207 0.830385
v 0.300441 0.202274 -0.303739
v -0.303588 0.202274 -0.303739
v 0.830385 0.062207 0.316041
v 0.830385 0.202274 -0.303739
v -0.830385 0.202274 0.316041
v -0.830385 0.062207 -0.303739
v -0.303588 0.062207 0.830385
v 0.830385 0.062207 -0.303739
v -0.830385 0.062207 0.316041
vn -0.0000 -1.0000 -0.0000
vn -0.0000 -0.0000 1.0000
vn -0.3827 -0.0000 0.9239
vn -0.5329 0.8462 -0.0000
vn -0.6538 0.5265 0.5434
vn -0.6541 0.5381 0.5315
vn -0.0000 -0.0000 -1.0000
vn -0.0000 1.0000 -0.0000
vn -0.9239 -0.0000 -0.3827
vn -0.7071 -0.0000 -0.7071
vn 0.6154 0.5494 -0.5652
vn 0.4723 -0.0000 -0.8814
vn 0.6157 0.5605 -0.5539
vn 1.0000 -0.0000 -0.0000
vn -1.0000 -0.0000 -0.0000
vn 0.6154 0.5494 0.5652
vn 0.4945 0.8692 -0.0000
vn 0.6157 0.5605 0.5539
vn 0.5661 0.5504 0.6137
vn 0.8823 -0.0000 0.4706
vn 0.5549 0.5615 0.6139
vn 0.9239 -0.0000 0.3827
vn 0.7071 -0.0000 0.7071
vn -0.3827 -0.0000 -0.9239
vn 0.3827 -0.0000 0.9239
vn -0.9239 -0.0000 0.3827
vn 0.9239 -0.0000 -0.3827
vn -0.7071 -0.0000 0.7071
vn 0.7071 -0.0000 -0.7071
vn 0.3827 -0.0000 -0.9239
vn 0.4723 -0.0000 0.8814
vn -0.5101 -0.0000 0.8601
vn -0.5101 -0.0000 -0.8601
vn -0.6538 0.5265 -0.5434
vn -0.6541 0.5381 -0.5315
vn 0.9323 -0.0000 -0.3616
vn 0.6216 0.6095 -0.4920
vn 0.6124 0.6186 -0.4922
vn -0.0000 0.8702 0.4928
vn -0.0000 0.9247 -0.3807
vn -0.8823 -0.0000 0.4706
vn -0.5661 0.5504 0.6137
vn -0.5549 0.5615 0.6139
vn -0.6216 0.6095 -0.4920
vn -0.9323 -0.0000 -0.3616
vn -0.6124 0.6186 -0.4922
vt 0.747161 0.808697
vt 0.743788 0.700750
vt 0.747161 0.709448
vt 0.001011 0.951878
vt 0.001011 0.895393
vt 0.014375 0.895393
vt 0.014375 0.951878
vt 0.639214 0.805324
vt 0.644901 0.808697
vt 0.957112 0.615517
vt 0.852538 0.615517
vt 0.849165 0.608796
vt 0.948414 0.608796
vt 0.743788 0.596176
vt 0.747161 0.488229
vt 0.747161 0.589853
vt 0.375147 0.727087
vt 0.391726 0.743666
vt 0.317781 0.817611
vt 0.301202 0.801032
vt 0.442161 0.648463
vt 0.426693 0.488229
vt 0.453181 0.593064
vt 0.731692 0.648463
vt 0.720673 0.703863
vt 0.586927 0.503698
vt 0.642326 0.514717
vt 0.586927 0.793229
vt 0.534640 0.805324
vt 0.430066 0.700750
vt 0.430066 0.596176
vt 0.153312 0.653142
vt 0.079367 0.579197
vt 0.153312 0.505252
vt 0.227257 0.579197
vt 0.062788 0.562618
vt 0.136733 0.488673
vt 0.001011 0.669454
vt 0.001011 0.612969
vt 0.014375 0.612969
vt 0.014375 0.669454
vt 0.448374 0.970415
vt 0.433813 0.988792
vt 0.428216 0.984357
vt 0.445001 0.963173
vt 0.301202 0.505252
vt 0.317781 0.488673
vt 0.391726 0.562618
vt 0.375147 0.579197
vt 0.001011 0.725939
vt 0.014375 0.725939
vt 0.642326 0.782209
vt 0.534640 0.491602
vt 0.639214 0.491602
vt 0.709355 0.970389
vt 0.604782 0.970389
vt 0.613479 0.963147
vt 0.712729 0.963147
vt 0.791140 0.819801
vt 0.772804 0.805188
vt 0.777271 0.799583
vt 0.798408 0.816428
vt 0.001011 0.217576
vt 0.001011 0.161092
vt 0.014375 0.161092
vt 0.014375 0.217576
vt 0.153312 0.801032
vt 0.136733 0.817611
vt 0.062788 0.743666
vt 0.079367 0.727087
vt 0.001011 0.556485
vt 0.014375 0.556485
vt 0.001011 0.274061
vt 0.014375 0.274061
vt 0.001011 0.104607
vt 0.014375 0.104607
vt 0.001011 0.782423
vt 0.014375 0.782424
vt 0.001011 0.330546
vt 0.014375 0.330546
vt 0.001011 0.838908
vt 0.014375 0.838908
vt 0.001011 0.387031
vt 0.014375 0.387031
vt 0.001011 0.443515
vt 0.014375 0.443515
vt 0.001011 0.500000
vt 0.014375 0.500000
vt 0.001011 0.048122
vt 0.014375 0.048122
vt 0.552989 0.237740
vt 0.531373 0.185555
vt 0.701599 0.299296
vt 0.645115 0.299296
vt 0.592930 0.277681
vt 0.753785 0.277681
vt 0.815341 0.129070
vt 0.815341 0.185555
vt 0.753785 0.036944
vt 0.793725 0.076885
vt 0.701600 0.015329
vt 0.592930 0.036944
vt 0.645115 0.015329
vt 0.531373 0.129070
vt 0.552989 0.076885
vt 0.793725 0.237740
vt 0.426693 0.808697
vt 0.484562 0.750828
vt 0.531528 0.782209
vt 0.227257 0.727087
vt 0.301202 0.653142
vt 0.723917 0.988766
vt 0.729514 0.984331
vt 0.453181 0.703863
vt 0.484562 0.546099
vt 0.839120 0.634744
vt 0.833697 0.630960
vt 0.531528 0.514717
vt 0.689292 0.546099
vt 0.720673 0.593064
vt 0.689292 0.750828
vt 0.910076 0.944636
vt 0.896658 0.925408
vt 0.900031 0.918687
vt 0.915498 0.940852
vt 0.973119 0.492141
vt 0.957820 0.509909
vt 0.948414 0.506536
vt 0.966050 0.486055
vt 0.644901 0.488229
vt 0.417973 0.963173
vt 0.417973 0.861521
vt 0.445001 0.861521
vt 0.712729 0.861495
vt 0.739756 0.861495
vt 0.739756 0.963147
vt 0.613479 0.861495
vt 0.849165 0.506536
vt 0.822137 0.608796
vt 0.822137 0.506536
vt 0.445001 0.834493
vt 0.546625 0.834493
vt 0.546625 0.861521
vt 0.849165 0.479508
vt 0.948414 0.479508
vt 0.900031 0.816428
vt 0.927059 0.816428
vt 0.927059 0.918687
vt 0.798408 0.789400
vt 0.900031 0.789400
vt 0.613479 0.834467
vt 0.712729 0.834467
vt 0.798408 0.918687
vt 0.546625 0.963173
vt 0.792084 0.925408
vt 0.426693 0.589853
vt 0.426693 0.709448
vt 0.791140 0.924375
vt 0.528345 0.488229
vt 0.528346 0.808697
vt 0.957820 0.614483
vt 0.572228 0.850281
vt 0.553892 0.864894
vt 0.567762 0.844676
vt 0.553892 0.969468
vt 0.552948 0.970415
vt 0.604073 0.864868
vt 0.588774 0.847100
vt 0.595843 0.841013
vt 0.604073 0.969442
s 1
usemtl ButtonMaterial
f 8/1/1 54/2/1 74/3/1
f 19/4/2 24/5/3 34/6/3 43/7/2
f 15/8/1 8/1/1 71/9/1
f 49/10/4 11/11/5 64/12/6 65/13/4
f 53/14/1 7/15/1 79/16/1
f 9/17/7 16/18/7 21/19/7 10/20/7
f 13/21/1 6/22/1 22/23/1
f 14/24/1 8/1/1 23/25/1
f 19/26/1 7/15/1 24/27/1
f 20/28/1 15/8/1 18/29/1
f 14/24/1 53/14/1 54/2/1
f 13/21/1 55/30/1 56/31/1
f 51/32/8 12/33/8 11/34/8 49/35/8
f 12/33/2 18/36/2 15/37/2 11/34/2
f 23/38/9 4/39/10 33/40/10 32/41/9
f 10/42/11 21/43/12 59/44/12 58/45/13
f 48/46/14 54/47/14 53/48/14 47/49/14
f 14/50/15 23/38/9 32/41/9 41/51/15
f 8/1/1 20/28/1 29/52/1
f 19/26/1 21/53/1 16/54/1
f 12/55/16 51/56/17 63/57/17 62/58/18
f 47/59/19 53/60/20 79/61/20 75/62/21
f 22/63/22 2/64/23 31/65/23 30/66/22
f 46/67/15 56/68/15 55/69/15 17/70/15
f 4/39/10 29/71/24 44/72/24 33/40/10
f 13/73/14 22/63/22 30/66/22 39/74/14
f 2/64/23 28/75/25 42/76/25 31/65/23
f 27/77/26 14/50/15 41/51/15 40/78/26
f 26/79/27 13/73/14 39/74/14 38/80/27
f 3/81/28 27/77/26 40/78/26 35/82/28
f 1/83/29 26/79/27 38/80/27 37/84/29
f 25/85/30 1/83/29 37/84/29 36/86/30
f 29/71/24 20/87/7 45/88/7 44/72/24
f 20/87/7 25/85/30 36/86/30 45/88/7
f 24/5/3 3/81/28 35/82/28 34/6/3
f 28/75/25 19/89/2 43/90/2 42/76/25
f 30/91/1 31/92/1 37/93/1 38/94/1
f 39/95/1 30/91/1 38/94/1
f 36/96/1 37/93/1 33/97/1 44/98/1
f 41/99/1 32/100/1 40/101/1
f 34/102/1 35/103/1 31/92/1 42/104/1
f 43/105/1 34/102/1 42/104/1
f 33/97/1 37/93/1 31/92/1 35/103/1
f 32/100/1 33/97/1 35/103/1 40/101/1
f 45/106/1 36/96/1 44/98/1
f 5/107/1 1/108/1 25/109/1
f 10/20/8 52/110/8 50/111/8 9/17/8
f 18/112/31 12/55/16 62/58/18 78/113/31
f 26/114/1 1/108/1 5/107/1
f 6/22/1 2/115/1 22/23/1
f 11/11/5 15/116/32 71/117/32 64/12/6
f 52/110/8 51/32/8 49/35/8 50/111/8
f 28/118/1 2/115/1 6/22/1
f 7/15/1 3/119/1 24/27/1
f 20/28/1 5/107/1 25/109/1
f 7/15/1 14/24/1 27/120/1
f 27/120/1 3/119/1 7/15/1
f 8/1/1 4/121/1 23/25/1
f 5/107/1 13/21/1 26/114/1
f 16/122/33 9/123/34 61/124/35 60/125/33
f 29/52/1 4/121/1 8/1/1
f 6/22/1 19/26/1 28/118/1
f 54/126/36 48/127/37 70/128/38 74/129/36
f 50/111/8 49/35/8 48/46/8 47/49/8
f 7/15/1 16/54/1 60/130/1
f 46/67/8 17/70/8 51/32/8 52/110/8
f 13/21/1 5/107/1 55/30/1
f 56/31/1 6/22/1 13/21/1
f 20/28/1 8/1/1 15/8/1
f 18/29/1 5/107/1 20/28/1
f 14/24/1 7/15/1 53/14/1
f 54/2/1 8/1/1 14/24/1
f 19/26/1 6/22/1 21/53/1
f 16/54/1 7/15/1 19/26/1
f 58/45/7 59/131/7 6/132/7 57/133/7
f 66/134/2 5/135/2 78/136/2 62/58/2
f 76/137/8 66/134/8 62/58/8 63/57/8
f 65/13/8 64/12/8 67/138/8 70/128/8
f 64/12/2 71/139/2 8/140/2 67/138/2
f 57/133/15 6/141/15 77/142/15 69/143/15
f 67/138/14 8/144/14 74/145/14 70/128/14
f 68/146/7 7/147/7 60/148/7 61/124/7
f 75/62/14 79/149/14 7/150/14 68/146/14
f 76/137/15 80/151/15 5/152/15 66/134/15
f 61/124/8 72/153/8 75/62/8 68/146/8
f 57/133/8 69/143/8 73/154/8 58/45/8
f 9/123/34 50/155/4 72/153/4 61/124/35
f 6/22/1 56/31/1 77/156/1
f 55/30/1 5/107/1 80/157/1
f 50/158/39 47/59/19 75/62/21 72/153/39
f 21/53/1 6/22/1 59/159/1
f 5/107/1 18/29/1 78/160/1
f 48/127/37 49/161/40 65/13/40 70/128/38
f 56/162/41 46/163/42 69/143/43 77/164/41
f 46/163/42 52/165/39 73/154/39 69/143/43
f 52/166/17 10/42/11 58/45/13 73/154/17
f 17/167/44 55/168/45 80/169/45 76/137/46
f 51/170/40 17/167/44 76/137/46 63/57/40
