# Blender 5.0.1
# www.blender.org
mtllib buttonButtonPart.mtl
o Cube.001
v -0.530488 0.062207 0.530488
v -0.530488 0.062207 -0.530487
v 0.530488 0.062207 -0.530488
v 0.530488 0.062207 0.530487
v -0.830385 0.062207 0.830385
v -0.830385 0.062207 -0.830385
v 0.830385 0.062207 -0.830385
v 0.830385 0.062207 0.830385
v 0.270968 0.183715 -0.812905
v -0.270968 0.183715 -0.812905
v 0.270968 0.183715 0.812905
v -0.270968 0.183715 0.812905
v -0.750223 0.062206 0.000000
v 0.750223 0.062207 -0.000000
v 0.270968 0.062207 0.812905
v 0.270968 0.062207 -0.812905
v -0.812905 0.183715 0.270968
v -0.270968 0.062207 0.812905
v -0.000000 0.062207 -0.750223
v 0.000000 0.062207 0.750223
v -0.270968 0.062207 -0.812905
v -0.693115 0.062206 -0.287098
v 0.693115 0.062207 0.287098
v 0.287098 0.062207 -0.693115
v -0.287098 0.062207 0.693115
v -0.693115 0.062206 0.287098
v 0.693115 0.062207 -0.287098
v -0.287098 0.062207 -0.693115
v 0.287098 0.062207 0.693115
v -0.693115 0.131463 -0.287098
v -0.530488 0.131463 -0.530487
v 0.693115 0.131463 0.287098
v 0.530488 0.131463 0.530487
v 0.287098 0.131463 -0.693115
v 0.530488 0.131463 -0.530488
v -0.287098 0.131463 0.693115
v -0.530488 0.131463 0.530488
v -0.693115 0.131463 0.287098
v -0.750223 0.131463 0.000000
v 0.693115 0.131463 -0.287098
v 0.750223 0.131463 -0.000000
v -0.287098 0.131463 -0.693115
v -0.000000 0.131463 -0.750223
v 0.287098 0.131463 0.693115
v 0.000000 0.131463 0.750223
v -0.812905 0.183715 -0.270968
v 0.812905 0.183715 -0.270968
v 0.812905 0.183715 0.270968
v 0.270968 0.183715 0.270968
v 0.270968 0.183715 -0.270968
v -0.270968 0.183715 0.270968
v -0.270968 0.183715 -0.270968
v 0.812905 0.062207 -0.270968
v 0.812905 0.062207 0.270968
v -0.812905 0.062207 0.270968
v -0.812905 0.062207 -0.270968
v -0.830385 0.202274 -0.830385
v -0.303588 0.202274 -0.830385
v -0.303588 0.062207 -0.830385
v 0.300441 0.062207 -0.830385
v 0.300441 0.202274 -0.830385
v -0.303588 0.202274 0.830385
v -0.303588 0.202274 0.316041
v 0.300441 0.202274 0.830385
v 0.300441 0.202274 0.316041
v -0.830385 0.202274 0.830385
v 0.830385 0.202274 0.830385
v 0.830385 0.202274 -0.830385
v -0.830385 0.202274 -0.303739
v 0.830385 0.202274 0.316041
v 0.300441 0.062207 0.830385
v 0.300441 0.202274 -0.303739
v -0.303588 0.202274 -0.303739
v 0.830385 0.062207 0.316041
v 0.830385 0.202274 -0.303739
v -0.830385 0.202274 0.316041
v -0.830385 0.062207 -0.303739
v -0.303588 0.062207 0.830385
v 0.830385 0.062207 -0.303739
v -0.830385 0.062207 0.316041
v 0.280447 0.116498 -0.677060
v 0.518199 0.116498 -0.518199
v 0.677060 0.116498 -0.280447
v 0.732845 0.116498 -0.000000
v 0.677060 0.116498 0.280447
v 0.518199 0.116498 0.518199
v 0.280447 0.116498 0.677060
v -0.000000 0.116498 0.732845
v -0.280448 0.116498 0.677060
v -0.518199 0.116498 0.518199
v -0.677060 0.116498 0.280447
v -0.732845 0.116498 -0.000000
v -0.677060 0.116498 -0.280447
v -0.518199 0.116498 -0.518199
v -0.280448 0.116498 -0.677060
v -0.000000 0.116498 -0.732845
v 0.280447 0.087845 -0.677060
v 0.518199 0.087845 -0.518199
v 0.677060 0.087845 -0.280447
v 0.732845 0.087845 -0.000000
v 0.677060 0.087845 0.280447
v 0.518199 0.087845 0.518199
v 0.280447 0.087845 0.677060
v -0.000000 0.087845 0.732845
v -0.280448 0.087845 0.677060
v -0.518199 0.087845 0.518199
v -0.677060 0.087845 0.280447
v -0.732845 0.087845 -0.000000
v -0.677060 0.087845 -0.280447
v -0.518199 0.087845 -0.518199
v -0.280448 0.087845 -0.677060
v -0.000000 0.087845 -0.732845
v 0.270135 0.116498 -0.652163
v 0.499144 0.116498 -0.499144
v 0.652163 0.116498 -0.270135
v 0.705896 0.116498 -0.000000
v 0.652163 0.116498 0.270135
v 0.499144 0.116498 0.499144
v 0.270135 0.116498 0.652163
v -0.000000 0.116498 0.705896
v -0.270135 0.116498 0.652163
v -0.499144 0.116498 0.499144
v -0.652163 0.116498 0.270135
v -0.705896 0.116498 -0.000000
v -0.652163 0.116498 -0.270135
v -0.499144 0.116498 -0.499144
v -0.270135 0.116498 -0.652163
v -0.000000 0.116498 -0.705896
v 0.270135 0.087845 -0.652163
v 0.499144 0.087845 -0.499144
v 0.652163 0.087845 -0.270135
v 0.705896 0.087845 -0.000000
v 0.652163 0.087845 0.270135
v 0.499144 0.087845 0.499144
v 0.270135 0.087845 0.652163
v -0.000000 0.087845 0.705896
v -0.270135 0.087845 0.652163
v -0.499144 0.087845 0.499144
v -0.652163 0.087845 0.270135
v -0.705896 0.087845 -0.000000
v -0.652163 0.087845 -0.270135
v -0.499144 0.087845 -0.499144
v -0.270135 0.087845 -0.652163
v -0.000000 0.087845 -0.705896
v -0.724656 0.078692 0.014077
v -0.724656 0.106847 0.014077
v -0.724656 0.078692 -0.014077
v -0.724656 0.106847 -0.014077
v 0.724656 0.078692 0.014077
v 0.724656 0.106847 0.014077
v 0.724656 0.078692 -0.014077
v 0.724656 0.106847 -0.014077
v 0.014077 0.089637 0.724656
v 0.014077 0.117792 0.724656
v -0.014077 0.089637 0.724656
v -0.014077 0.117792 0.724656
v 0.014077 0.089637 -0.724656
v 0.014077 0.117792 -0.724656
v -0.014077 0.089637 -0.724656
v -0.014077 0.117792 -0.724656
vn -0.0000 -1.0000 -0.0000
vn -0.0000 -0.0000 1.0000
vn -0.3827 -0.0000 0.9239
vn -0.5329 0.8462 -0.0000
vn -0.6538 0.5265 0.5434
vn -0.6541 0.5381 0.5315
vn -0.0000 -0.0000 -1.0000
vn -0.0000 1.0000 -0.0000
vn -0.9239 -0.0000 -0.3827
vn -0.7071 -0.0000 -0.7071
vn 0.6154 0.5494 -0.5652
vn 0.4723 -0.0000 -0.8814
vn 0.6157 0.5605 -0.5539
vn 1.0000 -0.0000 -0.0000
vn -1.0000 -0.0000 -0.0000
vn 0.6154 0.5494 0.5652
vn 0.4945 0.8692 -0.0000
vn 0.6157 0.5605 0.5539
vn 0.5661 0.5504 0.6137
vn 0.8823 -0.0000 0.4706
vn 0.5549 0.5615 0.6139
vn 0.9239 -0.0000 0.3827
vn 0.7071 -0.0000 0.7071
vn -0.3827 -0.0000 -0.9239
vn 0.3827 -0.0000 0.9239
vn -0.9239 -0.0000 0.3827
vn 0.9239 -0.0000 -0.3827
vn -0.7071 -0.0000 0.7071
vn 0.7071 -0.0000 -0.7071
vn 0.3827 -0.0000 -0.9239
vn 0.4723 -0.0000 0.8814
vn -0.5101 -0.0000 0.8601
vn -0.5101 -0.0000 -0.8601
vn -0.6538 0.5265 -0.5434
vn -0.6541 0.5381 -0.5315
vn 0.9323 -0.0000 -0.3616
vn 0.6216 0.6095 -0.4920
vn 0.6124 0.6186 -0.4922
vn -0.0000 0.8702 0.4928
vn -0.0000 0.9247 -0.3807
vn -0.8823 -0.0000 0.4706
vn -0.5661 0.5504 0.6137
vn -0.5549 0.5615 0.6139
vn -0.6216 0.6095 -0.4920
vn -0.9323 -0.0000 -0.3616
vn -0.6124 0.6186 -0.4922
vn -0.0000 -0.6657 -0.7462
vn -0.2856 -0.6657 -0.6894
vn -0.2856 0.6657 -0.6894
vn -0.0000 0.6657 -0.7462
vn -0.5276 -0.6657 -0.5276
vn -0.5276 0.6657 -0.5276
vn -0.6894 -0.6657 -0.2856
vn -0.6894 0.6657 -0.2856
vn -0.7462 -0.6657 -0.0000
vn -0.7462 0.6657 -0.0000
vn -0.6894 -0.6657 0.2856
vn -0.6894 0.6657 0.2856
vn -0.5276 -0.6657 0.5276
vn -0.5276 0.6657 0.5276
vn -0.2856 -0.6657 0.6894
vn -0.2856 0.6657 0.6894
vn -0.0000 -0.6657 0.7462
vn -0.0000 0.6657 0.7462
vn 0.2856 -0.6657 0.6894
vn 0.2856 0.6657 0.6894
vn 0.5276 -0.6657 0.5276
vn 0.5276 0.6657 0.5276
vn 0.6894 -0.6657 0.2856
vn 0.6894 0.6657 0.2856
vn 0.7462 -0.6657 -0.0000
vn 0.7462 0.6657 -0.0000
vn 0.6894 -0.6657 -0.2856
vn 0.6894 0.6657 -0.2856
vn 0.5276 -0.6657 -0.5276
vn 0.5276 0.6657 -0.5276
vn 0.2856 -0.6657 -0.6894
vn 0.2856 0.6657 -0.6894
vn 0.6071 -0.7538 -0.2515
vn 0.4647 -0.7538 -0.4647
vn 0.6071 0.7538 0.2515
vn 0.4647 0.7538 0.4647
vn -0.0000 0.7538 0.6571
vn -0.2515 0.7538 0.6071
vn 0.6571 -0.7538 -0.0000
vn 0.2515 0.7538 0.6071
vn -0.4647 0.7538 0.4647
vn 0.6071 -0.7538 0.2515
vn -0.6071 0.7538 0.2515
vn 0.4647 -0.7538 0.4647
vn -0.2515 -0.7538 0.6071
vn -0.0000 -0.7538 0.6571
vn -0.6571 0.7538 -0.0000
vn 0.2515 -0.7538 0.6071
vn -0.4647 -0.7538 0.4647
vn -0.6071 0.7538 -0.2515
vn -0.6071 -0.7538 0.2515
vn -0.4647 0.7538 -0.4647
vn -0.6571 -0.7538 -0.0000
vn -0.2515 0.7538 -0.6071
vn -0.6071 -0.7538 -0.2515
vn -0.0000 0.7538 -0.6571
vn -0.4647 -0.7538 -0.4647
vn 0.2515 0.7538 -0.6071
vn -0.2515 -0.7538 -0.6071
vn 0.4647 0.7538 -0.4647
vn -0.0000 -0.7538 -0.6571
vn 0.6071 0.7538 -0.2515
vn 0.2515 -0.7538 -0.6071
vn 0.6571 0.7538 -0.0000
vn -0.0000 -0.7071 -0.7071
vn -0.0000 0.7071 -0.7071
vn -0.0000 -0.7071 0.7071
vn -0.0000 0.7071 0.7071
vn -0.7071 -0.7071 -0.0000
vn -0.7071 0.7071 -0.0000
vn 0.7071 -0.7071 -0.0000
vn 0.7071 0.7071 -0.0000
vt 0.747161 0.808697
vt 0.743788 0.700750
vt 0.747161 0.709448
vt 0.001011 0.951878
vt 0.001011 0.895393
vt 0.014375 0.895393
vt 0.014375 0.951878
vt 0.639214 0.805324
vt 0.644901 0.808697
vt 0.957112 0.615517
vt 0.852538 0.615517
vt 0.849165 0.608796
vt 0.948414 0.608796
vt 0.743788 0.596176
vt 0.747161 0.488229
vt 0.747161 0.589853
vt 0.375147 0.727087
vt 0.391726 0.743666
vt 0.317781 0.817611
vt 0.301202 0.801032
vt 0.442161 0.648463
vt 0.426693 0.488229
vt 0.453181 0.593064
vt 0.731692 0.648463
vt 0.720673 0.703863
vt 0.586927 0.503698
vt 0.642326 0.514717
vt 0.586927 0.793229
vt 0.534640 0.805324
vt 0.430066 0.700750
vt 0.430066 0.596176
vt 0.153312 0.653142
vt 0.079367 0.579197
vt 0.153312 0.505252
vt 0.227257 0.579197
vt 0.062788 0.562618
vt 0.136733 0.488673
vt 0.001011 0.669454
vt 0.001011 0.612969
vt 0.014375 0.612969
vt 0.014375 0.669454
vt 0.448374 0.970415
vt 0.433813 0.988792
vt 0.428216 0.984357
vt 0.445001 0.963173
vt 0.301202 0.505252
vt 0.317781 0.488673
vt 0.391726 0.562618
vt 0.375147 0.579197
vt 0.001011 0.725939
vt 0.014375 0.725939
vt 0.642326 0.782209
vt 0.534640 0.491602
vt 0.639214 0.491602
vt 0.709355 0.970389
vt 0.604782 0.970389
vt 0.613479 0.963147
vt 0.712729 0.963147
vt 0.791140 0.819801
vt 0.772804 0.805188
vt 0.777271 0.799583
vt 0.798408 0.816428
vt 0.001011 0.217576
vt 0.001011 0.161092
vt 0.014375 0.161092
vt 0.014375 0.217576
vt 0.153312 0.801032
vt 0.136733 0.817611
vt 0.062788 0.743666
vt 0.079367 0.727087
vt 0.001011 0.556485
vt 0.014375 0.556485
vt 0.001011 0.274061
vt 0.014375 0.274061
vt 0.001011 0.104607
vt 0.014375 0.104607
vt 0.001011 0.782423
vt 0.014375 0.782424
vt 0.001011 0.330546
vt 0.014375 0.330546
vt 0.001011 0.838908
vt 0.014375 0.838908
vt 0.001011 0.387031
vt 0.014375 0.387031
vt 0.001011 0.443515
vt 0.014375 0.443515
vt 0.001011 0.500000
vt 0.014375 0.500000
vt 0.001011 0.048122
vt 0.014375 0.048122
vt 0.552989 0.237740
vt 0.531373 0.185555
vt 0.701599 0.299296
vt 0.645115 0.299296
vt 0.592930 0.277681
vt 0.753785 0.277681
vt 0.815341 0.129070
vt 0.815341 0.185555
vt 0.753785 0.036944
vt 0.793725 0.076885
vt 0.701600 0.015329
vt 0.592930 0.036944
vt 0.645115 0.015329
vt 0.531373 0.129070
vt 0.552989 0.076885
vt 0.793725 0.237740
vt 0.426693 0.808697
vt 0.484562 0.750828
vt 0.531528 0.782209
vt 0.227257 0.727087
vt 0.301202 0.653142
vt 0.723917 0.988766
vt 0.729514 0.984331
vt 0.453181 0.703863
vt 0.484562 0.546099
vt 0.839120 0.634744
vt 0.833697 0.630960
vt 0.531528 0.514717
vt 0.689292 0.546099
vt 0.720673 0.593064
vt 0.689292 0.750828
vt 0.910076 0.944636
vt 0.896658 0.925408
vt 0.900031 0.918687
vt 0.915498 0.940852
vt 0.973119 0.492141
vt 0.957820 0.509909
vt 0.948414 0.506536
vt 0.966050 0.486055
vt 0.644901 0.488229
vt 0.417973 0.963173
vt 0.417973 0.861521
vt 0.445001 0.861521
vt 0.712729 0.861495
vt 0.739756 0.861495
vt 0.739756 0.963147
vt 0.613479 0.861495
vt 0.849165 0.506536
vt 0.822137 0.608796
vt 0.822137 0.506536
vt 0.445001 0.834493
vt 0.546625 0.834493
vt 0.546625 0.861521
vt 0.849165 0.479508
vt 0.948414 0.479508
vt 0.900031 0.816428
vt 0.927059 0.816428
vt 0.927059 0.918687
vt 0.798408 0.789400
vt 0.900031 0.789400
vt 0.613479 0.834467
vt 0.712729 0.834467
vt 0.798408 0.918687
vt 0.546625 0.963173
vt 0.792084 0.925408
vt 0.426693 0.589853
vt 0.426693 0.709448
vt 0.791140 0.924375
vt 0.528345 0.488229
vt 0.528346 0.808697
vt 0.957820 0.614483
vt 0.572228 0.850281
vt 0.553892 0.864894
vt 0.567762 0.844676
vt 0.553892 0.969468
vt 0.552948 0.970415
vt 0.604073 0.864868
vt 0.588774 0.847100
vt 0.595843 0.841013
vt 0.604073 0.969442
vt 0.036427 0.907090
vt 0.035375 0.851946
vt 0.040941 0.851789
vt 0.042392 0.906963
vt 0.034395 0.798470
vt 0.040062 0.798359
vt 0.033560 0.745033
vt 0.039227 0.744918
vt 0.032863 0.691581
vt 0.038531 0.691480
vt 0.032301 0.638114
vt 0.037971 0.638028
vt 0.031876 0.584631
vt 0.037547 0.584576
vt 0.031653 0.531149
vt 0.037283 0.531091
vt 0.031620 0.478653
vt 0.037146 0.478610
vt 0.031776 0.427165
vt 0.037344 0.427131
vt 0.031684 0.373966
vt 0.037423 0.373952
vt 0.032123 0.319103
vt 0.037940 0.319137
vt 0.032717 0.264259
vt 0.038533 0.264295
vt 0.033451 0.209412
vt 0.039267 0.209478
vt 0.034389 0.154576
vt 0.040161 0.154641
vt 0.035422 0.100769
vt 0.040984 0.100827
vt 0.036256 0.046001
vt 0.042174 0.046127
vt 0.027093 0.638118
vt 0.026668 0.584626
vt 0.044286 0.744905
vt 0.045120 0.798324
vt 0.047018 0.047212
vt 0.045917 0.100937
vt 0.027656 0.691598
vt 0.046212 0.851705
vt 0.045299 0.154780
vt 0.028355 0.745063
vt 0.047284 0.905848
vt 0.044455 0.209611
vt 0.029188 0.798514
vt 0.030387 0.100689
vt 0.030789 0.047019
vt 0.043722 0.264419
vt 0.030292 0.852013
vt 0.028906 0.154468
vt 0.043131 0.319240
vt 0.031214 0.906145
vt 0.028112 0.209292
vt 0.042865 0.374007
vt 0.027376 0.264148
vt 0.041972 0.427165
vt 0.026780 0.319008
vt 0.042063 0.478656
vt 0.026424 0.373920
vt 0.042296 0.531125
vt 0.026680 0.427139
vt 0.042608 0.584597
vt 0.026749 0.478630
vt 0.043032 0.638041
vt 0.026302 0.531155
vt 0.043591 0.691479
vt 0.051513 0.101041
vt 0.050784 0.154879
vt 0.049991 0.209695
vt 0.049259 0.264496
vt 0.048667 0.319298
vt 0.048320 0.374078
vt 0.047268 0.427220
vt 0.047309 0.478657
vt 0.047641 0.531102
vt 0.048007 0.584563
vt 0.048430 0.638001
vt 0.048988 0.691426
vt 0.049681 0.744837
vt 0.050515 0.798234
vt 0.051646 0.851613
vt 0.052606 0.905739
vt 0.052606 0.047325
vt 0.806811 0.765730
vt 0.801379 0.765730
vt 0.801379 0.486066
vt 0.806811 0.486066
vt 0.790513 0.486066
vt 0.795946 0.486066
vt 0.795946 0.765730
vt 0.790513 0.765730
vt 0.812244 0.486066
vt 0.812244 0.765730
vt 0.787606 0.765730
vt 0.782174 0.765730
vt 0.782174 0.486066
vt 0.787606 0.486066
vt 0.771308 0.486066
vt 0.776741 0.486066
vt 0.776741 0.765730
vt 0.771308 0.765730
vt 0.765875 0.765730
vt 0.765875 0.486066
s 1
usemtl ButtonMaterial
f 8/1/1 54/2/1 74/3/1
f 19/4/2 24/5/3 34/6/3 43/7/2
f 15/8/1 8/1/1 71/9/1
f 49/10/4 11/11/5 64/12/6 65/13/4
f 53/14/1 7/15/1 79/16/1
f 9/17/7 16/18/7 21/19/7 10/20/7
f 13/21/1 6/22/1 22/23/1
f 14/24/1 8/1/1 23/25/1
f 19/26/1 7/15/1 24/27/1
f 20/28/1 15/8/1 18/29/1
f 14/24/1 53/14/1 54/2/1
f 13/21/1 55/30/1 56/31/1
f 51/32/8 12/33/8 11/34/8 49/35/8
f 12/33/2 18/36/2 15/37/2 11/34/2
f 23/38/9 4/39/10 33/40/10 32/41/9
f 10/42/11 21/43/12 59/44/12 58/45/13
f 48/46/14 54/47/14 53/48/14 47/49/14
f 14/50/15 23/38/9 32/41/9 41/51/15
f 8/1/1 20/28/1 29/52/1
f 19/26/1 21/53/1 16/54/1
f 12/55/16 51/56/17 63/57/17 62/58/18
f 47/59/19 53/60/20 79/61/20 75/62/21
f 22/63/22 2/64/23 31/65/23 30/66/22
f 46/67/15 56/68/15 55/69/15 17/70/15
f 4/39/10 29/71/24 44/72/24 33/40/10
f 13/73/14 22/63/22 30/66/22 39/74/14
f 2/64/23 28/75/25 42/76/25 31/65/23
f 27/77/26 14/50/15 41/51/15 40/78/26
f 26/79/27 13/73/14 39/74/14 38/80/27
f 3/81/28 27/77/26 40/78/26 35/82/28
f 1/83/29 26/79/27 38/80/27 37/84/29
f 25/85/30 1/83/29 37/84/29 36/86/30
f 29/71/24 20/87/7 45/88/7 44/72/24
f 20/87/7 25/85/30 36/86/30 45/88/7
f 24/5/3 3/81/28 35/82/28 34/6/3
f 28/75/25 19/89/2 43/90/2 42/76/25
f 30/91/1 31/92/1 37/93/1 38/94/1
f 39/95/1 30/91/1 38/94/1
f 36/96/1 37/93/1 33/97/1 44/98/1
f 41/99/1 32/100/1 40/101/1
f 34/102/1 35/103/1 31/92/1 42/104/1
f 43/105/1 34/102/1 42/104/1
f 33/97/1 37/93/1 31/92/1 35/103/1
f 32/100/1 33/97/1 35/103/1 40/101/1
f 45/106/1 36/96/1 44/98/1
f 5/107/1 1/108/1 25/109/1
f 10/20/8 52/110/8 50/111/8 9/17/8
f 18/112/31 12/55/16 62/58/18 78/113/31
f 26/114/1 1/108/1 5/107/1
f 6/22/1 2/115/1 22/23/1
f 11/11/5 15/116/32 71/117/32 64/12/6
f 52/110/8 51/32/8 49/35/8 50/111/8
f 28/118/1 2/115/1 6/22/1
f 7/15/1 3/119/1 24/27/1
f 20/28/1 5/107/1 25/109/1
f 7/15/1 14/24/1 27/120/1
f 27/120/1 3/119/1 7/15/1
f 8/1/1 4/121/1 23/25/1
f 5/107/1 13/21/1 26/114/1
f 16/122/33 9/123/34 61/124/35 60/125/33
f 29/52/1 4/121/1 8/1/1
f 6/22/1 19/26/1 28/118/1
f 54/126/36 48/127/37 70/128/38 74/129/36
f 50/111/8 49/35/8 48/46/8 47/49/8
f 7/15/1 16/54/1 60/130/1
f 46/67/8 17/70/8 51/32/8 52/110/8
f 13/21/1 5/107/1 55/30/1
f 56/31/1 6/22/1 13/21/1
f 20/28/1 8/1/1 15/8/1
f 18/29/1 5/107/1 20/28/1
f 14/24/1 7/15/1 53/14/1
f 54/2/1 8/1/1 14/24/1
f 19/26/1 6/22/1 21/53/1
f 16/54/1 7/15/1 19/26/1
f 58/45/7 59/131/7 6/132/7 57/133/7
f 66/134/2 5/135/2 78/136/2 62/58/2
f 76/137/8 66/134/8 62/58/8 63/57/8
f 65/13/8 64/12/8 67/138/8 70/128/8
f 64/12/2 71/139/2 8/140/2 67/138/2
f 57/133/15 6/141/15 77/142/15 69/143/15
f 67/138/14 8/144/14 74/145/14 70/128/14
f 68/146/7 7/147/7 60/148/7 61/124/7
f 75/62/14 79/149/14 7/150/14 68/146/14
f 76/137/15 80/151/15 5/152/15 66/134/15
f 61/124/8 72/153/8 75/62/8 68/146/8
f 57/133/8 69/143/8 73/154/8 58/45/8
f 9/123/34 50/155/4 72/153/4 61/124/35
f 6/22/1 56/31/1 77/156/1
f 55/30/1 5/107/1 80/157/1
f 50/158/39 47/59/19 75/62/21 72/153/39
f 21/53/1 6/22/1 59/159/1
f 5/107/1 18/29/1 78/160/1
f 48/127/37 49/161/40 65/13/40 70/128/38
f 56/162/41 46/163/42 69/143/43 77/164/41
f 46/163/42 52/165/39 73/154/39 69/143/43
f 52/166/17 10/42/11 58/45/13 73/154/17
f 17/167/44 55/168/45 80/169/45 76/137/46
f 51/170/40 17/167/44 76/137/46 63/57/40
f 112/171/47 111/172/48 95/173/49 96/174/50
f 111/172/48 110/175/51 94/176/52 95/173/49
f 110/175/51 109/177/53 93/178/54 94/176/52
f 109/177/53 108/179/55 92/180/56 93/178/54
f 108/179/55 107/181/57 91/182/58 92/180/56
f 107/181/57 106/183/59 90/184/60 91/182/58
f 106/183/59 105/185/61 89/186/62 90/184/60
f 105/185/61 104/187/63 88/188/64 89/186/62
f 104/187/63 103/189/65 87/190/66 88/188/64
f 103/189/65 102/191/67 86/192/68 87/190/66
f 102/191/67 101/193/69 85/194/70 86/192/68
f 101/193/69 100/195/71 84/196/72 85/194/70
f 100/195/71 99/197/73 83/198/74 84/196/72
f 99/197/73 98/199/75 82/200/76 83/198/74
f 98/199/75 97/201/77 81/202/78 82/200/76
f 97/201/77 112/203/47 96/204/50 81/202/78
f 106/183/59 107/181/57 139/205/79 138/206/80
f 94/176/52 93/178/54 125/207/81 126/208/82
f 81/202/78 96/204/50 128/209/83 113/210/84
f 107/181/57 108/179/55 140/211/85 139/205/79
f 95/173/49 94/176/52 126/208/82 127/212/86
f 82/200/76 81/202/78 113/210/84 114/213/87
f 108/179/55 109/177/53 141/214/88 140/211/85
f 96/174/50 95/173/49 127/212/86 128/215/83
f 83/198/74 82/200/76 114/213/87 115/216/89
f 109/177/53 110/175/51 142/217/90 141/214/88
f 112/203/47 97/201/77 129/218/91 144/219/92
f 84/196/72 83/198/74 115/216/89 116/220/93
f 110/175/51 111/172/48 143/221/94 142/217/90
f 97/201/77 98/199/75 130/222/95 129/218/91
f 85/194/70 84/196/72 116/220/93 117/223/96
f 111/172/48 112/171/47 144/224/92 143/221/94
f 98/199/75 99/197/73 131/225/97 130/222/95
f 86/192/68 85/194/70 117/223/96 118/226/98
f 99/197/73 100/195/71 132/227/99 131/225/97
f 87/190/66 86/192/68 118/226/98 119/228/100
f 100/195/71 101/193/69 133/229/101 132/227/99
f 88/188/64 87/190/66 119/228/100 120/230/102
f 101/193/69 102/191/67 134/231/103 133/229/101
f 89/186/62 88/188/64 120/230/102 121/232/104
f 102/191/67 103/189/65 135/233/105 134/231/103
f 90/184/60 89/186/62 121/232/104 122/234/106
f 103/189/65 104/187/63 136/235/107 135/233/105
f 91/182/58 90/184/60 122/234/106 123/236/108
f 104/187/63 105/185/61 137/237/109 136/235/107
f 92/180/56 91/182/58 123/236/108 124/238/110
f 105/185/61 106/183/59 138/206/80 137/237/109
f 93/178/54 92/180/56 124/238/110 125/207/81
f 129/239/91 130/240/95 114/213/87 113/210/84
f 130/240/95 131/241/97 115/216/89 114/213/87
f 131/241/97 132/242/99 116/220/93 115/216/89
f 132/242/99 133/243/101 117/223/96 116/220/93
f 133/243/101 134/244/103 118/226/98 117/223/96
f 134/244/103 135/245/105 119/228/100 118/226/98
f 135/245/105 136/246/107 120/230/102 119/228/100
f 136/246/107 137/247/109 121/232/104 120/230/102
f 137/247/109 138/248/80 122/234/106 121/232/104
f 138/248/80 139/249/79 123/236/108 122/234/106
f 139/249/79 140/250/85 124/238/110 123/236/108
f 140/250/85 141/251/88 125/207/81 124/238/110
f 141/251/88 142/252/90 126/208/82 125/207/81
f 142/252/90 143/253/94 127/212/86 126/208/82
f 143/253/94 144/254/92 128/215/83 127/212/86
f 144/255/92 129/239/91 113/210/84 128/209/83
f 147/256/111 148/257/112 152/258/112 151/259/111
f 149/260/113 150/261/114 146/262/114 145/263/113
f 147/256/111 151/259/111 149/264/113 145/265/113
f 152/258/112 148/257/112 146/262/114 150/261/114
f 155/266/115 156/267/116 160/268/116 159/269/115
f 157/270/117 158/271/118 154/272/118 153/273/117
f 155/274/115 159/275/115 157/270/117 153/273/117
f 160/268/116 156/267/116 154/272/118 158/271/118
