# Blender 5.0.1
# www.blender.org
mtllib buttonButtonMetalPart.mtl
o Cube.001
v 0.280447 0.116498 -0.677060
v 0.518199 0.116498 -0.518199
v 0.677060 0.116498 -0.280447
v 0.732845 0.116498 -0.000000
v 0.677060 0.116498 0.280447
v 0.518199 0.116498 0.518199
v 0.280447 0.116498 0.677060
v -0.000000 0.116498 0.732845
v -0.280448 0.116498 0.677060
v -0.518199 0.116498 0.518199
v -0.677060 0.116498 0.280447
v -0.732845 0.116498 -0.000000
v -0.677060 0.116498 -0.280447
v -0.518199 0.116498 -0.518199
v -0.280448 0.116498 -0.677060
v -0.000000 0.116498 -0.732845
v 0.280447 0.087845 -0.677060
v 0.518199 0.087845 -0.518199
v 0.677060 0.087845 -0.280447
v 0.732845 0.087845 -0.000000
v 0.677060 0.087845 0.280447
v 0.518199 0.087845 0.518199
v 0.280447 0.087845 0.677060
v -0.000000 0.087845 0.732845
v -0.280448 0.087845 0.677060
v -0.518199 0.087845 0.518199
v -0.677060 0.087845 0.280447
v -0.732845 0.087845 -0.000000
v -0.677060 0.087845 -0.280447
v -0.518199 0.087845 -0.518199
v -0.280448 0.087845 -0.677060
v -0.000000 0.087845 -0.732845
v 0.270135 0.116498 -0.652163
v 0.499144 0.116498 -0.499144
v 0.652163 0.116498 -0.270135
v 0.705896 0.116498 -0.000000
v 0.652163 0.116498 0.270135
v 0.499144 0.116498 0.499144
v 0.270135 0.116498 0.652163
v -0.000000 0.116498 0.705896
v -0.270135 0.116498 0.652163
v -0.499144 0.116498 0.499144
v -0.652163 0.116498 0.270135
v -0.705896 0.116498 -0.000000
v -0.652163 0.116498 -0.270135
v -0.499144 0.116498 -0.499144
v -0.270135 0.116498 -0.652163
v -0.000000 0.116498 -0.705896
v 0.270135 0.087845 -0.652163
v 0.499144 0.087845 -0.499144
v 0.652163 0.087845 -0.270135
v 0.705896 0.087845 -0.000000
v 0.652163 0.087845 0.270135
v 0.499144 0.087845 0.499144
v 0.270135 0.087845 0.652163
v -0.000000 0.087845 0.705896
v -0.270135 0.087845 0.652163
v -0.499144 0.087845 0.499144
v -0.652163 0.087845 0.270135
v -0.705896 0.087845 -0.000000
v -0.652163 0.087845 -0.270135
v -0.499144 0.087845 -0.499144
v -0.270135 0.087845 -0.652163
v -0.000000 0.087845 -0.705896
v -0.724656 0.078692 0.014077
v -0.724656 0.106847 0.014077
v -0.724656 0.078692 -0.014077
v -0.724656 0.106847 -0.014077
v 0.724656 0.078692 0.014077
v 0.724656 0.106847 0.014077
v 0.724656 0.078692 -0.014077
v 0.724656 0.106847 -0.014077
v 0.014077 0.089637 0.724656
v 0.014077 0.117792 0.724656
v -0.014077 0.089637 0.724656
v -0.014077 0.117792 0.724656
v 0.014077 0.089637 -0.724656
v 0.014077 0.117792 -0.724656
v -0.014077 0.089637 -0.724656
v -0.014077 0.117792 -0.724656
vn 0.2856 0.6657 -0.6894
vn 0.5276 0.6657 -0.5276
vn 0.6894 0.6657 -0.2856
vn 0.7462 0.6657 -0.0000
vn 0.6894 0.6657 0.2856
vn 0.5276 0.6657 0.5276
vn 0.2856 0.6657 0.6894
vn -0.0000 0.6657 0.7462
vn -0.2856 0.6657 0.6894
vn -0.5276 0.6657 0.5276
vn -0.6894 0.6657 0.2856
vn -0.7462 0.6657 -0.0000
vn -0.6894 0.6657 -0.2856
vn -0.5276 0.6657 -0.5276
vn -0.2856 0.6657 -0.6894
vn -0.0000 0.6657 -0.7462
vn 0.2856 -0.6657 -0.6894
vn 0.5276 -0.6657 -0.5276
vn 0.6894 -0.6657 -0.2856
vn 0.7462 -0.6657 -0.0000
vn 0.6894 -0.6657 0.2856
vn 0.5276 -0.6657 0.5276
vn 0.2856 -0.6657 0.6894
vn -0.0000 -0.6657 0.7462
vn -0.2856 -0.6657 0.6894
vn -0.5276 -0.6657 0.5276
vn -0.6894 -0.6657 0.2856
vn -0.7462 -0.6657 -0.0000
vn -0.6894 -0.6657 -0.2856
vn -0.5276 -0.6657 -0.5276
vn -0.2856 -0.6657 -0.6894
vn -0.0000 -0.6657 -0.7462
vn -0.2515 0.7538 0.6071
vn -0.4647 0.7538 0.4647
vn -0.6071 0.7538 0.2515
vn -0.6571 0.7538 -0.0000
vn -0.6071 0.7538 -0.2515
vn -0.4647 0.7538 -0.4647
vn -0.2515 0.7538 -0.6071
vn -0.0000 0.7538 -0.6571
vn 0.2515 0.7538 -0.6071
vn 0.4647 0.7538 -0.4647
vn 0.6071 0.7538 -0.2515
vn 0.6571 0.7538 -0.0000
vn 0.6071 0.7538 0.2515
vn 0.4647 0.7538 0.4647
vn 0.2515 0.7538 0.6071
vn -0.0000 0.7538 0.6571
vn -0.2515 -0.7538 0.6071
vn -0.4647 -0.7538 0.4647
vn -0.6071 -0.7538 0.2515
vn -0.6571 -0.7538 -0.0000
vn -0.6071 -0.7538 -0.2515
vn -0.4647 -0.7538 -0.4647
vn -0.2515 -0.7538 -0.6071
vn -0.0000 -0.7538 -0.6571
vn 0.2515 -0.7538 -0.6071
vn 0.4647 -0.7538 -0.4647
vn 0.6071 -0.7538 -0.2515
vn 0.6571 -0.7538 -0.0000
vn 0.6071 -0.7538 0.2515
vn 0.4647 -0.7538 0.4647
vn 0.2515 -0.7538 0.6071
vn -0.0000 -0.7538 0.6571
vn -0.0000 -0.7071 0.7071
vn -0.0000 0.7071 0.7071
vn -0.0000 -0.7071 -0.7071
vn -0.0000 0.7071 -0.7071
vn 0.7071 -0.7071 -0.0000
vn 0.7071 0.7071 -0.0000
vn -0.7071 -0.7071 -0.0000
vn -0.7071 0.7071 -0.0000
vt 0.036427 0.907090
vt 0.035375 0.851946
vt 0.040941 0.851789
vt 0.042392 0.906963
vt 0.034395 0.798470
vt 0.040062 0.798359
vt 0.033560 0.745033
vt 0.039227 0.744918
vt 0.032863 0.691581
vt 0.038531 0.691480
vt 0.032301 0.638114
vt 0.037971 0.638028
vt 0.031876 0.584631
vt 0.037547 0.584576
vt 0.031653 0.531149
vt 0.037283 0.531091
vt 0.031620 0.478653
vt 0.037146 0.478610
vt 0.031776 0.427165
vt 0.037344 0.427131
vt 0.031684 0.373966
vt 0.037423 0.373952
vt 0.032123 0.319103
vt 0.037940 0.319137
vt 0.032717 0.264259
vt 0.038533 0.264295
vt 0.033451 0.209412
vt 0.039267 0.209478
vt 0.034389 0.154576
vt 0.040161 0.154641
vt 0.035422 0.100769
vt 0.040984 0.100827
vt 0.036256 0.046001
vt 0.042174 0.046127
vt 0.027093 0.638118
vt 0.026668 0.584626
vt 0.044286 0.744905
vt 0.045120 0.798324
vt 0.047018 0.047212
vt 0.045917 0.100937
vt 0.027656 0.691598
vt 0.046212 0.851705
vt 0.045299 0.154780
vt 0.028355 0.745063
vt 0.047284 0.905848
vt 0.044455 0.209611
vt 0.029188 0.798514
vt 0.030387 0.100689
vt 0.030789 0.047019
vt 0.043722 0.264419
vt 0.030292 0.852013
vt 0.028906 0.154468
vt 0.043131 0.319240
vt 0.031214 0.906145
vt 0.028112 0.209292
vt 0.042865 0.374007
vt 0.027376 0.264148
vt 0.041972 0.427165
vt 0.026780 0.319008
vt 0.042063 0.478656
vt 0.026424 0.373920
vt 0.042296 0.531125
vt 0.026680 0.427139
vt 0.042608 0.584597
vt 0.026749 0.478630
vt 0.043032 0.638041
vt 0.026302 0.531155
vt 0.043591 0.691479
vt 0.051513 0.101041
vt 0.050784 0.154879
vt 0.049991 0.209695
vt 0.049259 0.264496
vt 0.048667 0.319298
vt 0.048320 0.374078
vt 0.047268 0.427220
vt 0.047309 0.478657
vt 0.047641 0.531102
vt 0.048007 0.584563
vt 0.048430 0.638001
vt 0.048988 0.691426
vt 0.049681 0.744837
vt 0.050515 0.798234
vt 0.051646 0.851613
vt 0.052606 0.905739
vt 0.052606 0.047325
vt 0.806811 0.765730
vt 0.801379 0.765730
vt 0.801379 0.486066
vt 0.806811 0.486066
vt 0.790513 0.486066
vt 0.795946 0.486066
vt 0.795946 0.765730
vt 0.790513 0.765730
vt 0.812244 0.486066
vt 0.812244 0.765730
vt 0.787606 0.765730
vt 0.782174 0.765730
vt 0.782174 0.486066
vt 0.787606 0.486066
vt 0.771308 0.486066
vt 0.776741 0.486066
vt 0.776741 0.765730
vt 0.771308 0.765730
vt 0.765875 0.765730
vt 0.765875 0.486066
s 1
usemtl ButtonMaterial
f 32/1/32 31/2/31 15/3/15 16/4/16
f 31/2/31 30/5/30 14/6/14 15/3/15
f 30/5/30 29/7/29 13/8/13 14/6/14
f 29/7/29 28/9/28 12/10/12 13/8/13
f 28/9/28 27/11/27 11/12/11 12/10/12
f 27/11/27 26/13/26 10/14/10 11/12/11
f 26/13/26 25/15/25 9/16/9 10/14/10
f 25/15/25 24/17/24 8/18/8 9/16/9
f 24/17/24 23/19/23 7/20/7 8/18/8
f 23/19/23 22/21/22 6/22/6 7/20/7
f 22/21/22 21/23/21 5/24/5 6/22/6
f 21/23/21 20/25/20 4/26/4 5/24/5
f 20/25/20 19/27/19 3/28/3 4/26/4
f 19/27/19 18/29/18 2/30/2 3/28/3
f 18/29/18 17/31/17 1/32/1 2/30/2
f 17/31/17 32/33/32 16/34/16 1/32/1
f 26/13/26 27/11/27 59/35/59 58/36/58
f 14/6/14 13/8/13 45/37/45 46/38/46
f 1/32/1 16/34/16 48/39/48 33/40/33
f 27/11/27 28/9/28 60/41/60 59/35/59
f 15/3/15 14/6/14 46/38/46 47/42/47
f 2/30/2 1/32/1 33/40/33 34/43/34
f 28/9/28 29/7/29 61/44/61 60/41/60
f 16/4/16 15/3/15 47/42/47 48/45/48
f 3/28/3 2/30/2 34/43/34 35/46/35
f 29/7/29 30/5/30 62/47/62 61/44/61
f 32/33/32 17/31/17 49/48/49 64/49/64
f 4/26/4 3/28/3 35/46/35 36/50/36
f 30/5/30 31/2/31 63/51/63 62/47/62
f 17/31/17 18/29/18 50/52/50 49/48/49
f 5/24/5 4/26/4 36/50/36 37/53/37
f 31/2/31 32/1/32 64/54/64 63/51/63
f 18/29/18 19/27/19 51/55/51 50/52/50
f 6/22/6 5/24/5 37/53/37 38/56/38
f 19/27/19 20/25/20 52/57/52 51/55/51
f 7/20/7 6/22/6 38/56/38 39/58/39
f 20/25/20 21/23/21 53/59/53 52/57/52
f 8/18/8 7/20/7 39/58/39 40/60/40
f 21/23/21 22/21/22 54/61/54 53/59/53
f 9/16/9 8/18/8 40/60/40 41/62/41
f 22/21/22 23/19/23 55/63/55 54/61/54
f 10/14/10 9/16/9 41/62/41 42/64/42
f 23/19/23 24/17/24 56/65/56 55/63/55
f 11/12/11 10/14/10 42/64/42 43/66/43
f 24/17/24 25/15/25 57/67/57 56/65/56
f 12/10/12 11/12/11 43/66/43 44/68/44
f 25/15/25 26/13/26 58/36/58 57/67/57
f 13/8/13 12/10/12 44/68/44 45/37/45
f 49/69/49 50/70/50 34/43/34 33/40/33
f 50/70/50 51/71/51 35/46/35 34/43/34
f 51/71/51 52/72/52 36/50/36 35/46/35
f 52/72/52 53/73/53 37/53/37 36/50/36
f 53/73/53 54/74/54 38/56/38 37/53/37
f 54/74/54 55/75/55 39/58/39 38/56/38
f 55/75/55 56/76/56 40/60/40 39/58/39
f 56/76/56 57/77/57 41/62/41 40/60/40
f 57/77/57 58/78/58 42/64/42 41/62/41
f 58/78/58 59/79/59 43/66/43 42/64/42
f 59/79/59 60/80/60 44/68/44 43/66/43
f 60/80/60 61/81/61 45/37/45 44/68/44
f 61/81/61 62/82/62 46/38/46 45/37/45
f 62/82/62 63/83/63 47/42/47 46/38/46
f 63/83/63 64/84/64 48/45/48 47/42/47
f 64/85/64 49/69/49 33/40/33 48/39/48
f 67/86/67 68/87/68 72/88/68 71/89/67
f 69/90/65 70/91/66 66/92/66 65/93/65
f 67/86/67 71/89/67 69/94/65 65/95/65
f 72/88/68 68/87/68 66/92/66 70/91/66
f 75/96/71 76/97/72 80/98/72 79/99/71
f 77/100/69 78/101/70 74/102/70 73/103/69
f 75/104/71 79/105/71 77/100/69 73/103/69
f 80/98/72 76/97/72 74/102/70 78/101/70
