# Blender 5.0.1
# www.blender.org
mtllib buttonBase.mtl
o Cube
v -1.000000 -0.100000 1.000000
v -1.000000 -0.100000 -1.000000
v 1.000000 -0.100000 1.000000
v 1.000000 -0.100000 -1.000000
v -1.000000 -0.040351 1.000000
v -1.000000 -0.040351 -1.000000
v 1.000000 -0.040351 -1.000000
v 1.000000 -0.040351 1.000000
v -0.934551 -0.040351 0.934551
v -0.842782 0.100000 0.842782
v -0.842782 0.100000 -0.842782
v 0.842782 0.100000 -0.842782
v 0.842782 0.100000 0.842782
v -0.934551 -0.040351 -0.934551
v 0.934551 -0.040351 -0.934551
v 0.934551 -0.040351 0.934551
v -0.934551 0.100000 0.934551
v -0.934551 0.100000 -0.934551
v 0.934551 0.100000 -0.934551
v 0.934551 0.100000 0.934551
v -0.842782 -0.056558 0.842782
v -0.842782 -0.056558 -0.842782
v 0.842782 -0.056558 -0.842782
v 0.842782 -0.056558 0.842782
v -1.000000 -0.100000 -0.308227
v -1.000000 -0.100000 0.308227
v 1.000000 -0.100000 0.308227
v 1.000000 -0.100000 -0.308227
v 1.000000 -0.040351 -0.308227
v 1.000000 -0.040351 0.308227
v -1.000000 -0.040351 0.308227
v -1.000000 -0.040351 -0.308227
v -0.934551 0.100000 0.308227
v -0.934551 0.100000 -0.308227
v 0.934551 0.100000 -0.308227
v 0.934551 0.100000 0.308227
v 0.934551 -0.040351 -0.308227
v 0.934551 -0.040351 0.308227
v -0.934551 -0.040351 0.308227
v -0.934551 -0.040351 -0.308227
v 0.308227 -0.100000 -1.000000
v -0.308227 -0.100000 -1.000000
v -0.308227 -0.100000 1.000000
v 0.308227 -0.100000 1.000000
v 0.308227 -0.040351 1.000000
v -0.308227 -0.040351 1.000000
v -0.308227 -0.040351 -1.000000
v 0.308227 -0.040351 -1.000000
v -0.308227 0.100000 -0.934551
v 0.308227 0.100000 -0.934551
v 0.308227 0.100000 0.934551
v -0.308227 0.100000 0.934551
v 0.308227 -0.040351 0.934551
v -0.308227 -0.040351 0.934551
v -0.308227 -0.040351 -0.934551
v 0.308227 -0.040351 -0.934551
v -1.049779 -0.100000 -0.308227
v -1.049779 -0.100000 0.308227
v 1.049779 -0.100000 0.308227
v 1.049779 -0.100000 -0.308227
v 1.049779 0.008041 -0.308227
v 1.049779 0.008041 0.308227
v -1.049779 0.008041 0.308227
v -1.049779 0.008041 -0.308227
v -0.984330 0.100000 0.308227
v -0.984330 0.100000 -0.308227
v 0.984330 0.100000 -0.308227
v 0.984330 0.100000 0.308227
v 0.984330 0.008041 -0.308227
v 0.984330 0.008041 0.308227
v -0.984330 0.008041 0.308227
v -0.984330 0.008041 -0.308227
v 0.308227 -0.100000 -1.049779
v -0.308227 -0.100000 -1.049779
v -0.308227 -0.100000 1.049779
v 0.308227 -0.100000 1.049779
v 0.308227 0.008041 1.049779
v -0.308227 0.008041 1.049779
v -0.308227 0.008041 -1.049779
v 0.308227 0.008041 -1.049779
v -0.308227 0.100000 -0.984330
v 0.308227 0.100000 -0.984330
v 0.308227 0.100000 0.984330
v -0.308227 0.100000 0.984330
v 0.308227 0.008041 0.984330
v -0.308227 0.008041 0.984330
v -0.308227 0.008041 -0.984330
v 0.308227 0.008041 -0.984330
vn -0.0000 1.0000 -0.0000
vn -0.0000 -0.0000 1.0000
vn 1.0000 -0.0000 -0.0000
vn -0.0000 -0.0000 -1.0000
vn -1.0000 -0.0000 -0.0000
vt 0.483884 0.283805
vt 0.483884 0.392257
vt 0.473623 0.381996
vt 0.473623 0.283804
vt 0.077240 0.187160
vt 0.077240 0.078708
vt 0.087501 0.088969
vt 0.087501 0.187160
vt 0.232240 0.438804
vt 0.123788 0.438804
vt 0.134049 0.428543
vt 0.232240 0.428544
vt 0.328884 0.032161
vt 0.437336 0.032161
vt 0.427076 0.042421
vt 0.328884 0.042421
vt 0.493235 0.187160
vt 0.483884 0.187160
vt 0.483884 0.078708
vt 0.493235 0.078708
vt 0.328884 0.448156
vt 0.328884 0.438804
vt 0.437336 0.438804
vt 0.437336 0.448156
vt 0.067889 0.283804
vt 0.077240 0.283804
vt 0.077240 0.392256
vt 0.067889 0.392256
vt 0.232240 0.022809
vt 0.232240 0.032161
vt 0.123788 0.032161
vt 0.123788 0.022809
vt 0.232240 0.042421
vt 0.232240 0.064425
vt 0.134049 0.064425
vt 0.134049 0.042421
vt 0.087501 0.283804
vt 0.109504 0.283804
vt 0.109504 0.381996
vt 0.087501 0.381996
vt 0.328884 0.428544
vt 0.328884 0.406540
vt 0.427076 0.406540
vt 0.427076 0.428544
vt 0.473623 0.187160
vt 0.451620 0.187160
vt 0.451620 0.088969
vt 0.473623 0.088969
vt 0.148436 0.078812
vt 0.123891 0.367609
vt 0.412689 0.392153
vt 0.437233 0.103356
vt 0.437233 0.367609
vt 0.412689 0.367609
vt 0.412689 0.103356
vt 0.123892 0.103356
vt 0.148436 0.103356
vt 0.148436 0.367609
vt 0.412689 0.078812
vt 0.148436 0.392153
vt 0.232240 0.406540
vt 0.134049 0.406540
vt 0.328884 0.064425
vt 0.427076 0.064425
vt 0.939383 0.313558
vt 0.939383 0.335562
vt 0.931579 0.327975
vt 0.931579 0.313558
vt 0.939383 0.194911
vt 0.939383 0.216914
vt 0.931579 0.216914
vt 0.931579 0.202497
vt 0.437336 0.022809
vt 0.328884 0.022809
vt 0.929122 0.194911
vt 0.921318 0.202497
vt 0.123788 0.448156
vt 0.232240 0.448156
vt 0.884126 0.040090
vt 0.884126 0.136734
vt 0.876322 0.136734
vt 0.876322 0.040090
vt 0.842730 0.335562
vt 0.832470 0.335562
vt 0.840274 0.327975
vt 0.850535 0.327975
vt 0.451620 0.283804
vt 0.451620 0.381996
vt 0.109504 0.187160
vt 0.109505 0.088969
vt 0.929122 0.335562
vt 0.921318 0.327975
vt 0.832470 0.194911
vt 0.842730 0.194911
vt 0.850535 0.202497
vt 0.840274 0.202497
vt 0.067889 0.078708
vt 0.067889 0.187160
vt 0.873865 0.018087
vt 0.884126 0.018087
vt 0.876322 0.025673
vt 0.866061 0.025673
vt 0.493235 0.392257
vt 0.493235 0.283804
vt 0.897987 0.018087
vt 0.897987 0.008735
vt 0.905791 0.008735
vt 0.905791 0.025673
vt 0.884126 0.158737
vt 0.873865 0.158737
vt 0.866061 0.151151
vt 0.876322 0.151151
vt 0.909947 0.136734
vt 0.895530 0.136734
vt 0.895530 0.040090
vt 0.909947 0.040090
vt 0.854691 0.313558
vt 0.840274 0.313558
vt 0.840274 0.216914
vt 0.854691 0.216914
vt 0.881889 0.313558
vt 0.864951 0.313558
vt 0.864951 0.216914
vt 0.881889 0.216914
vt 0.937146 0.136734
vt 0.920208 0.136734
vt 0.920208 0.040090
vt 0.937146 0.040090
vt 0.917162 0.216914
vt 0.917162 0.313558
vt 0.861905 0.040090
vt 0.861905 0.136734
vt 0.834706 0.040090
vt 0.851644 0.040090
vt 0.851644 0.136734
vt 0.834706 0.136734
vt 0.889963 0.216914
vt 0.906901 0.216914
vt 0.906901 0.313558
vt 0.889963 0.313558
vt 0.887726 0.018087
vt 0.895530 0.025673
vt 0.897987 0.158737
vt 0.887726 0.158737
vt 0.895530 0.151151
vt 0.905791 0.151151
vt 0.887726 0.136734
vt 0.873865 0.008735
vt 0.866061 0.008735
vt 0.887726 0.040090
vt 0.832470 0.313558
vt 0.832470 0.216914
vt 0.873865 0.168089
vt 0.866061 0.168089
vt 0.929122 0.185559
vt 0.921318 0.185559
vt 0.929122 0.344913
vt 0.921318 0.344913
vt 0.842730 0.344913
vt 0.850535 0.344913
vt 0.842730 0.185559
vt 0.850535 0.185559
vt 0.897987 0.168089
vt 0.905791 0.168089
s 0
usemtl ButtonMaterial
f 45/1/1 8/2/1 16/3/1 53/4/1
f 47/5/1 6/6/1 14/7/1 55/8/1
f 29/9/1 7/10/1 15/11/1 37/12/1
f 31/13/1 5/14/1 9/15/1 39/16/1
f 43/17/2 46/18/2 5/19/2 1/20/2
f 27/21/3 30/22/3 8/23/3 3/24/3
f 41/25/4 48/26/4 7/27/4 4/28/4
f 25/29/5 32/30/5 6/31/5 2/32/5
f 40/33/5 34/34/5 18/35/5 14/36/5
f 56/37/4 50/38/4 19/39/4 15/40/4
f 38/41/3 36/42/3 20/43/3 16/44/3
f 54/45/2 52/46/2 17/47/2 9/48/2
f 11/49/1 18/35/1 34/34/1
f 12/50/1 19/39/1 50/38/1
f 13/51/1 20/43/1 36/42/1
f 10/52/1 17/47/1 52/46/1
f 10/52/4 13/53/4 24/54/4 21/55/4
f 12/50/2 11/56/2 22/57/2 23/58/2
f 11/49/3 10/59/3 21/55/3 22/57/3
f 12/60/1 35/61/1 19/62/1
f 12/60/1 13/51/1 36/42/1 35/61/1
f 10/59/1 33/63/1 17/64/1
f 10/59/1 11/49/1 34/34/1 33/63/1
f 13/51/5 12/60/5 23/58/5 24/54/5
f 15/11/3 19/62/3 35/61/3 37/12/3
f 52/65/5 54/66/5 86/67/5 84/68/5
f 9/15/5 17/64/5 33/63/5 39/16/5
f 53/69/3 51/70/3 83/71/3 85/72/3
f 1/73/5 5/14/5 31/13/5 26/74/5
f 45/75/3 53/69/3 85/72/3 77/76/3
f 4/77/3 7/10/3 29/9/3 28/78/3
f 49/79/1 50/80/1 82/81/1 81/82/1
f 6/31/1 32/30/1 40/33/1 14/36/1
f 8/23/1 30/22/1 38/41/1 16/44/1
f 31/83/2 39/84/2 71/85/2 63/86/2
f 23/58/1 22/57/1 21/55/1 24/54/1
f 13/53/1 51/87/1 20/88/1
f 13/53/1 10/52/1 52/46/1 51/87/1
f 11/56/1 49/89/1 18/90/1
f 11/56/1 12/50/1 50/38/1 49/89/1
f 16/3/2 20/88/2 51/87/2 53/4/2
f 54/66/5 46/91/5 78/92/5 86/67/5
f 14/7/4 18/90/4 49/89/4 55/8/4
f 40/93/4 32/94/4 64/95/4 72/96/4
f 2/97/4 6/6/4 47/5/4 42/98/4
f 47/99/5 55/100/5 87/101/5 79/102/5
f 3/103/2 8/2/2 45/1/2 44/104/2
f 7/27/1 48/26/1 56/37/1 15/40/1
f 30/105/2 27/106/2 59/107/2 62/108/2
f 5/19/1 46/18/1 54/45/1 9/48/1
f 56/109/3 48/110/3 80/111/3 88/112/3
f 69/113/3 67/114/3 68/115/3 70/116/3
f 71/117/5 65/118/5 66/119/5 72/120/5
f 58/121/5 63/122/5 64/123/5 57/124/5
f 60/125/3 61/126/3 62/127/3 59/128/3
f 64/123/1 63/122/1 71/117/1 72/120/1
f 62/127/1 61/126/1 69/113/1 70/116/1
f 85/129/2 83/71/2 84/68/2 86/130/2
f 87/131/4 81/82/4 82/81/4 88/132/4
f 74/133/4 79/134/4 80/135/4 73/136/4
f 76/137/2 77/138/2 78/139/2 75/140/2
f 80/135/1 79/134/1 87/131/1 88/132/1
f 78/139/1 77/138/1 85/129/1 86/130/1
f 51/70/1 52/65/1 84/68/1 83/71/1
f 38/141/2 30/105/2 62/108/2 70/142/2
f 55/100/5 49/79/5 81/82/5 87/101/5
f 29/143/4 37/144/4 69/145/4 61/146/4
f 50/80/3 56/109/3 88/112/3 82/81/3
f 37/144/4 35/147/4 67/114/4 69/145/4
f 42/148/5 47/99/5 79/102/5 74/149/5
f 36/150/2 38/141/2 70/142/2 68/115/2
f 33/151/1 34/152/1 66/119/1 65/118/1
f 48/110/3 41/153/3 73/154/3 80/111/3
f 39/84/2 33/151/2 65/118/2 71/85/2
f 44/155/3 45/75/3 77/76/3 76/156/3
f 34/152/4 40/93/4 72/96/4 66/119/4
f 35/147/1 36/150/1 68/115/1 67/114/1
f 46/91/5 43/157/5 75/158/5 78/92/5
f 26/159/2 31/83/2 63/86/2 58/160/2
f 32/94/4 25/161/4 57/162/4 64/95/4
f 28/163/4 29/143/4 61/146/4 60/164/4
