# This file uses centimeters as units for non-parametric coordinates.

mtllib Capri Space.mtl
g default
v 0.691656 0.046740 -0.002149
v 0.691282 0.046913 -0.002861
v 0.690700 0.047050 -0.003427
v 0.689967 0.047138 -0.003790
v 0.689154 0.047169 -0.003915
v 0.688342 0.047138 -0.003790
v 0.687608 0.047050 -0.003427
v 0.687026 0.046913 -0.002861
v 0.686653 0.046740 -0.002149
v 0.686524 0.046549 -0.001359
v 0.686653 0.046358 -0.000569
v 0.687026 0.046185 0.000144
v 0.687608 0.046048 0.000709
v 0.688342 0.045960 0.001072
v 0.689154 0.045929 0.001198
v 0.689967 0.045960 0.001072
v 0.690700 0.046048 0.000709
v 0.691282 0.046185 0.000144
v 0.691656 0.046358 -0.000569
v 0.691785 0.046549 -0.001359
v 0.691656 0.135907 0.019461
v 0.691282 0.136080 0.018748
v 0.690700 0.136217 0.018183
v 0.689967 0.136305 0.017820
v 0.689154 0.136335 0.017695
v 0.688342 0.136305 0.017820
v 0.687608 0.136217 0.018183
v 0.687026 0.136080 0.018748
v 0.686653 0.135907 0.019461
v 0.686524 0.135716 0.020251
v 0.686653 0.135524 0.021041
v 0.687026 0.135351 0.021754
v 0.687608 0.135214 0.022319
v 0.688342 0.135126 0.022682
v 0.689154 0.135096 0.022807
v 0.689967 0.135126 0.022682
v 0.690700 0.135214 0.022319
v 0.691282 0.135351 0.021754
v 0.691656 0.135524 0.021041
v 0.691785 0.135716 0.020251
v 0.689154 0.046549 -0.001359
v 0.689154 0.135716 0.020251
v 0.736027 -0.002578 -0.008564
v 0.727686 -0.002578 -0.016290
v 0.717149 -0.002578 -0.022421
v 0.703872 -0.002578 -0.026358
v 0.689154 -0.002578 -0.027714
v 0.674437 -0.002578 -0.026358
v 0.661160 -0.002578 -0.022421
v 0.650623 -0.002578 -0.016290
v 0.642282 -0.002578 -0.008564
v 0.636973 -0.002578 0.000000
v 0.642282 -0.002578 0.008564
v 0.650623 -0.002578 0.016290
v 0.661160 -0.002578 0.022421
v 0.674437 -0.002578 0.026358
v 0.689154 -0.002578 0.027714
v 0.703872 -0.002578 0.026358
v 0.717149 -0.002578 0.022421
v 0.727685 -0.002578 0.016290
v 0.736027 -0.002578 0.008564
v 0.741336 -0.002578 0.000000
v 0.736027 0.002578 -0.008564
v 0.727686 0.002578 -0.016290
v 0.717149 0.002578 -0.022421
v 0.703872 0.002578 -0.026358
v 0.689154 0.002578 -0.027714
v 0.674437 0.002578 -0.026358
v 0.661160 0.002578 -0.022421
v 0.650623 0.002578 -0.016290
v 0.642282 0.002578 -0.008564
v 0.636973 0.002578 0.000000
v 0.642282 0.002578 0.008564
v 0.650623 0.002578 0.016290
v 0.661160 0.002578 0.022421
v 0.674437 0.002578 0.026358
v 0.689154 0.002578 0.027714
v 0.703872 0.002578 0.026358
v 0.717149 0.002578 0.022421
v 0.727685 0.002578 0.016290
v 0.736027 0.002578 0.008564
v 0.741336 0.002578 0.000000
v 0.689154 -0.002578 0.000000
v 0.730611 0.089811 -0.003159
v 0.723233 0.089811 -0.006008
v 0.713914 0.089811 -0.008270
v 0.702171 0.089811 -0.009722
v 0.689154 0.089811 -0.010222
v 0.676137 0.089811 -0.009722
v 0.664394 0.089811 -0.008270
v 0.655075 0.089811 -0.006008
v 0.647698 0.089811 -0.003159
v 0.643002 0.089811 -0.000000
v 0.647698 0.089811 0.003159
v 0.655075 0.089811 0.006008
v 0.664394 0.089811 0.008270
v 0.676137 0.089811 0.009722
v 0.689154 0.089811 0.010222
v 0.702171 0.089811 0.009722
v 0.713914 0.089811 0.008270
v 0.723233 0.089811 0.006008
v 0.730611 0.089811 0.003159
v 0.735307 0.089811 -0.000000
v 0.728512 0.101623 -0.000622
v 0.721508 0.101623 -0.001182
v 0.712660 0.101623 -0.001627
v 0.701512 0.101623 -0.001913
v 0.689154 0.101623 -0.002011
v 0.676796 0.101623 -0.001913
v 0.665648 0.101623 -0.001627
v 0.656801 0.101623 -0.001182
v 0.649797 0.101623 -0.000622
v 0.645339 0.101623 -0.000000
v 0.649797 0.101623 0.000622
v 0.656801 0.101623 0.001182
v 0.665648 0.101623 0.001627
v 0.676796 0.101623 0.001913
v 0.689154 0.101623 0.002011
v 0.701512 0.101623 0.001913
v 0.712660 0.101623 0.001627
v 0.721508 0.101623 0.001182
v 0.728512 0.101623 0.000622
v 0.732970 0.101623 -0.000000
v 0.728512 0.115223 -0.000622
v 0.721508 0.115223 -0.001182
v 0.689154 0.115223 -0.000000
v 0.712660 0.115223 -0.001627
v 0.701512 0.115223 -0.001913
v 0.689154 0.115223 -0.002011
v 0.676796 0.115223 -0.001913
v 0.665648 0.115223 -0.001627
v 0.656801 0.115223 -0.001182
v 0.649797 0.115223 -0.000622
v 0.645339 0.115223 -0.000000
v 0.649797 0.115223 0.000622
v 0.656801 0.115223 0.001182
v 0.665648 0.115223 0.001627
v 0.676796 0.115223 0.001913
v 0.689154 0.115223 0.002011
v 0.701512 0.115223 0.001913
v 0.712660 0.115223 0.001627
v 0.721508 0.115223 0.001182
v 0.728512 0.115223 0.000622
v 0.732970 0.115223 -0.000000
vt 0.648603 0.107966
vt 0.626409 0.064408
vt 0.591842 0.029841
vt 0.548284 0.007647
vt 0.500000 -0.000000
vt 0.451716 0.007647
vt 0.408159 0.029841
vt 0.373591 0.064409
vt 0.351397 0.107966
vt 0.343750 0.156250
vt 0.351397 0.204534
vt 0.373591 0.248091
vt 0.408159 0.282659
vt 0.451716 0.304853
vt 0.500000 0.312500
vt 0.548284 0.304853
vt 0.591841 0.282659
vt 0.626409 0.248091
vt 0.648603 0.204534
vt 0.656250 0.156250
vt 0.375000 0.312500
vt 0.387500 0.312500
vt 0.400000 0.312500
vt 0.412500 0.312500
vt 0.425000 0.312500
vt 0.437500 0.312500
vt 0.450000 0.312500
vt 0.462500 0.312500
vt 0.475000 0.312500
vt 0.487500 0.312500
vt 0.500000 0.312500
vt 0.512500 0.312500
vt 0.525000 0.312500
vt 0.537500 0.312500
vt 0.550000 0.312500
vt 0.562500 0.312500
vt 0.575000 0.312500
vt 0.587500 0.312500
vt 0.600000 0.312500
vt 0.612500 0.312500
vt 0.625000 0.312500
vt 0.375000 0.687500
vt 0.387500 0.687500
vt 0.400000 0.687500
vt 0.412500 0.687500
vt 0.425000 0.687500
vt 0.437500 0.687500
vt 0.450000 0.687500
vt 0.462500 0.687500
vt 0.475000 0.687500
vt 0.487500 0.687500
vt 0.500000 0.687500
vt 0.512500 0.687500
vt 0.525000 0.687500
vt 0.537500 0.687500
vt 0.550000 0.687500
vt 0.562500 0.687500
vt 0.575000 0.687500
vt 0.587500 0.687500
vt 0.600000 0.687500
vt 0.612500 0.687500
vt 0.625000 0.687500
vt 0.648603 0.795466
vt 0.626409 0.751908
vt 0.591842 0.717341
vt 0.548284 0.695147
vt 0.500000 0.687500
vt 0.451716 0.695147
vt 0.408159 0.717341
vt 0.373591 0.751909
vt 0.351397 0.795466
vt 0.343750 0.843750
vt 0.351397 0.892034
vt 0.373591 0.935591
vt 0.408159 0.970159
vt 0.451716 0.992353
vt 0.500000 1.000000
vt 0.548284 0.992353
vt 0.591841 0.970159
vt 0.626409 0.935591
vt 0.648603 0.892034
vt 0.656250 0.843750
vt 0.500000 0.156250
vt 0.500000 0.843750
vt 0.375000 0.312500
vt 0.387500 0.312500
vt 0.387500 0.687500
vt 0.375000 0.687500
vt 0.400000 0.312500
vt 0.400000 0.687500
vt 0.412500 0.312500
vt 0.412500 0.687500
vt 0.425000 0.312500
vt 0.425000 0.687500
vt 0.437500 0.312500
vt 0.437500 0.687500
vt 0.450000 0.312500
vt 0.450000 0.687500
vt 0.462500 0.312500
vt 0.462500 0.687500
vt 0.475000 0.312500
vt 0.475000 0.687500
vt 0.487500 0.312500
vt 0.487500 0.687500
vt 0.500000 0.312500
vt 0.500000 0.687500
vt 0.512500 0.312500
vt 0.512500 0.687500
vt 0.525000 0.312500
vt 0.525000 0.687500
vt 0.537500 0.312500
vt 0.537500 0.687500
vt 0.550000 0.312500
vt 0.550000 0.687500
vt 0.562500 0.312500
vt 0.562500 0.687500
vt 0.575000 0.312500
vt 0.575000 0.687500
vt 0.587500 0.312500
vt 0.587500 0.687500
vt 0.600000 0.312500
vt 0.600000 0.687500
vt 0.612500 0.312500
vt 0.612500 0.687500
vt 0.625000 0.312500
vt 0.625000 0.687500
vt 0.626409 0.064408
vt 0.648603 0.107966
vt 0.500000 0.156250
vt 0.591842 0.029841
vt 0.548284 0.007647
vt 0.500000 -0.000000
vt 0.451716 0.007647
vt 0.408159 0.029841
vt 0.373591 0.064409
vt 0.351397 0.107966
vt 0.343750 0.156250
vt 0.351397 0.204534
vt 0.373591 0.248091
vt 0.408159 0.282659
vt 0.451716 0.304853
vt 0.500000 0.312500
vt 0.548284 0.304853
vt 0.591841 0.282659
vt 0.626409 0.248091
vt 0.648603 0.204534
vt 0.656250 0.156250
vt 0.648603 0.892034
vt 0.626409 0.935591
vt 0.500000 0.843750
vt 0.591841 0.970159
vt 0.548284 0.992353
vt 0.500000 1.000000
vt 0.451716 0.992353
vt 0.408159 0.970159
vt 0.373591 0.935591
vt 0.351397 0.892034
vt 0.343750 0.843750
vt 0.351397 0.795466
vt 0.373591 0.751909
vt 0.408159 0.717341
vt 0.451716 0.695147
vt 0.500000 0.687500
vt 0.548284 0.695147
vt 0.591842 0.717341
vt 0.626409 0.751908
vt 0.648603 0.795466
vt 0.656250 0.843750
vt 0.648603 0.892034
vt 0.626409 0.935591
vt 0.626409 0.935591
vt 0.648603 0.892034
vt 0.591841 0.970159
vt 0.591841 0.970159
vt 0.548284 0.992353
vt 0.548284 0.992353
vt 0.500000 1.000000
vt 0.500000 1.000000
vt 0.451716 0.992353
vt 0.451716 0.992353
vt 0.408159 0.970159
vt 0.408159 0.970159
vt 0.373591 0.935591
vt 0.373591 0.935591
vt 0.351397 0.892034
vt 0.351397 0.892034
vt 0.343750 0.843750
vt 0.343750 0.843750
vt 0.351397 0.795466
vt 0.351397 0.795466
vt 0.373591 0.751909
vt 0.373591 0.751909
vt 0.408159 0.717341
vt 0.408159 0.717341
vt 0.451716 0.695147
vt 0.451716 0.695147
vt 0.500000 0.687500
vt 0.500000 0.687500
vt 0.548284 0.695147
vt 0.548284 0.695147
vt 0.591842 0.717341
vt 0.591842 0.717341
vt 0.626409 0.751908
vt 0.626409 0.751908
vt 0.648603 0.795466
vt 0.648603 0.795466
vt 0.656250 0.843750
vt 0.656250 0.843750
vt 0.626409 0.935591
vt 0.648603 0.892034
vt 0.591841 0.970159
vt 0.548284 0.992353
vt 0.500000 1.000000
vt 0.451716 0.992353
vt 0.408159 0.970159
vt 0.373591 0.935591
vt 0.351397 0.892034
vt 0.343750 0.843750
vt 0.351397 0.795466
vt 0.373591 0.751909
vt 0.408159 0.717341
vt 0.451716 0.695147
vt 0.500000 0.687500
vt 0.548284 0.695147
vt 0.591842 0.717341
vt 0.626409 0.751908
vt 0.648603 0.795466
vt 0.656250 0.843750
vn 0.951057 0.072784 -0.300322
vn 0.809017 0.138443 -0.571249
vn 0.809017 0.138443 -0.571249
vn 0.951057 0.072784 -0.300323
vn 0.587786 0.190550 -0.786256
vn 0.587786 0.190550 -0.786256
vn 0.309017 0.224005 -0.924300
vn 0.309018 0.224005 -0.924300
vn -0.000001 0.235533 -0.971866
vn -0.000001 0.235533 -0.971866
vn -0.309017 0.224005 -0.924300
vn -0.309018 0.224005 -0.924300
vn -0.587786 0.190550 -0.786256
vn -0.587785 0.190550 -0.786256
vn -0.809017 0.138443 -0.571248
vn -0.809017 0.138443 -0.571248
vn -0.951057 0.072784 -0.300323
vn -0.951057 0.072784 -0.300323
vn -1.000000 -0.000000 0.000000
vn -1.000000 -0.000000 0.000000
vn -0.951056 -0.072784 0.300324
vn -0.951056 -0.072784 0.300324
vn -0.809017 -0.138443 0.571249
vn -0.809017 -0.138443 0.571249
vn -0.587786 -0.190550 0.786256
vn -0.587787 -0.190550 0.786255
vn -0.309018 -0.224005 0.924300
vn -0.309019 -0.224005 0.924299
vn 0.000000 -0.235533 0.971866
vn 0.000000 -0.235533 0.971866
vn 0.309018 -0.224005 0.924299
vn 0.309019 -0.224005 0.924299
vn 0.587787 -0.190550 0.786256
vn 0.587787 -0.190550 0.786255
vn 0.809017 -0.138443 0.571249
vn 0.809017 -0.138443 0.571249
vn 0.951056 -0.072784 0.300324
vn 0.951056 -0.072784 0.300324
vn 1.000000 -0.000000 0.000001
vn 1.000000 -0.000000 0.000001
vn -0.000000 -0.971866 -0.235534
vn 0.000000 -0.971866 -0.235534
vn -0.000000 -0.971866 -0.235533
vn -0.000001 -0.971867 -0.235532
vn 0.000001 -0.971867 -0.235531
vn -0.000000 -0.971867 -0.235531
vn -0.000001 -0.971867 -0.235529
vn 0.000001 -0.971867 -0.235531
vn -0.000000 -0.971866 -0.235534
vn -0.000000 -0.971865 -0.235537
vn 0.000000 -0.971865 -0.235541
vn 0.000000 -0.971866 -0.235534
vn -0.000000 -0.971867 -0.235531
vn -0.000001 -0.971866 -0.235533
vn 0.000001 -0.971866 -0.235533
vn 0.000000 -0.971866 -0.235534
vn -0.000001 -0.971867 -0.235531
vn 0.000001 -0.971867 -0.235531
vn 0.000000 -0.971867 -0.235531
vn -0.000000 -0.971866 -0.235534
vn 0.000000 -0.971865 -0.235537
vn -0.000001 0.971868 0.235528
vn -0.000001 0.971868 0.235528
vn 0.000000 0.971867 0.235531
vn 0.000003 0.971866 0.235534
vn -0.000004 0.971865 0.235537
vn 0.000000 0.971866 0.235534
vn 0.000004 0.971865 0.235538
vn -0.000003 0.971866 0.235534
vn 0.000001 0.971865 0.235541
vn 0.000001 0.971864 0.235541
vn 0.000000 0.971865 0.235541
vn 0.000002 0.971871 0.235515
vn 0.000004 0.971871 0.235515
vn 0.000006 0.971866 0.235534
vn 0.000006 0.971868 0.235525
vn -0.000000 0.971867 0.235533
vn -0.000006 0.971867 0.235529
vn -0.000006 0.971863 0.235547
vn -0.000003 0.971869 0.235521
vn -0.000002 0.971871 0.235515
vn 0.000000 0.971865 0.235541
vn 0.766473 0.000000 -0.642277
vn 0.591726 0.000000 -0.806139
vn 0.591726 0.000000 -0.806139
vn 0.766473 0.000000 -0.642277
vn 0.389404 0.000000 -0.921067
vn 0.389404 0.000000 -0.921067
vn 0.185779 0.000000 -0.982592
vn 0.185779 0.000000 -0.982592
vn 0.000000 0.000000 -1.000000
vn 0.000000 0.000000 -1.000000
vn -0.185779 0.000000 -0.982592
vn -0.185779 0.000000 -0.982592
vn -0.389405 0.000000 -0.921067
vn -0.389405 0.000000 -0.921067
vn -0.591727 0.000000 -0.806139
vn -0.591727 0.000000 -0.806139
vn -0.766472 0.000000 -0.642278
vn -0.766472 0.000000 -0.642278
vn -1.000000 0.000000 0.000000
vn -1.000000 0.000000 0.000000
vn -0.766472 0.000000 0.642278
vn -0.766472 0.000000 0.642278
vn -0.591727 0.000000 0.806139
vn -0.591727 0.000000 0.806139
vn -0.389404 0.000000 0.921067
vn -0.389404 0.000000 0.921067
vn -0.185779 0.000000 0.982592
vn -0.185779 0.000000 0.982592
vn -0.000000 0.000000 1.000000
vn -0.000000 0.000000 1.000000
vn 0.185779 0.000000 0.982592
vn 0.185779 0.000000 0.982592
vn 0.389404 0.000000 0.921067
vn 0.389404 0.000000 0.921067
vn 0.591727 0.000000 0.806139
vn 0.591727 0.000000 0.806139
vn 0.766472 0.000000 0.642278
vn 0.766472 0.000000 0.642278
vn 1.000000 0.000000 0.000002
vn 1.000000 0.000000 0.000002
vn 0.000000 -1.000000 0.000000
vn 0.000000 -1.000000 0.000000
vn 0.000000 -1.000000 0.000000
vn 0.000000 -1.000000 0.000000
vn 0.000000 -1.000000 -0.000000
vn 0.000000 -1.000000 0.000000
vn 0.000000 -1.000000 0.000000
vn 0.000000 -1.000000 -0.000000
vn 0.000000 -1.000000 0.000000
vn 0.000000 -1.000000 -0.000000
vn 0.000000 -1.000000 -0.000000
vn 0.000000 -1.000000 0.000000
vn 0.000000 -1.000000 -0.000000
vn 0.000000 -1.000000 0.000000
vn 0.000000 -1.000000 0.000000
vn 0.000000 -1.000000 0.000000
vn 0.000000 -1.000000 0.000000
vn 0.000000 -1.000000 0.000000
vn 0.000000 -1.000000 0.000000
vn 0.000000 -1.000000 0.000000
vn 0.000000 -1.000000 0.000000
vn 0.000000 1.000000 -0.000001
vn 0.000000 1.000000 -0.000035
vn -0.000000 1.000000 -0.000001
vn 0.000000 1.000000 -0.000018
vn 0.000000 1.000000 0.000017
vn -0.000000 1.000000 -0.000019
vn -0.000000 1.000000 -0.000010
vn -0.000000 1.000000 -0.000000
vn -0.000000 1.000000 0.000000
vn -0.000000 1.000000 -0.000033
vn 0.000000 1.000000 0.000000
vn -0.000000 1.000000 0.000033
vn -0.000000 1.000000 0.000000
vn -0.000000 1.000000 0.000019
vn -0.000000 1.000000 0.000019
vn -0.000000 1.000000 0.000015
vn 0.000000 1.000000 0.000009
vn 0.000000 1.000000 0.000000
vn 0.000000 1.000000 -0.000017
vn 0.000000 1.000000 0.000033
vn 0.000000 1.000000 0.000017
vn 0.555077 0.105581 -0.825071
vn 0.555077 0.105581 -0.825071
vn 0.555077 0.105581 -0.825071
vn 0.555077 0.105581 -0.825071
vn 0.385240 0.144612 -0.911415
vn 0.385240 0.144612 -0.911415
vn 0.385240 0.144612 -0.911415
vn 0.385240 0.144612 -0.911415
vn 0.207265 0.175691 -0.962379
vn 0.207265 0.175691 -0.962379
vn 0.207265 0.175691 -0.962379
vn 0.207265 0.175691 -0.962379
vn 0.065552 0.192178 -0.979168
vn 0.065552 0.192178 -0.979168
vn 0.065552 0.192178 -0.979168
vn 0.065552 0.192178 -0.979168
vn -0.065552 0.192178 -0.979168
vn -0.065552 0.192178 -0.979168
vn -0.065552 0.192178 -0.979168
vn -0.065552 0.192178 -0.979168
vn -0.207266 0.175691 -0.962379
vn -0.207266 0.175691 -0.962379
vn -0.207266 0.175691 -0.962379
vn -0.207266 0.175691 -0.962379
vn -0.385240 0.144612 -0.911415
vn -0.385240 0.144612 -0.911415
vn -0.385240 0.144612 -0.911415
vn -0.385240 0.144612 -0.911415
vn -0.555078 0.105581 -0.825070
vn -0.555078 0.105581 -0.825070
vn -0.555078 0.105581 -0.825070
vn -0.555078 0.105581 -0.825070
vn -0.758806 0.069842 -0.647562
vn -0.758806 0.069842 -0.647562
vn -0.758806 0.069842 -0.647562
vn -0.758806 0.069842 -0.647562
vn -0.758806 0.069842 0.647562
vn -0.758806 0.069842 0.647562
vn -0.758806 0.069842 0.647562
vn -0.758806 0.069842 0.647562
vn -0.555078 0.105581 0.825070
vn -0.555078 0.105581 0.825070
vn -0.555078 0.105581 0.825070
vn -0.555078 0.105581 0.825070
vn -0.385240 0.144612 0.911415
vn -0.385240 0.144612 0.911415
vn -0.385240 0.144612 0.911415
vn -0.385240 0.144612 0.911415
vn -0.207265 0.175691 0.962379
vn -0.207265 0.175691 0.962379
vn -0.207265 0.175691 0.962379
vn -0.207265 0.175691 0.962379
vn -0.065552 0.192178 0.979168
vn -0.065552 0.192178 0.979168
vn -0.065552 0.192178 0.979168
vn -0.065552 0.192178 0.979168
vn 0.065552 0.192178 0.979168
vn 0.065552 0.192178 0.979168
vn 0.065552 0.192178 0.979168
vn 0.065552 0.192178 0.979168
vn 0.207266 0.175691 0.962379
vn 0.207266 0.175691 0.962379
vn 0.207266 0.175691 0.962379
vn 0.207266 0.175691 0.962379
vn 0.385240 0.144612 0.911415
vn 0.385240 0.144612 0.911415
vn 0.385240 0.144612 0.911415
vn 0.385240 0.144612 0.911415
vn 0.555078 0.105581 0.825070
vn 0.555078 0.105581 0.825070
vn 0.555078 0.105581 0.825070
vn 0.555078 0.105581 0.825070
vn 0.758806 0.069842 0.647561
vn 0.758806 0.069842 0.647561
vn 0.758806 0.069842 0.647561
vn 0.758806 0.069842 0.647561
vn 0.758809 0.069842 -0.647558
vn 0.758809 0.069842 -0.647558
vn 0.758809 0.069842 -0.647558
vn 0.758809 0.069842 -0.647558
vn 0.218402 0.322433 -0.921052
vn 0.218402 0.322433 -0.921052
vn 0.218402 0.322433 -0.921052
vn 0.218402 0.322433 -0.921052
vn 0.131863 0.446309 -0.885111
vn 0.131863 0.446309 -0.885111
vn 0.131863 0.446309 -0.885111
vn 0.131863 0.446309 -0.885111
vn 0.064443 0.524526 -0.848952
vn 0.064443 0.524526 -0.848952
vn 0.064443 0.524526 -0.848952
vn 0.064443 0.524526 -0.848952
vn 0.019520 0.561489 -0.827254
vn 0.019520 0.561489 -0.827254
vn 0.019520 0.561489 -0.827254
vn 0.019520 0.561489 -0.827254
vn -0.019520 0.561489 -0.827254
vn -0.019520 0.561489 -0.827254
vn -0.019520 0.561489 -0.827254
vn -0.019520 0.561489 -0.827254
vn -0.064443 0.524526 -0.848952
vn -0.064443 0.524526 -0.848952
vn -0.064443 0.524526 -0.848952
vn -0.064443 0.524526 -0.848952
vn -0.131863 0.446308 -0.885111
vn -0.131863 0.446308 -0.885111
vn -0.131863 0.446308 -0.885111
vn -0.131863 0.446308 -0.885111
vn -0.218403 0.322433 -0.921052
vn -0.218403 0.322433 -0.921052
vn -0.218403 0.322433 -0.921052
vn -0.218403 0.322433 -0.921052
vn -0.376274 0.168503 -0.911057
vn -0.376274 0.168503 -0.911057
vn -0.376274 0.168503 -0.911057
vn -0.376274 0.168503 -0.911057
vn -0.376274 0.168503 0.911057
vn -0.376274 0.168503 0.911057
vn -0.376274 0.168503 0.911057
vn -0.376274 0.168503 0.911057
vn -0.218403 0.322433 0.921052
vn -0.218403 0.322433 0.921052
vn -0.218403 0.322433 0.921052
vn -0.218403 0.322433 0.921052
vn -0.131863 0.446308 0.885111
vn -0.131863 0.446309 0.885111
vn -0.131863 0.446309 0.885111
vn -0.131863 0.446309 0.885111
vn -0.064443 0.524526 0.848952
vn -0.064443 0.524526 0.848952
vn -0.064443 0.524526 0.848952
vn -0.064443 0.524526 0.848952
vn -0.019520 0.561489 0.827254
vn -0.019520 0.561489 0.827254
vn -0.019520 0.561489 0.827254
vn -0.019520 0.561489 0.827254
vn 0.019520 0.561489 0.827254
vn 0.019520 0.561489 0.827254
vn 0.019520 0.561489 0.827254
vn 0.019520 0.561489 0.827254
vn 0.064443 0.524526 0.848952
vn 0.064443 0.524526 0.848952
vn 0.064443 0.524526 0.848952
vn 0.064443 0.524526 0.848952
vn 0.131863 0.446308 0.885111
vn 0.131863 0.446308 0.885111
vn 0.131863 0.446308 0.885111
vn 0.131863 0.446308 0.885111
vn 0.218403 0.322433 0.921052
vn 0.218403 0.322433 0.921052
vn 0.218403 0.322433 0.921052
vn 0.218403 0.322433 0.921052
vn 0.376275 0.168503 0.911057
vn 0.376275 0.168503 0.911057
vn 0.376275 0.168503 0.911057
vn 0.376275 0.168503 0.911057
vn 0.376277 0.168503 -0.911055
vn 0.376277 0.168503 -0.911056
vn 0.376277 0.168503 -0.911055
vn 0.376277 0.168503 -0.911055
vn 0.079795 0.000000 -0.996811
vn 0.079795 0.000000 -0.996811
vn 0.079795 0.000000 -0.996811
vn 0.079795 0.000000 -0.996811
vn 0.050231 0.000000 -0.998738
vn 0.050231 0.000000 -0.998738
vn 0.050231 0.000000 -0.998738
vn 0.050231 0.000000 -0.998738
vn 0.025617 0.000000 -0.999672
vn 0.025617 0.000000 -0.999672
vn 0.025617 0.000000 -0.999672
vn 0.025617 0.000000 -0.999672
vn 0.007965 0.000000 -0.999968
vn 0.007965 0.000000 -0.999968
vn 0.007965 0.000000 -0.999968
vn 0.007965 0.000000 -0.999968
vn -0.007965 0.000000 -0.999968
vn -0.007965 0.000000 -0.999968
vn -0.007965 0.000000 -0.999968
vn -0.007965 0.000000 -0.999968
vn -0.025617 0.000000 -0.999672
vn -0.025617 0.000000 -0.999672
vn -0.025617 0.000000 -0.999672
vn -0.025617 0.000000 -0.999672
vn -0.050231 0.000000 -0.998738
vn -0.050231 0.000000 -0.998738
vn -0.050231 0.000000 -0.998738
vn -0.050231 0.000000 -0.998738
vn -0.079796 0.000000 -0.996811
vn -0.079796 0.000000 -0.996811
vn -0.079796 0.000000 -0.996811
vn -0.079796 0.000000 -0.996811
vn -0.138094 0.000000 -0.990419
vn -0.138094 0.000000 -0.990419
vn -0.138094 0.000000 -0.990419
vn -0.138094 0.000000 -0.990419
vn -0.138094 0.000000 0.990419
vn -0.138094 0.000000 0.990419
vn -0.138094 0.000000 0.990419
vn -0.138094 0.000000 0.990419
vn -0.079796 0.000000 0.996811
vn -0.079796 0.000000 0.996811
vn -0.079796 0.000000 0.996811
vn -0.079796 0.000000 0.996811
vn -0.050231 -0.000000 0.998738
vn -0.050231 -0.000000 0.998738
vn -0.050231 -0.000000 0.998738
vn -0.050231 -0.000000 0.998738
vn -0.025617 -0.000000 0.999672
vn -0.025617 -0.000000 0.999672
vn -0.025617 -0.000000 0.999672
vn -0.025617 -0.000000 0.999672
vn -0.007965 -0.000000 0.999968
vn -0.007965 -0.000000 0.999968
vn -0.007965 -0.000000 0.999968
vn -0.007965 -0.000000 0.999968
vn 0.007965 0.000000 0.999968
vn 0.007965 0.000000 0.999968
vn 0.007965 0.000000 0.999968
vn 0.007965 0.000000 0.999968
vn 0.025617 0.000000 0.999672
vn 0.025617 0.000000 0.999672
vn 0.025617 0.000000 0.999672
vn 0.025617 0.000000 0.999672
vn 0.050231 0.000000 0.998738
vn 0.050231 0.000000 0.998738
vn 0.050231 0.000000 0.998738
vn 0.050231 0.000000 0.998738
vn 0.079796 0.000000 0.996811
vn 0.079796 0.000000 0.996811
vn 0.079796 0.000000 0.996811
vn 0.079796 0.000000 0.996811
vn 0.138094 0.000000 0.990419
vn 0.138094 0.000000 0.990419
vn 0.138094 0.000000 0.990419
vn 0.138094 0.000000 0.990419
vn 0.138095 0.000000 -0.990419
vn 0.138095 0.000000 -0.990419
vn 0.138095 0.000000 -0.990419
vn 0.138095 0.000000 -0.990419
s 1
g pCylinder3
usemtl initialShadingGroup
f 1/21/1 2/22/2 22/43/3 21/42/4
f 2/22/2 3/23/5 23/44/6 22/43/3
f 3/23/5 4/24/7 24/45/8 23/44/6
f 4/24/7 5/25/9 25/46/10 24/45/8
f 5/25/9 6/26/11 26/47/12 25/46/10
f 6/26/11 7/27/13 27/48/14 26/47/12
f 7/27/13 8/28/15 28/49/16 27/48/14
f 8/28/15 9/29/17 29/50/18 28/49/16
f 9/29/17 10/30/19 30/51/20 29/50/18
f 10/30/19 11/31/21 31/52/22 30/51/20
f 11/31/21 12/32/23 32/53/24 31/52/22
f 12/32/23 13/33/25 33/54/26 32/53/24
f 13/33/25 14/34/27 34/55/28 33/54/26
f 14/34/27 15/35/29 35/56/30 34/55/28
f 15/35/29 16/36/31 36/57/32 35/56/30
f 16/36/31 17/37/33 37/58/34 36/57/32
f 17/37/33 18/38/35 38/59/36 37/58/34
f 18/38/35 19/39/37 39/60/38 38/59/36
f 19/39/37 20/40/39 40/61/40 39/60/38
f 20/40/39 1/41/1 21/62/4 40/61/40
s 2
f 2/2/41 1/1/42 41/83/43
f 3/3/44 2/2/41 41/83/43
f 4/4/45 3/3/44 41/83/43
f 5/5/46 4/4/45 41/83/43
f 6/6/47 5/5/46 41/83/43
f 7/7/48 6/6/47 41/83/43
f 8/8/49 7/7/48 41/83/43
f 9/9/50 8/8/49 41/83/43
f 10/10/51 9/9/50 41/83/43
f 11/11/52 10/10/51 41/83/43
f 12/12/53 11/11/52 41/83/43
f 13/13/54 12/12/53 41/83/43
f 14/14/55 13/13/54 41/83/43
f 15/15/56 14/14/55 41/83/43
f 16/16/57 15/15/56 41/83/43
f 17/17/58 16/16/57 41/83/43
f 18/18/59 17/17/58 41/83/43
f 19/19/60 18/18/59 41/83/43
f 20/20/61 19/19/60 41/83/43
f 1/1/42 20/20/61 41/83/43
s 3
f 21/81/62 22/80/63 42/84/64
f 22/80/63 23/79/65 42/84/64
f 23/79/65 24/78/66 42/84/64
f 24/78/66 25/77/67 42/84/64
f 25/77/67 26/76/68 42/84/64
f 26/76/68 27/75/69 42/84/64
f 27/75/69 28/74/70 42/84/64
f 28/74/70 29/73/71 42/84/64
f 29/73/71 30/72/72 42/84/64
f 30/72/72 31/71/73 42/84/64
f 31/71/73 32/70/74 42/84/64
f 32/70/74 33/69/75 42/84/64
f 33/69/75 34/68/76 42/84/64
f 34/68/76 35/67/77 42/84/64
f 35/67/77 36/66/78 42/84/64
f 36/66/78 37/65/79 42/84/64
f 37/65/79 38/64/80 42/84/64
f 38/64/80 39/63/81 42/84/64
f 39/63/81 40/82/82 42/84/64
f 40/82/82 21/81/62 42/84/64
s 4
f 43/85/83 44/86/84 64/87/85 63/88/86
f 44/86/84 45/89/87 65/90/88 64/87/85
f 45/89/87 46/91/89 66/92/90 65/90/88
f 46/91/89 47/93/91 67/94/92 66/92/90
f 47/93/91 48/95/93 68/96/94 67/94/92
f 48/95/93 49/97/95 69/98/96 68/96/94
f 49/97/95 50/99/97 70/100/98 69/98/96
f 50/99/97 51/101/99 71/102/100 70/100/98
f 51/101/99 52/103/101 72/104/102 71/102/100
f 52/103/101 53/105/103 73/106/104 72/104/102
f 53/105/103 54/107/105 74/108/106 73/106/104
f 54/107/105 55/109/107 75/110/108 74/108/106
f 55/109/107 56/111/109 76/112/110 75/110/108
f 56/111/109 57/113/111 77/114/112 76/112/110
f 57/113/111 58/115/113 78/116/114 77/114/112
f 58/115/113 59/117/115 79/118/116 78/116/114
f 59/117/115 60/119/117 80/120/118 79/118/116
f 60/119/117 61/121/119 81/122/120 80/120/118
f 61/121/119 62/123/121 82/124/122 81/122/120
f 62/123/121 43/125/83 63/126/86 82/124/122
s 5
f 44/127/123 43/128/124 83/129/125
f 45/130/126 44/127/123 83/129/125
f 46/131/127 45/130/126 83/129/125
f 47/132/128 46/131/127 83/129/125
f 48/133/129 47/132/128 83/129/125
f 49/134/130 48/133/129 83/129/125
f 50/135/131 49/134/130 83/129/125
f 51/136/132 50/135/131 83/129/125
f 52/137/133 51/136/132 83/129/125
f 53/138/134 52/137/133 83/129/125
f 54/139/135 53/138/134 83/129/125
f 55/140/136 54/139/135 83/129/125
f 56/141/137 55/140/136 83/129/125
f 57/142/138 56/141/137 83/129/125
f 58/143/139 57/142/138 83/129/125
f 59/144/140 58/143/139 83/129/125
f 60/145/141 59/144/140 83/129/125
f 61/146/142 60/145/141 83/129/125
f 62/147/143 61/146/142 83/129/125
f 43/128/124 62/147/143 83/129/125
s 6
f 124/148/144 125/149/145 126/150/146
f 125/149/145 127/151/147 126/150/146
f 127/151/147 128/152/148 126/150/146
f 128/152/148 129/153/149 126/150/146
f 129/153/149 130/154/150 126/150/146
f 130/154/150 131/155/151 126/150/146
f 131/155/151 132/156/152 126/150/146
f 132/156/152 133/157/153 126/150/146
f 133/157/153 134/158/154 126/150/146
f 134/158/154 135/159/155 126/150/146
f 135/159/155 136/160/156 126/150/146
f 136/160/156 137/161/157 126/150/146
f 137/161/157 138/162/158 126/150/146
f 138/162/158 139/163/159 126/150/146
f 139/163/159 140/164/160 126/150/146
f 140/164/160 141/165/161 126/150/146
f 141/165/161 142/166/162 126/150/146
f 142/166/162 143/167/163 126/150/146
f 143/167/163 144/168/164 126/150/146
f 144/168/164 124/148/144 126/150/146
s off
f 63/169/165 64/170/166 85/171/167 84/172/168
f 64/170/169 65/173/170 86/174/171 85/171/172
f 65/173/173 66/175/174 87/176/175 86/174/176
f 66/175/177 67/177/178 88/178/179 87/176/180
f 67/177/181 68/179/182 89/180/183 88/178/184
f 68/179/185 69/181/186 90/182/187 89/180/188
f 69/181/189 70/183/190 91/184/191 90/182/192
f 70/183/193 71/185/194 92/186/195 91/184/196
f 71/185/197 72/187/198 93/188/199 92/186/200
f 72/187/201 73/189/202 94/190/203 93/188/204
f 73/189/205 74/191/206 95/192/207 94/190/208
f 74/191/209 75/193/210 96/194/211 95/192/212
f 75/193/213 76/195/214 97/196/215 96/194/216
f 76/195/217 77/197/218 98/198/219 97/196/220
f 77/197/221 78/199/222 99/200/223 98/198/224
f 78/199/225 79/201/226 100/202/227 99/200/228
f 79/201/229 80/203/230 101/204/231 100/202/232
f 80/203/233 81/205/234 102/206/235 101/204/236
f 81/205/237 82/207/238 103/208/239 102/206/240
f 82/207/241 63/169/242 84/172/243 103/208/244
f 84/172/245 85/171/246 105/209/247 104/210/248
f 85/171/249 86/174/250 106/211/251 105/209/252
f 86/174/253 87/176/254 107/212/255 106/211/256
f 87/176/257 88/178/258 108/213/259 107/212/260
f 88/178/261 89/180/262 109/214/263 108/213/264
f 89/180/265 90/182/266 110/215/267 109/214/268
f 90/182/269 91/184/270 111/216/271 110/215/272
f 91/184/273 92/186/274 112/217/275 111/216/276
f 92/186/277 93/188/278 113/218/279 112/217/280
f 93/188/281 94/190/282 114/219/283 113/218/284
f 94/190/285 95/192/286 115/220/287 114/219/288
f 95/192/289 96/194/290 116/221/291 115/220/292
f 96/194/293 97/196/294 117/222/295 116/221/296
f 97/196/297 98/198/298 118/223/299 117/222/300
f 98/198/301 99/200/302 119/224/303 118/223/304
f 99/200/305 100/202/306 120/225/307 119/224/308
f 100/202/309 101/204/310 121/226/311 120/225/312
f 101/204/313 102/206/314 122/227/315 121/226/316
f 102/206/317 103/208/318 123/228/319 122/227/320
f 103/208/321 84/172/322 104/210/323 123/228/324
f 104/210/325 105/209/326 125/149/327 124/148/328
f 105/209/329 106/211/330 127/151/331 125/149/332
f 106/211/333 107/212/334 128/152/335 127/151/336
f 107/212/337 108/213/338 129/153/339 128/152/340
f 108/213/341 109/214/342 130/154/343 129/153/344
f 109/214/345 110/215/346 131/155/347 130/154/348
f 110/215/349 111/216/350 132/156/351 131/155/352
f 111/216/353 112/217/354 133/157/355 132/156/356
f 112/217/357 113/218/358 134/158/359 133/157/360
f 113/218/361 114/219/362 135/159/363 134/158/364
f 114/219/365 115/220/366 136/160/367 135/159/368
f 115/220/369 116/221/370 137/161/371 136/160/372
f 116/221/373 117/222/374 138/162/375 137/161/376
f 117/222/377 118/223/378 139/163/379 138/162/380
f 118/223/381 119/224/382 140/164/383 139/163/384
f 119/224/385 120/225/386 141/165/387 140/164/388
f 120/225/389 121/226/390 142/166/391 141/165/392
f 121/226/393 122/227/394 143/167/395 142/166/396
f 122/227/397 123/228/398 144/168/399 143/167/400
f 123/228/401 104/210/402 124/148/403 144/168/404
