# Blender 5.0.1
# www.blender.org
mtllib door.mtl
o Cube.002
v 0.000000 -1.052494 0.100000
v 0.000000 1.052494 0.100000
v 0.000000 -1.052494 -0.100000
v 0.000000 1.052494 -0.100000
v 2.000000 -1.052494 0.100000
v 2.000000 1.052494 0.100000
v 2.000000 -1.052494 -0.100000
v 2.000000 1.052494 -0.100000
v 0.267970 -1.052494 -0.100000
v 0.267970 1.052494 -0.100000
v 0.267970 -1.052494 0.100000
v 0.267970 1.052494 0.100000
v 0.203801 -1.052494 -0.147087
v 0.064170 -1.052494 -0.147087
v 0.203800 1.052494 0.147087
v 0.064170 1.052494 0.147087
v 0.064170 1.052494 -0.147087
v 0.203801 1.052494 -0.147087
v 0.064170 -1.052494 0.147087
v 0.203801 -1.052494 0.147087
v 2.000000 0.904632 0.100000
v 2.000000 -0.904632 0.100000
v 0.411234 -0.904632 0.100000
v 0.411234 0.904632 0.100000
v 2.000000 0.904632 -0.100000
v 2.000000 -0.904632 -0.100000
v 0.411234 -0.904632 -0.100000
v 0.411234 0.904632 -0.100000
v 2.000000 0.904632 0.037279
v 2.000000 -0.904632 0.037279
v 0.559801 -0.799503 0.037279
v 0.559801 0.799503 0.037279
v 2.000000 0.904632 -0.037279
v 2.000000 -0.904632 -0.037279
v 0.411234 -0.904632 -0.037279
v 0.411234 0.904632 -0.037279
v 0.830193 0.799503 0.037279
v 0.830193 -0.799503 0.037279
v 0.411234 -0.904632 0.037279
v 0.411234 0.904632 0.037279
v 0.559801 -0.799503 -0.037279
v 0.559801 0.799503 -0.037279
v 0.830193 0.799503 -0.037279
v 0.830193 -0.799503 -0.037279
v 0.830193 0.799503 0.105831
v 0.830193 -0.799503 0.105831
v 0.559800 -0.799503 0.105831
v 0.559800 0.799503 0.105831
v 0.830193 0.799503 -0.105831
v 0.830193 -0.799503 -0.105831
v 0.559800 -0.799503 -0.105831
v 0.559800 0.799503 -0.105831
vn -1.0000 -0.0000 -0.0000
vn -0.0000 1.0000 -0.0000
vn -0.5916 -0.0000 0.8062
vn 0.5916 -0.0000 -0.8062
vn -0.5916 -0.0000 -0.8062
vn -0.0000 -0.0000 -1.0000
vn 0.5916 -0.0000 0.8062
vn -0.0000 -0.0000 1.0000
vn -0.0000 -1.0000 -0.0000
vn 1.0000 -0.0000 -0.0000
vt 0.702721 0.000268
vt 0.702721 0.403723
vt 0.664387 0.403723
vt 0.664387 0.000268
vt 0.304781 0.827600
vt 0.000268 0.827600
vt 0.000268 0.815578
vt 0.304781 0.815578
vt 0.717976 0.000268
vt 0.717976 0.403723
vt 0.622370 0.000268
vt 0.622370 0.403723
vt 0.607114 0.403723
vt 0.607114 0.000268
vt 0.649132 0.403723
vt 0.649132 0.000268
vt 0.759994 0.000268
vt 0.759994 0.403723
vt 0.744738 0.403723
vt 0.744738 0.000268
vt 0.332240 0.855940
vt 0.000268 0.855940
vt 0.304781 0.456781
vt 0.000268 0.456781
vt 0.000268 0.428441
vt 0.332240 0.428441
vt 0.316802 0.815578
vt 0.316802 0.468803
vt 0.344261 0.440463
vt 0.344261 0.843918
vt 0.332240 0.855940
vt 0.000268 0.855940
vt 0.000268 0.827599
vt 0.304781 0.827599
vt 0.000268 0.428441
vt 0.332240 0.428441
vt 0.304781 0.456781
vt 0.000268 0.456781
vt 0.344261 0.440463
vt 0.344261 0.843918
vt 0.316802 0.815578
vt 0.316802 0.468803
vt 0.856104 0.000268
vt 0.907929 0.000268
vt 0.907929 0.013407
vt 0.856104 0.013407
vt 0.842965 0.319882
vt 0.842965 0.013407
vt 0.856104 0.319882
vt 0.304781 0.815578
vt 0.304781 0.468803
vt 0.000268 0.468803
vt 0.304781 0.468803
vt 0.000268 0.468803
vt 0.000268 0.815578
vt 0.224480 0.488953
vt 0.224480 0.795428
vt 0.276305 0.795428
vt 0.276306 0.488953
vt 0.276305 0.795428
vt 0.224480 0.795428
vt 0.224480 0.488953
vt 0.855928 0.013407
vt 0.907754 0.013407
vt 0.907754 0.319882
vt 0.855928 0.319882
vt 0.907929 0.319882
vt 0.907754 0.333021
vt 0.855928 0.333021
vt 0.842789 0.319882
vt 0.842789 0.013407
vt 0.921068 0.013407
vt 0.921068 0.319882
vt 0.907929 0.333021
vt 0.856104 0.333021
vt 0.920893 0.013407
vt 0.920893 0.319882
vt 0.855928 0.000268
vt 0.907753 0.000268
s 0
usemtl Material
f 1/1/1 2/2/1 4/3/1 3/4/1
f 23/5/2 22/6/2 30/7/2 39/8/2
f 19/9/3 16/10/3 2/2/3 1/1/3
f 13/11/4 18/12/4 10/13/4 9/14/4
f 3/4/5 4/3/5 17/15/5 14/16/5
f 14/16/6 17/15/6 18/12/6 13/11/6
f 11/17/7 12/18/7 15/19/7 20/20/7
f 20/20/8 15/19/8 16/10/8 19/9/8
f 22/6/8 23/5/8 11/21/8 5/22/8
f 24/23/8 21/24/8 6/25/8 12/26/8
f 23/27/8 24/28/8 12/29/8 11/30/8
f 10/31/6 8/32/6 25/33/6 28/34/6
f 7/35/6 9/36/6 27/37/6 26/38/6
f 9/39/6 10/40/6 28/41/6 27/42/6
f 31/43/9 38/44/9 46/45/9 47/46/9
f 32/47/1 31/48/1 47/46/1 48/49/1
f 27/42/10 28/41/10 36/50/10 35/51/10
f 26/38/2 27/37/2 35/51/2 34/52/2
f 21/24/9 24/23/9 40/53/9 29/54/9
f 24/28/10 23/27/10 39/8/10 40/53/10
f 28/34/9 25/33/9 33/55/9 36/50/9
f 37/56/8 38/57/8 30/7/8 29/54/8
f 38/57/8 31/58/8 39/8/8 30/7/8
f 32/59/8 37/56/8 29/54/8 40/53/8
f 31/58/8 32/59/8 40/53/8 39/8/8
f 35/51/6 36/50/6 42/60/6 41/59/6
f 36/50/6 33/55/6 43/61/6 42/60/6
f 34/52/6 35/51/6 41/59/6 44/62/6
f 34/52/6 44/62/6 43/61/6 33/55/6
f 50/63/6 51/64/6 52/65/6 49/66/6
f 46/45/8 45/67/8 48/49/8 47/46/8
f 42/68/2 43/69/2 49/66/2 52/65/2
f 43/70/10 44/71/10 50/63/10 49/66/10
f 38/72/10 37/73/10 45/67/10 46/45/10
f 37/74/2 32/75/2 48/49/2 45/67/2
f 41/76/1 42/77/1 52/65/1 51/64/1
f 44/78/9 41/79/9 51/64/9 50/63/9
