# Blender 5.0.1
# www.blender.org
mtllib door_wall.mtl
o Cube
v -1.000000 -1.034273 0.204955
v 1.310132 -1.034273 -0.204955
v -1.000000 -1.034273 -0.204955
v 1.310132 -1.034273 0.204955
v 1.000000 -1.034273 0.204955
v -1.310132 -1.034273 0.204955
v 1.000000 -1.034273 -0.204955
v -1.310132 -1.034273 -0.204955
v -0.585680 1.034273 0.204955
v -1.000000 0.605754 0.204955
v -1.000000 0.605754 -0.204955
v -0.585680 1.034273 -0.204955
v 1.000000 0.605754 0.204955
v 0.585680 1.034273 0.204955
v 0.585680 1.034273 -0.204955
v 1.000000 0.605754 -0.204955
v -1.286525 0.728504 0.204955
v -0.704363 1.330618 0.204955
v -0.704363 1.330618 -0.204955
v -1.286525 0.728504 -0.204955
v 1.286525 0.728504 -0.204955
v 0.704363 1.330618 -0.204955
v 0.704363 1.330618 0.204955
v 1.286525 0.728504 0.204955
v 1.827082 1.891324 -0.135352
v 1.827082 1.891324 0.135352
v 0.704363 1.330618 -0.135352
v 0.704363 1.330618 0.135352
v -0.704363 1.330618 0.135352
v -0.704363 1.330618 -0.135352
v -1.310132 -1.034273 -0.135352
v -1.310132 -1.034273 0.135352
v -1.827082 1.891324 0.135352
v -1.827082 1.891324 -0.135352
v 1.310132 -1.034273 0.135352
v 1.310132 -1.034273 -0.135352
v -1.286525 0.728504 -0.135352
v -1.286525 0.728504 0.135352
v 1.896868 -1.025868 -0.135352
v 1.896868 -1.025868 0.135352
v -1.896868 -1.025868 0.135352
v -1.896868 -1.025868 -0.135352
v 1.286525 0.728504 0.135352
v 1.286525 0.728504 -0.135352
v -1.000000 -1.034273 -0.093111
v -1.000000 -1.034273 0.093111
v 1.000000 -1.034273 0.093111
v 1.000000 -1.034273 -0.093111
v -0.585680 1.034273 0.093111
v -0.585680 1.034273 -0.093111
v -1.000000 0.605754 -0.093111
v -1.000000 0.605754 0.093111
v 0.585680 1.034273 -0.093111
v 0.585680 1.034273 0.093111
v 1.000000 0.605754 0.093111
v 1.000000 0.605754 -0.093111
v -1.171235 -1.034273 0.093111
v -1.171235 -1.034273 -0.093111
v -1.158201 0.673528 0.093111
v -1.158201 0.673528 -0.093111
v -0.651209 1.197896 -0.093111
v -0.651209 1.197896 0.093111
v 0.651209 1.197896 -0.093111
v 0.651209 1.197896 0.093111
v 1.158201 0.673528 -0.093111
v 1.158201 0.673528 0.093111
v 1.171235 -1.034273 -0.093111
v 1.171235 -1.034273 0.093111
vn 0.7189 0.6951 -0.0000
vn -0.7189 0.6951 -0.0000
vn -0.9999 0.0134 -0.0000
vn -0.0000 -0.0000 -1.0000
vn -0.0000 1.0000 -0.0000
vn 0.9999 0.0134 -0.0000
vn -0.0000 -0.0000 1.0000
vn -0.0143 -0.9999 -0.0000
vn -1.0000 -0.0000 -0.0000
vn -0.0000 -1.0000 -0.0000
vn 1.0000 -0.0000 -0.0000
vn 0.0143 -0.9999 -0.0000
vn -0.7189 -0.6951 -0.0000
vn 0.7189 -0.6951 -0.0000
vn 1.0000 -0.0076 -0.0000
vn -1.0000 -0.0076 -0.0000
vt 0.676790 0.666667
vt 0.676790 0.750000
vt 0.573210 0.750000
vt 0.573210 0.666667
vt 0.625000 0.166667
vt 0.625000 0.250000
vt 0.573210 0.250000
vt 0.573210 0.166667
vt 0.375000 0.166667
vt 0.375000 0.250000
vt 0.375000 0.583333
vt 0.573210 0.583333
vt 0.823210 0.666667
vt 0.823210 0.750000
vt 0.375000 0.666667
vt 0.375000 0.750000
vt 0.676790 0.500000
vt 0.823210 0.500000
vt 0.573210 0.000000
vt 0.625000 0.000000
vt 0.573210 0.500000
vt 0.375000 0.000000
vt 0.375000 0.500000
vt 0.676790 0.583333
vt 0.823210 0.583333
vt 0.000000 0.000000
vt 0.375000 0.083333
vt 0.573210 0.083333
vt 0.625000 0.083333
s 0
f 28/1/1 23/2/1 24/3/1 43/4/1
f 30/5/2 19/6/2 20/7/2 37/8/2
f 31/9/3 37/8/3 20/7/3 8/10/3
f 30/5/4 37/8/4 34/5/4
f 36/11/4 44/12/4 25/12/4 39/11/4
f 28/1/5 29/13/5 18/14/5 23/2/5
f 35/15/6 43/4/6 24/3/6 4/16/6
f 12/6/4 11/7/4 20/7/4 19/6/4
f 11/7/4 3/10/4 8/10/4 20/7/4
f 14/2/7 13/3/7 24/3/7 23/2/7
f 13/3/7 5/16/7 4/16/7 24/3/7
f 15/17/4 12/18/4 19/18/4 22/17/4
f 10/19/7 9/20/7 18/20/7 17/19/7
f 16/21/4 15/17/4 22/17/4 21/21/4
f 9/14/7 14/2/7 23/2/7 18/14/7
f 1/22/7 10/19/7 17/19/7 6/22/7
f 7/23/4 16/21/4 21/21/4 2/23/4
f 37/8/4 31/9/4 42/9/4 34/8/4
f 44/12/4 27/24/4 25/12/4
f 2/23/6 21/21/6 44/12/6 36/11/6
f 29/13/7 28/1/7 26/1/7 33/13/7
f 22/17/5 19/18/5 30/25/5 27/24/5
f 31/26/8 32/26/8 41/26/8 42/26/8
f 47/15/9 5/16/9 13/3/9 55/4/9
f 43/4/7 35/15/7 40/15/7 26/4/7
f 54/1/10 14/2/10 9/14/10 49/13/10
f 32/27/7 38/28/7 33/28/7 41/27/7
f 45/9/11 3/10/11 11/7/11 51/8/11
f 35/26/12 36/26/12 39/26/12 40/26/12
f 55/4/13 13/3/13 14/2/13 54/1/13
f 51/8/14 11/7/14 12/6/14 50/5/14
f 6/22/3 17/19/3 38/28/3 32/27/3
f 38/28/7 29/29/7 33/28/7
f 18/20/2 29/29/2 38/28/2 17/19/2
f 27/24/4 30/25/4 34/25/4 25/24/4
f 22/17/1 27/24/1 44/12/1 21/21/1
f 28/1/7 43/4/7 26/1/7
f 10/19/14 52/28/14 49/29/14 9/20/14
f 16/21/13 56/12/13 53/24/13 15/17/13
f 50/25/7 53/24/7 63/24/7 61/25/7
f 1/22/11 46/27/11 52/28/11 10/19/11
f 15/17/10 53/24/10 50/25/10 12/18/10
f 47/15/4 55/4/4 66/4/4 68/15/4
f 7/23/9 48/11/9 56/12/9 16/21/9
f 53/24/7 56/12/7 65/12/7 63/24/7
f 58/9/15 60/8/15 59/28/15 57/27/15
f 59/28/14 60/8/14 61/25/14 62/29/14
f 62/13/10 61/25/10 63/24/10 64/1/10
f 64/1/13 63/24/13 65/12/13 66/4/13
f 66/4/16 65/12/16 67/11/16 68/15/16
f 55/4/4 54/1/4 64/1/4 66/4/4
f 49/29/4 52/28/4 59/28/4 62/29/4
f 54/1/4 49/13/4 62/13/4 64/1/4
f 52/28/4 46/27/4 57/27/4 59/28/4
f 51/8/7 50/5/7 61/5/7 60/8/7
f 56/12/7 48/11/7 67/11/7 65/12/7
f 45/9/7 51/8/7 60/8/7 58/9/7
