# Blender 5.0.1
# www.blender.org
mtllib LaserEmitter.mtl
o Cube
v -3.000000 -0.100000 1.000000
v -3.000000 0.100000 1.000000
v -3.000000 -0.100000 -1.000000
v -3.000000 0.100000 -1.000000
v -1.000000 -0.100000 1.000000
v -1.000000 0.100000 1.000000
v -1.000000 -0.100000 -1.000000
v -1.000000 0.100000 -1.000000
v -2.000000 0.531362 -0.799998
v -2.156072 0.531362 -0.784626
v -2.306146 0.531362 -0.739102
v -2.444455 0.531362 -0.665174
v -2.565684 0.531362 -0.565684
v -2.665174 0.531362 -0.444455
v -2.739102 0.531362 -0.306146
v -2.784626 0.531362 -0.156072
v -2.799998 0.531362 0.000000
v -2.784626 0.531362 0.156072
v -2.739102 0.531362 0.306146
v -2.665174 0.531362 0.444456
v -2.565684 0.531362 0.565684
v -2.444455 0.531362 0.665175
v -2.306146 0.531362 0.739102
v -2.156072 0.531362 0.784627
v -2.000000 0.531362 0.799999
v -1.843928 0.531362 0.784627
v -1.693854 0.531362 0.739102
v -1.555545 0.531362 0.665175
v -1.434316 0.531362 0.565684
v -1.334826 0.531362 0.444456
v -1.260898 0.531362 0.306146
v -1.215373 0.531362 0.156072
v -1.200001 0.531362 0.000000
v -1.215373 0.531362 -0.156072
v -1.260898 0.531362 -0.306146
v -1.334826 0.531362 -0.444455
v -1.434316 0.531362 -0.565684
v -1.555545 0.531362 -0.665174
v -1.693854 0.531362 -0.739102
v -1.843928 0.531362 -0.784626
v -2.000000 0.531362 -0.637208
v -2.124313 0.531362 -0.624965
v -2.243849 0.531362 -0.588704
v -2.354014 0.531362 -0.529819
v -2.450574 0.531362 -0.450574
v -2.529819 0.531362 -0.354014
v -2.588704 0.531362 -0.243849
v -2.624965 0.531362 -0.124313
v -2.637209 0.531362 0.000000
v -2.624965 0.531362 0.124314
v -2.588704 0.531362 0.243850
v -2.529819 0.531362 0.354015
v -2.450574 0.531362 0.450575
v -2.354014 0.531362 0.529820
v -2.243849 0.531362 0.588705
v -2.124313 0.531362 0.624965
v -2.000000 0.531362 0.637209
v -1.875687 0.531362 0.624965
v -1.756150 0.531362 0.588705
v -1.645986 0.531362 0.529820
v -1.549425 0.531362 0.450575
v -1.470180 0.531362 0.354015
v -1.411296 0.531362 0.243850
v -1.375035 0.531362 0.124314
v -1.362791 0.531362 0.000000
v -1.375035 0.531362 -0.124313
v -1.411296 0.531362 -0.243849
v -1.470180 0.531362 -0.354014
v -1.549425 0.531362 -0.450574
v -1.645986 0.531362 -0.529819
v -1.756150 0.531362 -0.588704
v -1.875687 0.531362 -0.624965
v -1.295204 0.592902 -0.140192
v -1.336097 0.592902 -0.274997
v -2.508129 0.592902 0.508130
v -2.399235 0.592902 0.597497
v -1.402503 0.592902 -0.399234
v -2.274997 0.592902 0.663903
v -2.000000 0.592902 -0.718603
v -2.140193 0.592902 -0.704795
v -1.491870 0.592902 -0.508129
v -2.140193 0.592902 0.704796
v -2.274997 0.592902 -0.663903
v -1.600765 0.592902 -0.597497
v -2.000000 0.592902 0.718604
v -2.399235 0.592902 -0.597497
v -1.725002 0.592902 -0.663903
v -1.859807 0.592902 0.704796
v -2.508129 0.592902 -0.508129
v -1.859807 0.592902 -0.704795
v -1.725002 0.592902 0.663903
v -2.597497 0.592902 -0.399234
v -1.600765 0.592902 0.597497
v -2.663903 0.592902 -0.274997
v -1.491870 0.592902 0.508130
v -2.704796 0.592902 -0.140192
v -1.402503 0.592902 0.399235
v -2.718603 0.592902 0.000000
v -1.336097 0.592902 0.274998
v -2.704796 0.592902 0.140193
v -1.295204 0.592902 0.140193
v -2.663903 0.592902 0.274998
v -1.281396 0.592902 0.000000
v -2.597497 0.592902 0.399235
v -2.140193 0.461270 -0.704795
v -2.274997 0.461270 -0.663903
v -2.399235 0.461270 -0.597497
v -2.508129 0.461270 -0.508129
v -2.597497 0.461270 -0.399234
v -2.663903 0.461270 -0.274997
v -2.704796 0.461270 -0.140192
v -2.718603 0.461270 0.000000
v -2.704796 0.461270 0.140193
v -2.663903 0.461270 0.274998
v -2.597497 0.461270 0.399235
v -2.508129 0.461270 0.508130
v -2.399235 0.461270 0.597497
v -2.274997 0.461270 0.663903
v -2.140193 0.461270 0.704796
v -2.000000 0.461270 0.718604
v -1.859807 0.461270 0.704796
v -1.725002 0.461270 0.663903
v -1.600765 0.461270 0.597497
v -1.491870 0.461270 0.508130
v -1.402503 0.461270 0.399235
v -1.336097 0.461270 0.274998
v -1.295204 0.461270 0.140193
v -1.281396 0.461270 0.000000
v -1.295204 0.461270 -0.140192
v -1.336097 0.461270 -0.274997
v -1.402503 0.461270 -0.399234
v -1.491870 0.461270 -0.508129
v -1.600765 0.461270 -0.597497
v -1.725002 0.461270 -0.663903
v -1.859807 0.461270 -0.704795
v -2.000000 0.461270 -0.718603
v -1.102311 -0.066284 0.090001
v -1.370831 0.740324 0.090001
v -1.187704 -0.094712 0.000000
v -1.456224 0.711897 0.000000
v -1.016918 -0.037857 0.000000
v -1.285438 0.768751 0.000000
v -1.102311 -0.066284 -0.090000
v -1.370831 0.740324 -0.090000
v -1.909999 -0.066284 -0.897689
v -1.909999 0.740324 -0.629169
v -2.000000 -0.094712 -0.812295
v -2.000000 0.711897 -0.543775
v -2.000000 -0.037857 -0.983082
v -2.000000 0.768751 -0.714562
v -2.090000 -0.066284 -0.897689
v -2.090000 0.740324 -0.629169
v -2.090000 -0.066284 0.897689
v -2.090000 0.740324 0.629169
v -2.000000 -0.094712 0.812296
v -2.000000 0.711897 0.543776
v -2.000000 -0.037857 0.983082
v -2.000000 0.768751 0.714562
v -1.909999 -0.066284 0.897689
v -1.909999 0.740324 0.629169
v -2.897689 -0.066284 -0.090000
v -2.629169 0.740324 -0.090000
v -2.812296 -0.094712 0.000000
v -2.543776 0.711897 0.000000
v -2.983082 -0.037857 0.000000
v -2.714562 0.768751 0.000000
v -2.897689 -0.066284 0.090001
v -2.629169 0.740324 0.090001
v -1.559973 0.833162 0.062945
v -1.619695 0.804734 0.000000
v -1.559973 0.833162 -0.062944
v -1.500250 0.861589 0.000000
v -1.937055 0.833161 -0.440027
v -2.000000 0.804734 -0.380305
v -2.062944 0.833161 -0.440027
v -2.000000 0.861589 -0.499749
v -2.062944 0.833161 0.440028
v -2.000000 0.804734 0.380306
v -1.937055 0.833161 0.440028
v -2.000000 0.861589 0.499750
v -2.440027 0.833161 -0.062944
v -2.380305 0.804734 0.000000
v -2.440027 0.833161 0.062945
v -2.499749 0.861589 0.000000
v -2.000000 -0.025906 -0.428391
v -2.000000 0.320304 -0.267418
v -1.916425 -0.025906 -0.420159
v -1.947829 0.320304 -0.262280
v -1.836062 -0.025906 -0.395781
v -1.897663 0.320304 -0.247062
v -1.761998 -0.025906 -0.356194
v -1.851430 0.320304 -0.222350
v -1.697082 -0.025906 -0.302918
v -1.810906 0.320304 -0.189093
v -1.643806 -0.025906 -0.238001
v -1.777649 0.320304 -0.148570
v -1.604218 -0.025906 -0.163938
v -1.752937 0.320304 -0.102336
v -1.579840 -0.025906 -0.083575
v -1.737719 0.320304 -0.052170
v -1.571609 -0.025906 0.000000
v -1.732581 0.320304 0.000000
v -1.579840 -0.025906 0.083575
v -1.737719 0.320304 0.052171
v -1.604218 -0.025906 0.163939
v -1.752937 0.320304 0.102337
v -1.643806 -0.025906 0.238002
v -1.777649 0.320304 0.148570
v -1.697082 -0.025906 0.302919
v -1.810906 0.320304 0.189094
v -1.761998 -0.025906 0.356195
v -1.851430 0.320304 0.222351
v -1.836062 -0.025906 0.395782
v -1.897663 0.320304 0.247063
v -1.916425 -0.025906 0.420160
v -1.947829 0.320304 0.262281
v -2.000000 -0.025906 0.428391
v -2.000000 0.320304 0.267419
v -2.083575 -0.025906 0.420160
v -2.052171 0.320304 0.262281
v -2.163938 -0.025906 0.395782
v -2.102336 0.320304 0.247063
v -2.238001 -0.025906 0.356195
v -2.148570 0.320304 0.222351
v -2.302918 -0.025906 0.302919
v -2.189093 0.320304 0.189094
v -2.356194 -0.025906 0.238002
v -2.222350 0.320304 0.148570
v -2.395782 -0.025906 0.163939
v -2.247062 0.320304 0.102337
v -2.420159 -0.025906 0.083575
v -2.262280 0.320304 0.052171
v -2.428391 -0.025906 0.000000
v -2.267419 0.320304 0.000000
v -2.420159 -0.025906 -0.083575
v -2.262280 0.320304 -0.052170
v -2.395782 -0.025906 -0.163938
v -2.247062 0.320304 -0.102336
v -2.356194 -0.025906 -0.238001
v -2.222350 0.320304 -0.148570
v -2.302918 -0.025906 -0.302918
v -2.189093 0.320304 -0.189093
v -2.238001 -0.025906 -0.356194
v -2.148570 0.320304 -0.222350
v -2.163938 -0.025906 -0.395781
v -2.102336 0.320304 -0.247062
v -2.083575 -0.025906 -0.420159
v -2.052171 0.320304 -0.262280
v -1.929045 0.320304 -0.356714
v -2.000000 0.320304 -0.363703
v -1.860817 0.320304 -0.336017
v -1.797937 0.320304 -0.302408
v -1.742823 0.320304 -0.257177
v -1.697592 0.320304 -0.202062
v -1.663982 0.320304 -0.139183
v -1.643285 0.320304 -0.070955
v -1.636297 0.320304 0.000000
v -1.643285 0.320304 0.070955
v -1.663982 0.320304 0.139184
v -1.697592 0.320304 0.202063
v -1.742823 0.320304 0.257177
v -1.797937 0.320304 0.302408
v -1.860817 0.320304 0.336018
v -1.929045 0.320304 0.356715
v -2.000000 0.320304 0.363703
v -2.070955 0.320304 0.356715
v -2.139183 0.320304 0.336018
v -2.202062 0.320304 0.302408
v -2.257177 0.320304 0.257177
v -2.302408 0.320304 0.202063
v -2.336018 0.320304 0.139184
v -2.356714 0.320304 0.070955
v -2.363703 0.320304 0.000000
v -2.356714 0.320304 -0.070955
v -2.336018 0.320304 -0.139183
v -2.302408 0.320304 -0.202062
v -2.257177 0.320304 -0.257177
v -2.202062 0.320304 -0.302408
v -2.139183 0.320304 -0.336017
v -2.070955 0.320304 -0.356714
v -2.000000 0.362117 -0.315561
v -1.938437 0.362117 -0.309497
v -1.879240 0.362117 -0.291540
v -1.824684 0.362117 -0.262379
v -1.776865 0.362117 -0.223135
v -1.737620 0.362117 -0.175316
v -1.708459 0.362117 -0.120760
v -1.690502 0.362117 -0.061563
v -1.684439 0.362117 0.000000
v -1.690502 0.362117 0.061563
v -1.708459 0.362117 0.120760
v -1.737620 0.362117 0.175317
v -1.776865 0.362117 0.223136
v -1.824684 0.362117 0.262380
v -1.879240 0.362117 0.291541
v -1.938437 0.362117 0.309498
v -2.000000 0.362117 0.315561
v -2.061563 0.362117 0.309498
v -2.120760 0.362117 0.291541
v -2.175316 0.362117 0.262380
v -2.223135 0.362117 0.223136
v -2.262379 0.362117 0.175317
v -2.291540 0.362117 0.120760
v -2.309497 0.362117 0.061563
v -2.315561 0.362117 0.000000
v -2.309497 0.362117 -0.061563
v -2.291540 0.362117 -0.120760
v -2.262379 0.362117 -0.175316
v -2.223135 0.362117 -0.223135
v -2.175316 0.362117 -0.262379
v -2.120760 0.362117 -0.291540
v -2.061563 0.362117 -0.309497
v -2.000000 0.138924 0.000000
v -1.965588 0.138924 -0.173001
v -2.000000 0.138924 -0.176390
v -1.932498 0.138924 -0.162963
v -1.902002 0.138924 -0.146663
v -1.875273 0.138924 -0.124727
v -1.853336 0.138924 -0.097997
v -1.837036 0.138924 -0.067501
v -1.826999 0.138924 -0.034412
v -1.823609 0.138924 0.000000
v -1.826999 0.138924 0.034412
v -1.837036 0.138924 0.067502
v -1.853336 0.138924 0.097998
v -1.875273 0.138924 0.124727
v -1.902002 0.138924 0.146664
v -1.932498 0.138924 0.162964
v -1.965588 0.138924 0.173001
v -2.000000 0.138924 0.176391
v -2.034412 0.138924 0.173001
v -2.067502 0.138924 0.162964
v -2.097997 0.138924 0.146664
v -2.124727 0.138924 0.124727
v -2.146663 0.138924 0.097998
v -2.162963 0.138924 0.067502
v -2.173001 0.138924 0.034412
v -2.176390 0.138924 0.000000
v -2.173001 0.138924 -0.034412
v -2.162963 0.138924 -0.067501
v -2.146663 0.138924 -0.097997
v -2.124727 0.138924 -0.124727
v -2.097997 0.138924 -0.146663
v -2.067502 0.138924 -0.162963
v -2.034412 0.138924 -0.173001
vn -1.0000 -0.0000 -0.0000
vn -0.0000 -0.0000 -1.0000
vn 1.0000 -0.0000 -0.0000
vn -0.0000 -0.0000 1.0000
vn -0.0000 1.0000 -0.0000
vn -0.5915 0.7977 0.1177
vn -0.5572 0.7977 0.2308
vn 0.4265 0.7977 -0.4265
vn 0.3351 0.7977 -0.5015
vn -0.5015 0.7977 0.3351
vn 0.2308 0.7977 -0.5572
vn -0.0000 0.7977 0.6031
vn 0.1177 0.7977 0.5915
vn -0.4265 0.7977 0.4265
vn 0.1177 0.7977 -0.5915
vn 0.2308 0.7977 0.5572
vn -0.3351 0.7977 0.5015
vn -0.0000 0.7977 -0.6031
vn 0.3351 0.7977 0.5015
vn -0.2308 0.7977 0.5572
vn -0.1177 0.7977 -0.5915
vn 0.4265 0.7977 0.4265
vn -0.1177 0.7977 0.5915
vn -0.2308 0.7977 -0.5572
vn 0.5015 0.7977 0.3351
vn -0.3351 0.7977 -0.5015
vn 0.5572 0.7977 0.2308
vn -0.4265 0.7977 -0.4265
vn 0.5915 0.7977 0.1177
vn -0.5015 0.7977 -0.3351
vn 0.6031 0.7977 -0.0000
vn -0.5572 0.7977 -0.2308
vn 0.5915 0.7977 -0.1177
vn -0.5915 0.7977 -0.1177
vn 0.5572 0.7977 -0.2308
vn -0.6031 0.7977 -0.0000
vn 0.5015 0.7977 -0.3351
vn -0.1273 -0.7578 -0.6400
vn -0.2497 -0.7578 -0.6029
vn -0.3625 -0.7578 -0.5426
vn -0.4614 -0.7578 -0.4614
vn -0.5426 -0.7578 -0.3625
vn -0.6029 -0.7578 -0.2497
vn -0.6400 -0.7578 -0.1273
vn -0.6525 -0.7578 -0.0000
vn -0.6400 -0.7578 0.1273
vn -0.6029 -0.7578 0.2497
vn -0.5426 -0.7578 0.3625
vn -0.4614 -0.7578 0.4614
vn -0.3625 -0.7578 0.5426
vn -0.2497 -0.7578 0.6029
vn -0.1273 -0.7578 0.6400
vn -0.0000 -0.7578 0.6525
vn 0.1273 -0.7578 0.6400
vn 0.2497 -0.7578 0.6029
vn 0.3625 -0.7578 0.5426
vn 0.4614 -0.7578 0.4614
vn 0.5426 -0.7578 0.3625
vn 0.6029 -0.7578 0.2497
vn 0.6400 -0.7578 0.1273
vn 0.6525 -0.7578 -0.0000
vn 0.6400 -0.7578 -0.1273
vn 0.6029 -0.7578 -0.2497
vn 0.5426 -0.7578 -0.3625
vn 0.4614 -0.7578 -0.4614
vn 0.3625 -0.7578 -0.5426
vn 0.2497 -0.7578 -0.6029
vn 0.1273 -0.7578 -0.6400
vn -0.0000 -0.7578 -0.6525
vn -0.6709 -0.2233 0.7071
vn -0.5889 -0.4031 0.7005
vn -0.5356 -0.4928 0.6858
vn -0.6709 -0.2233 -0.7071
vn -0.5356 -0.4928 -0.6858
vn -0.5889 -0.4031 -0.7005
vn 0.6709 0.2233 -0.7071
vn 0.4960 0.5522 -0.6701
vn 0.5586 0.4572 -0.6920
vn 0.6709 0.2233 0.7071
vn 0.5586 0.4572 0.6920
vn 0.4960 0.5522 0.6701
vn -0.4647 0.3747 0.8023
vn -0.9953 -0.0971 -0.0000
vn 0.7071 -0.2233 0.6709
vn 0.7005 -0.4031 0.5889
vn 0.6858 -0.4928 0.5356
vn -0.7071 -0.2233 0.6709
vn -0.6858 -0.4928 0.5356
vn -0.7005 -0.4031 0.5889
vn -0.7071 0.2233 -0.6709
vn -0.6701 0.5522 -0.4960
vn -0.6920 0.4572 -0.5586
vn 0.7071 0.2233 -0.6709
vn 0.6920 0.4572 -0.5586
vn 0.6701 0.5522 -0.4960
vn 0.5356 -0.4928 -0.6858
vn 0.5889 -0.4031 -0.7005
vn 0.4647 0.3747 -0.8023
vn 0.9953 -0.0971 -0.0000
vn -0.7071 -0.2233 -0.6709
vn -0.7005 -0.4031 -0.5889
vn -0.6858 -0.4928 -0.5356
vn 0.7071 -0.2233 -0.6709
vn 0.6858 -0.4928 -0.5356
vn 0.7005 -0.4031 -0.5889
vn 0.7071 0.2233 0.6709
vn 0.6701 0.5522 0.4960
vn 0.6920 0.4572 0.5586
vn -0.7071 0.2233 0.6709
vn -0.6920 0.4572 0.5586
vn -0.6701 0.5522 0.4960
vn -0.0000 0.9905 -0.1377
vn 0.8023 0.3747 0.4647
vn 0.6709 -0.2233 -0.7071
vn 0.6709 -0.2233 0.7071
vn 0.5356 -0.4928 0.6858
vn 0.5889 -0.4031 0.7005
vn -0.6709 0.2233 0.7071
vn -0.4960 0.5522 0.6701
vn -0.5586 0.4572 0.6920
vn -0.6709 0.2233 -0.7071
vn -0.5586 0.4572 -0.6920
vn -0.4960 0.5522 -0.6701
vn -0.4647 0.3747 -0.8023
vn 0.1377 0.9905 -0.0000
vn -0.8023 0.3747 0.4647
vn -0.0000 -0.0971 0.9953
vn 0.8023 0.3747 -0.4647
vn -0.0000 -0.0971 -0.9953
vn -0.8023 0.3747 -0.4647
vn -0.0000 0.9905 0.1377
vn 0.4647 0.3747 0.8023
vn -0.1377 0.9905 -0.0000
vn -0.0000 0.1837 -0.9830
vn 0.1918 0.1837 -0.9641
vn 0.3762 0.1837 -0.9082
vn 0.5461 0.1837 -0.8173
vn 0.6951 0.1837 -0.6951
vn 0.8173 0.1837 -0.5461
vn 0.9082 0.1837 -0.3762
vn 0.9641 0.1837 -0.1918
vn 0.9830 0.1837 -0.0000
vn 0.9641 0.1837 0.1918
vn 0.9082 0.1837 0.3762
vn 0.8173 0.1837 0.5461
vn 0.6951 0.1837 0.6951
vn 0.5461 0.1837 0.8173
vn 0.3762 0.1837 0.9082
vn 0.1918 0.1837 0.9641
vn -0.0000 0.1837 0.9830
vn -0.1918 0.1837 0.9641
vn -0.3762 0.1837 0.9082
vn -0.5461 0.1837 0.8173
vn -0.6951 0.1837 0.6951
vn -0.8173 0.1837 0.5461
vn -0.9082 0.1837 0.3762
vn -0.9641 0.1837 0.1918
vn -0.9830 0.1837 -0.0000
vn -0.9641 0.1837 -0.1918
vn -0.9082 0.1837 -0.3762
vn -0.8173 0.1837 -0.5461
vn -0.6951 0.1837 -0.6951
vn -0.5461 0.1837 -0.8173
vn -0.3762 0.1837 -0.9082
vn -0.8257 0.4485 -0.3420
vn -0.8766 0.4485 -0.1744
vn -0.5375 0.8364 -0.1069
vn -0.5063 0.8364 -0.2097
vn -0.1918 0.1837 -0.9641
vn -0.0000 0.7550 -0.6557
vn 0.1279 0.7550 -0.6431
vn 0.2509 0.7550 -0.6058
vn 0.3643 0.7550 -0.5452
vn 0.4637 0.7550 -0.4637
vn 0.5452 0.7550 -0.3643
vn 0.6058 0.7550 -0.2509
vn 0.6431 0.7550 -0.1279
vn 0.6557 0.7550 -0.0000
vn 0.6431 0.7550 0.1279
vn 0.6058 0.7550 0.2509
vn 0.5452 0.7550 0.3643
vn 0.4637 0.7550 0.4637
vn 0.3643 0.7550 0.5452
vn 0.2509 0.7550 0.6058
vn 0.1279 0.7550 0.6431
vn -0.0000 0.7550 0.6557
vn -0.1279 0.7550 0.6431
vn -0.2509 0.7550 0.6058
vn -0.3643 0.7550 0.5452
vn -0.4637 0.7550 0.4637
vn -0.5452 0.7550 0.3643
vn -0.6058 0.7550 0.2509
vn -0.6431 0.7550 0.1279
vn -0.6557 0.7550 -0.0000
vn -0.6431 0.7550 -0.1279
vn -0.6058 0.7550 -0.2509
vn -0.5452 0.7550 -0.3643
vn -0.4637 0.7550 -0.4637
vn -0.3643 0.7550 -0.5452
vn -0.2509 0.7550 -0.6058
vn -0.1279 0.7550 -0.6431
vn 0.8938 0.4485 -0.0000
vn 0.8766 0.4485 -0.1744
vn 0.5375 0.8364 -0.1069
vn 0.5480 0.8364 -0.0000
vn -0.7431 0.4485 -0.4965
vn -0.4557 0.8364 -0.3045
vn 0.8766 0.4485 0.1744
vn 0.5375 0.8364 0.1069
vn -0.6320 0.4485 -0.6320
vn -0.3875 0.8364 -0.3875
vn 0.8257 0.4485 0.3420
vn 0.5063 0.8364 0.2097
vn -0.4965 0.4485 -0.7431
vn -0.3045 0.8364 -0.4557
vn 0.7431 0.4485 0.4965
vn 0.4557 0.8364 0.3045
vn -0.3420 0.4485 -0.8257
vn -0.2097 0.8364 -0.5063
vn -0.1744 0.4485 0.8766
vn -0.0000 0.4485 0.8938
vn -0.0000 0.8364 0.5480
vn -0.1069 0.8364 0.5375
vn 0.6320 0.4485 0.6320
vn 0.3875 0.8364 0.3875
vn -0.1744 0.4485 -0.8766
vn -0.1069 0.8364 -0.5375
vn -0.3420 0.4485 0.8257
vn -0.2097 0.8364 0.5063
vn 0.4965 0.4485 0.7431
vn 0.3045 0.8364 0.4557
vn -0.0000 0.4485 -0.8938
vn -0.0000 0.8364 -0.5480
vn -0.4965 0.4485 0.7431
vn -0.3045 0.8364 0.4557
vn 0.3420 0.4485 0.8257
vn 0.2097 0.8364 0.5063
vn 0.1744 0.4485 -0.8766
vn 0.1069 0.8364 -0.5375
vn -0.6320 0.4485 0.6320
vn -0.3875 0.8364 0.3875
vn 0.1744 0.4485 0.8766
vn 0.1069 0.8364 0.5375
vn 0.3420 0.4485 -0.8257
vn 0.2097 0.8364 -0.5063
vn -0.7431 0.4485 0.4965
vn -0.4557 0.8364 0.3045
vn 0.4965 0.4485 -0.7431
vn 0.3045 0.8364 -0.4557
vn -0.8257 0.4485 0.3420
vn -0.5063 0.8364 0.2097
vn 0.6320 0.4485 -0.6320
vn 0.3875 0.8364 -0.3875
vn -0.8766 0.4485 0.1744
vn -0.5375 0.8364 0.1069
vn 0.7431 0.4485 -0.4965
vn 0.4557 0.8364 -0.3045
vn -0.8938 0.4485 -0.0000
vn -0.5480 0.8364 -0.0000
vn 0.8257 0.4485 -0.3420
vn 0.5063 0.8364 -0.2097
vt 0.630152 0.000191
vt 0.630152 0.044662
vt 0.185443 0.044662
vt 0.185443 0.000191
vt 0.140972 0.044662
vt 0.185443 0.489371
vt 0.140972 0.489371
vt 0.185443 0.533842
vt 0.630152 0.489371
vt 0.630152 0.533842
vt 0.674623 0.489371
vt 0.674623 0.044662
vt 0.053597 0.780364
vt 0.052829 0.812955
vt 0.027916 0.812144
vt 0.028312 0.779662
vt 0.054832 0.350835
vt 0.054913 0.380472
vt 0.031531 0.380448
vt 0.032493 0.350759
vt 0.052259 0.844612
vt 0.028068 0.843756
vt 0.054731 0.410943
vt 0.031734 0.410843
vt 0.045988 0.003404
vt 0.048513 0.034573
vt 0.025289 0.035633
vt 0.023570 0.007244
vt 0.051616 0.875777
vt 0.027656 0.874850
vt 0.055085 0.442010
vt 0.030859 0.442084
vt 0.049671 0.064580
vt 0.027191 0.065098
vt 0.050504 0.906765
vt 0.027006 0.905815
vt 0.055336 0.473966
vt 0.029935 0.473900
vt 0.050360 0.093733
vt 0.028333 0.094085
vt 0.049912 0.937507
vt 0.026597 0.936522
vt 0.054935 0.506822
vt 0.030086 0.506660
vt 0.050982 0.122029
vt 0.029223 0.122316
vt 0.049161 0.967635
vt 0.026500 0.966596
vt 0.055310 0.540225
vt 0.029151 0.540337
vt 0.051647 0.149733
vt 0.030526 0.149953
vt 0.047545 0.997004
vt 0.026634 0.994785
vt 0.055031 0.574618
vt 0.028419 0.574458
vt 0.052200 0.177264
vt 0.031436 0.177547
vt 0.055152 0.609290
vt 0.028188 0.608849
vt 0.052929 0.205040
vt 0.031170 0.205509
vt 0.054650 0.643679
vt 0.029074 0.643457
vt 0.053337 0.233643
vt 0.030731 0.233926
vt 0.054865 0.678136
vt 0.027487 0.677889
vt 0.053592 0.262935
vt 0.031205 0.262900
vt 0.054293 0.712621
vt 0.027976 0.712199
vt 0.054246 0.292301
vt 0.031704 0.292137
vt 0.054141 0.746838
vt 0.028487 0.746280
vt 0.054479 0.321626
vt 0.032081 0.321392
vt 0.074614 0.321347
vt 0.074960 0.350674
vt 0.077564 0.747126
vt 0.076589 0.780868
vt 0.074862 0.291954
vt 0.078615 0.712819
vt 0.074287 0.262477
vt 0.078570 0.678312
vt 0.073331 0.233242
vt 0.078869 0.643839
vt 0.072018 0.204632
vt 0.078953 0.609309
vt 0.071373 0.176732
vt 0.079076 0.574568
vt 0.070793 0.149210
vt 0.078458 0.540171
vt 0.069768 0.968389
vt 0.068506 0.999809
vt 0.070577 0.121569
vt 0.078372 0.506523
vt 0.071078 0.938100
vt 0.070295 0.093304
vt 0.077286 0.473810
vt 0.072193 0.907351
vt 0.070226 0.064041
vt 0.076987 0.441724
vt 0.072742 0.876329
vt 0.069907 0.033497
vt 0.076626 0.410583
vt 0.074128 0.845138
vt 0.069035 0.000191
vt 0.075676 0.380327
vt 0.075199 0.813508
vt 0.092690 0.033907
vt 0.091963 0.064441
vt 0.091085 0.093690
vt 0.090324 0.121577
vt 0.090684 0.148683
vt 0.091491 0.175957
vt 0.092682 0.203583
vt 0.094559 0.232066
vt 0.096359 0.261938
vt 0.096007 0.291846
vt 0.096416 0.321273
vt 0.096033 0.350340
vt 0.097318 0.379398
vt 0.098921 0.409700
vt 0.100028 0.441010
vt 0.101016 0.472957
vt 0.102500 0.505652
vt 0.103621 0.539447
vt 0.104935 0.574427
vt 0.103979 0.609407
vt 0.104483 0.644036
vt 0.103320 0.678554
vt 0.103669 0.712803
vt 0.103410 0.747939
vt 0.100977 0.782383
vt 0.098450 0.814985
vt 0.096313 0.846091
vt 0.095513 0.876679
vt 0.095447 0.908091
vt 0.093387 0.939424
vt 0.091361 0.969415
vt 0.090749 0.998621
vt 0.093592 0.002112
vt 0.001342 0.036127
vt 0.001046 0.006232
vt 0.003127 0.997644
vt 0.001677 0.966623
vt 0.001695 0.935864
vt 0.002024 0.904967
vt 0.002541 0.873991
vt 0.002914 0.843097
vt 0.002930 0.812240
vt 0.001745 0.780515
vt 0.000471 0.746694
vt 0.000191 0.711857
vt 0.000461 0.677635
vt 0.000536 0.643357
vt 0.000643 0.608957
vt 0.000191 0.574098
vt 0.001432 0.539051
vt 0.003000 0.505411
vt 0.003972 0.472806
vt 0.005338 0.440783
vt 0.006708 0.409759
vt 0.007452 0.379612
vt 0.008378 0.350005
vt 0.008416 0.321090
vt 0.008048 0.291956
vt 0.007670 0.262671
vt 0.007631 0.233457
vt 0.008322 0.204824
vt 0.008875 0.177200
vt 0.008467 0.150197
vt 0.007459 0.123318
vt 0.005263 0.095827
vt 0.002858 0.066484
vt 0.222055 0.622585
vt 0.222177 0.801608
vt 0.193679 0.812117
vt 0.193679 0.622585
vt 0.311989 0.627810
vt 0.295233 0.815618
vt 0.268544 0.803201
vt 0.283360 0.625531
vt 0.245359 0.795158
vt 0.254823 0.623607
vt 0.218827 0.854875
vt 0.195102 0.866457
vt 0.464481 0.622827
vt 0.463384 0.801440
vt 0.435872 0.811255
vt 0.435723 0.622585
vt 0.557615 0.630198
vt 0.535896 0.817240
vt 0.508956 0.804022
vt 0.529611 0.626946
vt 0.486628 0.795306
vt 0.497105 0.624168
vt 0.729579 0.780464
vt 0.757337 0.769721
vt 0.754763 0.823575
vt 0.730849 0.835161
vt 0.341235 0.622834
vt 0.339937 0.802119
vt 0.312446 0.811872
vt 0.312371 0.622585
vt 0.435341 0.630354
vt 0.411444 0.818127
vt 0.385399 0.804991
vt 0.406675 0.626969
vt 0.363138 0.796116
vt 0.374000 0.624178
vt 0.483612 0.846250
vt 0.459098 0.853502
vt 0.756599 0.590653
vt 0.727712 0.590653
vt 0.842426 0.593638
vt 0.832673 0.782911
vt 0.804561 0.770672
vt 0.814089 0.592177
vt 0.781133 0.763154
vt 0.785361 0.591010
vt 0.267926 0.856296
vt 0.243758 0.846709
vt 0.207844 0.889579
vt 0.231569 0.877998
vt 0.447451 0.886908
vt 0.435723 0.864085
vt 0.470826 0.876325
vt 0.324062 0.887068
vt 0.312371 0.864395
vt 0.335595 0.853841
vt 0.347286 0.876514
vt 0.743605 0.858472
vt 0.767520 0.846886
vt 0.529266 0.870187
vt 0.507206 0.856585
vt 0.383197 0.856849
vt 0.359948 0.846617
vt 0.779935 0.815302
vt 0.828296 0.838021
vt 0.804826 0.824979
vt 0.290636 0.869109
vt 0.404909 0.870241
vt 0.745234 0.392030
vt 0.811788 0.355592
vt 0.819450 0.367851
vt 0.755101 0.408989
vt 0.828061 0.379625
vt 0.766125 0.425334
vt 0.837583 0.390878
vt 0.778254 0.441007
vt 0.848037 0.401586
vt 0.791429 0.455958
vt 0.859430 0.411692
vt 0.805583 0.470145
vt 0.871791 0.421206
vt 0.820637 0.483542
vt 0.885266 0.430177
vt 0.836494 0.496138
vt 0.900284 0.438753
vt 0.852743 0.507768
vt 0.873853 0.006051
vt 0.911319 0.073981
vt 0.896579 0.080509
vt 0.857819 0.015274
vt 0.883347 0.087804
vt 0.842034 0.025316
vt 0.870946 0.095615
vt 0.826807 0.036135
vt 0.859372 0.104128
vt 0.812207 0.047774
vt 0.848594 0.113305
vt 0.798321 0.060254
vt 0.838545 0.123111
vt 0.785225 0.073573
vt 0.829447 0.133629
vt 0.773003 0.087712
vt 0.820997 0.144586
vt 0.761718 0.102629
vt 0.813368 0.156103
vt 0.751426 0.118284
vt 0.806613 0.168114
vt 0.742192 0.134629
vt 0.800728 0.180559
vt 0.734074 0.151603
vt 0.795742 0.193412
vt 0.727126 0.169143
vt 0.791703 0.206587
vt 0.721399 0.187175
vt 0.788604 0.220024
vt 0.716933 0.205620
vt 0.786469 0.233679
vt 0.713764 0.224399
vt 0.785198 0.247493
vt 0.712117 0.243375
vt 0.785000 0.261443
vt 0.711616 0.262417
vt 0.785996 0.275362
vt 0.712461 0.281507
vt 0.787789 0.289224
vt 0.714644 0.300550
vt 0.790593 0.302991
vt 0.718155 0.319466
vt 0.794401 0.316578
vt 0.722990 0.338161
vt 0.799168 0.329948
vt 0.729133 0.356546
vt 0.896993 0.112703
vt 0.908286 0.107326
vt 0.926233 0.152859
vt 0.918670 0.156244
vt 0.805092 0.342920
vt 0.736563 0.374529
vt 0.823331 0.348871
vt 0.830559 0.360248
vt 0.838728 0.371144
vt 0.847708 0.381535
vt 0.857586 0.391381
vt 0.868396 0.400571
vt 0.880077 0.409084
vt 0.892841 0.416816
vt 0.907020 0.423546
vt 0.916018 0.088394
vt 0.902579 0.093499
vt 0.890007 0.099650
vt 0.878419 0.106733
vt 0.867526 0.114512
vt 0.857427 0.123003
vt 0.848041 0.132115
vt 0.839288 0.141767
vt 0.831438 0.152042
vt 0.824292 0.162774
vt 0.818000 0.173994
vt 0.812498 0.185595
vt 0.807836 0.197594
vt 0.804101 0.209903
vt 0.801212 0.222438
vt 0.799219 0.235205
vt 0.798181 0.248111
vt 0.798071 0.261085
vt 0.798797 0.274107
vt 0.800620 0.287041
vt 0.803288 0.299871
vt 0.806953 0.312521
vt 0.811515 0.324931
vt 0.816900 0.337116
vt 0.829911 0.330650
vt 0.835734 0.341523
vt 0.824737 0.319531
vt 0.820390 0.308128
vt 0.817118 0.296427
vt 0.814466 0.284630
vt 0.812937 0.272699
vt 0.812076 0.260725
vt 0.812068 0.248750
vt 0.813161 0.236866
vt 0.814876 0.225083
vt 0.817428 0.213479
vt 0.821031 0.202181
vt 0.825230 0.191098
vt 0.830220 0.180350
vt 0.836189 0.170086
vt 0.842687 0.160136
vt 0.850118 0.150812
vt 0.858097 0.141879
vt 0.866756 0.133500
vt 0.876244 0.125917
vt 0.886231 0.118825
vt 0.920123 0.103107
vt 0.900261 0.402440
vt 0.912618 0.407891
vt 0.888597 0.395909
vt 0.877723 0.388491
vt 0.867821 0.380157
vt 0.858560 0.371333
vt 0.850089 0.361929
vt 0.842606 0.351872
vt 0.861044 0.242145
vt 0.860499 0.250528
vt 0.911439 0.160263
vt 0.860567 0.258962
vt 0.904573 0.164877
vt 0.861254 0.267386
vt 0.898098 0.169990
vt 0.862554 0.275757
vt 0.892078 0.175653
vt 0.878008 0.315332
vt 0.882875 0.322432
vt 0.864471 0.284041
vt 0.886522 0.181775
vt 0.888243 0.329206
vt 0.866916 0.292205
vt 0.881401 0.188263
vt 0.894145 0.335547
vt 0.870047 0.300150
vt 0.876839 0.195178
vt 0.900589 0.341370
vt 0.873771 0.307859
vt 0.872741 0.202384
vt 0.907504 0.346673
vt 0.869193 0.209878
vt 0.914873 0.351410
vt 0.866281 0.217665
vt 0.922644 0.355515
vt 0.863944 0.225662
vt 0.930762 0.358937
vt 0.862193 0.233841
vt 0.934131 0.150122
vt 0.916484 0.294175
vt 0.919946 0.298568
vt 0.923388 0.302413
vt 0.926929 0.305750
vt 0.930968 0.308915
vt 0.935234 0.311632
vt 0.939600 0.314013
vt 0.944074 0.316013
vt 0.944074 0.191586
vt 0.939638 0.192946
vt 0.935453 0.194963
vt 0.931430 0.197421
vt 0.927292 0.200306
vt 0.923839 0.203382
vt 0.920379 0.206918
vt 0.916899 0.211020
vt 0.914223 0.214877
vt 0.911372 0.219584
vt 0.909011 0.224143
vt 0.907270 0.228554
vt 0.905709 0.233530
vt 0.904587 0.238638
vt 0.903775 0.243830
vt 0.903332 0.249103
vt 0.903346 0.254397
vt 0.903678 0.259690
vt 0.904397 0.264970
vt 0.905568 0.270166
vt 0.907141 0.275712
vt 0.908815 0.280281
vt 0.911044 0.285099
vt 0.913826 0.290087
s 1
usemtl Material.001
f 1/1/1 2/2/1 4/3/1 3/4/1
f 3/5/2 4/3/2 8/6/2 7/7/2
f 7/8/3 8/6/3 6/9/3 5/10/3
f 5/11/4 6/9/4 2/2/4 1/12/4
f 8/6/5 4/3/5 2/2/5 6/9/5
f 73/13/6 74/14/7 67/15/7 66/16/6
f 75/17/8 76/18/9 54/19/9 53/20/8
f 74/14/7 77/21/10 68/22/10 67/15/7
f 76/18/9 78/23/11 55/24/11 54/19/9
f 79/25/12 80/26/13 42/27/13 41/28/12
f 77/21/10 81/29/14 69/30/14 68/22/10
f 78/23/11 82/31/15 56/32/15 55/24/11
f 80/26/13 83/33/16 43/34/16 42/27/13
f 81/29/14 84/35/17 70/36/17 69/30/14
f 82/31/15 85/37/18 57/38/18 56/32/15
f 83/33/16 86/39/19 44/40/19 43/34/16
f 84/35/17 87/41/20 71/42/20 70/36/17
f 85/37/18 88/43/21 58/44/21 57/38/18
f 86/39/19 89/45/22 45/46/22 44/40/19
f 87/41/20 90/47/23 72/48/23 71/42/20
f 88/43/21 91/49/24 59/50/24 58/44/21
f 89/45/22 92/51/25 46/52/25 45/46/22
f 90/47/23 79/53/12 41/54/12 72/48/23
f 91/49/24 93/55/26 60/56/26 59/50/24
f 92/51/25 94/57/27 47/58/27 46/52/25
f 93/55/26 95/59/28 61/60/28 60/56/26
f 94/57/27 96/61/29 48/62/29 47/58/27
f 95/59/28 97/63/30 62/64/30 61/60/28
f 96/61/29 98/65/31 49/66/31 48/62/29
f 97/63/30 99/67/32 63/68/32 62/64/30
f 98/65/31 100/69/33 50/70/33 49/66/31
f 99/67/32 101/71/34 64/72/34 63/68/32
f 100/69/33 102/73/35 51/74/35 50/70/33
f 101/71/34 103/75/36 65/76/36 64/72/34
f 102/73/35 104/77/37 52/78/37 51/74/35
f 103/75/36 73/13/6 66/16/6 65/76/36
f 104/77/37 75/17/8 53/20/8 52/78/37
f 20/79/10 21/80/14 75/17/14 104/77/10
f 33/81/31 34/82/33 73/13/33 103/75/31
f 19/83/7 20/79/10 104/77/10 102/73/7
f 32/84/29 33/81/31 103/75/31 101/71/29
f 18/85/6 19/83/7 102/73/7 100/69/6
f 31/86/27 32/84/29 101/71/29 99/67/27
f 17/87/36 18/85/6 100/69/6 98/65/36
f 30/88/25 31/86/27 99/67/27 97/63/25
f 16/89/34 17/87/36 98/65/36 96/61/34
f 29/90/22 30/88/25 97/63/25 95/59/22
f 15/91/32 16/89/34 96/61/34 94/57/32
f 28/92/19 29/90/22 95/59/22 93/55/19
f 14/93/30 15/91/32 94/57/32 92/51/30
f 27/94/16 28/92/19 93/55/19 91/49/16
f 40/95/15 9/96/18 79/53/18 90/47/15
f 13/97/28 14/93/30 92/51/30 89/45/28
f 26/98/13 27/94/16 91/49/16 88/43/13
f 39/99/11 40/95/15 90/47/15 87/41/11
f 12/100/26 13/97/28 89/45/28 86/39/26
f 25/101/12 26/98/13 88/43/13 85/37/12
f 38/102/9 39/99/11 87/41/11 84/35/9
f 11/103/24 12/100/26 86/39/26 83/33/24
f 24/104/23 25/101/12 85/37/12 82/31/23
f 37/105/8 38/102/9 84/35/9 81/29/8
f 10/106/21 11/103/24 83/33/24 80/26/21
f 23/107/20 24/104/23 82/31/23 78/23/20
f 36/108/37 37/105/8 81/29/8 77/21/37
f 9/109/18 10/106/21 80/26/21 79/25/18
f 22/110/17 23/107/20 78/23/20 76/18/17
f 35/111/35 36/108/37 77/21/37 74/14/35
f 21/80/14 22/110/17 76/18/17 75/17/14
f 34/82/33 35/111/35 74/14/35 73/13/33
f 105/112/38 106/113/39 11/103/39 10/106/38
f 106/113/39 107/114/40 12/100/40 11/103/39
f 107/114/40 108/115/41 13/97/41 12/100/40
f 108/115/41 109/116/42 14/93/42 13/97/41
f 109/116/42 110/117/43 15/91/43 14/93/42
f 110/117/43 111/118/44 16/89/44 15/91/43
f 111/118/44 112/119/45 17/87/45 16/89/44
f 112/119/45 113/120/46 18/85/46 17/87/45
f 113/120/46 114/121/47 19/83/47 18/85/46
f 114/121/47 115/122/48 20/79/48 19/83/47
f 115/122/48 116/123/49 21/80/49 20/79/48
f 116/123/49 117/124/50 22/110/50 21/80/49
f 117/124/50 118/125/51 23/107/51 22/110/50
f 118/125/51 119/126/52 24/104/52 23/107/51
f 119/126/52 120/127/53 25/101/53 24/104/52
f 120/127/53 121/128/54 26/98/54 25/101/53
f 121/128/54 122/129/55 27/94/55 26/98/54
f 122/129/55 123/130/56 28/92/56 27/94/55
f 123/130/56 124/131/57 29/90/57 28/92/56
f 124/131/57 125/132/58 30/88/58 29/90/57
f 125/132/58 126/133/59 31/86/59 30/88/58
f 126/133/59 127/134/60 32/84/60 31/86/59
f 127/134/60 128/135/61 33/81/61 32/84/60
f 128/135/61 129/136/62 34/82/62 33/81/61
f 129/136/62 130/137/63 35/111/63 34/82/62
f 130/137/63 131/138/64 36/108/64 35/111/63
f 131/138/64 132/139/65 37/105/65 36/108/64
f 132/139/65 133/140/66 38/102/66 37/105/65
f 133/140/66 134/141/67 39/99/67 38/102/66
f 134/141/67 135/142/68 40/95/68 39/99/67
f 135/142/68 136/143/69 9/96/69 40/95/68
f 136/144/69 105/112/38 10/106/38 9/109/69
f 41/28/53 42/27/54 105/145/54 136/146/53
f 72/48/52 41/54/53 136/147/53 135/148/52
f 71/42/51 72/48/52 135/148/52 134/149/51
f 70/36/50 71/42/51 134/149/51 133/150/50
f 69/30/49 70/36/50 133/150/50 132/151/49
f 68/22/48 69/30/49 132/151/49 131/152/48
f 67/15/47 68/22/48 131/152/48 130/153/47
f 66/16/46 67/15/47 130/153/47 129/154/46
f 65/76/45 66/16/46 129/154/46 128/155/45
f 64/72/44 65/76/45 128/155/45 127/156/44
f 63/68/43 64/72/44 127/156/44 126/157/43
f 62/64/42 63/68/43 126/157/43 125/158/42
f 61/60/41 62/64/42 125/158/42 124/159/41
f 60/56/40 61/60/41 124/159/41 123/160/40
f 59/50/39 60/56/40 123/160/40 122/161/39
f 58/44/38 59/50/39 122/161/39 121/162/38
f 57/38/69 58/44/38 121/162/38 120/163/69
f 56/32/68 57/38/69 120/163/69 119/164/68
f 55/24/67 56/32/68 119/164/68 118/165/67
f 54/19/66 55/24/67 118/165/67 117/166/66
f 53/20/65 54/19/66 117/166/66 116/167/65
f 52/78/64 53/20/65 116/167/65 115/168/64
f 51/74/63 52/78/64 115/168/64 114/169/63
f 50/70/62 51/74/63 114/169/63 113/170/62
f 49/66/61 50/70/62 113/170/62 112/171/61
f 48/62/60 49/66/61 112/171/61 111/172/60
f 47/58/59 48/62/60 111/172/60 110/173/59
f 46/52/58 47/58/59 110/173/59 109/174/58
f 45/46/57 46/52/58 109/174/58 108/175/57
f 44/40/56 45/46/57 108/175/57 107/176/56
f 43/34/55 44/40/56 107/176/56 106/177/55
f 42/27/54 43/34/55 106/177/55 105/145/54
f 137/178/70 138/179/71 140/180/72 139/181/70
f 139/182/73 140/183/74 144/184/75 143/185/73
f 143/185/76 144/184/77 142/186/78 141/187/76
f 141/187/79 142/186/80 138/179/81 137/178/79
f 140/180/72 138/179/71 169/188/82 170/189/83
f 145/190/84 146/191/85 148/192/86 147/193/84
f 147/194/87 148/195/88 152/196/89 151/197/87
f 151/197/90 152/196/91 150/198/92 149/199/90
f 149/199/93 150/198/94 146/191/95 145/190/93
f 164/200/96 162/201/97 181/202/98 182/203/99
f 153/204/100 154/205/101 156/206/102 155/207/100
f 155/208/103 156/209/104 160/210/105 159/211/103
f 159/211/106 160/210/107 158/212/108 157/213/106
f 157/213/109 158/212/110 154/205/111 153/204/109
f 146/191/95 150/198/94 176/214/112 173/215/113
f 161/216/114 162/201/97 164/200/96 163/217/114
f 163/218/115 164/219/116 168/220/117 167/221/115
f 167/221/118 168/220/119 166/222/120 165/223/118
f 165/223/121 166/222/122 162/201/123 161/216/121
f 142/186/78 144/184/77 171/224/124 172/225/125
f 171/226/124 170/189/83 169/188/82 172/227/125
f 175/228/126 174/229/127 173/215/113 176/230/112
f 179/231/128 178/232/129 177/233/130 180/234/131
f 183/235/132 182/203/99 181/202/98 184/236/133
f 152/196/89 148/195/88 174/237/127 175/238/126
f 158/212/108 160/210/107 179/239/128 180/240/131
f 162/201/123 166/222/122 184/241/133 181/202/98
f 138/179/81 142/186/80 172/225/125 169/188/82
f 156/206/102 154/205/101 177/233/130 178/232/129
f 168/220/117 164/219/116 182/242/99 183/243/132
f 144/184/75 140/183/74 170/244/83 171/224/124
f 150/198/92 152/196/91 175/238/126 176/214/112
f 154/205/111 158/212/110 180/240/131 177/233/130
f 148/192/86 146/191/85 173/215/113 174/229/127
f 160/210/105 156/209/104 178/245/129 179/239/128
f 166/222/120 168/220/119 183/243/132 184/241/133
f 185/246/134 250/247/134 249/248/135 187/249/135
f 187/249/135 249/248/135 251/250/136 189/251/136
f 189/251/136 251/250/136 252/252/137 191/253/137
f 191/253/137 252/252/137 253/254/138 193/255/138
f 193/255/138 253/254/138 254/256/139 195/257/139
f 195/257/139 254/256/139 255/258/140 197/259/140
f 197/259/140 255/258/140 256/260/141 199/261/141
f 199/261/141 256/260/141 257/262/142 201/263/142
f 201/264/142 257/265/142 258/266/143 203/267/143
f 203/267/143 258/266/143 259/268/144 205/269/144
f 205/269/144 259/268/144 260/270/145 207/271/145
f 207/271/145 260/270/145 261/272/146 209/273/146
f 209/273/146 261/272/146 262/274/147 211/275/147
f 211/275/147 262/274/147 263/276/148 213/277/148
f 213/277/148 263/276/148 264/278/149 215/279/149
f 215/279/149 264/278/149 265/280/150 217/281/150
f 217/281/150 265/280/150 266/282/151 219/283/151
f 219/283/151 266/282/151 267/284/152 221/285/152
f 221/285/152 267/284/152 268/286/153 223/287/153
f 223/287/153 268/286/153 269/288/154 225/289/154
f 225/289/154 269/288/154 270/290/155 227/291/155
f 227/291/155 270/290/155 271/292/156 229/293/156
f 229/293/156 271/292/156 272/294/157 231/295/157
f 231/295/157 272/294/157 273/296/158 233/297/158
f 233/297/158 273/296/158 274/298/159 235/299/159
f 235/299/159 274/298/159 275/300/160 237/301/160
f 237/301/160 275/300/160 276/302/161 239/303/161
f 239/303/161 276/302/161 277/304/162 241/305/162
f 241/305/162 277/304/162 278/306/163 243/307/163
f 243/307/163 278/306/163 279/308/164 245/309/164
f 206/310/165 204/311/166 323/312/167 324/313/168
f 245/309/164 279/308/164 280/314/169 247/315/169
f 247/315/169 280/314/169 250/247/134 185/246/134
f 281/316/170 282/317/171 249/248/171 250/247/170
f 282/317/171 283/318/172 251/250/172 249/248/171
f 283/318/172 284/319/173 252/252/173 251/250/172
f 284/319/173 285/320/174 253/254/174 252/252/173
f 285/320/174 286/321/175 254/256/175 253/254/174
f 286/321/175 287/322/176 255/258/176 254/256/175
f 287/322/176 288/323/177 256/260/177 255/258/176
f 288/323/177 289/324/178 257/262/178 256/260/177
f 289/325/178 290/326/179 258/266/179 257/265/178
f 290/326/179 291/327/180 259/268/180 258/266/179
f 291/327/180 292/328/181 260/270/181 259/268/180
f 292/328/181 293/329/182 261/272/182 260/270/181
f 293/329/182 294/330/183 262/274/183 261/272/182
f 294/330/183 295/331/184 263/276/184 262/274/183
f 295/331/184 296/332/185 264/278/185 263/276/184
f 296/332/185 297/333/186 265/280/186 264/278/185
f 297/333/186 298/334/187 266/282/187 265/280/186
f 298/334/187 299/335/188 267/284/188 266/282/187
f 299/335/188 300/336/189 268/286/189 267/284/188
f 300/336/189 301/337/190 269/288/190 268/286/189
f 301/337/190 302/338/191 270/290/191 269/288/190
f 302/338/191 303/339/192 271/292/192 270/290/191
f 303/339/192 304/340/193 272/294/193 271/292/192
f 304/340/193 305/341/194 273/296/194 272/294/193
f 305/341/194 306/342/195 274/298/195 273/296/194
f 306/342/195 307/343/196 275/300/196 274/298/195
f 307/343/196 308/344/197 276/302/197 275/300/196
f 308/344/197 309/345/198 277/304/198 276/302/197
f 309/345/198 310/346/199 278/306/199 277/304/198
f 310/346/199 311/347/200 279/308/200 278/306/199
f 311/347/200 312/348/201 280/314/201 279/308/200
f 312/348/201 281/316/170 250/247/170 280/314/201
f 248/349/185 186/350/186 281/316/186 312/348/185
f 246/351/184 248/349/185 312/348/185 311/347/184
f 244/352/183 246/351/184 311/347/184 310/346/183
f 242/353/182 244/352/183 310/346/183 309/345/182
f 240/354/181 242/353/182 309/345/182 308/344/181
f 238/355/180 240/354/181 308/344/181 307/343/180
f 236/356/179 238/355/180 307/343/180 306/342/179
f 234/357/178 236/356/179 306/342/179 305/341/178
f 232/358/177 234/357/178 305/341/178 304/340/177
f 230/359/176 232/358/177 304/340/177 303/339/176
f 228/360/175 230/359/176 303/339/176 302/338/175
f 226/361/174 228/360/175 302/338/175 301/337/174
f 224/362/173 226/361/174 301/337/174 300/336/173
f 222/363/172 224/362/173 300/336/173 299/335/172
f 220/364/171 222/363/172 299/335/172 298/334/171
f 218/365/170 220/364/171 298/334/171 297/333/170
f 216/366/201 218/365/170 297/333/170 296/332/201
f 214/367/200 216/366/201 296/332/201 295/331/200
f 212/368/199 214/367/200 295/331/200 294/330/199
f 210/369/198 212/368/199 294/330/199 293/329/198
f 208/370/197 210/369/198 293/329/198 292/328/197
f 206/310/196 208/370/197 292/328/197 291/327/196
f 204/311/195 206/310/196 291/327/196 290/326/195
f 202/371/194 204/311/195 290/326/195 289/325/194
f 200/372/193 202/373/194 289/324/194 288/323/193
f 198/374/192 200/372/193 288/323/193 287/322/192
f 196/375/191 198/374/192 287/322/192 286/321/191
f 194/376/190 196/375/191 286/321/191 285/320/190
f 192/377/189 194/376/190 285/320/190 284/319/189
f 190/378/188 192/377/189 284/319/189 283/318/188
f 188/379/187 190/378/188 283/318/188 282/317/187
f 186/350/186 188/379/187 282/317/187 281/316/186
f 234/357/202 232/358/203 337/380/204 338/381/205
f 208/370/206 206/310/165 324/313/168 325/382/207
f 236/356/208 234/357/202 338/381/205 339/383/209
f 210/369/210 208/370/206 325/382/207 326/384/211
f 238/355/212 236/356/208 339/383/209 340/385/213
f 212/368/214 210/369/210 326/384/211 327/386/215
f 240/354/216 238/355/212 340/385/213 341/387/217
f 214/367/218 212/368/214 327/386/215 328/388/219
f 188/379/220 186/350/221 315/389/222 314/390/223
f 242/353/224 240/354/216 341/387/217 342/391/225
f 216/366/226 214/367/218 328/388/219 329/392/227
f 190/378/228 188/379/220 314/390/223 316/393/229
f 244/352/230 242/353/224 342/391/225 343/394/231
f 218/365/232 216/366/226 329/392/227 330/395/233
f 192/377/234 190/378/228 316/393/229 317/396/235
f 246/351/236 244/352/230 343/394/231 344/397/237
f 220/364/238 218/365/232 330/395/233 331/398/239
f 194/376/240 192/377/234 317/396/235 318/399/241
f 248/349/242 246/351/236 344/397/237 345/400/243
f 222/363/244 220/364/238 331/398/239 332/401/245
f 196/375/246 194/376/240 318/399/241 319/402/247
f 186/350/221 248/349/242 345/400/243 315/389/222
f 224/362/248 222/363/244 332/401/245 333/403/249
f 198/374/250 196/375/246 319/402/247 320/404/251
f 226/361/252 224/362/248 333/403/249 334/405/253
f 200/372/254 198/374/250 320/404/251 321/406/255
f 228/360/256 226/361/252 334/405/253 335/407/257
f 202/373/258 200/372/254 321/406/255 322/408/259
f 230/359/260 228/360/256 335/407/257 336/409/261
f 204/311/166 202/371/258 322/410/259 323/312/167
f 232/358/203 230/359/260 336/409/261 337/380/204
f 313/411/5 314/390/223 315/389/222
f 313/412/5 316/393/229 314/390/223
f 313/413/5 317/396/235 316/393/229
f 313/414/5 318/399/241 317/396/235
f 313/415/5 319/402/247 318/399/241
f 313/416/5 320/404/251 319/402/247
f 313/417/5 321/406/255 320/404/251
f 313/418/5 322/408/259 321/406/255
f 313/419/5 323/312/167 322/410/259
f 313/420/5 324/313/168 323/312/167
f 313/421/5 325/382/207 324/313/168
f 313/422/5 326/384/211 325/382/207
f 313/423/5 327/386/215 326/384/211
f 313/424/5 328/388/219 327/386/215
f 313/425/5 329/392/227 328/388/219
f 313/426/5 330/395/233 329/392/227
f 313/427/5 331/398/239 330/395/233
f 313/428/5 332/401/245 331/398/239
f 313/429/5 333/403/249 332/401/245
f 313/430/5 334/405/253 333/403/249
f 313/431/5 335/407/257 334/405/253
f 313/432/5 336/409/261 335/407/257
f 313/433/5 337/380/204 336/409/261
f 313/434/5 338/381/205 337/380/204
f 313/435/5 339/383/209 338/381/205
f 313/436/5 340/385/213 339/383/209
f 313/437/5 341/387/217 340/385/213
f 313/438/5 342/391/225 341/387/217
f 313/439/5 343/394/231 342/391/225
f 313/440/5 344/397/237 343/394/231
f 313/441/5 345/400/243 344/397/237
f 313/442/5 315/389/222 345/400/243
