# This file uses centimeters as units for non-parametric coordinates.

mtllib Låda 1.mtl
g default
v 0.820973 0.201626 -0.245600
v 0.780977 0.241622 -0.245600
v 1.280977 0.241622 -0.245600
v 1.240981 0.201626 -0.245600
v 0.780977 0.561630 -0.245600
v 0.820973 0.601626 -0.245600
v 1.240981 0.601626 -0.245600
v 1.280977 0.561630 -0.245600
v 0.780977 0.561630 -0.764672
v 0.820973 0.601626 -0.764672
v 1.240981 0.601626 -0.764672
v 1.280977 0.561630 -0.764672
v 0.780977 0.241622 -0.764672
v 0.820973 0.201626 -0.764672
v 1.240981 0.201626 -0.764672
v 1.280977 0.241622 -0.764672
v 0.820973 0.201626 -0.739971
v 0.780977 0.241622 -0.739971
v 0.780977 0.561630 -0.739971
v 0.820973 0.601626 -0.739971
v 1.240981 0.601626 -0.739971
v 1.280977 0.561630 -0.739971
v 1.280977 0.241622 -0.739971
v 1.240981 0.201626 -0.739971
v 0.780977 0.241622 -0.270301
v 0.820973 0.201626 -0.270301
v 1.240981 0.201626 -0.270301
v 1.280977 0.241622 -0.270301
v 1.280977 0.561630 -0.270301
v 1.240981 0.601626 -0.270301
v 0.820973 0.601626 -0.270301
v 0.780977 0.561630 -0.270301
v 0.780977 0.201822 -0.245600
v 0.780977 0.201822 -0.270301
v 1.280977 0.201822 -0.245600
v 1.280977 0.201822 -0.270301
v 0.780977 0.601430 -0.245600
v 0.780977 0.601430 -0.270301
v 1.280977 0.601430 -0.245600
v 1.280977 0.601430 -0.270301
v 0.780977 0.201822 -0.739971
v 0.780977 0.201822 -0.764672
v 1.280977 0.201822 -0.739971
v 1.280977 0.201822 -0.764672
v 1.280977 0.601430 -0.739971
v 1.280977 0.601430 -0.764672
v 0.780977 0.601430 -0.739971
v 0.780977 0.601430 -0.764672
v 0.812980 0.262105 -0.739971
v 0.847856 0.227229 -0.739971
v 0.812980 0.541148 -0.739971
v 0.847856 0.576023 -0.739971
v 1.214097 0.576023 -0.739971
v 1.248973 0.541148 -0.739971
v 1.248973 0.262105 -0.739971
v 1.214097 0.227229 -0.739971
v 0.812980 0.262105 -0.270301
v 0.847856 0.227229 -0.270301
v 1.214097 0.227229 -0.270301
v 1.248973 0.262105 -0.270301
v 1.248973 0.541148 -0.270301
v 1.214097 0.576023 -0.270301
v 0.847856 0.576023 -0.270301
v 0.812980 0.541148 -0.270301
v 0.847856 0.227229 -0.245600
v 1.214097 0.227229 -0.245600
v 1.214097 0.576023 -0.245600
v 0.847856 0.576023 -0.245600
v 1.248973 0.262105 -0.245600
v 1.248973 0.541148 -0.245600
v 0.812980 0.262105 -0.245600
v 0.812980 0.541148 -0.245600
v 0.847856 0.576023 -0.764672
v 1.214097 0.576023 -0.764672
v 1.214097 0.227229 -0.764672
v 0.847856 0.227229 -0.764672
v 1.248973 0.262105 -0.764672
v 1.248973 0.541148 -0.764672
v 0.812980 0.262105 -0.764672
v 0.812980 0.541148 -0.764672
v 0.851604 0.230799 -0.256886
v 1.210349 0.230799 -0.256886
v 1.210349 0.572454 -0.256886
v 0.851604 0.572454 -0.256886
v 1.244511 0.264961 -0.256886
v 1.244511 0.538292 -0.256886
v 0.817442 0.264961 -0.256886
v 0.817442 0.538292 -0.256886
v 0.851604 0.572454 -0.753386
v 1.210349 0.572454 -0.753386
v 1.210349 0.230799 -0.753386
v 0.851604 0.230799 -0.753386
v 1.244511 0.264961 -0.753386
v 1.244511 0.538292 -0.753386
v 0.817442 0.264961 -0.753386
v 0.817442 0.538292 -0.753386
vt 0.891404 0.566039
vt 0.891404 0.073150
vt 0.857564 0.073150
vt 0.808012 0.073150
vt 0.891404 0.073150
vt 0.891404 0.129103
vt 0.857564 0.129103
vt 0.857564 0.073150
vt 0.891404 0.073150
vt 0.891404 0.129103
vt 0.857564 0.129103
vt 0.857564 0.073150
vt 0.891404 0.566039
vt 0.891404 0.073150
vt 0.857564 0.073150
vt 0.808012 0.073150
vt 0.891404 0.566039
vt 0.808012 0.073150
vt 0.857564 0.129103
vt 0.891404 0.129103
vt 0.808012 0.073150
vt 0.857564 0.129103
vt 0.891404 0.129103
vt 0.891404 0.566039
vt 0.857564 0.129103
vt 0.857564 0.073150
vt 0.891404 0.073150
vt 0.891405 0.129103
vt 0.891404 0.566039
vt 0.808012 0.073150
vt 0.857564 0.073150
vt 0.891404 0.073150
vt 0.808012 0.073150
vt 0.857564 0.129103
vt 0.891404 0.129103
vt 0.891404 0.566039
vt 0.857564 0.129103
vt 0.857564 0.073150
vt 0.891404 0.073150
vt 0.891405 0.129103
vt 0.808012 0.073150
vt 0.891404 0.566039
vt 0.857564 0.073150
vt 0.891404 0.073150
vt 0.891404 0.566039
vt 0.808012 0.073150
vt 0.857564 0.129103
vt 0.891404 0.129103
vt 0.418623 0.209440
vt 0.951882 0.160190
vt 0.713148 0.489896
vt 0.951882 0.160190
vt 0.951882 0.538192
vt 0.951882 0.160190
vt 0.390580 0.237487
vt 0.951882 0.538192
vt 0.418623 0.209440
vt 0.951882 0.160190
vt 0.713148 0.489896
vt 0.951882 0.160190
vt 0.741191 0.461850
vt 0.951882 0.538192
vt 0.951882 0.538192
vt 0.951882 0.160190
vt 0.034288 0.498328
vt 0.034292 0.529143
vt 0.034311 0.703480
vt 0.034314 0.734295
vt 0.034339 0.963112
vt 0.034241 0.064358
vt 0.034260 0.238696
vt 0.034263 0.269511
vt 0.327728 0.529111
vt 0.327725 0.498295
vt 0.327700 0.269479
vt 0.327697 0.238663
vt 0.327677 0.064326
vt 0.327674 0.033511
vt 0.327751 0.734263
vt 0.327747 0.703448
vt 0.935422 0.160190
vt 0.935422 0.538192
vt 0.935422 0.160190
vt 0.935422 0.538192
vt 0.935422 0.538192
vt 0.935422 0.160190
vt 0.935422 0.160190
vt 0.935422 0.538192
vt 0.935422 0.160190
vt 0.935422 0.538192
vt 0.935422 0.160190
vt 0.935422 0.538192
vt 0.935422 0.160190
vt 0.935422 0.538192
vt 0.935422 0.538192
vt 0.935422 0.160190
vt 0.771351 0.108522
vt 0.813808 0.156060
vt 0.813808 0.156060
vt 0.771351 0.108522
vt 0.813808 0.156060
vt 0.771351 0.108522
vt 0.813808 0.156060
vt 0.771351 0.108522
vt 0.771351 0.108522
vt 0.813808 0.156060
vt 0.813808 0.156060
vt 0.771351 0.108522
vt 0.813808 0.156060
vt 0.771351 0.108522
vt 0.813808 0.156060
vt 0.771351 0.108522
vt 0.034237 0.033543
vt 0.327776 0.963080
vt 0.951882 0.538192
vt 0.390580 0.237487
vt 0.390596 0.461873
vt 0.418643 0.489916
vt 0.741176 0.237463
vt 0.951882 0.160190
vt 0.713129 0.209420
vt 0.951882 0.538192
vt 0.390596 0.461873
vt 0.951882 0.160190
vt 0.418643 0.489916
vt 0.951882 0.538192
vt 0.951882 0.538192
vt 0.741191 0.461850
vt 0.741176 0.237463
vt 0.713129 0.209420
vt 0.985357 0.104539
vt 0.998417 0.114583
vt 0.891404 0.019744
vt 0.947968 0.073150
vt 0.857564 0.566039
vt 0.813808 0.536373
vt 0.985357 0.104539
vt 0.998417 0.114583
vt 0.891404 0.019744
vt 0.947968 0.073150
vt 0.857564 0.019744
vt 0.857564 0.566039
vt 0.813808 0.536373
vt 0.857564 0.019744
vt 0.985357 0.104539
vt 0.998417 0.114583
vt 0.891404 0.019743
vt 0.947968 0.073150
vt 0.857564 0.019743
vt 0.857564 0.566039
vt 0.813808 0.536373
vt 0.985357 0.104539
vt 0.998417 0.114583
vt 0.891404 0.019743
vt 0.947968 0.073150
vt 0.857564 0.019743
vt 0.857564 0.566039
vt 0.813808 0.536373
vt 0.985357 0.104539
vt 0.998417 0.114583
vt 0.891405 0.019743
vt 0.947968 0.073150
vt 0.857564 0.019743
vt 0.857564 0.566039
vt 0.813808 0.536373
vt 0.985357 0.104539
vt 0.998417 0.114583
vt 0.891404 0.019744
vt 0.947968 0.073150
vt 0.857564 0.019744
vt 0.857564 0.566039
vt 0.813808 0.536373
vt 0.985357 0.104539
vt 0.998417 0.114583
vt 0.891404 0.019744
vt 0.947968 0.073150
vt 0.857564 0.019744
vt 0.857564 0.566039
vt 0.813808 0.536373
vt 0.985357 0.104539
vt 0.998417 0.114583
vt 0.891405 0.019744
vt 0.947968 0.073150
vt 0.857564 0.019743
vt 0.857564 0.566039
vt 0.813808 0.536373
vn -0.004898 -0.999988 0.000000
vn -0.004898 -0.999988 0.000000
vn -0.004898 -0.999988 0.000000
vn -0.004898 -0.999988 0.000000
vn 0.004898 -0.999988 0.000000
vn 0.004898 -0.999988 0.000000
vn 0.004898 -0.999988 0.000000
vn 0.004898 -0.999988 0.000000
vn -0.004898 0.999988 0.000000
vn -0.004898 0.999988 0.000000
vn -0.004898 0.999988 0.000000
vn -0.004898 0.999988 0.000000
vn 0.004898 0.999988 0.000000
vn 0.004898 0.999988 0.000000
vn 0.004898 0.999988 0.000000
vn 0.004898 0.999988 0.000000
vn 0.000000 1.000000 0.000000
vn 0.000000 1.000000 0.000000
vn 0.000000 1.000000 0.000000
vn 0.000000 1.000000 0.000000
vn 0.000000 -1.000000 0.000000
vn 0.000000 -1.000000 0.000000
vn 0.000000 -1.000000 0.000000
vn 0.000000 -1.000000 0.000000
vn 1.000000 0.000000 0.000000
vn 1.000000 0.000000 0.000000
vn 1.000000 0.000000 0.000000
vn 1.000000 0.000000 0.000000
vn -1.000000 0.000000 0.000000
vn -1.000000 0.000000 0.000000
vn -1.000000 0.000000 0.000000
vn -1.000000 0.000000 0.000000
vn -0.004898 -0.999988 0.000000
vn -0.004898 -0.999988 0.000000
vn -0.004898 -0.999988 0.000000
vn -0.004898 -0.999988 0.000000
vn 0.000000 -1.000000 0.000000
vn 0.000000 -1.000000 0.000000
vn 0.000000 -1.000000 0.000000
vn 0.000000 -1.000000 0.000000
vn 0.004898 -0.999988 0.000000
vn 0.004898 -0.999988 0.000000
vn 0.004898 -0.999988 0.000000
vn 0.004898 -0.999988 0.000000
vn 1.000000 0.000000 0.000000
vn 1.000000 0.000000 0.000000
vn 1.000000 0.000000 0.000000
vn 1.000000 0.000000 0.000000
vn 0.004898 0.999988 0.000000
vn 0.004898 0.999988 0.000000
vn 0.004898 0.999988 0.000000
vn 0.004898 0.999988 0.000000
vn 0.000000 1.000000 0.000000
vn 0.000000 1.000000 0.000000
vn 0.000000 1.000000 0.000000
vn 0.000000 1.000000 0.000000
vn -0.004898 0.999988 0.000000
vn -0.004898 0.999988 0.000000
vn -0.004898 0.999988 0.000000
vn -0.004898 0.999988 0.000000
vn -1.000000 0.000000 0.000000
vn -1.000000 0.000000 0.000000
vn -1.000000 0.000000 0.000000
vn -1.000000 0.000000 0.000000
vn 0.000000 0.000000 1.000000
vn 0.000000 0.000000 1.000000
vn 0.000000 0.000000 1.000000
vn 0.000000 0.000000 1.000000
vn 0.000000 0.000000 1.000000
vn 0.000000 0.000000 1.000000
vn 0.000000 0.000000 1.000000
vn 0.000000 0.000000 1.000000
vn -0.000000 0.000000 1.000000
vn -0.000000 0.000000 1.000000
vn -0.000000 0.000000 1.000000
vn -0.000000 0.000000 1.000000
vn 0.000000 0.000000 -1.000000
vn 0.000000 0.000000 -1.000000
vn 0.000000 0.000000 -1.000000
vn 0.000000 0.000000 -1.000000
vn 0.000000 0.000000 -1.000000
vn 0.000000 0.000000 -1.000000
vn 0.000000 0.000000 -1.000000
vn 0.000000 0.000000 -1.000000
vn 0.000000 0.000000 -1.000000
vn 0.000000 0.000000 -1.000000
vn 0.000000 0.000000 -1.000000
vn 0.000000 0.000000 -1.000000
vn -0.000000 -0.000000 1.000000
vn -0.000000 -0.000000 1.000000
vn -0.000000 -0.000000 1.000000
vn -1.000000 0.000000 0.000000
vn -1.000000 0.000000 0.000000
vn -1.000000 0.000000 0.000000
vn -1.000000 0.000000 0.000000
vn -0.000000 0.000000 -1.000000
vn -0.000000 0.000000 -1.000000
vn -0.000000 0.000000 -1.000000
vn 0.000000 -0.000000 1.000000
vn 0.000000 -0.000000 1.000000
vn 0.000000 -0.000000 1.000000
vn 0.000000 0.000000 -1.000000
vn 0.000000 0.000000 -1.000000
vn 0.000000 0.000000 -1.000000
vn 1.000000 0.000000 0.000000
vn 1.000000 0.000000 0.000000
vn 1.000000 0.000000 0.000000
vn 1.000000 0.000000 0.000000
vn 0.000000 0.000000 1.000000
vn 0.000000 0.000000 1.000000
vn 0.000000 0.000000 1.000000
vn -0.000002 0.000002 -1.000000
vn -0.000002 0.000002 -1.000000
vn -0.000002 0.000002 -1.000000
vn -1.000000 0.000000 0.000000
vn -1.000000 0.000000 0.000000
vn -1.000000 0.000000 0.000000
vn -1.000000 0.000000 0.000000
vn 0.000000 0.000000 1.000000
vn 0.000000 0.000000 1.000000
vn 0.000000 0.000000 1.000000
vn 1.000000 0.000000 0.000000
vn 1.000000 0.000000 0.000000
vn 1.000000 0.000000 0.000000
vn 1.000000 0.000000 0.000000
vn 0.000000 0.000000 -1.000000
vn 0.000000 0.000000 -1.000000
vn 0.000000 0.000000 -1.000000
vn 0.000002 0.000000 1.000000
vn 0.000002 0.000000 1.000000
vn 0.000002 0.000000 1.000000
vn -1.000000 0.000000 0.000000
vn -1.000000 0.000000 0.000000
vn -1.000000 0.000000 0.000000
vn -1.000000 0.000000 0.000000
vn -0.000002 0.000000 -1.000000
vn -0.000002 0.000000 -1.000000
vn -0.000002 0.000000 -1.000000
vn -0.000002 0.000000 1.000000
vn -0.000002 0.000000 1.000000
vn -0.000002 0.000000 1.000000
vn 0.000002 0.000000 -1.000000
vn 0.000002 0.000000 -1.000000
vn 0.000002 0.000000 -1.000000
vn 1.000000 0.000000 0.000000
vn 1.000000 0.000000 0.000000
vn 1.000000 0.000000 0.000000
vn 1.000000 0.000000 0.000000
vn -0.000002 0.000000 1.000000
vn -0.000002 0.000000 1.000000
vn -0.000002 0.000000 1.000000
vn 1.000000 0.000000 0.000000
vn 1.000000 0.000000 0.000000
vn 1.000000 0.000000 0.000000
vn 1.000000 0.000000 0.000000
vn 0.000002 0.000000 -1.000000
vn 0.000002 0.000000 -1.000000
vn 0.000002 0.000000 -1.000000
vn 0.000002 0.000000 1.000000
vn 0.000002 0.000000 1.000000
vn 0.000002 0.000000 1.000000
vn -0.000002 0.000000 -1.000000
vn -0.000002 0.000000 -1.000000
vn -0.000002 0.000000 -1.000000
vn -1.000000 0.000000 0.000000
vn -1.000000 0.000000 0.000000
vn -1.000000 0.000000 0.000000
vn -1.000000 0.000000 0.000000
vn -0.000002 -0.000001 1.000000
vn -0.000002 -0.000001 1.000000
vn -0.000002 -0.000001 1.000000
vn -0.000002 -0.000001 1.000000
vn -0.000003 0.000000 1.000000
vn -0.000003 0.000000 1.000000
vn -0.000003 0.000000 1.000000
vn -0.000003 0.000000 1.000000
vn -0.000001 0.000001 1.000000
vn -0.000001 0.000001 1.000000
vn -0.000001 0.000001 1.000000
vn -0.000001 0.000001 1.000000
vn 0.000000 0.000003 1.000000
vn 0.000000 0.000003 1.000000
vn 0.000000 0.000003 1.000000
vn 0.000000 0.000003 1.000000
vn 0.000001 0.000001 1.000000
vn 0.000001 0.000001 1.000000
vn 0.000001 0.000001 1.000000
vn 0.000001 0.000001 1.000000
vn 0.000002 0.000000 1.000000
vn 0.000002 0.000000 1.000000
vn 0.000002 0.000000 1.000000
vn 0.000002 0.000000 1.000000
vn 0.000002 -0.000001 1.000000
vn 0.000002 -0.000001 1.000000
vn 0.000002 -0.000001 1.000000
vn 0.000002 -0.000001 1.000000
vn 0.000000 -0.000003 1.000000
vn 0.000000 -0.000003 1.000000
vn 0.000000 -0.000003 1.000000
vn 0.000000 -0.000003 1.000000
vn 0.000002 0.000002 -1.000000
vn 0.000002 0.000002 -1.000000
vn 0.000002 0.000002 -1.000000
vn 0.000002 0.000002 -1.000000
vn 0.000000 0.000003 -1.000000
vn 0.000000 0.000003 -1.000000
vn 0.000000 0.000003 -1.000000
vn 0.000000 0.000003 -1.000000
vn -0.000002 0.000002 -1.000000
vn -0.000002 0.000002 -1.000000
vn -0.000002 0.000002 -1.000000
vn -0.000002 0.000002 -1.000000
vn -0.000003 0.000000 -1.000000
vn -0.000003 0.000000 -1.000000
vn -0.000003 0.000000 -1.000000
vn -0.000003 0.000000 -1.000000
vn -0.000002 -0.000002 -1.000000
vn -0.000002 -0.000002 -1.000000
vn -0.000002 -0.000002 -1.000000
vn -0.000002 -0.000002 -1.000000
vn 0.000000 -0.000002 -1.000000
vn 0.000000 -0.000002 -1.000000
vn 0.000000 -0.000002 -1.000000
vn 0.000000 -0.000002 -1.000000
vn 0.000000 0.000000 -1.000000
vn 0.000000 0.000000 -1.000000
vn 0.000000 0.000000 -1.000000
vn 0.000000 0.000000 -1.000000
vn 0.000001 -0.000000 -1.000000
vn 0.000001 -0.000000 -1.000000
vn 0.000001 -0.000000 -1.000000
vn 0.000001 -0.000000 -1.000000
vn 0.000000 0.000001 1.000000
vn 0.000000 0.000001 1.000000
vn 0.000000 0.000001 1.000000
vn 0.000000 0.000001 1.000000
vn 0.000000 -0.000001 1.000000
vn 0.000000 -0.000001 1.000000
vn 0.000000 -0.000001 1.000000
vn 0.000000 -0.000001 1.000000
vn -0.000000 0.000000 1.000000
vn -0.000000 0.000000 1.000000
vn -0.000000 0.000000 1.000000
vn -0.000000 0.000000 1.000000
vn -0.000001 0.000000 1.000000
vn -0.000001 0.000000 1.000000
vn -0.000001 0.000000 1.000000
vn -0.000001 0.000000 1.000000
vn -0.000000 -0.000000 1.000000
vn -0.000000 -0.000000 1.000000
vn -0.000000 -0.000000 1.000000
vn -0.000000 -0.000000 1.000000
vn 0.000000 0.000000 1.000000
vn 0.000000 0.000000 1.000000
vn 0.000000 0.000000 1.000000
vn 0.000000 0.000000 1.000000
vn 0.000000 -0.000000 1.000000
vn 0.000000 -0.000000 1.000000
vn 0.000000 -0.000000 1.000000
vn 0.000000 -0.000000 1.000000
vn 0.000001 0.000000 1.000000
vn 0.000001 0.000000 1.000000
vn 0.000001 0.000000 1.000000
vn 0.000001 0.000000 1.000000
vn 0.000000 0.000000 -1.000000
vn 0.000000 0.000000 -1.000000
vn 0.000000 0.000000 -1.000000
vn 0.000000 0.000000 -1.000000
vn 0.000000 0.000000 -1.000000
vn 0.000000 0.000000 -1.000000
vn 0.000000 0.000000 -1.000000
vn 0.000000 0.000000 -1.000000
vn 0.000000 0.000000 -1.000000
vn 0.000000 0.000000 -1.000000
vn 0.000000 0.000000 -1.000000
vn 0.000000 0.000000 -1.000000
vn -0.000001 0.000000 -1.000000
vn -0.000001 0.000000 -1.000000
vn -0.000001 0.000000 -1.000000
vn -0.000001 0.000000 -1.000000
vn 0.000000 0.000000 -1.000000
vn 0.000000 0.000000 -1.000000
vn 0.000000 0.000000 -1.000000
vn 0.000000 0.000000 -1.000000
vn 0.000001 0.000000 -1.000000
vn 0.000001 0.000000 -1.000000
vn 0.000001 0.000000 -1.000000
vn 0.000001 0.000000 -1.000000
vn 0.000000 0.000000 -1.000000
vn 0.000000 0.000000 -1.000000
vn 0.000000 0.000000 -1.000000
vn 0.000000 0.000000 -1.000000
vn 0.000000 0.000000 -1.000000
vn 0.000000 0.000000 -1.000000
vn 0.000000 0.000000 -1.000000
vn 0.000000 0.000000 -1.000000
vn 0.000000 0.953449 0.301553
vn 0.000000 0.953449 0.301553
vn 0.000000 0.953449 0.301554
vn 0.000000 0.953449 0.301554
vn 0.000000 -0.953450 0.301553
vn 0.000000 -0.953450 0.301553
vn 0.000000 -0.953450 0.301553
vn 0.000000 -0.953450 0.301553
vn -0.642773 0.642774 0.416756
vn -0.642773 0.642773 0.416756
vn -0.642773 0.642773 0.416756
vn -0.642773 0.642773 0.416756
vn -0.929961 0.000000 0.367657
vn -0.929961 0.000000 0.367657
vn -0.929961 0.000000 0.367657
vn -0.929961 0.000000 0.367657
vn -0.642772 -0.642773 0.416758
vn -0.642772 -0.642773 0.416758
vn -0.642772 -0.642773 0.416758
vn -0.642772 -0.642773 0.416758
vn 0.642773 0.642774 0.416755
vn 0.642773 0.642774 0.416755
vn 0.642773 0.642774 0.416755
vn 0.642773 0.642774 0.416755
vn 0.642772 -0.642773 0.416758
vn 0.642772 -0.642773 0.416758
vn 0.642772 -0.642773 0.416758
vn 0.642772 -0.642773 0.416758
vn 0.929961 0.000000 0.367657
vn 0.929961 0.000000 0.367657
vn 0.929961 0.000000 0.367657
vn 0.929961 0.000000 0.367657
vn 0.000000 -0.953449 -0.301554
vn 0.000000 -0.953449 -0.301554
vn 0.000000 -0.953449 -0.301554
vn 0.000000 -0.953449 -0.301554
vn 0.000000 0.953449 -0.301555
vn 0.000000 0.953449 -0.301555
vn 0.000000 0.953449 -0.301555
vn 0.000000 0.953449 -0.301555
vn -0.642772 0.642774 -0.416757
vn -0.642772 0.642774 -0.416757
vn -0.642772 0.642774 -0.416757
vn -0.642772 0.642774 -0.416757
vn -0.642771 -0.642773 -0.416759
vn -0.642771 -0.642773 -0.416759
vn -0.642771 -0.642773 -0.416759
vn -0.642771 -0.642773 -0.416759
vn -0.929961 0.000000 -0.367659
vn -0.929961 0.000000 -0.367659
vn -0.929961 0.000000 -0.367659
vn -0.929961 0.000000 -0.367659
vn 0.642772 0.642773 -0.416757
vn 0.642772 0.642773 -0.416757
vn 0.642772 0.642773 -0.416757
vn 0.642772 0.642773 -0.416757
vn 0.929961 0.000000 -0.367659
vn 0.929961 0.000000 -0.367659
vn 0.929961 0.000000 -0.367659
vn 0.929961 0.000000 -0.367659
vn 0.642771 -0.642773 -0.416760
vn 0.642771 -0.642773 -0.416760
vn 0.642771 -0.642773 -0.416760
vn 0.642771 -0.642773 -0.416760
vn 1.000000 0.000000 0.000000
vn 1.000000 0.000000 0.000000
vn 1.000000 0.000000 0.000000
vn 1.000000 0.000000 0.000000
vn 0.000000 1.000000 0.000000
vn 0.000000 1.000000 0.000000
vn 0.000000 1.000000 0.000000
vn 0.000000 1.000000 0.000000
vn -1.000000 0.000000 0.000000
vn -1.000000 0.000000 0.000000
vn -1.000000 0.000000 0.000000
vn -1.000000 0.000000 0.000000
vn 0.000000 -1.000000 0.000000
vn 0.000000 -1.000000 0.000000
vn 0.000000 -1.000000 0.000000
vn 0.000000 -1.000000 0.000000
vn -0.707106 -0.707107 0.000000
vn -0.707106 -0.707107 0.000000
vn -0.707106 -0.707107 0.000000
vn -0.707106 -0.707107 0.000000
vn 0.707106 -0.707107 0.000000
vn 0.707106 -0.707107 0.000000
vn 0.707106 -0.707107 0.000000
vn 0.707106 -0.707107 0.000000
vn 0.707106 0.707108 0.000000
vn 0.707106 0.707108 0.000000
vn 0.707106 0.707108 0.000000
vn 0.707106 0.707108 0.000000
vn -0.707106 0.707108 0.000000
vn -0.707106 0.707108 0.000000
vn -0.707106 0.707108 0.000000
vn -0.707106 0.707108 0.000000
s off
g pCube7
usemtl initialShadingGroup
f 1/154/1 33/2/2 34/3/3 26/156/4
f 35/5/5 4/6/6 27/7/7 36/8/8
f 37/9/9 6/10/10 31/11/11 38/12/12
f 7/139/13 39/14/14 40/15/15 30/141/16
f 6/10/17 7/13/18 30/142/19 31/11/20
f 26/157/21 27/7/22 4/6/23 1/1/24
f 3/17/25 28/150/26 29/19/27 8/20/28
f 32/135/29 25/22/30 2/23/31 5/24/32
f 17/25/33 41/26/34 42/27/35 14/28/36
f 14/28/37 15/29/38 24/164/39 17/25/40
f 43/31/41 24/163/42 15/161/43 44/32/44
f 22/171/45 23/34/46 16/35/47 12/36/48
f 21/37/49 45/38/50 46/39/51 11/40/52
f 20/178/53 21/37/54 11/40/55 10/42/56
f 47/43/57 20/177/58 10/175/59 48/44/60
f 13/45/61 18/185/62 19/47/63 9/48/64
f 81/49/65 82/130/66 83/51/67 84/125/68
f 82/130/69 85/129/70 86/128/71 83/51/72
f 87/55/73 81/49/74 84/125/75 88/123/76
f 89/57/77 90/121/78 91/59/79 92/118/80
f 93/61/81 91/59/82 90/121/83 94/119/84
f 92/118/85 95/117/86 96/116/87 89/57/88
f 1/155/89 2/23/90 33/2/91
f 2/23/92 25/22/93 34/3/94 33/2/95
f 25/22/96 26/4/97 34/3/98
f 3/148/99 4/6/100 35/5/101
f 27/7/102 28/18/103 36/8/104
f 28/149/105 3/147/106 35/5/107 36/8/108
f 5/134/109 6/10/110 37/9/111
f 31/11/112 32/21/113 38/12/114
f 32/144/115 5/133/116 37/9/117 38/12/118
f 7/140/119 8/20/120 39/14/121
f 8/20/122 29/19/123 40/15/124 39/14/125
f 29/19/126 30/16/127 40/15/128
f 17/25/129 18/46/130 41/26/131
f 18/184/132 13/182/133 42/27/134 41/26/135
f 13/183/136 14/28/137 42/27/138
f 23/34/139 24/30/140 43/31/141
f 15/162/142 16/35/143 44/32/144
f 16/35/145 23/34/146 43/31/147 44/32/148
f 21/37/149 22/33/150 45/38/151
f 22/170/152 12/168/153 46/39/154 45/38/155
f 12/169/156 11/40/157 46/39/158
f 19/47/159 20/41/160 47/43/161
f 10/176/162 9/48/163 48/44/164
f 9/48/165 19/47/166 47/43/167 48/44/168
f 18/46/169 17/25/170 50/106/171 49/112/172
f 19/47/173 18/185/174 49/186/175 51/111/176
f 20/41/177 19/47/178 51/111/179 52/110/180
f 21/37/181 20/178/182 52/179/183 53/109/184
f 22/33/185 21/37/186 53/109/187 54/108/188
f 23/34/189 22/171/190 54/172/191 55/107/192
f 24/30/193 23/34/194 55/107/195 56/105/196
f 17/25/197 24/164/198 56/165/199 50/106/200
f 26/4/201 25/22/202 57/98/203 58/104/204
f 27/7/205 26/157/206 58/158/207 59/103/208
f 28/18/209 27/7/210 59/103/211 60/102/212
f 29/19/213 28/150/214 60/151/215 61/101/216
f 30/16/217 29/19/218 61/101/219 62/100/220
f 31/11/221 30/142/222 62/143/223 63/99/224
f 32/21/225 31/11/226 63/99/227 64/97/228
f 25/22/229 32/135/230 64/136/231 57/98/232
f 1/1/233 4/6/234 66/81/235 65/82/236
f 7/13/237 6/10/238 68/83/239 67/84/240
f 4/6/241 3/148/242 69/145/243 66/81/244
f 3/17/245 8/20/246 70/86/247 69/85/248
f 8/20/249 7/140/250 67/137/251 70/86/252
f 2/23/253 1/155/254 65/152/255 71/87/256
f 6/10/257 5/134/258 72/131/259 68/83/260
f 5/24/261 2/23/262 71/87/263 72/88/264
f 10/42/265 11/40/266 74/89/267 73/90/268
f 15/29/269 14/28/270 76/91/271 75/92/272
f 16/35/273 15/162/274 75/159/275 77/93/276
f 11/40/277 12/169/278 78/166/279 74/89/280
f 12/36/281 16/35/282 77/93/283 78/94/284
f 14/28/285 13/183/286 79/180/287 76/91/288
f 13/45/289 9/48/290 80/96/291 79/95/292
f 9/48/293 10/176/294 73/173/295 80/96/296
f 65/82/297 66/81/298 82/50/299 81/126/300
f 67/84/301 68/83/302 84/52/303 83/127/304
f 66/81/305 69/145/306 85/146/307 82/50/308
f 69/85/309 70/86/310 86/54/311 85/53/312
f 70/86/313 67/137/314 83/138/315 86/54/316
f 71/87/317 65/152/318 81/153/319 87/124/320
f 68/83/321 72/131/322 88/132/323 84/52/324
f 72/88/325 71/87/326 87/124/327 88/56/328
f 73/90/329 74/89/330 90/58/331 89/115/332
f 75/92/333 76/91/334 92/60/335 91/122/336
f 77/93/337 75/159/338 91/160/339 93/120/340
f 74/89/341 78/166/342 94/167/343 90/58/344
f 78/94/345 77/93/346 93/120/347 94/62/348
f 76/91/349 79/180/350 95/181/351 92/60/352
f 79/95/353 80/96/354 96/64/355 95/63/356
f 80/96/357 73/173/358 89/174/359 96/64/360
f 55/71/361 54/70/362 61/77/363 60/76/364
f 53/69/365 52/68/366 63/79/367 62/114/368
f 51/67/369 49/66/370 57/73/371 64/80/372
f 50/65/373 56/72/374 59/75/375 58/74/376
f 57/73/377 49/66/378 50/65/379 58/74/380
f 55/71/381 60/76/382 59/75/383 56/72/384
f 61/77/385 54/70/386 53/113/387 62/78/388
f 63/79/389 52/68/390 51/67/391 64/80/392
