# This file uses centimeters as units for non-parametric coordinates.

mtllib Låda ½.mtl
g default
v 0.820973 0.202513 0.275327
v 0.780977 0.222510 0.275327
v 1.280977 0.222510 0.275327
v 1.240981 0.202513 0.275327
v 0.780977 0.382515 0.275327
v 0.820973 0.402513 0.275327
v 1.240981 0.402513 0.275327
v 1.280977 0.382515 0.275327
v 0.780977 0.382515 -0.243744
v 0.820973 0.402513 -0.243744
v 1.240981 0.402513 -0.243744
v 1.280977 0.382515 -0.243744
v 0.780977 0.222510 -0.243744
v 0.820973 0.202513 -0.243744
v 1.240981 0.202513 -0.243744
v 1.280977 0.222510 -0.243744
v 0.820973 0.202513 -0.219044
v 0.780977 0.222510 -0.219044
v 0.780977 0.382515 -0.219044
v 0.820973 0.402513 -0.219044
v 1.240981 0.402513 -0.219044
v 1.280977 0.382515 -0.219044
v 1.280977 0.222510 -0.219044
v 1.240981 0.202513 -0.219044
v 0.780977 0.222510 0.250627
v 0.820973 0.202513 0.250627
v 1.240981 0.202513 0.250627
v 1.280977 0.222510 0.250627
v 1.280977 0.382515 0.250627
v 1.240981 0.402513 0.250627
v 0.820973 0.402513 0.250627
v 0.780977 0.382515 0.250627
v 0.780977 0.202610 0.275327
v 0.780977 0.202610 0.250627
v 1.280977 0.202610 0.275327
v 1.280977 0.202610 0.250627
v 0.780977 0.402415 0.275327
v 0.780977 0.402415 0.250627
v 1.280977 0.402415 0.275327
v 1.280977 0.402415 0.250627
v 0.780977 0.202610 -0.219044
v 0.780977 0.202610 -0.243744
v 1.280977 0.202610 -0.219044
v 1.280977 0.202610 -0.243744
v 1.280977 0.402415 -0.219044
v 1.280977 0.402415 -0.243744
v 0.780977 0.402415 -0.219044
v 0.780977 0.402415 -0.243744
v 0.812980 0.232752 -0.219043
v 0.847856 0.215314 -0.219043
v 0.812980 0.372273 -0.219043
v 0.847856 0.389711 -0.219043
v 1.214097 0.389711 -0.219043
v 1.248973 0.372273 -0.219043
v 1.248973 0.232752 -0.219043
v 1.214097 0.215314 -0.219043
v 0.812980 0.232752 0.250627
v 0.847856 0.215314 0.250627
v 1.214097 0.215314 0.250627
v 1.248973 0.232752 0.250627
v 1.248973 0.372273 0.250627
v 1.214097 0.389711 0.250627
v 0.847856 0.389711 0.250627
v 0.812980 0.372273 0.250627
v 0.847856 0.215314 0.275327
v 1.214097 0.215314 0.275327
v 1.214097 0.389711 0.275327
v 0.847856 0.389711 0.275327
v 1.248973 0.232752 0.275327
v 1.248973 0.372273 0.275327
v 0.812980 0.232752 0.275327
v 0.812980 0.372273 0.275327
v 0.847856 0.389711 -0.243744
v 1.214097 0.389711 -0.243744
v 1.214097 0.215314 -0.243744
v 0.847856 0.215314 -0.243744
v 1.248973 0.232752 -0.243744
v 1.248973 0.372273 -0.243744
v 0.812980 0.232752 -0.243744
v 0.812980 0.372273 -0.243744
v 0.851604 0.217099 0.264041
v 1.210349 0.217099 0.264041
v 1.210349 0.387926 0.264041
v 0.851604 0.387926 0.264041
v 1.244511 0.234180 0.264041
v 1.244511 0.370845 0.264041
v 0.817442 0.234180 0.264041
v 0.817442 0.370845 0.264041
v 0.851604 0.387926 -0.232458
v 1.210349 0.387926 -0.232458
v 1.210349 0.217099 -0.232458
v 0.851604 0.217099 -0.232458
v 1.244511 0.234180 -0.232458
v 1.244511 0.370845 -0.232458
v 0.817442 0.234180 -0.232458
v 0.817442 0.370845 -0.232458
vt 0.394781 0.976169
vt 0.375000 0.983335
vt 0.375000 0.766665
vt 0.625000 0.983335
vt 0.605755 0.937661
vt 0.625000 0.766665
vt 0.641665 0.024998
vt 0.375000 0.266665
vt 0.375000 0.483335
vt 0.625000 0.266665
vt 0.392220 0.476431
vt 0.614675 0.473972
vt 0.607521 0.760131
vt 0.394269 0.270589
vt 0.605247 0.260390
vt 0.385120 0.733873
vt 0.858335 0.024998
vt 0.858335 0.225002
vt 0.141665 0.024998
vt 0.358335 0.024998
vt 0.358335 0.225003
vt 0.141665 0.225002
vt 0.641665 0.225002
vt 0.625000 0.483335
vt 0.393026 0.765313
vt 0.375000 0.771811
vt 0.146811 0.024998
vt 0.375000 0.478189
vt 0.146811 0.225002
vt 0.394855 0.478250
vt 0.605043 0.478162
vt 0.625000 0.478189
vt 0.853189 0.225002
vt 0.625000 0.771811
vt 0.853189 0.024998
vt 0.605377 0.769890
vt 0.375000 0.978189
vt 0.353189 0.024998
vt 0.395123 0.977469
vt 0.606232 0.971878
vt 0.625000 0.978189
vt 0.646811 0.024998
vt 0.625000 0.271811
vt 0.646811 0.225002
vt 0.605052 0.271751
vt 0.394816 0.272386
vt 0.375000 0.271811
vt 0.353189 0.225003
vt 0.375000 0.983335
vt 0.375000 0.978189
vt 0.625000 0.983335
vt 0.625000 0.978189
vt 0.375000 0.266665
vt 0.375000 0.271811
vt 0.625000 0.266665
vt 0.625000 0.271811
vt 0.375000 0.771811
vt 0.375000 0.766665
vt 0.625000 0.771811
vt 0.625000 0.766665
vt 0.625000 0.478189
vt 0.625000 0.483335
vt 0.375000 0.478189
vt 0.375000 0.483335
vt 0.260905 0.398404
vt 0.393026 0.765313
vt 0.260905 0.351596
vt 0.394855 0.478250
vt 0.605043 0.478162
vt 0.739095 0.351596
vt 0.739094 0.398404
vt 0.605377 0.769890
vt 0.395123 0.977469
vt 0.364095 0.501593
vt 0.606232 0.971878
vt 0.635905 0.501593
vt 0.635905 0.248407
vt 0.605052 0.271751
vt 0.394816 0.272386
vt 0.364095 0.248407
vt 0.394781 0.976169
vt 0.605755 0.937661
vt 0.605247 0.260390
vt 0.394269 0.270589
vt 0.641665 0.024998
vt 0.625000 0.266665
vt 0.375000 0.983335
vt 0.358335 0.225003
vt 0.392220 0.476431
vt 0.614675 0.473972
vt 0.607521 0.760131
vt 0.385120 0.733873
vt 0.625000 0.766665
vt 0.858335 0.225002
vt 0.141665 0.024998
vt 0.375000 0.483335
vt 0.394781 0.976169
vt 0.605755 0.937661
vt 0.605247 0.260390
vt 0.394269 0.270589
vt 0.641665 0.024998
vt 0.625000 0.266665
vt 0.375000 0.983335
vt 0.358335 0.225003
vt 0.392220 0.476431
vt 0.614675 0.473972
vt 0.607521 0.760131
vt 0.385120 0.733873
vt 0.625000 0.766665
vt 0.858335 0.225002
vt 0.141665 0.024998
vt 0.375000 0.483335
vn -0.002449 -0.999997 0.000000
vn -0.002449 -0.999997 0.000000
vn -0.002449 -0.999997 0.000000
vn -0.002449 -0.999997 0.000000
vn 0.002449 -0.999997 0.000000
vn 0.002449 -0.999997 0.000000
vn 0.002449 -0.999997 0.000000
vn 0.002449 -0.999997 0.000000
vn -0.002449 0.999997 0.000000
vn -0.002449 0.999997 0.000000
vn -0.002449 0.999997 0.000000
vn -0.002449 0.999997 0.000000
vn 0.002449 0.999997 0.000000
vn 0.002449 0.999997 0.000000
vn 0.002449 0.999997 0.000000
vn 0.002449 0.999997 0.000000
vn 0.000000 1.000000 0.000000
vn 0.000000 1.000000 0.000000
vn 0.000000 1.000000 0.000000
vn 0.000000 1.000000 0.000000
vn 0.000000 -1.000000 0.000000
vn 0.000000 -1.000000 0.000000
vn 0.000000 -1.000000 0.000000
vn 0.000000 -1.000000 0.000000
vn 1.000000 0.000000 0.000000
vn 1.000000 0.000000 0.000000
vn 1.000000 0.000000 0.000000
vn 1.000000 0.000000 0.000000
vn -1.000000 0.000000 0.000000
vn -1.000000 0.000000 0.000000
vn -1.000000 0.000000 0.000000
vn -1.000000 0.000000 0.000000
vn -0.002449 -0.999997 0.000000
vn -0.002449 -0.999997 0.000000
vn -0.002449 -0.999997 0.000000
vn -0.002449 -0.999997 0.000000
vn 0.000000 -1.000000 0.000000
vn 0.000000 -1.000000 0.000000
vn 0.000000 -1.000000 0.000000
vn 0.000000 -1.000000 0.000000
vn 0.002449 -0.999997 0.000000
vn 0.002449 -0.999997 0.000000
vn 0.002449 -0.999997 0.000000
vn 0.002449 -0.999997 0.000000
vn 1.000000 0.000000 0.000000
vn 1.000000 0.000000 0.000000
vn 1.000000 0.000000 0.000000
vn 1.000000 0.000000 0.000000
vn 0.002449 0.999997 0.000000
vn 0.002449 0.999997 0.000000
vn 0.002449 0.999997 0.000000
vn 0.002449 0.999997 0.000000
vn 0.000000 1.000000 0.000000
vn 0.000000 1.000000 0.000000
vn 0.000000 1.000000 0.000000
vn 0.000000 1.000000 0.000000
vn -0.002449 0.999997 0.000000
vn -0.002449 0.999997 0.000000
vn -0.002449 0.999997 0.000000
vn -0.002449 0.999997 0.000000
vn -1.000000 0.000000 0.000000
vn -1.000000 0.000000 0.000000
vn -1.000000 0.000000 0.000000
vn -1.000000 0.000000 0.000000
vn 0.000000 0.000000 1.000000
vn 0.000000 0.000000 1.000000
vn 0.000000 0.000000 1.000000
vn 0.000000 0.000000 1.000000
vn 0.000000 0.000000 1.000000
vn 0.000000 0.000000 1.000000
vn 0.000000 0.000000 1.000000
vn 0.000000 0.000000 1.000000
vn 0.000000 0.000000 1.000000
vn 0.000000 0.000000 1.000000
vn 0.000000 0.000000 1.000000
vn 0.000000 0.000000 1.000000
vn 0.000000 0.000000 -1.000000
vn 0.000000 0.000000 -1.000000
vn 0.000000 0.000000 -1.000000
vn 0.000000 0.000000 -1.000000
vn -0.000001 0.000000 -1.000000
vn -0.000001 0.000000 -1.000000
vn -0.000001 0.000000 -1.000000
vn -0.000001 0.000000 -1.000000
vn 0.000001 0.000000 -1.000000
vn 0.000001 0.000000 -1.000000
vn 0.000001 0.000000 -1.000000
vn 0.000001 0.000000 -1.000000
vn -0.000000 -0.000001 1.000000
vn -0.000000 -0.000001 1.000000
vn -0.000000 -0.000001 1.000000
vn -1.000000 0.000000 0.000000
vn -1.000000 0.000000 0.000000
vn -1.000000 0.000000 0.000000
vn -1.000000 0.000000 0.000000
vn 0.000000 0.000000 -1.000000
vn 0.000000 0.000000 -1.000000
vn 0.000000 0.000000 -1.000000
vn 0.000000 -0.000001 1.000000
vn 0.000000 -0.000001 1.000000
vn 0.000000 -0.000001 1.000000
vn -0.000000 0.000000 -1.000000
vn -0.000000 0.000000 -1.000000
vn -0.000000 0.000000 -1.000000
vn 1.000000 0.000000 0.000000
vn 1.000000 0.000000 0.000000
vn 1.000000 0.000000 0.000000
vn 1.000000 0.000000 0.000000
vn 0.000000 0.000000 1.000000
vn 0.000000 0.000000 1.000000
vn 0.000000 0.000000 1.000000
vn -0.000002 0.000004 -1.000000
vn -0.000002 0.000004 -1.000000
vn -0.000002 0.000004 -1.000000
vn -1.000000 0.000000 0.000000
vn -1.000000 0.000000 0.000000
vn -1.000000 0.000000 0.000000
vn -1.000000 0.000000 0.000000
vn 0.000000 0.000001 1.000000
vn 0.000000 0.000001 1.000000
vn 0.000000 0.000001 1.000000
vn 1.000000 0.000000 0.000000
vn 1.000000 0.000000 0.000000
vn 1.000000 0.000000 0.000000
vn 1.000000 0.000000 0.000000
vn 0.000000 0.000000 -1.000000
vn 0.000000 0.000000 -1.000000
vn 0.000000 0.000000 -1.000000
vn -0.000001 0.000000 1.000000
vn -0.000001 0.000000 1.000000
vn -0.000001 0.000000 1.000000
vn -1.000000 0.000000 0.000000
vn -1.000000 0.000000 0.000000
vn -1.000000 0.000000 0.000000
vn -1.000000 0.000000 0.000000
vn 0.000000 0.000000 -1.000000
vn 0.000000 0.000000 -1.000000
vn 0.000000 0.000000 -1.000000
vn 0.000000 0.000000 1.000000
vn 0.000000 0.000000 1.000000
vn 0.000000 0.000000 1.000000
vn -0.000000 0.000000 -1.000000
vn -0.000000 0.000000 -1.000000
vn -0.000000 0.000000 -1.000000
vn 1.000000 0.000000 0.000000
vn 1.000000 0.000000 0.000000
vn 1.000000 0.000000 0.000000
vn 1.000000 0.000000 0.000000
vn 0.000001 0.000000 1.000000
vn 0.000001 0.000000 1.000000
vn 0.000001 0.000000 1.000000
vn 1.000000 0.000000 0.000000
vn 1.000000 0.000000 0.000000
vn 1.000000 0.000000 0.000000
vn 1.000000 0.000000 0.000000
vn 0.000000 0.000000 -1.000000
vn 0.000000 0.000000 -1.000000
vn 0.000000 0.000000 -1.000000
vn 0.000000 0.000000 1.000000
vn 0.000000 0.000000 1.000000
vn 0.000000 0.000000 1.000000
vn 0.000000 0.000000 -1.000000
vn 0.000000 0.000000 -1.000000
vn 0.000000 0.000000 -1.000000
vn -1.000000 0.000000 0.000000
vn -1.000000 0.000000 0.000000
vn -1.000000 0.000000 0.000000
vn -1.000000 0.000000 0.000000
vn -0.000001 -0.000003 1.000000
vn -0.000001 -0.000003 1.000000
vn -0.000001 -0.000003 1.000000
vn -0.000001 -0.000003 1.000000
vn -0.000002 0.000000 1.000000
vn -0.000002 0.000000 1.000000
vn -0.000002 0.000000 1.000000
vn -0.000002 0.000000 1.000000
vn -0.000001 0.000003 1.000000
vn -0.000001 0.000003 1.000000
vn -0.000001 0.000003 1.000000
vn -0.000001 0.000003 1.000000
vn 0.000000 0.000006 1.000000
vn 0.000000 0.000006 1.000000
vn 0.000000 0.000006 1.000000
vn 0.000000 0.000006 1.000000
vn 0.000001 0.000003 1.000000
vn 0.000001 0.000003 1.000000
vn 0.000001 0.000003 1.000000
vn 0.000001 0.000003 1.000000
vn 0.000002 0.000000 1.000000
vn 0.000002 0.000000 1.000000
vn 0.000002 0.000000 1.000000
vn 0.000002 0.000000 1.000000
vn 0.000001 -0.000003 1.000000
vn 0.000001 -0.000003 1.000000
vn 0.000001 -0.000003 1.000000
vn 0.000001 -0.000003 1.000000
vn 0.000000 -0.000006 1.000000
vn 0.000000 -0.000006 1.000000
vn 0.000000 -0.000006 1.000000
vn 0.000000 -0.000006 1.000000
vn 0.000002 0.000003 -1.000000
vn 0.000002 0.000003 -1.000000
vn 0.000002 0.000003 -1.000000
vn 0.000002 0.000003 -1.000000
vn 0.000000 0.000007 -1.000000
vn 0.000000 0.000007 -1.000000
vn 0.000000 0.000007 -1.000000
vn 0.000000 0.000007 -1.000000
vn -0.000002 0.000003 -1.000000
vn -0.000002 0.000003 -1.000000
vn -0.000002 0.000003 -1.000000
vn -0.000002 0.000003 -1.000000
vn -0.000003 0.000000 -1.000000
vn -0.000003 0.000000 -1.000000
vn -0.000003 0.000000 -1.000000
vn -0.000003 0.000000 -1.000000
vn -0.000002 -0.000003 -1.000000
vn -0.000002 -0.000003 -1.000000
vn -0.000002 -0.000003 -1.000000
vn -0.000002 -0.000003 -1.000000
vn 0.000000 -0.000003 -1.000000
vn 0.000000 -0.000003 -1.000000
vn 0.000000 -0.000003 -1.000000
vn 0.000000 -0.000003 -1.000000
vn 0.000000 0.000000 -1.000000
vn 0.000000 0.000000 -1.000000
vn 0.000000 0.000000 -1.000000
vn 0.000000 0.000000 -1.000000
vn 0.000001 -0.000000 -1.000000
vn 0.000001 -0.000000 -1.000000
vn 0.000001 -0.000000 -1.000000
vn 0.000001 -0.000000 -1.000000
vn 0.000000 0.000001 1.000000
vn 0.000000 0.000001 1.000000
vn 0.000000 0.000001 1.000000
vn 0.000000 0.000001 1.000000
vn 0.000000 -0.000001 1.000000
vn 0.000000 -0.000001 1.000000
vn 0.000000 -0.000001 1.000000
vn 0.000000 -0.000001 1.000000
vn -0.000000 0.000001 1.000000
vn -0.000000 0.000001 1.000000
vn -0.000000 0.000001 1.000000
vn -0.000000 0.000001 1.000000
vn -0.000001 0.000000 1.000000
vn -0.000001 0.000000 1.000000
vn -0.000001 0.000000 1.000000
vn -0.000001 0.000000 1.000000
vn -0.000000 -0.000001 1.000000
vn -0.000000 -0.000001 1.000000
vn -0.000000 -0.000001 1.000000
vn -0.000000 -0.000001 1.000000
vn 0.000000 0.000001 1.000000
vn 0.000000 0.000001 1.000000
vn 0.000000 0.000001 1.000000
vn 0.000000 0.000001 1.000000
vn 0.000000 -0.000001 1.000000
vn 0.000000 -0.000001 1.000000
vn 0.000000 -0.000001 1.000000
vn 0.000000 -0.000001 1.000000
vn 0.000001 0.000000 1.000000
vn 0.000001 0.000000 1.000000
vn 0.000001 0.000000 1.000000
vn 0.000001 0.000000 1.000000
vn 0.000000 0.000000 -1.000000
vn 0.000000 0.000000 -1.000000
vn 0.000000 0.000000 -1.000000
vn 0.000000 0.000000 -1.000000
vn 0.000000 0.000000 -1.000000
vn 0.000000 0.000000 -1.000000
vn 0.000000 0.000000 -1.000000
vn 0.000000 0.000000 -1.000000
vn 0.000000 0.000000 -1.000000
vn 0.000000 0.000000 -1.000000
vn 0.000000 0.000000 -1.000000
vn 0.000000 0.000000 -1.000000
vn 0.000001 0.000000 -1.000000
vn 0.000001 0.000000 -1.000000
vn 0.000001 0.000000 -1.000000
vn 0.000001 0.000000 -1.000000
vn -0.000000 0.000000 -1.000000
vn -0.000000 0.000000 -1.000000
vn -0.000000 0.000000 -1.000000
vn -0.000000 0.000000 -1.000000
vn -0.000001 0.000000 -1.000000
vn -0.000001 0.000000 -1.000000
vn -0.000001 0.000000 -1.000000
vn -0.000001 0.000000 -1.000000
vn 0.000000 0.000000 -1.000000
vn 0.000000 0.000000 -1.000000
vn 0.000000 0.000000 -1.000000
vn 0.000000 0.000000 -1.000000
vn 0.000000 0.000000 -1.000000
vn 0.000000 0.000000 -1.000000
vn 0.000000 0.000000 -1.000000
vn 0.000000 0.000000 -1.000000
vn 0.000000 0.987725 0.156201
vn 0.000000 0.987725 0.156201
vn 0.000000 0.987725 0.156201
vn 0.000000 0.987725 0.156201
vn 0.000000 -0.987725 0.156203
vn 0.000000 -0.987725 0.156203
vn 0.000000 -0.987725 0.156203
vn 0.000000 -0.987725 0.156203
vn -0.429520 0.859042 0.278496
vn -0.429520 0.859042 0.278496
vn -0.429520 0.859042 0.278496
vn -0.429520 0.859042 0.278496
vn -0.929961 0.000000 0.367657
vn -0.929961 0.000000 0.367657
vn -0.929961 0.000000 0.367657
vn -0.929961 0.000000 0.367657
vn -0.429520 -0.859042 0.278496
vn -0.429520 -0.859042 0.278496
vn -0.429520 -0.859042 0.278496
vn -0.429520 -0.859042 0.278496
vn 0.429520 0.859042 0.278496
vn 0.429520 0.859042 0.278496
vn 0.429520 0.859042 0.278496
vn 0.429520 0.859042 0.278496
vn 0.429520 -0.859042 0.278496
vn 0.429520 -0.859042 0.278496
vn 0.429520 -0.859042 0.278496
vn 0.429520 -0.859042 0.278496
vn 0.929961 0.000000 0.367657
vn 0.929961 0.000000 0.367657
vn 0.929961 0.000000 0.367657
vn 0.929961 0.000000 0.367657
vn 0.000000 -0.987725 -0.156203
vn 0.000000 -0.987725 -0.156203
vn 0.000000 -0.987725 -0.156203
vn 0.000000 -0.987725 -0.156203
vn 0.000000 0.987725 -0.156202
vn 0.000000 0.987725 -0.156202
vn 0.000000 0.987725 -0.156202
vn 0.000000 0.987725 -0.156202
vn -0.429521 0.859041 -0.278497
vn -0.429521 0.859041 -0.278497
vn -0.429521 0.859041 -0.278497
vn -0.429521 0.859041 -0.278497
vn -0.429521 -0.859041 -0.278497
vn -0.429521 -0.859041 -0.278497
vn -0.429521 -0.859041 -0.278497
vn -0.429521 -0.859041 -0.278497
vn -0.929961 0.000000 -0.367659
vn -0.929961 0.000000 -0.367659
vn -0.929961 0.000000 -0.367659
vn -0.929961 0.000000 -0.367659
vn 0.429521 0.859041 -0.278497
vn 0.429521 0.859041 -0.278497
vn 0.429521 0.859041 -0.278497
vn 0.429521 0.859041 -0.278497
vn 0.929961 0.000000 -0.367659
vn 0.929961 0.000000 -0.367659
vn 0.929961 0.000000 -0.367659
vn 0.929961 0.000000 -0.367659
vn 0.429521 -0.859041 -0.278497
vn 0.429521 -0.859041 -0.278497
vn 0.429521 -0.859041 -0.278497
vn 0.429521 -0.859041 -0.278497
vn 1.000000 0.000000 0.000000
vn 1.000000 0.000000 0.000000
vn 1.000000 0.000000 0.000000
vn 1.000000 0.000000 0.000000
vn 0.000000 1.000000 0.000000
vn 0.000000 1.000000 0.000000
vn 0.000000 1.000000 0.000000
vn 0.000000 1.000000 0.000000
vn -1.000000 0.000000 0.000000
vn -1.000000 0.000000 0.000000
vn -1.000000 0.000000 0.000000
vn -1.000000 0.000000 0.000000
vn 0.000000 -1.000000 0.000000
vn 0.000000 -1.000000 0.000000
vn 0.000000 -1.000000 0.000000
vn 0.000000 -1.000000 0.000000
vn -0.447213 -0.894427 0.000000
vn -0.447213 -0.894427 0.000000
vn -0.447213 -0.894427 0.000000
vn -0.447213 -0.894427 0.000000
vn 0.447213 -0.894427 0.000000
vn 0.447213 -0.894427 0.000000
vn 0.447213 -0.894427 0.000000
vn 0.447213 -0.894427 0.000000
vn 0.447213 0.894427 0.000000
vn 0.447213 0.894427 0.000000
vn 0.447213 0.894427 0.000000
vn 0.447213 0.894427 0.000000
vn -0.447213 0.894427 0.000000
vn -0.447213 0.894427 0.000000
vn -0.447213 0.894427 0.000000
vn -0.447213 0.894427 0.000000
s off
g pCube8
usemtl initialShadingGroup
f 1/1/1 33/49/2 34/50/3 26/39/4
f 35/51/5 4/5/6 27/40/7 36/52/8
f 37/53/9 6/14/10 31/46/11 38/54/12
f 7/15/13 39/55/14 40/56/15 30/45/16
f 6/14/17 7/15/18 30/45/19 31/46/20
f 26/39/21 27/40/22 4/5/23 1/1/24
f 3/7/25 28/42/26 29/44/27 8/23/28
f 32/48/29 25/38/30 2/20/31 5/21/32
f 17/25/33 41/57/34 42/58/35 14/16/36
f 14/16/37 15/13/38 24/36/39 17/25/40
f 43/59/41 24/36/42 15/13/43 44/60/44
f 22/33/45 23/35/46 16/17/47 12/18/48
f 21/31/49 45/61/50 46/62/51 11/12/52
f 20/30/53 21/31/54 11/12/55 10/11/56
f 47/63/57 20/30/58 10/11/59 48/64/60
f 13/19/61 18/27/62 19/29/63 9/22/64
f 81/97/65 82/98/66 83/99/67 84/100/68
f 82/98/69 85/101/70 86/102/71 83/99/72
f 87/103/73 81/97/74 84/100/75 88/104/76
f 89/105/77 90/106/78 91/107/79 92/108/80
f 93/109/81 91/107/82 90/106/83 94/110/84
f 92/108/85 95/111/86 96/112/87 89/105/88
f 1/1/89 2/2/90 33/49/91
f 2/2/92 25/37/93 34/50/94 33/49/95
f 25/37/96 26/39/97 34/50/98
f 3/4/99 4/5/100 35/51/101
f 27/40/102 28/41/103 36/52/104
f 28/41/105 3/4/106 35/51/107 36/52/108
f 5/8/109 6/14/110 37/53/111
f 31/46/112 32/47/113 38/54/114
f 32/47/115 5/8/116 37/53/117 38/54/118
f 7/15/119 8/10/120 39/55/121
f 8/10/122 29/43/123 40/56/124 39/55/125
f 29/43/126 30/45/127 40/56/128
f 17/25/129 18/26/130 41/57/131
f 18/26/132 13/3/133 42/58/134 41/57/135
f 13/3/136 14/16/137 42/58/138
f 23/34/139 24/36/140 43/59/141
f 15/13/142 16/6/143 44/60/144
f 16/6/145 23/34/146 43/59/147 44/60/148
f 21/31/149 22/32/150 45/61/151
f 22/32/152 12/24/153 46/62/154 45/61/155
f 12/24/156 11/12/157 46/62/158
f 19/28/159 20/30/160 47/63/161
f 10/11/162 9/9/163 48/64/164
f 9/9/165 19/28/166 47/63/167 48/64/168
f 18/26/169 17/25/170 50/66/171 49/65/172
f 19/29/173 18/27/174 49/65/175 51/67/176
f 20/30/177 19/28/178 51/67/179 52/68/180
f 21/31/181 20/30/182 52/68/183 53/69/184
f 22/32/185 21/31/186 53/69/187 54/70/188
f 23/35/189 22/33/190 54/70/191 55/71/192
f 24/36/193 23/34/194 55/71/195 56/72/196
f 17/25/197 24/36/198 56/72/199 50/66/200
f 26/39/201 25/37/202 57/74/203 58/73/204
f 27/40/205 26/39/206 58/73/207 59/75/208
f 28/41/209 27/40/210 59/75/211 60/76/212
f 29/44/213 28/42/214 60/76/215 61/77/216
f 30/45/217 29/43/218 61/77/219 62/78/220
f 31/46/221 30/45/222 62/78/223 63/79/224
f 32/47/225 31/46/226 63/79/227 64/80/228
f 25/38/229 32/48/230 64/80/231 57/74/232
f 1/1/233 4/5/234 66/82/235 65/81/236
f 7/15/237 6/14/238 68/84/239 67/83/240
f 4/5/241 3/7/242 69/85/243 66/82/244
f 3/7/245 8/10/246 70/86/247 69/85/248
f 8/10/249 7/15/250 67/83/251 70/86/252
f 2/2/253 1/1/254 65/81/255 71/87/256
f 6/14/257 5/21/258 72/88/259 68/84/260
f 5/21/261 2/2/262 71/87/263 72/88/264
f 10/11/265 11/12/266 74/90/267 73/89/268
f 15/13/269 14/16/270 76/92/271 75/91/272
f 16/6/273 15/13/274 75/91/275 77/93/276
f 11/12/277 12/18/278 78/94/279 74/90/280
f 12/18/281 16/6/282 77/93/283 78/94/284
f 14/16/285 13/19/286 79/95/287 76/92/288
f 13/19/289 9/9/290 80/96/291 79/95/292
f 9/9/293 10/11/294 73/89/295 80/96/296
f 65/81/297 66/82/298 82/98/299 81/97/300
f 67/83/301 68/84/302 84/100/303 83/99/304
f 66/82/305 69/85/306 85/101/307 82/98/308
f 69/85/309 70/86/310 86/102/311 85/101/312
f 70/86/313 67/83/314 83/99/315 86/102/316
f 71/87/317 65/81/318 81/97/319 87/103/320
f 68/84/321 72/88/322 88/104/323 84/100/324
f 72/88/325 71/87/326 87/103/327 88/104/328
f 73/89/329 74/90/330 90/106/331 89/105/332
f 75/91/333 76/92/334 92/108/335 91/107/336
f 77/93/337 75/91/338 91/107/339 93/109/340
f 74/90/341 78/94/342 94/110/343 90/106/344
f 78/94/345 77/93/346 93/109/347 94/110/348
f 76/92/349 79/95/350 95/111/351 92/108/352
f 79/95/353 80/96/354 96/112/355 95/111/356
f 80/96/357 73/89/358 89/105/359 96/112/360
f 55/71/361 54/70/362 61/77/363 60/76/364
f 53/69/365 52/68/366 63/79/367 62/78/368
f 51/67/369 49/65/370 57/74/371 64/80/372
f 50/66/373 56/72/374 59/75/375 58/73/376
f 57/74/377 49/65/378 50/66/379 58/73/380
f 55/71/381 60/76/382 59/75/383 56/72/384
f 61/77/385 54/70/386 53/69/387 62/78/388
f 63/79/389 52/68/390 51/67/391 64/80/392
