# This file uses centimeters as units for non-parametric coordinates.

mtllib Låda 2.mtl
g default
v 0.820103 -0.200000 0.275344
v 0.780106 -0.160004 0.275344
v 1.280106 -0.160004 0.275344
v 1.240110 -0.200000 0.275344
v 0.780106 0.160004 0.275344
v 0.820103 0.200000 0.275344
v 1.240110 0.200000 0.275344
v 1.280106 0.160004 0.275344
v 0.780106 0.160004 -0.764672
v 0.820103 0.200000 -0.764672
v 1.240110 0.200000 -0.764672
v 1.280106 0.160004 -0.764672
v 0.780106 -0.160004 -0.764672
v 0.820103 -0.200000 -0.764672
v 1.240110 -0.200000 -0.764672
v 1.280106 -0.160004 -0.764672
v 0.780106 -0.160004 -0.244664
v 0.820103 -0.200000 -0.244664
v 1.240110 -0.200000 -0.244664
v 1.280106 -0.160004 -0.244664
v 1.280106 0.160004 -0.244664
v 1.240110 0.200000 -0.244664
v 0.820103 0.200000 -0.244664
v 0.780106 0.160004 -0.244664
v 0.780106 -0.160004 -0.218663
v 0.820103 -0.200000 -0.218663
v 1.240110 -0.200000 -0.218663
v 1.280106 -0.160004 -0.218663
v 1.280106 0.160004 -0.218663
v 1.240110 0.200000 -0.218663
v 0.820103 0.200000 -0.218663
v 0.780106 0.160004 -0.218663
v 0.820103 -0.200000 -0.270664
v 0.780106 -0.160004 -0.270664
v 0.780106 0.160004 -0.270664
v 0.820103 0.200000 -0.270664
v 1.240110 0.200000 -0.270664
v 1.280106 0.160004 -0.270664
v 1.280106 -0.160004 -0.270664
v 1.240110 -0.200000 -0.270664
v 0.820103 -0.200000 -0.739971
v 0.780106 -0.160004 -0.739971
v 0.780106 0.160004 -0.739971
v 0.820103 0.200000 -0.739971
v 1.240110 0.200000 -0.739971
v 1.280106 0.160004 -0.739971
v 1.280106 -0.160004 -0.739971
v 1.240110 -0.200000 -0.739971
v 0.780106 -0.160004 0.250644
v 0.820103 -0.200000 0.250644
v 1.240110 -0.200000 0.250644
v 1.280106 -0.160004 0.250644
v 1.280106 0.160004 0.250644
v 1.240110 0.200000 0.250644
v 0.820103 0.200000 0.250644
v 0.780106 0.160004 0.250644
v 0.780106 -0.199804 0.275344
v 0.780106 -0.199804 0.250644
v 1.280106 -0.199804 0.275344
v 1.280106 -0.199804 0.250644
v 0.780106 0.199804 0.275345
v 0.780106 0.199804 0.250644
v 1.280106 0.199804 0.275344
v 1.280106 0.199804 0.250644
v 0.780106 -0.199804 -0.739971
v 0.780106 -0.199804 -0.764672
v 1.280106 -0.199804 -0.739971
v 1.280106 -0.199804 -0.764672
v 1.280106 0.199804 -0.739971
v 1.280106 0.199804 -0.764672
v 0.780106 0.199804 -0.739971
v 0.780106 0.199804 -0.764672
v 0.780106 -0.199804 -0.218663
v 0.780106 -0.199804 -0.244664
v 0.780106 -0.199804 -0.270664
v 1.280106 -0.199804 -0.218663
v 1.280106 -0.199804 -0.244664
v 1.280106 -0.199804 -0.270664
v 1.280106 0.199804 -0.218663
v 1.280106 0.199804 -0.244664
v 1.280106 0.199804 -0.270664
v 0.780106 0.199804 -0.218663
v 0.780106 0.199804 -0.221350
v 0.780106 0.199804 -0.293978
v 0.846986 -0.174397 -0.270664
v 0.812110 -0.139521 -0.270664
v 0.812110 -0.139521 -0.739971
v 0.846986 -0.174397 -0.739971
v 0.812110 0.139521 -0.739971
v 0.812110 0.139521 -0.270664
v 0.846986 0.174397 -0.270664
v 0.846986 0.174397 -0.739971
v 1.213227 0.174397 -0.270664
v 1.213227 0.174397 -0.739971
v 1.248103 0.139521 -0.270664
v 1.248103 0.139521 -0.739971
v 1.248103 -0.139521 -0.270664
v 1.248103 -0.139521 -0.739971
v 1.213227 -0.174397 -0.270664
v 1.213227 -0.174397 -0.739971
v 0.812110 -0.139521 0.250644
v 0.846986 -0.174397 0.250644
v 0.812110 -0.139521 -0.218663
v 0.846986 -0.174397 -0.218663
v 1.213227 -0.174397 -0.218663
v 1.213227 -0.174397 0.250644
v 1.248103 -0.139521 0.250644
v 1.248103 -0.139521 -0.218663
v 1.248103 0.139521 0.250644
v 1.248103 0.139521 -0.218663
v 1.213227 0.174397 0.250644
v 1.213227 0.174397 -0.218663
v 0.846986 0.174397 0.250644
v 0.846986 0.174397 -0.218663
v 0.812110 0.139521 0.250644
v 0.812110 0.139521 -0.218663
v 0.846986 -0.174397 0.275344
v 1.213227 -0.174397 0.275344
v 1.213227 0.174397 0.275344
v 0.846986 0.174397 0.275344
v 1.248103 -0.139521 0.275344
v 1.248103 0.139521 0.275344
v 0.812110 -0.139521 0.275344
v 0.812110 0.139521 0.275344
v 0.846986 0.174397 -0.764672
v 1.213227 0.174397 -0.764672
v 1.213227 -0.174397 -0.764672
v 0.846986 -0.174397 -0.764672
v 1.248103 -0.139521 -0.764672
v 1.248103 0.139521 -0.764672
v 0.812110 -0.139521 -0.764672
v 0.812110 0.139521 -0.764672
v 0.850734 -0.170828 0.264058
v 1.209479 -0.170828 0.264058
v 1.209479 0.170828 0.264058
v 0.850734 0.170828 0.264058
v 1.243641 -0.136666 0.264058
v 1.243641 0.136666 0.264058
v 0.816572 -0.136666 0.264058
v 0.816572 0.136666 0.264058
v 0.850734 0.170828 -0.753386
v 1.209479 0.170828 -0.753386
v 1.209479 -0.170828 -0.753386
v 0.850734 -0.170828 -0.753386
v 1.243641 -0.136666 -0.753386
v 1.243641 0.136666 -0.753386
v 0.816572 -0.136666 -0.753386
v 0.816572 0.136666 -0.753386
vt 0.143261 0.562444
vt 0.145591 0.509282
vt 0.177605 0.510013
vt 0.176014 0.562386
vt 0.145591 0.509282
vt 0.094843 0.506290
vt 0.184505 0.983737
vt 0.177605 0.510013
vt 0.145591 0.509282
vt 0.094843 0.506290
vt 0.184505 0.983737
vt 0.177605 0.510013
vt 0.143261 0.562444
vt 0.145591 0.509282
vt 0.177605 0.510013
vt 0.176014 0.562386
vt 0.143261 0.562444
vt 0.176014 0.562386
vt 0.184505 0.983737
vt 0.094843 0.506290
vt 0.176014 0.562386
vt 0.184505 0.983737
vt 0.094843 0.506290
vt 0.143261 0.562444
vt 0.184505 0.983737
vt 0.177605 0.510013
vt 0.145591 0.509282
vt 0.094843 0.506291
vt 0.143261 0.562444
vt 0.176014 0.562386
vt 0.177605 0.510013
vt 0.145591 0.509282
vt 0.176014 0.562386
vt 0.184505 0.983737
vt 0.094843 0.506290
vt 0.143261 0.562444
vt 0.184505 0.983737
vt 0.177605 0.510013
vt 0.145591 0.509282
vt 0.094843 0.506290
vt 0.176014 0.562386
vt 0.143261 0.562444
vt 0.177605 0.510013
vt 0.145591 0.509282
vt 0.143261 0.562444
vt 0.176014 0.562386
vt 0.184505 0.983737
vt 0.094843 0.506290
vt 0.533920 0.501539
vt 0.533918 0.456626
vt 0.563115 0.456625
vt 0.563117 0.501538
vt 0.563113 0.411933
vt 0.489227 0.456409
vt 0.533918 0.456626
vt 0.563115 0.456625
vt 0.489222 0.456420
vt 0.533920 0.501539
vt 0.563117 0.501538
vt 0.563102 0.411933
vt 0.533921 0.501543
vt 0.533914 0.456631
vt 0.563110 0.456625
vt 0.563118 0.501538
vt 0.489222 0.456420
vt 0.563102 0.411933
vt 0.533918 0.456626
vt 0.563115 0.456625
vt 0.563118 0.501538
vt 0.563113 0.411933
vt 0.489227 0.456409
vt 0.533921 0.501543
vt 0.592311 0.456624
vt 0.592313 0.501537
vt 0.592314 0.501533
vt 0.592398 0.973167
vt 0.592398 0.973167
vt 0.592311 0.456624
vt 0.592314 0.501533
vt 0.592306 0.456620
vt 0.592313 0.501537
vt 0.592398 0.973167
vt 0.592331 0.973171
vt 0.592311 0.456624
vt 0.677245 0.501656
vt 0.621143 0.942974
vt 0.976820 0.470114
vt 0.226201 0.955856
vt 0.976785 0.291989
vt 0.621217 0.531575
vt 0.621143 0.942974
vt 0.976779 0.260504
vt 0.621217 0.531575
vt 0.976916 0.976481
vt 0.621080 0.942982
vt 0.976910 0.944997
vt 0.621217 0.531575
vt 0.976876 0.766872
vt 0.621080 0.942982
vt 0.976870 0.735387
vt 0.677245 0.501656
vt 0.226201 0.955856
vt 0.976820 0.470114
vt 0.505171 0.531728
vt 0.466052 0.492234
vt 0.677290 0.735444
vt 0.677296 0.766929
vt 0.505177 0.531736
vt 0.677330 0.945054
vt 0.466052 0.492248
vt 0.677155 0.026774
vt 0.505177 0.531736
vt 0.677199 0.260562
vt 0.466052 0.492248
vt 0.677206 0.292046
vt 0.505177 0.531736
vt 0.070721 0.019364
vt 0.045687 0.547122
vt 0.451039 0.381630
vt 0.045687 0.547122
vt 0.085169 0.594745
vt 0.045687 0.547122
vt 0.034498 0.055580
vt 0.085169 0.594745
vt 0.070721 0.019364
vt 0.045687 0.547122
vt 0.451039 0.381630
vt 0.045687 0.547122
vt 0.487262 0.345414
vt 0.085169 0.594745
vt 0.085169 0.594745
vt 0.045687 0.547122
vt 0.058409 0.537553
vt 0.100880 0.588730
vt 0.058409 0.537553
vt 0.100880 0.588730
vt 0.100880 0.588730
vt 0.058409 0.537553
vt 0.058409 0.537553
vt 0.100880 0.588730
vt 0.058409 0.537553
vt 0.100880 0.588730
vt 0.058409 0.537553
vt 0.100880 0.588730
vt 0.058409 0.537553
vt 0.100880 0.588730
vt 0.100880 0.588730
vt 0.058409 0.537553
vt 0.085169 0.594745
vt 0.034498 0.055580
vt 0.035611 0.345373
vt 0.070688 0.381596
vt 0.487289 0.055621
vt 0.045687 0.547122
vt 0.451072 0.019398
vt 0.085169 0.594745
vt 0.034472 0.345373
vt 0.045687 0.547122
vt 0.070688 0.381596
vt 0.085169 0.594745
vt 0.085169 0.594745
vt 0.487262 0.345414
vt 0.487289 0.055621
vt 0.451072 0.019398
vt 0.218820 0.588735
vt 0.677239 0.470172
vt 0.976785 0.291989
vt 0.466052 0.492234
vt 0.976779 0.260504
vt 0.226201 0.955856
vt 0.976916 0.976481
vt 0.218820 0.588735
vt 0.976910 0.944997
vt 0.226201 0.955856
vt 0.976876 0.766872
vt 0.218820 0.588735
vt 0.976870 0.735387
vt 0.226201 0.955856
vt 0.218820 0.588736
vt 0.976825 0.501599
vt 0.677290 0.735444
vt 0.621212 0.531583
vt 0.218820 0.588736
vt 0.976825 0.501599
vt 0.226201 0.955856
vt 0.677296 0.766929
vt 0.218820 0.588735
vt 0.677330 0.945054
vt 0.226201 0.955856
vt 0.677155 0.026774
vt 0.218820 0.588735
vt 0.677199 0.260562
vt 0.226201 0.955855
vt 0.677206 0.292046
vt 0.677239 0.470172
vt 0.218820 0.588735
vt 0.976735 0.026716
vt 0.677336 0.976539
vt 0.976735 0.026716
vt 0.677336 0.976539
vt 0.533939 0.973174
vt 0.505250 0.942995
vt 0.592309 0.411932
vt 0.660180 0.492227
vt 0.563201 0.973172
vt 0.533939 0.973173
vt 0.505187 0.942987
vt 0.592298 0.411928
vt 0.660180 0.492213
vt 0.563135 0.973172
vt 0.534005 0.973178
vt 0.505187 0.942987
vt 0.592298 0.411928
vt 0.660180 0.492214
vt 0.563135 0.973172
vt 0.534005 0.973178
vt 0.505250 0.942995
vt 0.592309 0.411932
vt 0.660180 0.492214
vt 0.563201 0.973173
vt 0.505024 0.531587
vt 0.621064 0.531724
vt 0.636998 0.456393
vt 0.533906 0.411938
vt 0.505024 0.531587
vt 0.621064 0.531724
vt 0.637003 0.456404
vt 0.533917 0.411934
vt 0.505024 0.531587
vt 0.621064 0.531724
vt 0.637003 0.456404
vt 0.533917 0.411934
vt 0.505030 0.531595
vt 0.621069 0.531716
vt 0.636998 0.456393
vt 0.533906 0.411938
vt 0.109280 0.958808
vt 0.093182 0.955499
vt 0.146827 0.456409
vt 0.151891 0.984436
vt 0.179337 0.457296
vt 0.229724 0.509728
vt 0.264880 0.543187
vt 0.109280 0.958808
vt 0.093182 0.955499
vt 0.146827 0.456409
vt 0.109280 0.958808
vt 0.093182 0.955499
vt 0.146827 0.456409
vt 0.179337 0.457296
vt 0.229723 0.509728
vt 0.264880 0.543187
vt 0.151891 0.984436
vt 0.229723 0.509728
vt 0.264880 0.543187
vt 0.151891 0.984436
vt 0.179337 0.457296
vt 0.109280 0.958808
vt 0.093182 0.955499
vt 0.146828 0.456409
vt 0.151891 0.984436
vt 0.179337 0.457296
vt 0.229723 0.509728
vt 0.264880 0.543187
vt 0.109280 0.958808
vt 0.093182 0.955499
vt 0.146827 0.456409
vt 0.151891 0.984436
vt 0.179337 0.457296
vt 0.229724 0.509728
vt 0.264880 0.543187
vt 0.109280 0.958808
vt 0.093182 0.955499
vt 0.146828 0.456409
vt 0.151891 0.984436
vt 0.179337 0.457296
vt 0.229724 0.509728
vt 0.264880 0.543187
vt 0.109280 0.958808
vt 0.093182 0.955499
vt 0.146828 0.456409
vt 0.151891 0.984436
vt 0.179337 0.457296
vt 0.229724 0.509728
vt 0.264880 0.543187
vt 0.109280 0.958808
vt 0.093182 0.955499
vt 0.146828 0.456409
vt 0.151891 0.984436
vt 0.179337 0.457296
vt 0.229723 0.509728
vt 0.264880 0.543187
vn -0.004898 -0.999988 0.000000
vn -0.004898 -0.999988 0.000000
vn -0.004898 -0.999988 0.000000
vn -0.004898 -0.999988 0.000000
vn 0.004898 -0.999988 0.000000
vn 0.004898 -0.999988 0.000000
vn 0.004898 -0.999988 0.000000
vn 0.004898 -0.999988 0.000000
vn -0.004898 0.999988 0.000000
vn -0.004898 0.999988 0.000000
vn -0.004898 0.999988 0.000000
vn -0.004898 0.999988 0.000000
vn 0.004898 0.999988 0.000000
vn 0.004898 0.999988 0.000000
vn 0.004898 0.999988 0.000000
vn 0.004898 0.999988 0.000000
vn 0.000000 1.000000 0.000000
vn 0.000000 1.000000 0.000000
vn 0.000000 1.000000 0.000000
vn 0.000000 1.000000 0.000000
vn 0.000000 -1.000000 0.000000
vn 0.000000 -1.000000 0.000000
vn 0.000000 -1.000000 0.000000
vn 0.000000 -1.000000 0.000000
vn 1.000000 0.000000 0.000000
vn 1.000000 0.000000 0.000000
vn 1.000000 0.000000 0.000000
vn 1.000000 0.000000 0.000000
vn -1.000000 0.000000 0.000000
vn -1.000000 0.000000 0.000000
vn -1.000000 0.000000 0.000000
vn -1.000000 0.000000 0.000000
vn -0.004898 -0.999988 0.000000
vn -0.004898 -0.999988 0.000000
vn -0.004898 -0.999988 0.000000
vn -0.004898 -0.999988 0.000000
vn 0.000000 -1.000000 0.000000
vn 0.000000 -1.000000 0.000000
vn 0.000000 -1.000000 0.000000
vn 0.000000 -1.000000 0.000000
vn 0.004898 -0.999988 0.000000
vn 0.004898 -0.999988 0.000000
vn 0.004898 -0.999988 0.000000
vn 0.004898 -0.999988 0.000000
vn 1.000000 0.000000 0.000000
vn 1.000000 0.000000 0.000000
vn 1.000000 0.000000 0.000000
vn 1.000000 0.000000 0.000000
vn 0.004898 0.999988 0.000000
vn 0.004898 0.999988 0.000000
vn 0.004898 0.999988 0.000000
vn 0.004898 0.999988 0.000000
vn 0.000000 1.000000 0.000000
vn 0.000000 1.000000 0.000000
vn 0.000000 1.000000 0.000000
vn 0.000000 1.000000 0.000000
vn -0.004898 0.999988 0.000000
vn -0.004898 0.999988 0.000000
vn -0.004898 0.999988 0.000000
vn -0.004898 0.999988 0.000000
vn -1.000000 0.000000 0.000000
vn -1.000000 0.000000 0.000000
vn -1.000000 0.000000 0.000000
vn -1.000000 0.000000 0.000000
vn -0.004898 -0.999988 0.000000
vn -0.004898 -0.999988 0.000000
vn -0.004898 -0.999988 0.000000
vn -0.004898 -0.999988 0.000000
vn 0.000000 -1.000000 0.000000
vn 0.000000 -1.000000 0.000000
vn 0.000000 -1.000000 0.000000
vn 0.000000 -1.000000 0.000000
vn 0.004898 -0.999988 0.000000
vn 0.004898 -0.999988 0.000000
vn 0.004898 -0.999988 0.000000
vn 0.004898 -0.999988 0.000000
vn 1.000000 0.000000 0.000000
vn 1.000000 0.000000 0.000000
vn 1.000000 0.000000 0.000000
vn 1.000000 0.000000 0.000000
vn 0.004898 0.999988 0.000000
vn 0.004898 0.999988 0.000000
vn 0.004898 0.999988 0.000000
vn 0.004898 0.999988 0.000000
vn 0.000000 1.000000 0.000000
vn 0.000000 1.000000 0.000000
vn 0.000000 1.000000 0.000000
vn 0.000000 1.000000 0.000000
vn -0.004898 0.999988 0.000000
vn -0.004898 0.999988 0.000000
vn -0.004898 0.999988 0.000000
vn -0.004898 0.999988 0.000000
vn -1.000000 0.000000 0.000000
vn -1.000000 0.000000 0.000000
vn -1.000000 0.000000 0.000000
vn -1.000000 0.000000 0.000000
vn -0.004898 -0.999988 0.000000
vn -0.004898 -0.999988 0.000000
vn -1.000000 0.000000 0.000000
vn -1.000000 0.000000 0.000000
vn -0.004898 0.999988 0.000000
vn -0.004898 0.999988 0.000000
vn 0.000000 1.000000 0.000000
vn 0.000000 1.000000 0.000000
vn 0.004898 0.999988 0.000000
vn 0.004898 0.999988 0.000000
vn 1.000000 0.000000 0.000000
vn 1.000000 0.000000 0.000000
vn 0.004898 -0.999988 0.000000
vn 0.004898 -0.999988 0.000000
vn 0.000000 -1.000000 0.000000
vn 0.000000 -1.000000 0.000000
vn -0.707106 -0.707107 0.000000
vn -0.707106 -0.707107 0.000000
vn -0.707106 -0.707107 0.000000
vn -0.707106 -0.707107 0.000000
vn -1.000000 0.000000 0.000000
vn -1.000000 0.000000 0.000000
vn -1.000000 0.000000 0.000000
vn -1.000000 0.000000 0.000000
vn -0.707106 0.707107 0.000000
vn -0.707106 0.707107 0.000000
vn -0.707106 0.707107 0.000000
vn -0.707106 0.707107 0.000000
vn 0.000000 1.000000 0.000000
vn 0.000000 1.000000 0.000000
vn 0.000000 1.000000 0.000000
vn 0.000000 1.000000 0.000000
vn 0.707106 0.707107 0.000000
vn 0.707106 0.707107 0.000000
vn 0.707106 0.707107 0.000000
vn 0.707106 0.707107 0.000000
vn 1.000000 0.000000 0.000000
vn 1.000000 0.000000 0.000000
vn 1.000000 0.000000 0.000000
vn 1.000000 0.000000 0.000000
vn 0.707106 -0.707107 0.000000
vn 0.707106 -0.707107 0.000000
vn 0.707106 -0.707107 0.000000
vn 0.707106 -0.707107 0.000000
vn 0.000000 -1.000000 0.000000
vn 0.000000 -1.000000 0.000000
vn 0.000000 -1.000000 0.000000
vn 0.000000 -1.000000 0.000000
vn -0.707106 -0.707107 0.000000
vn -0.707106 -0.707107 0.000000
vn -0.707106 -0.707107 0.000000
vn -0.707106 -0.707107 0.000000
vn 0.000000 -1.000000 0.000000
vn 0.000000 -1.000000 0.000000
vn 0.000000 -1.000000 0.000000
vn 0.000000 -1.000000 0.000000
vn 0.707106 -0.707107 0.000000
vn 0.707106 -0.707107 0.000000
vn 0.707106 -0.707107 0.000000
vn 0.707106 -0.707107 0.000000
vn 1.000000 0.000000 0.000000
vn 1.000000 0.000000 0.000000
vn 1.000000 0.000000 0.000000
vn 1.000000 0.000000 0.000000
vn 0.707106 0.707107 0.000000
vn 0.707106 0.707107 0.000000
vn 0.707106 0.707107 0.000000
vn 0.707106 0.707107 0.000000
vn 0.000000 1.000000 0.000000
vn 0.000000 1.000000 0.000000
vn 0.000000 1.000000 0.000000
vn 0.000000 1.000000 0.000000
vn -0.707106 0.707107 0.000000
vn -0.707106 0.707107 0.000000
vn -0.707106 0.707107 0.000000
vn -0.707106 0.707107 0.000000
vn -1.000000 0.000000 0.000000
vn -1.000000 0.000000 0.000000
vn -1.000000 0.000000 0.000000
vn -1.000000 0.000000 0.000000
vn 0.000000 0.000000 1.000000
vn 0.000000 0.000000 1.000000
vn 0.000000 0.000000 1.000000
vn 0.000000 0.000000 1.000000
vn 0.000000 0.000000 1.000000
vn 0.000000 0.000000 1.000000
vn 0.000000 0.000000 1.000000
vn 0.000000 0.000000 1.000000
vn 0.000000 0.000000 1.000000
vn 0.000000 0.000000 1.000000
vn 0.000000 0.000000 1.000000
vn 0.000000 0.000000 1.000000
vn 0.000000 0.000000 -1.000000
vn 0.000000 0.000000 -1.000000
vn 0.000000 0.000000 -1.000000
vn 0.000000 0.000000 -1.000000
vn 0.000000 0.000000 -1.000000
vn 0.000000 0.000000 -1.000000
vn 0.000000 0.000000 -1.000000
vn 0.000000 0.000000 -1.000000
vn 0.000000 0.000000 -1.000000
vn 0.000000 0.000000 -1.000000
vn 0.000000 0.000000 -1.000000
vn 0.000000 0.000000 -1.000000
vn 0.000000 0.000000 1.000000
vn 0.000000 0.000000 1.000000
vn 0.000000 0.000000 1.000000
vn -1.000000 0.000000 0.000000
vn -1.000000 0.000000 0.000000
vn -1.000000 0.000000 0.000000
vn -1.000000 0.000000 0.000000
vn 0.000002 0.000000 -1.000000
vn 0.000002 0.000000 -1.000000
vn 0.000002 0.000000 -1.000000
vn 0.000000 0.000000 1.000000
vn 0.000000 0.000000 1.000000
vn 0.000000 0.000000 1.000000
vn -0.000002 0.000000 -1.000000
vn -0.000002 0.000000 -1.000000
vn -0.000002 0.000000 -1.000000
vn 1.000000 0.000000 0.000000
vn 1.000000 0.000000 0.000000
vn 1.000000 0.000000 0.000000
vn 1.000000 0.000000 0.000000
vn 0.000004 -0.000004 1.000000
vn 0.000004 -0.000004 1.000000
vn 0.000004 -0.000004 1.000000
vn -0.000001 0.000002 -1.000000
vn -0.000001 0.000002 -1.000000
vn -0.000001 0.000002 -1.000000
vn -1.000000 0.000000 0.000000
vn -1.000000 0.000000 0.000000
vn -1.000000 0.000000 0.000000
vn -1.000000 0.000000 0.000000
vn -0.000000 0.000000 1.000000
vn -0.000000 0.000000 1.000000
vn -0.000000 0.000000 1.000000
vn 1.000000 0.000000 0.000000
vn 1.000000 0.000000 0.000000
vn 1.000000 0.000000 0.000000
vn 1.000000 0.000000 0.000000
vn -0.000002 0.000000 -1.000000
vn -0.000002 0.000000 -1.000000
vn -0.000002 0.000000 -1.000000
vn -0.000001 0.000000 1.000000
vn -0.000001 0.000000 1.000000
vn -0.000001 0.000000 1.000000
vn -1.000000 0.000000 0.000000
vn -1.000000 0.000000 0.000000
vn -1.000000 0.000000 0.000000
vn -1.000000 0.000000 0.000000
vn 0.000000 0.000000 -1.000000
vn 0.000000 0.000000 -1.000000
vn 0.000000 0.000000 -1.000000
vn 0.000000 0.000000 1.000000
vn 0.000000 0.000000 1.000000
vn 0.000000 0.000000 1.000000
vn -0.000000 0.000000 -1.000000
vn -0.000000 0.000000 -1.000000
vn -0.000000 0.000000 -1.000000
vn 1.000000 0.000000 0.000000
vn 1.000000 0.000000 0.000000
vn 1.000000 0.000000 0.000000
vn 1.000000 0.000000 0.000000
vn 0.000001 0.000000 1.000000
vn 0.000001 0.000000 1.000000
vn 0.000001 0.000000 1.000000
vn 1.000000 0.000000 0.000000
vn 1.000000 0.000000 0.000000
vn 1.000000 0.000000 0.000000
vn 1.000000 0.000000 0.000000
vn 0.000000 0.000000 -1.000000
vn 0.000000 0.000000 -1.000000
vn 0.000000 0.000000 -1.000000
vn 0.000000 0.000000 1.000000
vn 0.000000 0.000000 1.000000
vn 0.000000 0.000000 1.000000
vn 0.000000 0.000000 -1.000000
vn 0.000000 0.000000 -1.000000
vn 0.000000 0.000000 -1.000000
vn -1.000000 0.000000 0.000000
vn -1.000000 0.000000 0.000000
vn -1.000000 0.000000 0.000000
vn -1.000000 0.000000 0.000000
vn 0.000000 0.000000 1.000000
vn 0.000000 0.000000 1.000000
vn 0.000000 0.000000 1.000000
vn -1.000000 0.000000 0.000000
vn -1.000000 0.000000 0.000000
vn -1.000000 0.000000 0.000000
vn -1.000000 0.000000 0.000000
vn -1.000000 0.000000 0.000000
vn -1.000000 0.000000 0.000000
vn -1.000000 0.000000 0.000000
vn -1.000000 0.000000 0.000000
vn 0.000000 0.000000 -1.000000
vn 0.000000 0.000000 -1.000000
vn 0.000000 0.000000 -1.000000
vn 0.000000 0.000000 1.000000
vn 0.000000 0.000000 1.000000
vn 0.000000 0.000000 1.000000
vn 1.000000 0.000000 0.000000
vn 1.000000 0.000000 0.000000
vn 1.000000 0.000000 0.000000
vn 1.000000 0.000000 0.000000
vn 0.000000 0.000000 -1.000000
vn 0.000000 0.000000 -1.000000
vn 0.000000 0.000000 -1.000000
vn 1.000000 0.000000 0.000000
vn 1.000000 0.000000 0.000000
vn 1.000000 0.000000 0.000000
vn 1.000000 0.000000 0.000000
vn -0.000000 0.000000 1.000000
vn -0.000000 0.000000 1.000000
vn -0.000000 0.000000 1.000000
vn 1.000000 0.000000 0.000000
vn 1.000000 0.000000 0.000000
vn 1.000000 0.000000 0.000000
vn 1.000000 0.000000 0.000000
vn 1.000000 0.000000 0.000000
vn 1.000000 0.000000 0.000000
vn 1.000000 0.000000 0.000000
vn 1.000000 0.000000 0.000000
vn 0.000000 0.000000 -1.000000
vn 0.000000 0.000000 -1.000000
vn 0.000000 0.000000 -1.000000
vn 0.000000 0.000000 1.000000
vn 0.000000 0.000000 1.000000
vn 0.000000 0.000000 1.000000
vn -1.000000 0.000000 0.000000
vn -1.000000 0.000000 0.000000
vn -1.000000 0.000000 0.000000
vn -1.000000 0.000000 0.000000
vn 0.451095 -0.451095 -0.770082
vn 0.451095 -0.451095 -0.770082
vn 0.451095 -0.451095 -0.770082
vn -1.000000 0.000000 0.000000
vn -1.000000 0.000000 0.000000
vn -1.000000 0.000000 0.000000
vn -1.000000 0.000000 0.000000
vn 0.000000 0.000000 -1.000000
vn 0.000000 0.000000 -1.000000
vn 0.000000 0.000000 -1.000000
vn 0.000000 0.000000 -1.000000
vn 0.000000 0.000000 1.000000
vn 0.000000 0.000000 1.000000
vn 0.000000 0.000000 1.000000
vn 0.000000 0.000000 1.000000
vn -0.000000 0.000000 1.000000
vn -0.000000 0.000000 1.000000
vn -0.000000 0.000000 1.000000
vn -0.000000 0.000000 1.000000
vn 0.000000 0.000000 -1.000000
vn 0.000000 0.000000 -1.000000
vn 0.000000 0.000000 -1.000000
vn 0.000000 0.000000 -1.000000
vn 0.000000 0.000000 -1.000000
vn 0.000000 0.000000 -1.000000
vn 0.000000 0.000000 -1.000000
vn 0.000000 0.000000 -1.000000
vn 0.000000 0.000000 1.000000
vn 0.000000 0.000000 1.000000
vn 0.000000 0.000000 1.000000
vn 0.000000 0.000000 1.000000
vn 0.000000 0.000000 -1.000000
vn 0.000000 0.000000 -1.000000
vn 0.000000 0.000000 -1.000000
vn 0.000000 0.000000 -1.000000
vn 0.000000 0.000000 1.000000
vn 0.000000 0.000000 1.000000
vn 0.000000 0.000000 1.000000
vn 0.000000 0.000000 1.000000
vn 0.000000 0.000000 -1.000000
vn 0.000000 0.000000 -1.000000
vn 0.000000 0.000000 -1.000000
vn 0.000000 0.000000 -1.000000
vn -0.000000 0.000000 1.000000
vn -0.000000 0.000000 1.000000
vn -0.000000 0.000000 1.000000
vn -0.000000 0.000000 1.000000
vn -0.000000 0.000000 -1.000000
vn -0.000000 0.000000 -1.000000
vn -0.000000 0.000000 -1.000000
vn -0.000000 0.000000 -1.000000
vn 0.000000 0.000000 1.000000
vn 0.000000 0.000000 1.000000
vn 0.000000 0.000000 1.000000
vn 0.000000 0.000000 1.000000
vn 0.000000 0.000000 -1.000000
vn 0.000000 0.000000 -1.000000
vn 0.000000 0.000000 -1.000000
vn 0.000000 0.000000 -1.000000
vn -0.000000 0.000000 1.000000
vn -0.000000 0.000000 1.000000
vn -0.000000 0.000000 1.000000
vn -0.000000 0.000000 1.000000
vn 0.000000 0.000000 1.000000
vn 0.000000 0.000000 1.000000
vn 0.000000 0.000000 1.000000
vn 0.000000 0.000000 1.000000
vn 0.000000 0.000000 -1.000000
vn 0.000000 0.000000 -1.000000
vn 0.000000 0.000000 -1.000000
vn 0.000000 0.000000 -1.000000
vn -0.000000 0.000000 -1.000000
vn -0.000000 0.000000 -1.000000
vn -0.000000 0.000000 -1.000000
vn -0.000000 0.000000 -1.000000
vn 0.000000 0.000000 1.000000
vn 0.000000 0.000000 1.000000
vn 0.000000 0.000000 1.000000
vn 0.000000 0.000000 1.000000
vn 0.000000 0.000000 1.000000
vn 0.000000 0.000000 1.000000
vn 0.000000 0.000000 1.000000
vn 0.000000 0.000000 1.000000
vn 0.000000 0.000000 -1.000000
vn 0.000000 0.000000 -1.000000
vn 0.000000 0.000000 -1.000000
vn 0.000000 0.000000 -1.000000
vn 0.000000 0.000000 -1.000000
vn 0.000000 0.000000 -1.000000
vn 0.000000 0.000000 -1.000000
vn 0.000000 0.000000 -1.000000
vn 0.000000 0.000000 1.000000
vn 0.000000 0.000000 1.000000
vn 0.000000 0.000000 1.000000
vn 0.000000 0.000000 1.000000
vn -0.000000 0.000000 -1.000000
vn -0.000000 0.000000 -1.000000
vn -0.000000 0.000000 -1.000000
vn -0.000000 0.000000 -1.000000
vn -0.000000 0.000000 1.000000
vn -0.000000 0.000000 1.000000
vn -0.000000 0.000000 1.000000
vn -0.000000 0.000000 1.000000
vn 0.000000 0.000000 -1.000000
vn 0.000000 0.000000 -1.000000
vn 0.000000 0.000000 -1.000000
vn 0.000000 0.000000 -1.000000
vn 0.000000 0.000000 1.000000
vn 0.000000 0.000000 1.000000
vn 0.000000 0.000000 1.000000
vn 0.000000 0.000000 1.000000
vn 0.000000 0.000000 -1.000000
vn 0.000000 0.000000 -1.000000
vn 0.000000 0.000000 -1.000000
vn 0.000000 0.000000 -1.000000
vn 0.000000 0.000000 1.000000
vn 0.000000 0.000000 1.000000
vn 0.000000 0.000000 1.000000
vn 0.000000 0.000000 1.000000
vn -0.000000 0.000000 -1.000000
vn -0.000000 0.000000 -1.000000
vn -0.000000 0.000000 -1.000000
vn -0.000000 0.000000 -1.000000
vn 0.000000 0.000000 1.000000
vn 0.000000 0.000000 1.000000
vn 0.000000 0.000000 1.000000
vn 0.000000 0.000000 1.000000
vn 0.000000 0.000000 1.000000
vn 0.000000 0.000000 1.000000
vn 0.000000 0.000000 1.000000
vn 0.000000 0.000000 1.000000
vn 0.000000 0.000000 -1.000000
vn 0.000000 0.000000 -1.000000
vn 0.000000 0.000000 -1.000000
vn 0.000000 0.000000 -1.000000
vn 0.000000 0.000000 1.000000
vn 0.000000 0.000000 1.000000
vn 0.000000 0.000000 1.000000
vn 0.000000 0.000000 1.000000
vn 0.000000 0.000000 1.000000
vn 0.000000 0.000000 1.000000
vn 0.000000 0.000000 1.000000
vn 0.000000 0.000000 1.000000
vn 0.000001 0.000000 1.000000
vn 0.000001 0.000000 1.000000
vn 0.000001 0.000000 1.000000
vn 0.000001 0.000000 1.000000
vn 0.000001 0.000000 1.000000
vn 0.000001 0.000000 1.000000
vn 0.000001 0.000000 1.000000
vn 0.000001 0.000000 1.000000
vn 0.000000 0.000000 1.000000
vn 0.000000 0.000000 1.000000
vn 0.000000 0.000000 1.000000
vn 0.000000 0.000000 1.000000
vn -0.000000 0.000000 1.000000
vn -0.000000 0.000000 1.000000
vn -0.000000 0.000000 1.000000
vn -0.000000 0.000000 1.000000
vn -0.000001 0.000000 1.000000
vn -0.000001 0.000000 1.000000
vn -0.000001 0.000000 1.000000
vn -0.000001 0.000000 1.000000
vn -0.000001 0.000000 1.000000
vn -0.000001 0.000000 1.000000
vn -0.000001 0.000000 1.000000
vn -0.000001 0.000000 1.000000
vn 0.000000 0.000000 -1.000000
vn 0.000000 0.000000 -1.000000
vn 0.000000 0.000000 -1.000000
vn 0.000000 0.000000 -1.000000
vn 0.000000 0.000000 -1.000000
vn 0.000000 0.000000 -1.000000
vn 0.000000 0.000000 -1.000000
vn 0.000000 0.000000 -1.000000
vn -0.000000 0.000000 -1.000000
vn -0.000000 0.000000 -1.000000
vn -0.000000 0.000000 -1.000000
vn -0.000000 0.000000 -1.000000
vn -0.000001 0.000000 -1.000000
vn -0.000001 0.000000 -1.000000
vn -0.000001 0.000000 -1.000000
vn -0.000001 0.000000 -1.000000
vn 0.000000 0.000000 -1.000000
vn 0.000000 0.000000 -1.000000
vn 0.000000 0.000000 -1.000000
vn 0.000000 0.000000 -1.000000
vn 0.000001 0.000000 -1.000000
vn 0.000001 0.000000 -1.000000
vn 0.000001 0.000000 -1.000000
vn 0.000001 0.000000 -1.000000
vn -0.000000 0.000000 -1.000000
vn -0.000000 0.000000 -1.000000
vn -0.000000 0.000000 -1.000000
vn -0.000000 0.000000 -1.000000
vn 0.000000 0.000000 -1.000000
vn 0.000000 0.000000 -1.000000
vn 0.000000 0.000000 -1.000000
vn 0.000000 0.000000 -1.000000
vn 0.000000 0.953448 0.301558
vn 0.000000 0.953448 0.301558
vn 0.000000 0.953448 0.301558
vn 0.000000 0.953448 0.301558
vn 0.000000 -0.953448 0.301558
vn 0.000000 -0.953448 0.301558
vn 0.000000 -0.953448 0.301558
vn 0.000000 -0.953448 0.301558
vn -0.642769 0.642772 0.416764
vn -0.642769 0.642772 0.416764
vn -0.642769 0.642772 0.416764
vn -0.642769 0.642772 0.416764
vn -0.929959 0.000000 0.367662
vn -0.929959 0.000000 0.367662
vn -0.929959 0.000000 0.367662
vn -0.929959 0.000000 0.367662
vn -0.642770 -0.642771 0.416764
vn -0.642770 -0.642771 0.416764
vn -0.642770 -0.642771 0.416764
vn -0.642770 -0.642771 0.416764
vn 0.642770 0.642771 0.416764
vn 0.642770 0.642771 0.416764
vn 0.642770 0.642771 0.416764
vn 0.642770 0.642771 0.416764
vn 0.642769 -0.642772 0.416764
vn 0.642769 -0.642772 0.416764
vn 0.642769 -0.642772 0.416764
vn 0.642769 -0.642772 0.416764
vn 0.929959 0.000000 0.367662
vn 0.929959 0.000000 0.367662
vn 0.929959 0.000000 0.367662
vn 0.929959 0.000000 0.367662
vn 0.000000 -0.953448 -0.301556
vn 0.000000 -0.953448 -0.301556
vn 0.000000 -0.953448 -0.301556
vn 0.000000 -0.953448 -0.301556
vn 0.000000 0.953448 -0.301556
vn 0.000000 0.953448 -0.301556
vn 0.000000 0.953448 -0.301556
vn 0.000000 0.953448 -0.301556
vn -0.642769 0.642773 -0.416762
vn -0.642769 0.642773 -0.416762
vn -0.642769 0.642773 -0.416762
vn -0.642769 0.642773 -0.416762
vn -0.642770 -0.642773 -0.416762
vn -0.642770 -0.642773 -0.416762
vn -0.642770 -0.642773 -0.416762
vn -0.642770 -0.642773 -0.416762
vn -0.929961 0.000000 -0.367659
vn -0.929961 0.000000 -0.367659
vn -0.929961 0.000000 -0.367659
vn -0.929961 0.000000 -0.367659
vn 0.642770 0.642773 -0.416762
vn 0.642770 0.642773 -0.416762
vn 0.642770 0.642773 -0.416762
vn 0.642770 0.642773 -0.416762
vn 0.929961 0.000000 -0.367659
vn 0.929961 0.000000 -0.367659
vn 0.929961 0.000000 -0.367659
vn 0.929961 0.000000 -0.367659
vn 0.642769 -0.642773 -0.416762
vn 0.642769 -0.642773 -0.416762
vn 0.642769 -0.642773 -0.416762
vn 0.642769 -0.642773 -0.416762
s off
g pCube6
usemtl initialShadingGroup
f 1/1/1 57/2/2 58/3/3 50/4/4
f 59/5/5 4/246/6 51/250/7 60/8/8
f 61/9/9 6/260/10 55/262/11 62/12/12
f 7/13/13 63/14/14 64/15/15 54/16/16
f 6/261/17 7/13/18 54/16/19 55/11/20
f 50/4/21 51/7/22 4/253/23 1/1/24
f 3/17/25 52/18/26 53/19/27 8/240/28
f 56/21/29 49/22/30 2/256/31 5/24/32
f 41/283/33 65/26/34 66/27/35 14/281/36
f 14/282/37 15/29/38 48/30/39 41/25/40
f 67/31/41 48/30/42 15/29/43 68/32/44
f 46/33/45 47/34/46 16/275/47 12/36/48
f 45/269/49 69/38/50 70/39/51 11/267/52
f 44/41/53 45/37/54 11/268/55 10/42/56
f 71/43/57 44/41/58 10/42/59 72/44/60
f 13/45/61 42/46/62 43/47/63 9/289/64
s 1
f 26/49/65 73/50/66 74/51/67 18/52/68
s 2
f 18/52/69 19/210/70 27/206/71 26/49/72
s 3
f 76/55/73 27/224/74 19/53/75 77/56/76
s 4
f 29/211/77 28/58/78 20/59/79 21/215/80
s 5
f 30/61/81 79/62/82 80/63/83 22/64/84
s 6
f 31/216/85 30/61/86 22/64/87 23/220/88
s 7
f 82/67/89 31/232/90 23/66/91 83/68/92
s 8
f 24/69/93 17/205/94 25/201/95 32/72/96
s 1
f 18/52/68 74/51/67 75/73/97 33/74/98
s 8
f 35/75/99 34/76/100 17/205/94 24/69/93
s 7
f 83/68/92 23/66/91 36/218/101 84/78/102
s 6
f 23/220/88 22/64/87 37/79/103 36/77/104
s 5
f 22/64/84 80/63/83 81/80/105 37/79/106
s 4
f 21/215/80 20/59/79 39/81/107 38/82/108
s 3
f 77/56/76 19/53/75 40/208/109 78/84/110
s 2
f 33/74/111 40/83/112 19/210/70 18/52/69
s off
f 85/85/113 86/195/114 87/87/115 88/184/116
f 89/89/117 87/87/118 86/195/119 90/194/120
f 90/194/121 91/192/122 92/92/123 89/89/124
f 91/192/125 93/190/126 94/199/127 92/92/128
f 93/200/129 95/188/130 96/96/131 94/94/132
f 95/188/133 97/186/134 98/98/135 96/96/136
f 97/186/137 99/181/138 100/100/139 98/98/140
f 88/184/141 100/100/142 99/181/143 85/85/144
f 102/101/145 101/166/146 103/103/147 104/180/148
f 104/180/149 105/177/150 106/106/151 102/101/152
f 107/107/153 106/106/154 105/177/155 108/175/156
f 109/109/157 107/107/158 108/175/159 110/173/160
f 111/198/161 109/109/162 110/173/163 112/171/164
f 113/113/165 111/111/166 112/197/167 114/169/168
f 115/115/169 113/113/170 114/169/171 116/167/172
f 116/167/173 103/103/174 101/166/175 115/115/176
f 133/117/177 134/164/178 135/119/179 136/159/180
f 134/164/181 137/163/182 138/162/183 135/119/184
f 139/123/185 133/117/186 136/159/187 140/157/188
f 141/125/189 142/155/190 143/127/191 144/152/192
f 145/129/193 143/127/194 142/155/195 146/153/196
f 144/152/197 147/151/198 148/150/199 141/125/200
f 1/1/201 2/23/202 57/2/203
f 2/249/204 49/257/205 58/3/206 57/2/207
f 49/254/208 50/4/209 58/3/210
f 3/17/211 4/6/212 59/5/213
f 51/251/214 52/18/215 60/8/216
f 52/18/217 3/17/218 59/5/219 60/8/220
f 5/24/221 6/10/222 61/9/223
f 55/263/224 56/21/225 62/12/226
f 56/21/227 5/24/228 61/9/229 62/12/230
f 7/13/231 8/20/232 63/14/233
f 8/239/234 53/241/235 64/15/236 63/14/237
f 53/242/238 54/16/239 64/15/240
f 41/284/241 42/46/242 65/26/243
f 42/46/244 13/45/245 66/27/246 65/26/247
f 13/45/248 14/28/249 66/27/250
f 47/277/251 48/30/252 67/31/253
f 15/29/254 16/35/255 68/32/256
f 16/274/257 47/276/258 67/31/259 68/32/260
f 45/270/261 46/33/262 69/38/263
f 46/33/264 12/36/265 70/39/266 69/38/267
f 12/36/268 11/40/269 70/39/270
f 43/291/271 44/41/272 71/43/273
f 10/42/274 9/48/275 72/44/276
f 9/288/277 43/290/278 71/43/279 72/44/280
f 26/49/281 25/71/282 73/50/283
f 25/228/284 17/70/285 74/51/286 73/50/287
f 17/70/288 34/203/289 75/73/290 74/51/291
f 34/227/292 33/74/293 75/73/294
f 28/58/295 27/54/296 76/55/297
f 20/59/298 28/58/299 76/55/300 77/56/301
f 40/223/302 39/81/303 78/84/304
f 39/81/305 20/59/306 77/56/307 78/84/308
f 30/61/309 29/57/310 79/62/311
f 29/236/312 21/60/313 80/63/314 79/62/315
f 21/60/316 38/213/317 81/80/318 80/63/319
f 38/235/320 37/79/321 81/80/322
f 32/72/323 31/65/324 82/67/325
f 24/69/326 32/72/327 82/67/328 83/68/329
f 36/231/330 35/75/331 84/78/332
f 35/75/333 24/69/334 83/68/335 84/78/336
f 33/74/337 34/227/338 86/204/339 85/182/340
f 42/46/341 41/284/342 88/285/343 87/196/344
f 43/47/345 42/46/346 87/196/347 89/193/348
f 34/76/349 35/75/350 90/230/351 86/86/352
f 35/75/353 36/231/354 91/219/355 90/90/356
f 44/41/357 43/291/358 89/292/359 92/191/360
f 36/77/361 37/79/362 93/234/363 91/91/364
f 45/37/365 44/41/366 92/191/367 94/189/368
f 37/79/369 38/235/370 95/214/371 93/93/372
f 46/33/373 45/270/374 94/271/375 96/187/376
f 38/82/377 39/81/378 97/222/379 95/95/380
f 47/34/381 46/33/382 96/187/383 98/185/384
f 39/81/385 40/223/386 99/209/387 97/97/388
f 48/30/389 47/277/390 98/278/391 100/183/392
f 41/25/393 48/30/394 100/183/395 88/88/396
f 40/83/397 33/74/398 85/226/399 99/99/400
f 50/4/401 49/254/402 101/255/403 102/179/404
f 25/71/405 26/49/406 104/225/407 103/168/408
f 26/49/409 27/206/410 105/207/411 104/104/412
f 51/7/413 50/4/414 102/179/415 106/178/416
f 52/18/417 51/251/418 106/252/419 107/176/420
f 27/54/421 28/58/422 108/221/423 105/105/424
f 53/19/425 52/18/426 107/176/427 109/174/428
f 28/58/429 29/211/430 110/212/431 108/108/432
f 54/16/433 53/242/434 109/243/435 111/172/436
f 29/57/437 30/61/438 112/233/439 110/110/440
f 55/11/441 54/16/442 111/172/443 113/170/444
f 30/61/445 31/216/446 114/217/447 112/112/448
f 56/21/449 55/263/450 113/264/451 115/165/452
f 31/65/453 32/72/454 116/229/455 114/114/456
f 32/72/457 25/201/458 103/202/459 116/116/460
f 49/22/461 56/21/462 115/165/463 101/102/464
f 1/1/465 4/253/466 118/244/467 117/134/468
f 7/13/469 6/261/470 120/258/471 119/136/472
f 4/6/473 3/17/474 121/137/475 118/133/476
f 3/17/477 8/240/478 122/237/479 121/137/480
f 8/20/481 7/13/482 119/136/483 122/138/484
f 2/23/485 1/1/486 117/134/487 123/139/488
f 6/10/489 5/24/490 124/140/491 120/135/492
f 5/24/493 2/256/494 123/247/495 124/140/496
f 10/42/497 11/268/498 126/265/499 125/142/500
f 15/29/501 14/282/502 128/279/503 127/144/504
f 16/35/505 15/29/506 127/144/507 129/145/508
f 11/40/509 12/36/510 130/146/511 126/141/512
f 12/36/513 16/275/514 129/272/515 130/146/516
f 14/28/517 13/45/518 131/147/519 128/143/520
f 13/45/521 9/289/522 132/286/523 131/147/524
f 9/48/525 10/42/526 125/142/527 132/148/528
f 117/134/529 118/244/530 134/245/531 133/160/532
f 119/136/533 120/258/534 136/259/535 135/161/536
f 118/133/537 121/137/538 137/121/539 134/118/540
f 121/137/541 122/237/542 138/238/543 137/121/544
f 122/138/545 119/136/546 135/161/547 138/122/548
f 123/139/549 117/134/550 133/160/551 139/158/552
f 120/135/553 124/140/554 140/124/555 136/120/556
f 124/140/557 123/247/558 139/248/559 140/124/560
f 125/142/561 126/265/562 142/266/563 141/149/564
f 127/144/565 128/279/566 144/280/567 143/156/568
f 129/145/569 127/144/570 143/156/571 145/154/572
f 126/141/573 130/146/574 146/130/575 142/126/576
f 130/146/577 129/272/578 145/273/579 146/130/580
f 128/143/581 131/147/582 147/131/583 144/128/584
f 131/147/585 132/286/586 148/287/587 147/131/588
f 132/148/589 125/142/590 141/149/591 148/132/592
