# Blender 5.0.1
# www.blender.org
mtllib PedestalButtonPedestalPart.mtl
o Cube.001
v -0.200000 -1.000000 0.200000
v -0.224014 1.000000 0.224014
v -0.200000 -1.000000 -0.200000
v -0.224014 1.000000 -0.224014
v 0.200000 -1.000000 0.200000
v 0.224014 1.000000 0.224014
v 0.200000 -1.000000 -0.200000
v 0.224014 1.000000 -0.224014
v -0.200000 -0.333333 0.200000
v -0.200000 0.333333 0.200000
v -0.200000 0.333333 -0.200000
v -0.200000 -0.333333 -0.200000
v 0.200000 0.333333 -0.200000
v 0.200000 -0.333333 -0.200000
v 0.200000 0.333333 0.200000
v 0.200000 -0.333333 0.200000
v -0.168117 0.900149 -0.168117
v 0.066667 -0.333333 0.200000
v -0.066667 -0.333333 0.200000
v 0.066667 0.333333 0.200000
v -0.066667 0.333333 0.200000
v -0.066667 -0.333333 -0.200000
v 0.066667 -0.333333 -0.200000
v -0.066667 0.333333 -0.200000
v 0.066667 0.333333 -0.200000
v 0.168117 0.900149 0.168117
v 0.200000 -0.333333 -0.066667
v 0.200000 -0.333333 0.066667
v 0.200000 0.333333 -0.066667
v 0.200000 0.333333 0.066667
v -0.200000 -0.333333 0.066667
v -0.200000 -0.333333 -0.066667
v -0.200000 0.333333 0.066667
v -0.200000 0.333333 -0.066667
v 0.168117 1.000000 -0.168117
v 0.168117 1.000000 0.168117
v -0.168117 1.000000 -0.168117
v -0.168117 1.000000 0.168117
v 0.168117 0.900149 -0.168117
v -0.168117 0.900149 0.168117
v -0.227501 -0.306454 0.227501
v -0.227501 0.306454 0.227501
v -0.227501 0.306454 -0.227501
v -0.227501 -0.306454 -0.227501
v 0.227501 0.306454 -0.227501
v 0.227501 -0.306454 -0.227501
v 0.227501 0.306454 0.227501
v 0.227501 -0.306454 0.227501
v -0.088047 -0.306454 0.227501
v -0.088047 0.306454 0.227501
v 0.227501 -0.306454 0.090701
v 0.227501 0.306454 0.090701
v 0.088047 -0.306454 -0.227501
v 0.088047 0.306454 -0.227501
v -0.227501 -0.306454 -0.090701
v -0.227501 0.306454 -0.090701
v 0.088047 -0.306454 0.227501
v 0.088047 0.306454 0.227501
v -0.088047 -0.306454 -0.227501
v -0.088047 0.306454 -0.227501
v 0.227501 -0.306454 -0.090701
v 0.227501 0.306454 -0.090701
v -0.227501 -0.306454 0.090701
v -0.227501 0.306454 0.090701
v 0.200000 0.871034 0.200000
v 0.200000 0.871034 -0.200000
v -0.200000 0.871034 0.200000
v -0.200000 0.871034 -0.200000
v -0.224014 0.871034 0.224014
v -0.224014 0.871034 -0.224014
v 0.224014 0.871034 -0.224014
v 0.224014 0.871034 0.224014
vn -0.0000 -0.0000 -1.0000
vn -1.0000 -0.0000 -0.0000
vn -0.0000 -0.0000 1.0000
vn -0.0000 0.7151 -0.6990
vn 1.0000 -0.0000 -0.0000
vn -0.6990 0.7151 -0.0000
vn 0.7895 -0.0000 0.6138
vn -0.6581 -0.0000 0.7530
vn -0.6990 -0.7151 -0.0000
vn -0.7895 -0.0000 0.6138
vn -0.0000 1.0000 -0.0000
vn 0.6990 0.7151 -0.0000
vn -0.6581 -0.0000 -0.7530
vn -0.0000 -0.7151 0.6990
vn -0.0000 0.7151 0.6990
vn 0.7895 -0.0000 -0.6138
vn 0.6581 -0.0000 0.7530
vn 0.6990 -0.7151 -0.0000
vn -0.7895 -0.0000 -0.6138
vn 0.6581 -0.0000 -0.7530
vn -0.0000 -0.7151 -0.6990
vn -0.0000 -1.0000 -0.0000
vt 0.113910 0.514012
vt 0.163519 0.714072
vt 0.014693 0.714072
vt 0.064301 0.514012
vt 0.262736 0.514012
vt 0.312345 0.514012
vt 0.312345 0.714072
vt 0.312345 0.017925
vt 0.361953 0.265969
vt 0.312345 0.265969
vt 0.057966 0.993548
vt 0.008357 0.993548
vt 0.016312 0.979241
vt 0.068198 0.979241
vt 0.461171 0.017925
vt 0.510779 0.265969
vt 0.461171 0.265969
vt 0.128039 0.993548
vt 0.078430 0.993548
vt 0.119097 0.979241
vt 0.014693 0.017925
vt 0.064301 0.265969
vt 0.014693 0.265969
vt 0.268728 0.741198
vt 0.268728 0.989241
vt 0.255768 0.979240
vt 0.255768 0.751199
vt 0.163519 0.017925
vt 0.213127 0.265969
vt 0.163519 0.265969
vt 0.132686 0.741198
vt 0.132686 0.989241
vt 0.119097 0.751199
vt 0.078430 0.736891
vt 0.128039 0.736891
vt 0.068198 0.751199
vt 0.113910 0.265969
vt 0.275432 0.989241
vt 0.275432 0.741198
vt 0.288392 0.751199
vt 0.288392 0.979241
vt 0.411562 0.265969
vt 0.411562 0.514012
vt 0.361953 0.514012
vt 0.711246 0.123708
vt 0.711246 0.248809
vt 0.690448 0.269606
vt 0.690448 0.102910
vt 0.014693 0.514012
vt 0.748397 0.123708
vt 0.748397 0.248809
vt 0.910649 0.123708
vt 0.910649 0.248809
vt 0.873498 0.248809
vt 0.873498 0.123708
vt 0.748397 0.086556
vt 0.873498 0.086556
vt 0.931446 0.102910
vt 0.931446 0.269606
vt 0.873498 0.285960
vt 0.748397 0.285960
vt 0.894295 0.065759
vt 0.727600 0.065759
vt 0.887798 0.644696
vt 0.887798 0.694305
vt 0.873490 0.685362
vt 0.873490 0.634464
vt 0.262736 0.265969
vt 0.213127 0.514012
vt 0.139395 0.989241
vt 0.139395 0.741198
vt 0.152984 0.751199
vt 0.152984 0.979240
vt 0.560388 0.265969
vt 0.560388 0.514012
vt 0.510779 0.514012
vt 0.609997 0.017925
vt 0.609997 0.265969
vt 0.894295 0.306757
vt 0.727600 0.306757
vt 0.163519 0.514012
vt 0.203882 0.979240
vt 0.203882 0.751199
vt 0.391177 0.751199
vt 0.391177 0.979241
vt 0.340278 0.979241
vt 0.340278 0.751199
vt 0.645449 0.582578
vt 0.873490 0.582578
vt 0.645449 0.634464
vt 0.016312 0.751199
vt 0.645449 0.685362
vt 0.214114 0.736891
vt 0.263723 0.736891
vt 0.144041 0.736891
vt 0.193650 0.736891
vt 0.263723 0.993548
vt 0.214114 0.993548
vt 0.280437 0.736891
vt 0.330046 0.736891
vt 0.003352 0.989241
vt 0.003352 0.741198
vt 0.883491 0.698951
vt 0.635448 0.698951
vt 0.350510 0.736891
vt 0.400119 0.736891
vt 0.193650 0.993548
vt 0.144041 0.993548
vt 0.635448 0.569618
vt 0.883491 0.569618
vt 0.404766 0.741198
vt 0.404766 0.989241
vt 0.400119 0.993548
vt 0.350510 0.993548
vt 0.330046 0.993548
vt 0.280437 0.993548
vt 0.631141 0.694305
vt 0.631141 0.644696
vt 0.631141 0.624232
vt 0.631141 0.574623
vt 0.887798 0.574623
vt 0.887798 0.624232
vt 0.008357 0.736891
vt 0.057966 0.736891
vt 0.461171 0.714072
vt 0.461171 0.514012
vt 0.885360 0.363675
vt 0.736534 0.363675
vt 0.727600 0.354741
vt 0.894295 0.354741
vt 0.609997 0.714072
vt 0.609997 0.514012
vt 0.736534 0.008841
vt 0.885360 0.008841
vt 0.894295 0.017776
vt 0.727600 0.017776
vt 0.979430 0.102910
vt 0.979430 0.269606
vt 0.642465 0.269606
vt 0.642465 0.102910
vt 0.988365 0.111845
vt 0.988365 0.260671
vt 0.633530 0.260671
vt 0.633530 0.111845
s 0
usemtl Material
f 24/1/1 68/2/1 66/3/1 25/4/1
f 33/5/2 10/6/2 67/7/2
f 1/8/3 19/9/3 9/10/3
f 11/11/4 24/12/4 60/13/4 43/14/4
f 5/15/5 28/16/5 16/17/5
f 34/18/6 11/19/6 43/14/6 56/20/6
f 7/21/1 23/22/1 14/23/1
f 19/24/7 21/25/7 50/26/7 49/27/7
f 3/28/2 32/29/2 12/30/2
f 32/31/8 34/32/8 56/20/8 55/33/8
f 12/34/9 32/35/9 55/33/9 44/36/9
f 22/37/1 24/1/1 25/4/1 23/22/1
f 3/28/1 12/30/1 22/37/1
f 3/28/1 22/37/1 23/22/1 7/21/1
f 20/38/10 18/39/10 57/40/10 58/41/10
f 18/42/3 20/43/3 21/44/3 19/9/3
f 5/15/3 16/17/3 18/42/3
f 5/15/3 18/42/3 19/9/3 1/8/3
f 36/45/11 38/46/11 2/47/11 6/48/11
f 66/3/1 13/49/1 25/4/1
f 38/46/1 36/45/1 26/50/1 40/51/1
f 35/52/3 37/53/3 17/54/3 39/55/3
f 36/56/2 35/57/2 39/55/2 26/50/2
f 8/58/11 4/59/11 37/53/11 35/52/11
f 37/60/5 38/61/5 40/51/5 17/54/5
f 8/62/11 35/57/11 36/56/11 6/63/11
f 13/64/12 29/65/12 62/66/12 45/67/12
f 31/68/2 33/5/2 34/69/2 32/29/2
f 1/8/2 9/10/2 31/68/2
f 1/8/2 31/68/2 32/29/2 3/28/2
f 33/70/13 31/71/13 63/72/13 64/73/13
f 27/74/5 29/75/5 30/76/5 28/16/5
f 7/77/5 14/78/5 27/74/5
f 7/77/5 27/74/5 28/16/5 5/15/5
f 37/60/11 4/79/11 2/80/11 38/61/11
f 39/55/11 17/54/11 40/51/11 26/50/11
f 33/5/2 67/7/2 68/2/2 34/69/2
f 24/1/1 11/81/1 68/2/1
f 49/27/3 50/26/3 42/82/3 41/83/3
f 51/84/5 52/85/5 47/86/5 48/87/5
f 53/88/1 54/89/1 45/67/1 46/90/1
f 55/33/2 56/20/2 43/14/2 44/36/2
f 44/36/1 43/14/1 60/13/1 59/91/1
f 48/87/3 47/86/3 58/41/3 57/40/3
f 41/83/2 42/82/2 64/73/2 63/72/2
f 46/90/5 45/67/5 62/66/5 61/92/5
f 9/93/14 19/94/14 49/27/14 41/83/14
f 31/95/9 9/96/9 41/83/9 63/72/9
f 21/97/15 10/98/15 42/82/15 50/26/15
f 18/99/14 16/100/14 48/87/14 57/40/14
f 24/101/16 22/102/16 59/91/16 60/13/16
f 29/103/17 27/104/17 61/92/17 62/66/17
f 16/105/18 28/106/18 51/84/18 48/87/18
f 10/107/6 33/108/6 64/73/6 42/82/6
f 23/109/19 25/110/19 54/89/19 53/88/19
f 28/111/20 30/112/20 52/85/20 51/84/20
f 30/113/12 15/114/12 47/86/12 52/85/12
f 15/115/15 20/116/15 58/41/15 47/86/15
f 27/117/18 14/118/18 46/90/18 61/92/18
f 14/119/21 23/120/21 53/88/21 46/90/21
f 25/121/4 13/122/4 45/67/4 54/89/4
f 22/123/21 12/124/21 44/36/21 59/91/21
f 68/2/2 11/81/2 34/69/2
f 20/43/3 65/125/3 67/7/3 21/44/3
f 67/7/3 10/6/3 21/44/3
f 20/43/3 15/126/3 65/125/3
f 68/127/22 67/128/22 69/129/22 70/130/22
f 29/75/5 66/131/5 65/125/5 30/76/5
f 65/125/5 15/126/5 30/76/5
f 29/75/5 13/132/5 66/131/5
f 65/133/22 66/134/22 71/135/22 72/136/22
f 8/58/1 71/137/1 70/138/1 4/59/1
f 2/47/3 69/139/3 72/140/3 6/48/3
f 6/63/5 72/136/5 71/135/5 8/62/5
f 4/79/2 70/130/2 69/129/2 2/80/2
f 66/141/22 68/142/22 70/138/22 71/137/22
f 67/143/22 65/144/22 72/140/22 69/139/22
