# Blender 5.0.1
# www.blender.org
mtllib PedestalButtonButtonPart.mtl
o Cube.002
v -0.144516 0.942833 -0.144516
v 0.144516 0.942833 0.144516
v 0.144516 0.942833 -0.144516
v -0.144516 0.942833 0.144516
v 0.127966 1.042685 -0.127966
v 0.144516 1.026134 -0.144516
v 0.127966 1.042685 0.127966
v 0.144516 1.026134 0.144516
v -0.127966 1.042685 -0.127966
v -0.144516 1.026134 -0.144516
v -0.127966 1.042685 0.127966
v -0.144516 1.026134 0.144516
vn -0.0000 -1.0000 -0.0000
vn 0.7071 0.7071 -0.0000
vn -0.7071 0.7071 -0.0000
vn -0.0000 0.7071 -0.7071
vn -0.0000 0.7071 0.7071
vn 1.0000 -0.0000 -0.0000
vn -0.0000 1.0000 -0.0000
vn -0.0000 -0.0000 -1.0000
vn -0.0000 -0.0000 1.0000
vn -1.0000 -0.0000 -0.0000
vt 0.919717 0.810251
vt 0.919717 0.929312
vt 0.800655 0.929312
vt 0.800655 0.810251
vt 0.756699 0.817068
vt 0.651273 0.817068
vt 0.644455 0.807427
vt 0.763517 0.807427
vt 0.763517 0.932136
vt 0.644455 0.932136
vt 0.651273 0.922495
vt 0.756699 0.922495
vt 0.766341 0.810251
vt 0.766341 0.929312
vt 0.641631 0.929312
vt 0.641631 0.810251
vt 0.644455 0.773112
vt 0.763517 0.773112
vt 0.607317 0.929312
vt 0.607317 0.810251
vt 0.763517 0.966451
vt 0.644455 0.966451
s 0
usemtl Material.001
f 2/1/1 4/2/1 1/3/1 3/4/1
f 5/5/2 7/6/2 8/7/2 6/8/2
f 10/9/3 12/10/3 11/11/3 9/12/3
f 9/12/4 5/5/4 6/13/4 10/14/4
f 12/15/5 8/16/5 7/6/5 11/11/5
f 8/7/6 2/17/6 3/18/6 6/8/6
f 7/6/7 5/5/7 9/12/7 11/11/7
f 6/13/8 3/4/8 1/3/8 10/14/8
f 12/15/9 4/19/9 2/20/9 8/16/9
f 10/9/10 1/21/10 4/22/10 12/10/10
