# Blender 5.0.1
# www.blender.org
mtllib pipe_elbow.mtl
o Elbow_Joint
v -0.000000 0.000001 -1.000000
v 0.195090 0.000001 -0.980785
v 0.382683 0.000001 -0.923880
v 0.555570 0.000001 -0.831470
v 0.707107 0.000001 -0.707107
v 0.831470 0.000001 -0.555570
v 0.923879 0.000001 -0.382683
v 0.980785 0.000001 -0.195090
v 1.000000 0.000001 0.000000
v 0.980785 0.000001 0.195090
v 0.923879 0.000001 0.382683
v 0.831470 0.000001 0.555570
v 0.707107 0.000001 0.707107
v 0.555570 0.000001 0.831470
v 0.382683 0.000001 0.923880
v 0.195090 0.000001 0.980785
v -0.000000 0.000001 1.000000
v -0.195090 0.000001 0.980785
v -0.382683 0.000001 0.923880
v -0.555570 0.000001 0.831470
v -0.707107 0.000001 0.707107
v -0.831470 0.000001 0.555570
v -0.923880 0.000001 0.382683
v -0.980785 0.000001 0.195090
v -1.000000 0.000001 0.000000
v -0.980785 0.000001 -0.195090
v -0.923880 0.000001 -0.382683
v -0.831470 0.000001 -0.555570
v -0.707107 0.000001 -0.707107
v -0.555570 0.000001 -0.831470
v -0.382683 0.000001 -0.923880
v -0.195090 0.000001 -0.980785
v -3.000000 3.000000 -1.000000
v -3.000000 3.195091 -0.980785
v -3.000000 3.382684 -0.923880
v -3.000000 3.555571 -0.831470
v -3.000000 3.707107 -0.707107
v -3.000000 3.831470 -0.555570
v -3.000000 3.923880 -0.382683
v -3.000000 3.980786 -0.195090
v -3.000000 4.000000 0.000000
v -3.000000 3.980786 0.195090
v -3.000000 3.923880 0.382683
v -3.000000 3.831470 0.555570
v -3.000000 3.707107 0.707107
v -3.000000 3.555571 0.831470
v -3.000000 3.382684 0.923880
v -3.000000 3.195091 0.980785
v -3.000000 3.000000 1.000000
v -3.000000 2.804910 0.980785
v -3.000000 2.617317 0.923880
v -3.000000 2.444430 0.831470
v -3.000000 2.292894 0.707107
v -3.000000 2.168531 0.555570
v -3.000000 2.076121 0.382683
v -3.000000 2.019215 0.195090
v -3.000000 2.000000 0.000000
v -3.000000 2.019215 -0.195090
v -3.000000 2.076121 -0.382683
v -3.000000 2.168531 -0.555570
v -3.000000 2.292894 -0.707107
v -3.000000 2.444430 -0.831470
v -3.000000 2.617317 -0.923880
v -3.000000 2.804910 -0.980785
v -0.220198 1.187854 -0.980785
v -0.334063 1.972405 -0.980785
v -0.577290 2.422711 -0.980785
v -1.027596 2.665938 -0.980785
v -1.812147 2.779802 -0.980785
v -0.407122 1.172024 -0.923879
v -0.511784 1.912353 -0.923880
v -0.709938 2.290063 -0.923880
v -1.087648 2.488217 -0.923880
v -1.827976 2.592878 -0.923880
v -0.579393 1.157436 -0.831470
v -0.675573 1.857008 -0.831470
v -0.832188 2.167813 -0.831470
v -1.142992 2.324428 -0.831470
v -1.842565 2.420608 -0.831470
v -0.730389 1.144649 -0.707107
v -0.819136 1.808499 -0.707107
v -0.939340 2.060661 -0.707107
v -1.191502 2.180865 -0.707107
v -1.855352 2.269612 -0.707107
v -0.854308 1.134156 -0.555570
v -0.936954 1.768688 -0.555570
v -1.027278 1.972723 -0.555570
v -1.231313 2.063047 -0.555570
v -1.865845 2.145693 -0.555570
v -0.946388 1.126358 -0.382683
v -1.024501 1.739106 -0.382683
v -1.092622 1.907379 -0.382683
v -1.260895 1.975500 -0.382683
v -1.873643 2.053612 -0.382683
v -1.003091 1.121556 -0.195090
v -1.078412 1.720889 -0.195090
v -1.132860 1.867141 -0.195090
v -1.279112 1.921589 -0.195090
v -1.878445 1.996910 -0.195090
v -1.022237 1.119935 -0.000000
v -1.096616 1.714738 -0.000000
v -1.146447 1.853554 -0.000000
v -1.285263 1.903385 -0.000000
v -1.880066 1.977763 -0.000000
v -1.003091 1.121556 0.195090
v -1.078412 1.720889 0.195090
v -1.132860 1.867141 0.195090
v -1.279112 1.921589 0.195090
v -1.878445 1.996909 0.195090
v -0.946388 1.126358 0.382683
v -1.024501 1.739106 0.382683
v -1.092622 1.907379 0.382683
v -1.260895 1.975500 0.382683
v -1.873643 2.053612 0.382683
v -0.854308 1.134155 0.555570
v -0.936954 1.768688 0.555570
v -1.027278 1.972723 0.555570
v -1.231313 2.063047 0.555570
v -1.865845 2.145693 0.555570
v -0.730389 1.144649 0.707107
v -0.819136 1.808499 0.707107
v -0.939340 2.060661 0.707107
v -1.191502 2.180865 0.707107
v -1.855352 2.269612 0.707107
v -0.579393 1.157436 0.831470
v -0.675573 1.857008 0.831470
v -0.832188 2.167814 0.831470
v -1.142992 2.324428 0.831470
v -1.842565 2.420608 0.831469
v -0.407122 1.172024 0.923879
v -0.511784 1.912353 0.923879
v -0.709938 2.290063 0.923879
v -1.087648 2.488217 0.923879
v -1.827977 2.592878 0.923879
v -0.220198 1.187854 0.980785
v -0.334063 1.972405 0.980785
v -0.577290 2.422711 0.980785
v -1.027596 2.665938 0.980785
v -1.812147 2.779802 0.980785
v -0.025804 1.204315 1.000000
v -0.149239 2.034857 1.000000
v -0.439340 2.560661 1.000000
v -0.965144 2.850762 1.000000
v -1.795686 2.974197 1.000000
v 0.168591 1.220777 0.980785
v 0.035586 2.097309 0.980785
v -0.301390 2.698611 0.980785
v -0.902692 3.035586 0.980785
v -1.779223 3.168591 0.980785
v 0.355515 1.236606 0.923879
v 0.213307 2.157361 0.923879
v -0.168742 2.831259 0.923879
v -0.842640 3.213308 0.923880
v -1.763394 3.355515 0.923879
v 0.527785 1.251195 0.831470
v 0.377096 2.212706 0.831469
v -0.046493 2.953508 0.831470
v -0.787295 3.377097 0.831470
v -1.748806 3.527786 0.831470
v 0.678781 1.263982 0.707107
v 0.520658 2.261215 0.707107
v 0.060660 3.060661 0.707107
v -0.738786 3.520659 0.707107
v -1.736019 3.678782 0.707107
v 0.802700 1.274475 0.555570
v 0.638477 2.301026 0.555570
v 0.148598 3.148599 0.555570
v -0.698975 3.638478 0.555570
v -1.725525 3.802701 0.555570
v 0.894781 1.282273 0.382683
v 0.726024 2.330608 0.382683
v 0.213942 3.213942 0.382683
v -0.669393 3.726025 0.382683
v -1.717728 3.894782 0.382683
v 0.951484 1.287075 0.195090
v 0.779935 2.348825 0.195090
v 0.254180 3.254181 0.195090
v -0.651176 3.779936 0.195090
v -1.712926 3.951484 0.195090
v 0.970630 1.288696 0.000000
v 0.798139 2.354976 -0.000000
v 0.267767 3.267767 -0.000000
v -0.645025 3.798140 -0.000000
v -1.711304 3.970630 -0.000000
v 0.951484 1.287075 -0.195090
v 0.779935 2.348825 -0.195090
v 0.254180 3.254180 -0.195090
v -0.651176 3.779936 -0.195090
v -1.712926 3.951484 -0.195090
v 0.894781 1.282273 -0.382683
v 0.726024 2.330608 -0.382683
v 0.213942 3.213942 -0.382684
v -0.669392 3.726025 -0.382684
v -1.717727 3.894781 -0.382683
v 0.802700 1.274475 -0.555570
v 0.638477 2.301026 -0.555570
v 0.148598 3.148598 -0.555570
v -0.698975 3.638478 -0.555570
v -1.725525 3.802701 -0.555570
v 0.678781 1.263981 -0.707107
v 0.520658 2.261215 -0.707107
v 0.060660 3.060661 -0.707107
v -0.738786 3.520659 -0.707107
v -1.736019 3.678782 -0.707107
v 0.527785 1.251195 -0.831470
v 0.377096 2.212705 -0.831470
v -0.046493 2.953508 -0.831470
v -0.787295 3.377097 -0.831470
v -1.748806 3.527786 -0.831470
v 0.355515 1.236607 -0.923879
v 0.213307 2.157361 -0.923879
v -0.168742 2.831259 -0.923880
v -0.842640 3.213308 -0.923880
v -1.763394 3.355515 -0.923880
v 0.168591 1.220777 -0.980785
v 0.035586 2.097309 -0.980785
v -0.301390 2.698611 -0.980785
v -0.902692 3.035586 -0.980785
v -1.779223 3.168591 -0.980785
v -1.795685 2.974197 -1.000000
v -0.965144 2.850762 -1.000000
v -0.439340 2.560661 -1.000000
v -0.149239 2.034857 -1.000000
v -0.025804 1.204315 -1.000000
vn 0.0013 -0.0000 -1.0000
vn 0.1965 0.0043 -0.9805
vn 0.3841 0.0084 -0.9232
vn 0.5568 0.0124 -0.8306
vn 0.7080 0.0159 -0.7060
vn 0.8320 0.0188 -0.5545
vn 0.9240 0.0210 -0.3818
vn 0.9806 0.0223 -0.1946
vn 0.9997 0.0228 -0.0000
vn 0.9806 0.0223 0.1946
vn 0.9240 0.0210 0.3818
vn 0.8320 0.0188 0.5545
vn 0.7080 0.0159 0.7060
vn 0.5568 0.0124 0.8306
vn 0.3841 0.0084 0.9232
vn 0.1965 0.0043 0.9805
vn 0.0013 -0.0000 1.0000
vn -0.1940 -0.0041 0.9810
vn -0.3819 -0.0080 0.9242
vn -0.5550 -0.0114 0.8318
vn -0.7067 -0.0144 0.7073
vn -0.8312 -0.0167 0.5557
vn -0.9237 -0.0185 0.3828
vn -0.9806 -0.0195 0.1951
vn -0.9998 -0.0199 -0.0000
vn -0.9806 -0.0195 -0.1951
vn -0.9237 -0.0185 -0.3828
vn -0.8312 -0.0167 -0.5557
vn -0.7067 -0.0144 -0.7073
vn -0.5550 -0.0114 -0.8318
vn -0.3819 -0.0080 -0.9242
vn -0.1940 -0.0041 -0.9810
vn -0.0000 0.0013 -1.0000
vn 0.0043 0.1965 -0.9805
vn 0.0084 0.3841 -0.9232
vn 0.0124 0.5568 -0.8306
vn 0.0159 0.7080 -0.7060
vn 0.0188 0.8320 -0.5545
vn 0.0210 0.9240 -0.3818
vn 0.0223 0.9806 -0.1946
vn 0.0228 0.9997 -0.0000
vn 0.0223 0.9806 0.1946
vn 0.0210 0.9240 0.3818
vn 0.0188 0.8320 0.5545
vn 0.0159 0.7080 0.7060
vn 0.0124 0.5568 0.8306
vn 0.0084 0.3841 0.9232
vn 0.0043 0.1965 0.9805
vn -0.0000 0.0013 1.0000
vn -0.0041 -0.1940 0.9810
vn -0.0080 -0.3819 0.9242
vn -0.0114 -0.5550 0.8318
vn -0.0144 -0.7067 0.7073
vn -0.0167 -0.8312 0.5557
vn -0.0185 -0.9237 0.3828
vn -0.0195 -0.9806 0.1951
vn -0.0199 -0.9998 -0.0000
vn -0.0195 -0.9806 -0.1951
vn -0.0185 -0.9237 -0.3828
vn -0.0167 -0.8312 -0.5557
vn -0.0144 -0.7067 -0.7073
vn -0.0114 -0.5550 -0.8318
vn -0.0080 -0.3819 -0.9242
vn -0.0041 -0.1940 -0.9810
vn -0.1913 -0.0158 -0.9814
vn -0.1757 -0.0582 -0.9827
vn -0.1238 -0.1238 -0.9846
vn -0.0582 -0.1757 -0.9827
vn -0.0158 -0.1913 -0.9814
vn -0.3794 -0.0307 -0.9247
vn -0.3568 -0.1154 -0.9270
vn -0.2553 -0.2553 -0.9326
vn -0.1154 -0.3568 -0.9270
vn -0.0307 -0.3794 -0.9247
vn -0.5527 -0.0436 -0.8322
vn -0.5258 -0.1641 -0.8346
vn -0.3774 -0.3774 -0.8457
vn -0.1641 -0.5258 -0.8346
vn -0.0436 -0.5527 -0.8322
vn -0.7046 -0.0542 -0.7075
vn -0.6760 -0.2013 -0.7088
vn -0.4857 -0.4857 -0.7267
vn -0.2013 -0.6760 -0.7088
vn -0.0542 -0.7046 -0.7075
vn -0.8291 -0.0623 -0.5556
vn -0.8009 -0.2248 -0.5550
vn -0.5766 -0.5766 -0.5788
vn -0.2248 -0.8009 -0.5550
vn -0.0623 -0.8291 -0.5556
vn -0.9215 -0.0679 -0.3825
vn -0.8946 -0.2348 -0.3802
vn -0.6465 -0.6465 -0.4051
vn -0.2348 -0.8946 -0.3802
vn -0.0679 -0.9215 -0.3825
vn -0.9782 -0.0711 -0.1949
vn -0.9525 -0.2358 -0.1927
vn -0.6914 -0.6914 -0.2095
vn -0.2358 -0.9525 -0.1927
vn -0.0711 -0.9782 -0.1949
vn -0.9974 -0.0722 -0.0000
vn -0.9720 -0.2349 -0.0000
vn -0.7071 -0.7071 -0.0000
vn -0.2349 -0.9720 -0.0000
vn -0.0722 -0.9974 -0.0000
vn -0.9782 -0.0711 0.1949
vn -0.9525 -0.2358 0.1927
vn -0.6914 -0.6914 0.2095
vn -0.2358 -0.9525 0.1927
vn -0.0711 -0.9782 0.1949
vn -0.9215 -0.0679 0.3825
vn -0.8946 -0.2348 0.3802
vn -0.6465 -0.6465 0.4051
vn -0.2348 -0.8946 0.3802
vn -0.0679 -0.9215 0.3825
vn -0.8291 -0.0623 0.5556
vn -0.8009 -0.2248 0.5550
vn -0.5766 -0.5766 0.5788
vn -0.2248 -0.8009 0.5550
vn -0.0623 -0.8291 0.5556
vn -0.7046 -0.0542 0.7075
vn -0.6760 -0.2013 0.7088
vn -0.4857 -0.4857 0.7267
vn -0.2013 -0.6760 0.7088
vn -0.0542 -0.7046 0.7075
vn -0.5527 -0.0436 0.8322
vn -0.5258 -0.1641 0.8346
vn -0.3774 -0.3774 0.8457
vn -0.1641 -0.5258 0.8346
vn -0.0436 -0.5527 0.8322
vn -0.3794 -0.0307 0.9247
vn -0.3568 -0.1154 0.9270
vn -0.2553 -0.2553 0.9326
vn -0.1154 -0.3568 0.9270
vn -0.0307 -0.3794 0.9247
vn -0.1913 -0.0158 0.9814
vn -0.1757 -0.0582 0.9827
vn -0.1238 -0.1238 0.9846
vn -0.0582 -0.1757 0.9827
vn -0.0158 -0.1913 0.9814
vn 0.0039 0.0004 1.0000
vn 0.0104 0.0038 0.9999
vn 0.0123 0.0123 0.9998
vn 0.0038 0.0104 0.9999
vn 0.0004 0.0039 1.0000
vn 0.1987 0.0173 0.9799
vn 0.1948 0.0675 0.9785
vn 0.1481 0.1481 0.9778
vn 0.0675 0.1948 0.9785
vn 0.0173 0.1987 0.9799
vn 0.3855 0.0340 0.9221
vn 0.3707 0.1297 0.9196
vn 0.2785 0.2785 0.9192
vn 0.1297 0.3707 0.9196
vn 0.0340 0.3855 0.9221
vn 0.5572 0.0498 0.8289
vn 0.5317 0.1874 0.8259
vn 0.3985 0.3985 0.8260
vn 0.1874 0.5317 0.8259
vn 0.0498 0.5572 0.8289
vn 0.7072 0.0638 0.7041
vn 0.6721 0.2382 0.7011
vn 0.5037 0.5037 0.7018
vn 0.2382 0.6721 0.7011
vn 0.0638 0.7072 0.7041
vn 0.8300 0.0754 0.5527
vn 0.7868 0.2799 0.5500
vn 0.5901 0.5901 0.5510
vn 0.2799 0.7868 0.5500
vn 0.0754 0.8300 0.5527
vn 0.9210 0.0842 0.3804
vn 0.8719 0.3109 0.3785
vn 0.6542 0.6542 0.3794
vn 0.3109 0.8719 0.3785
vn 0.0842 0.9210 0.3804
vn 0.9769 0.0895 0.1938
vn 0.9241 0.3299 0.1928
vn 0.6938 0.6938 0.1934
vn 0.3299 0.9241 0.1928
vn 0.0895 0.9769 0.1938
vn 0.9958 0.0914 -0.0000
vn 0.9417 0.3364 -0.0000
vn 0.7071 0.7071 -0.0000
vn 0.3364 0.9417 -0.0000
vn 0.0914 0.9958 -0.0000
vn 0.9769 0.0895 -0.1938
vn 0.9241 0.3299 -0.1928
vn 0.6938 0.6938 -0.1934
vn 0.3299 0.9241 -0.1928
vn 0.0895 0.9769 -0.1938
vn 0.9210 0.0842 -0.3804
vn 0.8719 0.3109 -0.3785
vn 0.6542 0.6542 -0.3794
vn 0.3109 0.8719 -0.3785
vn 0.0842 0.9210 -0.3804
vn 0.8300 0.0754 -0.5527
vn 0.7868 0.2799 -0.5500
vn 0.5901 0.5901 -0.5510
vn 0.2799 0.7868 -0.5500
vn 0.0754 0.8300 -0.5527
vn 0.7072 0.0638 -0.7041
vn 0.6721 0.2382 -0.7011
vn 0.5037 0.5037 -0.7018
vn 0.2382 0.6721 -0.7011
vn 0.0638 0.7072 -0.7041
vn 0.5572 0.0498 -0.8289
vn 0.5317 0.1874 -0.8259
vn 0.3985 0.3985 -0.8260
vn 0.1874 0.5317 -0.8259
vn 0.0498 0.5572 -0.8289
vn 0.3855 0.0340 -0.9221
vn 0.3707 0.1297 -0.9196
vn 0.2785 0.2785 -0.9192
vn 0.1297 0.3707 -0.9196
vn 0.0340 0.3855 -0.9221
vn 0.1987 0.0173 -0.9799
vn 0.1948 0.0675 -0.9785
vn 0.1481 0.1481 -0.9778
vn 0.0675 0.1948 -0.9785
vn 0.0173 0.1987 -0.9799
vn 0.0004 0.0039 -1.0000
vn 0.0038 0.0104 -0.9999
vn 0.0123 0.0123 -0.9998
vn 0.0104 0.0038 -0.9999
vn 0.0039 0.0004 -1.0000
s 1
f 33//33 34//34 219//219 220//220
f 34//34 35//35 214//214 219//219
f 35//35 36//36 209//209 214//214
f 36//36 37//37 204//204 209//209
f 37//37 38//38 199//199 204//204
f 38//38 39//39 194//194 199//199
f 39//39 40//40 189//189 194//194
f 40//40 41//41 184//184 189//189
f 41//41 42//42 179//179 184//184
f 42//42 43//43 174//174 179//179
f 43//43 44//44 169//169 174//174
f 44//44 45//45 164//164 169//169
f 45//45 46//46 159//159 164//164
f 46//46 47//47 154//154 159//159
f 47//47 48//48 149//149 154//154
f 48//48 49//49 144//144 149//149
f 49//49 50//50 139//139 144//144
f 50//50 51//51 134//134 139//139
f 51//51 52//52 129//129 134//134
f 52//52 53//53 124//124 129//129
f 53//53 54//54 119//119 124//124
f 54//54 55//55 114//114 119//119
f 55//55 56//56 109//109 114//114
f 56//56 57//57 104//104 109//109
f 57//57 58//58 99//99 104//104
f 58//58 59//59 94//94 99//99
f 59//59 60//60 89//89 94//94
f 60//60 61//61 84//84 89//89
f 61//61 62//62 79//79 84//84
f 62//62 63//63 74//74 79//79
f 63//63 64//64 69//69 74//74
f 64//64 33//33 220//220 69//69
f 74//74 69//69 68//68 73//73
f 73//73 68//68 67//67 72//72
f 72//72 67//67 66//66 71//71
f 71//71 66//66 65//65 70//70
f 70//70 65//65 32//32 31//31
f 79//79 74//74 73//73 78//78
f 78//78 73//73 72//72 77//77
f 77//77 72//72 71//71 76//76
f 76//76 71//71 70//70 75//75
f 75//75 70//70 31//31 30//30
f 84//84 79//79 78//78 83//83
f 83//83 78//78 77//77 82//82
f 82//82 77//77 76//76 81//81
f 81//81 76//76 75//75 80//80
f 80//80 75//75 30//30 29//29
f 89//89 84//84 83//83 88//88
f 88//88 83//83 82//82 87//87
f 87//87 82//82 81//81 86//86
f 86//86 81//81 80//80 85//85
f 85//85 80//80 29//29 28//28
f 94//94 89//89 88//88 93//93
f 93//93 88//88 87//87 92//92
f 92//92 87//87 86//86 91//91
f 91//91 86//86 85//85 90//90
f 90//90 85//85 28//28 27//27
f 99//99 94//94 93//93 98//98
f 98//98 93//93 92//92 97//97
f 97//97 92//92 91//91 96//96
f 96//96 91//91 90//90 95//95
f 95//95 90//90 27//27 26//26
f 104//104 99//99 98//98 103//103
f 103//103 98//98 97//97 102//102
f 102//102 97//97 96//96 101//101
f 101//101 96//96 95//95 100//100
f 100//100 95//95 26//26 25//25
f 109//109 104//104 103//103 108//108
f 108//108 103//103 102//102 107//107
f 107//107 102//102 101//101 106//106
f 106//106 101//101 100//100 105//105
f 105//105 100//100 25//25 24//24
f 114//114 109//109 108//108 113//113
f 113//113 108//108 107//107 112//112
f 112//112 107//107 106//106 111//111
f 111//111 106//106 105//105 110//110
f 110//110 105//105 24//24 23//23
f 119//119 114//114 113//113 118//118
f 118//118 113//113 112//112 117//117
f 117//117 112//112 111//111 116//116
f 116//116 111//111 110//110 115//115
f 115//115 110//110 23//23 22//22
f 124//124 119//119 118//118 123//123
f 123//123 118//118 117//117 122//122
f 122//122 117//117 116//116 121//121
f 121//121 116//116 115//115 120//120
f 120//120 115//115 22//22 21//21
f 129//129 124//124 123//123 128//128
f 128//128 123//123 122//122 127//127
f 127//127 122//122 121//121 126//126
f 126//126 121//121 120//120 125//125
f 125//125 120//120 21//21 20//20
f 134//134 129//129 128//128 133//133
f 133//133 128//128 127//127 132//132
f 132//132 127//127 126//126 131//131
f 131//131 126//126 125//125 130//130
f 130//130 125//125 20//20 19//19
f 139//139 134//134 133//133 138//138
f 138//138 133//133 132//132 137//137
f 137//137 132//132 131//131 136//136
f 136//136 131//131 130//130 135//135
f 135//135 130//130 19//19 18//18
f 144//144 139//139 138//138 143//143
f 143//143 138//138 137//137 142//142
f 142//142 137//137 136//136 141//141
f 141//141 136//136 135//135 140//140
f 140//140 135//135 18//18 17//17
f 149//149 144//144 143//143 148//148
f 148//148 143//143 142//142 147//147
f 147//147 142//142 141//141 146//146
f 146//146 141//141 140//140 145//145
f 145//145 140//140 17//17 16//16
f 154//154 149//149 148//148 153//153
f 153//153 148//148 147//147 152//152
f 152//152 147//147 146//146 151//151
f 151//151 146//146 145//145 150//150
f 150//150 145//145 16//16 15//15
f 159//159 154//154 153//153 158//158
f 158//158 153//153 152//152 157//157
f 157//157 152//152 151//151 156//156
f 156//156 151//151 150//150 155//155
f 155//155 150//150 15//15 14//14
f 164//164 159//159 158//158 163//163
f 163//163 158//158 157//157 162//162
f 162//162 157//157 156//156 161//161
f 161//161 156//156 155//155 160//160
f 160//160 155//155 14//14 13//13
f 169//169 164//164 163//163 168//168
f 168//168 163//163 162//162 167//167
f 167//167 162//162 161//161 166//166
f 166//166 161//161 160//160 165//165
f 165//165 160//160 13//13 12//12
f 174//174 169//169 168//168 173//173
f 173//173 168//168 167//167 172//172
f 172//172 167//167 166//166 171//171
f 171//171 166//166 165//165 170//170
f 170//170 165//165 12//12 11//11
f 179//179 174//174 173//173 178//178
f 178//178 173//173 172//172 177//177
f 177//177 172//172 171//171 176//176
f 176//176 171//171 170//170 175//175
f 175//175 170//170 11//11 10//10
f 184//184 179//179 178//178 183//183
f 183//183 178//178 177//177 182//182
f 182//182 177//177 176//176 181//181
f 181//181 176//176 175//175 180//180
f 180//180 175//175 10//10 9//9
f 189//189 184//184 183//183 188//188
f 188//188 183//183 182//182 187//187
f 187//187 182//182 181//181 186//186
f 186//186 181//181 180//180 185//185
f 185//185 180//180 9//9 8//8
f 194//194 189//189 188//188 193//193
f 193//193 188//188 187//187 192//192
f 192//192 187//187 186//186 191//191
f 191//191 186//186 185//185 190//190
f 190//190 185//185 8//8 7//7
f 199//199 194//194 193//193 198//198
f 198//198 193//193 192//192 197//197
f 197//197 192//192 191//191 196//196
f 196//196 191//191 190//190 195//195
f 195//195 190//190 7//7 6//6
f 204//204 199//199 198//198 203//203
f 203//203 198//198 197//197 202//202
f 202//202 197//197 196//196 201//201
f 201//201 196//196 195//195 200//200
f 200//200 195//195 6//6 5//5
f 209//209 204//204 203//203 208//208
f 208//208 203//203 202//202 207//207
f 207//207 202//202 201//201 206//206
f 206//206 201//201 200//200 205//205
f 205//205 200//200 5//5 4//4
f 214//214 209//209 208//208 213//213
f 213//213 208//208 207//207 212//212
f 212//212 207//207 206//206 211//211
f 211//211 206//206 205//205 210//210
f 210//210 205//205 4//4 3//3
f 219//219 214//214 213//213 218//218
f 218//218 213//213 212//212 217//217
f 217//217 212//212 211//211 216//216
f 216//216 211//211 210//210 215//215
f 215//215 210//210 3//3 2//2
f 220//220 219//219 218//218 221//221
f 221//221 218//218 217//217 222//222
f 222//222 217//217 216//216 223//223
f 223//223 216//216 215//215 224//224
f 224//224 215//215 2//2 1//1
f 69//69 220//220 221//221 68//68
f 68//68 221//221 222//222 67//67
f 67//67 222//222 223//223 66//66
f 66//66 223//223 224//224 65//65
f 65//65 224//224 1//1 32//32
