# Blender 5.0.1
# www.blender.org
mtllib ProfilVecka1_DoorWall_PuzzleChamber.mtl
o Cube.060
v 29.671188 -30.670929 -5.487381
v 29.670471 4.750147 -5.489047
v -21.372543 -30.671959 -5.302836
v -21.373260 4.749117 -5.304501
v 29.667992 -30.670971 -6.372972
v 29.667267 4.750105 -6.374637
v -21.375748 -30.672001 -6.188426
v -21.376465 4.749075 -6.190092
v 29.670982 -20.340584 -5.487867
v -21.372757 -20.341614 -5.303321
v -21.375961 -20.341652 -6.188912
v 29.667786 -20.340626 -6.373457
v 29.670731 -7.795219 -5.488457
v -21.373016 -7.796248 -5.303912
v -21.376221 -7.796289 -6.189502
v 29.667526 -7.795260 -6.374048
v 13.191971 -30.671265 -5.427802
v 13.191246 4.749813 -5.429467
v 13.188766 -30.671303 -6.313392
v 13.188049 4.749773 -6.315058
v 13.180099 -20.341068 -8.652695
v 13.183304 -20.341026 -7.767103
v 13.179848 -7.795703 -8.653284
v 13.183044 -7.795661 -7.767693
v -4.091003 4.749466 -5.366984
v -4.093491 -30.671654 -6.250909
v -4.098953 -20.341373 -7.704620
v -4.099213 -7.796009 -7.705210
v -4.090286 -30.671612 -5.365319
v -4.094208 4.749424 -6.252575
v -4.102158 -20.341415 -8.590210
v -4.102417 -7.796051 -8.590801
v 4.986214 4.749649 -5.399802
v 1.296043 4.749575 -5.386460
v 1.296043 4.749533 -6.272063
v 4.986214 4.749607 -6.285405
v 1.296043 1.800564 -6.821699
v 4.986214 1.800564 -6.835055
v 1.296043 1.800564 -5.936104
v 4.986214 1.800564 -5.949460
vn 0.0708 -0.0926 0.9932
vn -1.0000 -0.0000 0.0036
vn 0.0669 0.0925 -0.9935
vn 1.0000 -0.0000 -0.0036
vn -0.0000 -1.0000 -0.0000
vn -0.0000 1.0000 -0.0000
vn 0.0668 -0.1123 -0.9914
vn 0.0707 0.1123 0.9912
vn 0.1369 -0.0000 -0.9906
vn 0.1377 -0.0000 0.9905
vn -0.1369 -0.0000 0.9906
vn -0.0036 -0.0000 -1.0000
vn -0.0668 0.1123 0.9914
vn -0.0035 -0.2209 -0.9753
vn -0.0036 0.1832 -0.9831
vn -0.0669 -0.0925 0.9935
vn -0.0708 0.0926 -0.9932
vn -0.0707 -0.1123 -0.9912
vn -0.1377 -0.0000 -0.9905
vn 0.0036 -0.0000 1.0000
vn 0.0035 0.2209 0.9753
vn 0.0036 -0.1832 0.9831
vn 1.0000 -0.0000 -0.0000
vn -1.0000 -0.0000 -0.0000
vt 0.536456 0.165356
vt 0.625000 0.165356
vt 0.625000 0.250000
vt 0.536456 0.250000
vt 0.625000 0.500000
vt 0.536456 0.500000
vt 0.536456 0.669289
vt 0.625000 0.669289
vt 0.625000 0.750000
vt 0.536456 0.750000
vt 0.625000 1.000000
vt 0.536456 1.000000
vt 0.125000 0.669289
vt 0.375000 0.669289
vt 0.375000 0.750000
vt 0.125000 0.750000
vt 0.875000 0.669289
vt 0.875000 0.750000
vt 0.447911 0.750000
vt 0.447911 1.000000
vt 0.375000 1.000000
vt 0.447911 0.669289
vt 0.375000 0.250000
vt 0.447911 0.250000
vt 0.447911 0.500000
vt 0.375000 0.500000
vt 0.375000 0.165356
vt 0.447911 0.165356
vt 0.447911 0.000000
vt 0.536456 0.000000
vt 0.536456 0.080711
vt 0.447911 0.080711
vt 0.447911 0.584644
vt 0.536456 0.584644
vt 0.375000 0.000000
vt 0.375000 0.080711
vt 0.375000 0.584644
vt 0.625000 0.629118
vt 0.875000 0.629102
vt 0.625000 0.584644
vt 0.875000 0.584644
vt 0.875000 0.611029
vt 0.625000 0.611044
vt 0.125000 0.584644
vt 0.604187 0.611054
vt 0.604186 0.629128
vt 0.625000 0.000000
vt 0.625000 0.080711
vt 0.125000 0.500000
vt 0.875000 0.500000
vt 0.625000 0.138971
vt 0.625000 0.120898
vt 0.604186 0.120888
vt 0.604186 0.138962
vt 0.539476 0.000000
vt 0.496851 0.000000
vt 0.523305 0.241587
vt 0.565931 0.241590
vt 0.522663 0.508407
vt 0.496208 0.750000
vt 0.538833 0.750000
vt 0.565289 0.508404
vt 0.496851 1.000000
vt 0.539476 1.000000
s 1
usemtl Material.001
f 28/1/1 25/2/1 4/3/1 14/4/1
f 14/4/2 4/3/2 8/5/2 15/6/2
f 23/7/3 20/8/3 6/9/3 16/10/3
f 16/10/4 6/9/4 2/11/4 13/12/4
f 17/13/5 19/14/5 5/15/5 1/16/5
f 20/8/6 18/17/6 2/18/6 6/9/6
f 5/15/4 12/19/4 9/20/4 1/21/4
f 19/14/7 21/22/7 12/19/7 5/15/7
f 3/23/2 10/24/2 11/25/2 7/26/2
f 29/27/8 27/28/8 10/24/8 3/23/8
f 12/19/4 16/10/4 13/12/4 9/20/4
f 21/22/9 23/7/9 16/10/9 12/19/9
f 10/24/2 14/4/2 15/6/2 11/25/2
f 27/28/10 28/1/10 14/4/10 10/24/10
f 9/29/11 13/30/11 24/31/11 22/32/11
f 31/33/12 32/34/12 23/7/12 21/22/12
f 1/35/13 9/29/13 22/32/13 17/36/13
f 26/37/14 31/33/14 21/22/14 19/14/14
f 18/17/6 20/8/6 36/38/6 33/39/6
f 30/40/6 25/41/6 34/42/6 35/43/6
f 29/44/5 26/37/5 19/14/5 17/13/5
f 36/38/15 20/8/15 23/7/15 32/34/15 30/40/15 35/43/15 37/45/15 38/46/15
f 13/30/16 2/47/16 18/48/16 24/31/16
f 15/6/17 8/5/17 30/40/17 32/34/17
f 3/49/5 7/26/5 26/37/5 29/44/5
f 8/5/6 4/50/6 25/41/6 30/40/6
f 7/26/18 11/25/18 31/33/18 26/37/18
f 11/25/19 15/6/19 32/34/19 31/33/19
f 22/32/20 24/31/20 28/1/20 27/28/20
f 17/36/21 22/32/21 27/28/21 29/27/21
f 34/51/22 25/2/22 28/1/22 24/31/22 18/48/22 33/52/22 40/53/22 39/54/22
s 0
f 39/55/23 37/56/23 35/57/23 34/58/23
f 36/59/24 38/60/24 40/61/24 33/62/24
f 38/60/6 37/63/6 39/64/6 40/61/6
