# Blender 4.2.1 LTS
# www.blender.org
mtllib ProfilVecka1_Wall_SidePlatform_Alt_PuzzleChamber.mtl
o Cube.013
v -7.307881 -2.520770 -5.004247
v -7.263368 -2.520237 6.231951
v -7.307889 -2.139487 -5.004264
v -7.263376 -2.138955 6.231932
v 5.776747 -2.520528 -5.047412
v 5.821269 -2.519996 6.188785
v 5.776739 -2.139246 -5.047431
v 5.821260 -2.138713 6.188766
vn -1.0000 -0.0000 0.0040
vn -0.0000 1.0000 -0.0000
vn 1.0000 -0.0000 -0.0040
vn -0.0000 -1.0000 -0.0000
vn -0.0033 -0.0000 -1.0000
vn 0.0033 -0.0000 1.0000
vt 0.375000 0.000000
vt 0.625000 0.000000
vt 0.625000 0.250000
vt 0.375000 0.250000
vt 0.625000 0.500000
vt 0.375000 0.500000
vt 0.625000 0.750000
vt 0.375000 0.750000
vt 0.625000 1.000000
vt 0.375000 1.000000
vt 0.125000 0.500000
vt 0.125000 0.750000
vt 0.875000 0.500000
vt 0.875000 0.750000
s 1
usemtl Material.022
f 1/1/1 2/2/1 4/3/1 3/4/1
f 3/4/2 4/3/2 8/5/2 7/6/2
f 7/6/3 8/5/3 6/7/3 5/8/3
f 5/8/4 6/7/4 2/9/4 1/10/4
f 3/11/5 7/6/5 5/8/5 1/12/5
f 8/5/6 4/13/6 2/14/6 6/7/6
