# Blender 4.2.1 LTS
# www.blender.org
mtllib ProfilVecka1_Wall_PuzzleChamber.mtl
o Cube.013
v 0.109172 -17.156782 22.971889
v 0.109172 18.264296 22.971882
v 0.109172 -17.156790 -24.678909
v 0.109172 18.264288 -24.678921
v 0.994590 -17.156782 22.971889
v 0.994590 18.264296 22.971882
v 0.994590 -17.156790 -24.678909
v 0.994590 18.264288 -24.678921
v 0.109172 -6.826435 22.971886
v 0.109172 -6.826443 -24.678913
v 0.994590 -6.826443 -24.678913
v 0.994590 -6.826435 22.971886
v 0.109172 5.718929 22.971886
v 0.109172 5.718921 -24.678913
v 0.994590 5.718921 -24.678913
v 0.994590 5.718929 22.971886
v 0.109172 -17.156786 7.588057
v 0.109172 18.264292 7.588053
v 0.994590 -17.156786 7.588057
v 0.994590 18.264292 7.588053
v 3.332950 -6.826438 7.588057
v 2.447531 -6.826438 7.588057
v 3.332950 5.718925 7.588055
v 2.447531 5.718925 7.588055
v 0.109172 18.264292 -8.545433
v 0.994590 -17.156786 -8.545427
v 2.447531 -6.826439 -8.545429
v 2.447531 5.718924 -8.545431
v 0.109172 -17.156786 -8.545427
v 0.994590 18.264292 -8.545433
v 3.332950 -6.826439 -8.545429
v 3.332950 5.718924 -8.545431
vn -0.9931 -0.0926 0.0720
vn -0.0000 -0.0000 -1.0000
vn 0.9928 0.0925 0.0755
vn -0.0000 -0.0000 1.0000
vn -0.0000 -1.0000 -0.0000
vn -0.0000 1.0000 -0.0000
vn 0.9908 -0.1121 0.0753
vn -0.9911 0.1122 0.0718
vn 0.9886 -0.0000 0.1503
vn -0.9897 -0.0000 0.1434
vn -0.9886 -0.0000 -0.1503
vn 1.0000 -0.0000 -0.0000
vn -0.9908 0.1121 -0.0753
vn 0.9753 -0.2208 -0.0000
vn 0.9831 0.1832 -0.0000
vn -0.9928 -0.0925 -0.0755
vn 0.9931 0.0926 -0.0720
vn 0.9911 -0.1122 -0.0718
vn 0.9897 -0.0000 -0.1434
vn -1.0000 -0.0000 -0.0000
vn -0.9753 0.2208 -0.0000
vn -0.9831 -0.1832 -0.0000
vt 0.536456 0.165356
vt 0.625000 0.165356
vt 0.625000 0.250000
vt 0.536456 0.250000
vt 0.625000 0.500000
vt 0.536456 0.500000
vt 0.536456 0.669289
vt 0.625000 0.669289
vt 0.625000 0.750000
vt 0.536456 0.750000
vt 0.625000 1.000000
vt 0.536456 1.000000
vt 0.125000 0.669289
vt 0.375000 0.669289
vt 0.375000 0.750000
vt 0.125000 0.750000
vt 0.875000 0.669289
vt 0.875000 0.750000
vt 0.447911 0.750000
vt 0.447911 1.000000
vt 0.375000 1.000000
vt 0.447911 0.669289
vt 0.375000 0.250000
vt 0.447911 0.250000
vt 0.447911 0.500000
vt 0.375000 0.500000
vt 0.375000 0.165356
vt 0.447911 0.165356
vt 0.447911 0.000000
vt 0.536456 0.000000
vt 0.536456 0.080711
vt 0.447911 0.080711
vt 0.447911 0.584644
vt 0.536456 0.584644
vt 0.375000 0.000000
vt 0.375000 0.080711
vt 0.375000 0.584644
vt 0.625000 0.584644
vt 0.875000 0.584644
vt 0.125000 0.584644
vt 0.625000 0.000000
vt 0.625000 0.080711
vt 0.125000 0.500000
vt 0.875000 0.500000
s 1
usemtl Material.009
f 28/1/1 25/2/1 4/3/1 14/4/1
f 14/4/2 4/3/2 8/5/2 15/6/2
f 23/7/3 20/8/3 6/9/3 16/10/3
f 16/10/4 6/9/4 2/11/4 13/12/4
f 17/13/5 19/14/5 5/15/5 1/16/5
f 20/8/6 18/17/6 2/18/6 6/9/6
f 5/15/4 12/19/4 9/20/4 1/21/4
f 19/14/7 21/22/7 12/19/7 5/15/7
f 3/23/2 10/24/2 11/25/2 7/26/2
f 29/27/8 27/28/8 10/24/8 3/23/8
f 12/19/4 16/10/4 13/12/4 9/20/4
f 21/22/9 23/7/9 16/10/9 12/19/9
f 10/24/2 14/4/2 15/6/2 11/25/2
f 27/28/10 28/1/10 14/4/10 10/24/10
f 9/29/11 13/30/11 24/31/11 22/32/11
f 31/33/12 32/34/12 23/7/12 21/22/12
f 1/35/13 9/29/13 22/32/13 17/36/13
f 26/37/14 31/33/14 21/22/14 19/14/14
f 30/38/6 25/39/6 18/17/6 20/8/6
f 29/40/5 26/37/5 19/14/5 17/13/5
f 32/34/15 30/38/15 20/8/15 23/7/15
f 13/30/16 2/41/16 18/42/16 24/31/16
f 15/6/17 8/5/17 30/38/17 32/34/17
f 3/43/5 7/26/5 26/37/5 29/40/5
f 8/5/6 4/44/6 25/39/6 30/38/6
f 7/26/18 11/25/18 31/33/18 26/37/18
f 11/25/19 15/6/19 32/34/19 31/33/19
f 22/32/20 24/31/20 28/1/20 27/28/20
f 17/36/21 22/32/21 27/28/21 29/27/21
f 24/31/22 18/42/22 25/2/22 28/1/22
