# Blender 5.0.1
# www.blender.org
mtllib ProfilVecka1_Wall_PuzzleChamber.mtl
o Cube.060
v -24.629791 -30.670929 -12.557395
v -24.630508 4.750147 -12.559059
v -75.673523 -30.671959 -12.372849
v -75.674240 4.749117 -12.374514
v -24.632988 -30.670973 -13.442986
v -24.633713 4.750105 -13.444650
v -75.676727 -30.672003 -13.258440
v -75.677444 4.749075 -13.260104
v -24.629997 -20.340584 -12.557879
v -75.673737 -20.341612 -12.373334
v -75.676941 -20.341654 -13.258924
v -24.633194 -20.340626 -13.443470
v -24.630249 -7.795219 -12.558470
v -75.673996 -7.796248 -12.373924
v -75.677200 -7.796289 -13.259515
v -24.633453 -7.795260 -13.444060
v -41.109009 -30.671265 -12.497815
v -41.109734 4.749813 -12.499479
v -41.112213 -30.671305 -13.383406
v -41.112930 4.749773 -13.385071
v -41.120880 -20.341068 -15.722707
v -41.117676 -20.341026 -14.837115
v -41.121132 -7.795703 -15.723296
v -41.117935 -7.795661 -14.837706
v -58.391983 4.749466 -12.436996
v -58.394470 -30.671656 -13.320923
v -58.399933 -20.341375 -14.774632
v -58.400192 -7.796009 -14.775223
v -58.391266 -30.671612 -12.435332
v -58.395187 4.749424 -13.322588
v -58.403137 -20.341417 -15.660223
v -58.403397 -7.796051 -15.660813
vn 0.0708 -0.0926 0.9932
vn -1.0000 -0.0000 0.0036
vn 0.0669 0.0925 -0.9935
vn 1.0000 -0.0000 -0.0036
vn -0.0000 -1.0000 -0.0000
vn -0.0000 1.0000 -0.0000
vn 0.0668 -0.1123 -0.9914
vn 0.0707 0.1123 0.9912
vn 0.1369 -0.0000 -0.9906
vn 0.1377 -0.0000 0.9905
vn -0.1369 -0.0000 0.9906
vn -0.0036 -0.0000 -1.0000
vn -0.0668 0.1123 0.9914
vn -0.0035 -0.2209 -0.9753
vn -0.0036 0.1832 -0.9831
vn -0.0669 -0.0925 0.9935
vn -0.0708 0.0926 -0.9932
vn -0.0707 -0.1123 -0.9912
vn -0.1377 -0.0000 -0.9905
vn 0.0036 -0.0000 1.0000
vn 0.0035 0.2209 0.9753
vn 0.0036 -0.1832 0.9831
vt 0.536456 0.165356
vt 0.625000 0.165356
vt 0.625000 0.250000
vt 0.536456 0.250000
vt 0.625000 0.500000
vt 0.536456 0.500000
vt 0.536456 0.669289
vt 0.625000 0.669289
vt 0.625000 0.750000
vt 0.536456 0.750000
vt 0.625000 1.000000
vt 0.536456 1.000000
vt 0.125000 0.669289
vt 0.375000 0.669289
vt 0.375000 0.750000
vt 0.125000 0.750000
vt 0.875000 0.669289
vt 0.875000 0.750000
vt 0.447911 0.750000
vt 0.447911 1.000000
vt 0.375000 1.000000
vt 0.447911 0.669289
vt 0.375000 0.250000
vt 0.447911 0.250000
vt 0.447911 0.500000
vt 0.375000 0.500000
vt 0.375000 0.165356
vt 0.447911 0.165356
vt 0.447911 0.000000
vt 0.536456 0.000000
vt 0.536456 0.080711
vt 0.447911 0.080711
vt 0.447911 0.584644
vt 0.536456 0.584644
vt 0.375000 0.000000
vt 0.375000 0.080711
vt 0.375000 0.584644
vt 0.625000 0.584644
vt 0.875000 0.584644
vt 0.125000 0.584644
vt 0.625000 0.000000
vt 0.625000 0.080711
vt 0.125000 0.500000
vt 0.875000 0.500000
s 1
usemtl Material.001
f 28/1/1 25/2/1 4/3/1 14/4/1
f 14/4/2 4/3/2 8/5/2 15/6/2
f 23/7/3 20/8/3 6/9/3 16/10/3
f 16/10/4 6/9/4 2/11/4 13/12/4
f 17/13/5 19/14/5 5/15/5 1/16/5
f 20/8/6 18/17/6 2/18/6 6/9/6
f 5/15/4 12/19/4 9/20/4 1/21/4
f 19/14/7 21/22/7 12/19/7 5/15/7
f 3/23/2 10/24/2 11/25/2 7/26/2
f 29/27/8 27/28/8 10/24/8 3/23/8
f 12/19/4 16/10/4 13/12/4 9/20/4
f 21/22/9 23/7/9 16/10/9 12/19/9
f 10/24/2 14/4/2 15/6/2 11/25/2
f 27/28/10 28/1/10 14/4/10 10/24/10
f 9/29/11 13/30/11 24/31/11 22/32/11
f 31/33/12 32/34/12 23/7/12 21/22/12
f 1/35/13 9/29/13 22/32/13 17/36/13
f 26/37/14 31/33/14 21/22/14 19/14/14
f 30/38/6 25/39/6 18/17/6 20/8/6
f 29/40/5 26/37/5 19/14/5 17/13/5
f 32/34/15 30/38/15 20/8/15 23/7/15
f 13/30/16 2/41/16 18/42/16 24/31/16
f 15/6/17 8/5/17 30/38/17 32/34/17
f 3/43/5 7/26/5 26/37/5 29/40/5
f 8/5/6 4/44/6 25/39/6 30/38/6
f 7/26/18 11/25/18 31/33/18 26/37/18
f 11/25/19 15/6/19 32/34/19 31/33/19
f 22/32/20 24/31/20 28/1/20 27/28/20
f 17/36/21 22/32/21 27/28/21 29/27/21
f 24/31/22 18/42/22 25/2/22 28/1/22
