# Blender 4.2.1 LTS
# www.blender.org
mtllib ProfilVecka1_DoorWall_Updated_PuzzleChamber.mtl
o Cube.060
v 23.700672 -30.670929 2.442604
v 23.699951 4.750148 2.440941
v -27.343067 -30.671959 2.627149
v -27.343788 4.749118 2.625487
v 23.697472 -30.670971 1.557013
v 23.696751 4.750106 1.555350
v -27.346268 -30.672001 1.741558
v -27.346989 4.749076 1.739896
v 23.700462 -20.340584 2.442119
v -27.343277 -20.341612 2.626664
v -27.346478 -20.341652 1.741073
v 23.697262 -20.340624 1.556528
v 23.700207 -7.795218 2.441530
v -27.343533 -7.796247 2.626076
v -27.346733 -7.796288 1.740484
v 23.697006 -7.795259 1.555939
v 7.221448 -30.671265 2.502183
v 7.220729 4.749814 2.500521
v 7.218246 -30.671303 1.616592
v 7.217526 4.749774 1.614930
v 7.209580 -20.341066 -0.722709
v 7.212782 -20.341024 0.162882
v 7.209326 -7.795702 -0.723298
v 7.212527 -7.795660 0.162294
v -10.061529 4.749467 2.563004
v -10.064013 -30.671654 1.679075
v -10.069476 -20.341373 0.225365
v -10.069731 -7.796008 0.224777
v -10.060810 -30.671612 2.564666
v -10.064732 4.749425 1.677413
v -10.072678 -20.341415 -0.660226
v -10.072932 -7.796050 -0.660815
v 4.333260 4.749757 2.510960
v -7.091245 4.749526 2.552265
v 4.330058 4.749715 1.625369
v -7.094447 4.749484 1.666674
v -7.100334 -4.257197 -0.011993
v 4.324171 -4.256968 -0.053298
v 4.327374 -4.253954 0.832847
v -7.097131 -4.254184 0.874152
vn 0.0708 -0.0926 0.9932
vn -1.0000 -0.0000 0.0036
vn 0.0669 0.0925 -0.9935
vn 1.0000 -0.0000 -0.0036
vn -0.0000 -1.0000 -0.0000
vn -0.0000 1.0000 -0.0000
vn 0.0668 -0.1123 -0.9914
vn 0.0707 0.1123 0.9912
vn 0.1369 -0.0000 -0.9906
vn 0.1377 -0.0000 0.9905
vn -0.1369 -0.0000 0.9906
vn -0.0036 -0.0000 -1.0000
vn -0.0668 0.1123 0.9914
vn -0.0035 -0.2209 -0.9753
vn -0.0036 0.1832 -0.9831
vn -0.0669 -0.0925 0.9935
vn -0.0708 0.0926 -0.9932
vn -0.0707 -0.1123 -0.9912
vn -0.1377 -0.0000 -0.9905
vn 0.0036 -0.0000 1.0000
vn 0.0035 0.2209 0.9753
vn 0.0036 -0.1832 0.9831
vn -0.0000 1.0000 -0.0034
vt 0.536456 0.165356
vt 0.625000 0.165356
vt 0.625000 0.250000
vt 0.536456 0.250000
vt 0.625000 0.500000
vt 0.536456 0.500000
vt 0.536456 0.669289
vt 0.625000 0.669289
vt 0.625000 0.750000
vt 0.536456 0.750000
vt 0.625000 1.000000
vt 0.536456 1.000000
vt 0.125000 0.669289
vt 0.375000 0.669289
vt 0.375000 0.750000
vt 0.125000 0.750000
vt 0.875000 0.669289
vt 0.875000 0.750000
vt 0.447911 0.750000
vt 0.447911 1.000000
vt 0.375000 1.000000
vt 0.447911 0.669289
vt 0.375000 0.250000
vt 0.447911 0.250000
vt 0.447911 0.500000
vt 0.375000 0.500000
vt 0.375000 0.165356
vt 0.447911 0.165356
vt 0.447911 0.000000
vt 0.536456 0.000000
vt 0.536456 0.080711
vt 0.447911 0.080711
vt 0.447911 0.584644
vt 0.536456 0.584644
vt 0.375000 0.000000
vt 0.375000 0.080711
vt 0.375000 0.584644
vt 0.875000 0.655147
vt 0.625000 0.655147
vt 0.625000 0.599192
vt 0.625000 0.584644
vt 0.875000 0.584644
vt 0.875000 0.599192
vt 0.125000 0.584644
vt 0.561432 0.599192
vt 0.561432 0.655147
vt 0.625000 0.000000
vt 0.625000 0.080711
vt 0.125000 0.500000
vt 0.875000 0.500000
vt 0.625000 0.094853
vt 0.561453 0.094853
vt 0.561453 0.150808
vt 0.625000 0.150808
vt 0.375000 0.392991
vt 0.624966 0.340176
vt 0.624883 0.312813
vt 0.375000 0.365610
vt 0.624883 0.937187
vt 0.624966 0.909823
vt 0.375000 0.857009
vt 0.375000 0.884390
vt 0.240610 0.750000
vt 0.267991 0.750000
vt 0.267991 0.500000
vt 0.240610 0.500000
s 0
f 28/1/1 25/2/1 4/3/1 14/4/1
f 14/4/2 4/3/2 8/5/2 15/6/2
f 23/7/3 20/8/3 6/9/3 16/10/3
f 16/10/4 6/9/4 2/11/4 13/12/4
f 17/13/5 19/14/5 5/15/5 1/16/5
f 20/8/6 18/17/6 2/18/6 6/9/6
f 5/15/4 12/19/4 9/20/4 1/21/4
f 19/14/7 21/22/7 12/19/7 5/15/7
f 3/23/2 10/24/2 11/25/2 7/26/2
f 29/27/8 27/28/8 10/24/8 3/23/8
f 12/19/4 16/10/4 13/12/4 9/20/4
f 21/22/9 23/7/9 16/10/9 12/19/9
f 10/24/2 14/4/2 15/6/2 11/25/2
f 27/28/10 28/1/10 14/4/10 10/24/10
f 9/29/11 13/30/11 24/31/11 22/32/11
f 31/33/12 32/34/12 23/7/12 21/22/12
f 1/35/13 9/29/13 22/32/13 17/36/13
f 26/37/14 31/33/14 21/22/14 19/14/14
f 33/38/6 18/17/6 20/8/6 35/39/6
f 36/40/6 30/41/6 25/42/6 34/43/6
f 29/44/5 26/37/5 19/14/5 17/13/5
f 35/39/15 20/8/15 23/7/15 32/34/15 30/41/15 36/40/15 37/45/15 38/46/15
f 13/30/16 2/47/16 18/48/16 24/31/16
f 15/6/17 8/5/17 30/41/17 32/34/17
f 3/49/5 7/26/5 26/37/5 29/44/5
f 8/5/6 4/50/6 25/42/6 30/41/6
f 7/26/18 11/25/18 31/33/18 26/37/18
f 11/25/19 15/6/19 32/34/19 31/33/19
f 22/32/20 24/31/20 28/1/20 27/28/20
f 17/36/21 22/32/21 27/28/21 29/27/21
f 25/2/22 28/1/22 24/31/22 18/48/22 33/51/22 39/52/22 40/53/22 34/54/22
f 37/55/4 36/56/4 34/57/4 40/58/4
f 33/59/2 35/60/2 38/61/2 39/62/2
f 39/63/23 38/64/23 37/65/23 40/66/23
