# Blender 5.0.1
# www.blender.org
mtllib ProfilVecka1_WallSidePlatform_PuzzleChamber.mtl
o Cylinder.010
v -39.435188 -11.970691 16.295012
v -38.316750 -11.984251 16.295012
v -39.435059 -11.959945 16.404118
v -38.316616 -11.973506 16.404118
v -39.434669 -11.928123 16.509031
v -38.316231 -11.941683 16.509031
v -39.434044 -11.876445 16.605721
v -38.315605 -11.890005 16.605721
v -39.433201 -11.806899 16.690468
v -38.314762 -11.820459 16.690468
v -39.432175 -11.722156 16.760019
v -38.313736 -11.735717 16.760019
v -39.431000 -11.625475 16.811701
v -38.312561 -11.639035 16.811701
v -39.429729 -11.520569 16.843527
v -38.311287 -11.534130 16.843527
v -39.428406 -11.411470 16.854273
v -38.309967 -11.425032 16.854273
v -39.427086 -11.302372 16.843527
v -38.308643 -11.315933 16.843527
v -39.425812 -11.197467 16.811701
v -38.307373 -11.211027 16.811701
v -39.424637 -11.100785 16.760019
v -38.306198 -11.114347 16.760019
v -39.423611 -11.016043 16.690468
v -38.305172 -11.029603 16.690468
v -39.422768 -10.946497 16.605721
v -38.304329 -10.960057 16.605721
v -39.422142 -10.894819 16.509031
v -38.303703 -10.908381 16.509031
v -39.421757 -10.862996 16.404118
v -38.303314 -10.876557 16.404118
v -39.421623 -10.852251 16.295012
v -38.303185 -10.865811 16.295012
v -39.421757 -10.862996 16.185905
v -38.303314 -10.876557 16.185905
v -39.422142 -10.894819 16.080992
v -38.303703 -10.908381 16.080992
v -39.422768 -10.946497 15.984304
v -38.304329 -10.960057 15.984304
v -39.423611 -11.016043 15.899555
v -38.305172 -11.029603 15.899555
v -39.424637 -11.100785 15.830004
v -38.306198 -11.114347 15.830004
v -39.425812 -11.197467 15.778323
v -38.307373 -11.211027 15.778323
v -39.427086 -11.302372 15.746498
v -38.308643 -11.315933 15.746498
v -39.428406 -11.411470 15.735752
v -38.309967 -11.425032 15.735752
v -39.429729 -11.520569 15.746498
v -38.311287 -11.534130 15.746498
v -39.431000 -11.625475 15.778323
v -38.312561 -11.639035 15.778323
v -39.432175 -11.722156 15.830004
v -38.313736 -11.735717 15.830004
v -39.433201 -11.806899 15.899555
v -38.314762 -11.820459 15.899555
v -39.434044 -11.876445 15.984304
v -38.315605 -11.890005 15.984304
v -39.434669 -11.928123 16.080992
v -38.316231 -11.941683 16.080992
v -39.435059 -11.959945 16.185905
v -38.316616 -11.973506 16.185905
v -47.755714 -15.766423 16.295010
v -47.755714 -14.982695 16.295010
v -47.766460 -15.766423 16.404116
v -47.766460 -14.982695 16.404116
v -47.798286 -15.766423 16.509029
v -47.798286 -14.982695 16.509029
v -47.849968 -15.766423 16.605717
v -47.849968 -14.982696 16.605717
v -47.919518 -15.766423 16.690466
v -47.919518 -14.982695 16.690466
v -48.004269 -15.766423 16.760017
v -48.004265 -14.982695 16.760017
v -48.100956 -15.766423 16.811699
v -48.100956 -14.982696 16.811699
v -48.205872 -15.766423 16.843523
v -48.205872 -14.982695 16.843523
v -48.314976 -15.766423 16.854269
v -48.314976 -14.982695 16.854269
v -48.424084 -15.766423 16.843523
v -48.424084 -14.982696 16.843523
v -48.528996 -15.766423 16.811699
v -48.528996 -14.982695 16.811699
v -48.625687 -15.766423 16.760017
v -48.625687 -14.982696 16.760017
v -48.710434 -15.766423 16.690466
v -48.710434 -14.982696 16.690466
v -48.779984 -15.766423 16.605717
v -48.779984 -14.982695 16.605717
v -48.831665 -15.766423 16.509029
v -48.831665 -14.982696 16.509029
v -48.863491 -15.766423 16.404116
v -48.863491 -14.982695 16.404116
v -48.874237 -15.766423 16.295010
v -48.874237 -14.982696 16.295010
v -48.863491 -15.766423 16.185902
v -48.863491 -14.982695 16.185902
v -48.831665 -15.766423 16.080988
v -48.831665 -14.982696 16.080988
v -48.779984 -15.766423 15.984299
v -48.779984 -14.982695 15.984299
v -48.710434 -15.766423 15.899549
v -48.710434 -14.982696 15.899549
v -48.625687 -15.766423 15.829999
v -48.625687 -14.982696 15.829999
v -48.528996 -15.766423 15.778318
v -48.528996 -14.982695 15.778318
v -48.424084 -15.766423 15.746493
v -48.424084 -14.982696 15.746493
v -48.314976 -15.766423 15.735747
v -48.314976 -14.982695 15.735747
v -48.205872 -15.766423 15.746493
v -48.205872 -14.982695 15.746493
v -48.100956 -15.766423 15.778318
v -48.100956 -14.982696 15.778318
v -48.004269 -15.766423 15.829999
v -48.004265 -14.982695 15.829999
v -47.919518 -15.766423 15.899549
v -47.919518 -14.982695 15.899549
v -47.849968 -15.766423 15.984299
v -47.849968 -14.982696 15.984299
v -47.798286 -15.766423 16.080988
v -47.798286 -14.982695 16.080988
v -47.766460 -15.766423 16.185902
v -47.766460 -14.982695 16.185902
v -39.435188 -11.970690 23.225420
v -38.316750 -11.984250 23.225420
v -39.435059 -11.959944 23.334526
v -38.316620 -11.973505 23.334526
v -39.434673 -11.928122 23.439440
v -38.316231 -11.941682 23.439440
v -39.434044 -11.876444 23.536129
v -38.315605 -11.890005 23.536129
v -39.433205 -11.806898 23.620876
v -38.314766 -11.820458 23.620876
v -39.432175 -11.722155 23.690428
v -38.313736 -11.735716 23.690428
v -39.431004 -11.625474 23.742109
v -38.312565 -11.639034 23.742109
v -39.429733 -11.520568 23.773933
v -38.311295 -11.534129 23.773933
v -39.428406 -11.411469 23.784679
v -38.309967 -11.425031 23.784679
v -39.427086 -11.302371 23.773933
v -38.308647 -11.315932 23.773933
v -39.425812 -11.197466 23.742109
v -38.307373 -11.211026 23.742109
v -39.424641 -11.100784 23.690428
v -38.306202 -11.114346 23.690428
v -39.423615 -11.016042 23.620876
v -38.305176 -11.029602 23.620876
v -39.422771 -10.946495 23.536129
v -38.304329 -10.960056 23.536129
v -39.422142 -10.894818 23.439440
v -38.303703 -10.908380 23.439440
v -39.421761 -10.862995 23.334526
v -38.303322 -10.876556 23.334526
v -39.421631 -10.852250 23.225420
v -38.303188 -10.865810 23.225420
v -39.421761 -10.862995 23.116314
v -38.303322 -10.876556 23.116314
v -39.422142 -10.894818 23.011398
v -38.303703 -10.908380 23.011398
v -39.422771 -10.946495 22.914711
v -38.304329 -10.960056 22.914711
v -39.423615 -11.016042 22.829962
v -38.305176 -11.029602 22.829962
v -39.424641 -11.100784 22.760410
v -38.306202 -11.114346 22.760410
v -39.425812 -11.197466 22.708729
v -38.307373 -11.211026 22.708729
v -39.427086 -11.302371 22.676905
v -38.308647 -11.315932 22.676905
v -39.428406 -11.411469 22.666159
v -38.309967 -11.425031 22.666159
v -39.429733 -11.520568 22.676905
v -38.311295 -11.534129 22.676905
v -39.431004 -11.625474 22.708729
v -38.312561 -11.639034 22.708729
v -39.432175 -11.722155 22.760410
v -38.313736 -11.735716 22.760410
v -39.433205 -11.806898 22.829962
v -38.314766 -11.820458 22.829962
v -39.434044 -11.876444 22.914711
v -38.315605 -11.890005 22.914711
v -39.434673 -11.928122 23.011398
v -38.316231 -11.941682 23.011398
v -39.435059 -11.959944 23.116314
v -38.316620 -11.973505 23.116314
v -47.755718 -15.766423 23.225416
v -47.755718 -14.982695 23.225416
v -47.766464 -15.766422 23.334522
v -47.766464 -14.982695 23.334522
v -47.798290 -15.766422 23.439436
v -47.798290 -14.982695 23.439436
v -47.849972 -15.766422 23.536125
v -47.849972 -14.982695 23.536125
v -47.919521 -15.766422 23.620874
v -47.919521 -14.982695 23.620874
v -48.004272 -15.766423 23.690424
v -48.004272 -14.982695 23.690424
v -48.100960 -15.766422 23.742105
v -48.100960 -14.982695 23.742105
v -48.205872 -15.766422 23.773932
v -48.205872 -14.982695 23.773932
v -48.314980 -15.766422 23.784678
v -48.314980 -14.982695 23.784678
v -48.424088 -15.766422 23.773932
v -48.424088 -14.982695 23.773932
v -48.528999 -15.766422 23.742105
v -48.528999 -14.982695 23.742105
v -48.625687 -15.766422 23.690424
v -48.625687 -14.982695 23.690424
v -48.710438 -15.766422 23.620874
v -48.710438 -14.982695 23.620874
v -48.779987 -15.766422 23.536125
v -48.779987 -14.982695 23.536125
v -48.831669 -15.766422 23.439436
v -48.831669 -14.982695 23.439436
v -48.863495 -15.766423 23.334522
v -48.863495 -14.982695 23.334522
v -48.874241 -15.766422 23.225416
v -48.874241 -14.982695 23.225416
v -48.863495 -15.766423 23.116310
v -48.863495 -14.982695 23.116310
v -48.831669 -15.766422 23.011396
v -48.831669 -14.982695 23.011396
v -48.779987 -15.766422 22.914707
v -48.779987 -14.982695 22.914707
v -48.710438 -15.766422 22.829960
v -48.710438 -14.982695 22.829960
v -48.625687 -15.766422 22.760408
v -48.625687 -14.982695 22.760408
v -48.528999 -15.766422 22.708727
v -48.528999 -14.982695 22.708727
v -48.424088 -15.766422 22.676901
v -48.424088 -14.982695 22.676901
v -48.314980 -15.766422 22.666155
v -48.314980 -14.982695 22.666155
v -48.205872 -15.766422 22.676901
v -48.205872 -14.982695 22.676901
v -48.100960 -15.766422 22.708727
v -48.100960 -14.982695 22.708727
v -48.004272 -15.766423 22.760408
v -48.004272 -14.982695 22.760408
v -47.919521 -15.766422 22.829960
v -47.919521 -14.982695 22.829960
v -47.849972 -15.766422 22.914707
v -47.849972 -14.982695 22.914707
v -47.798290 -15.766422 23.011396
v -47.798290 -14.982695 23.011396
v -47.766464 -15.766422 23.116310
v -47.766464 -14.982695 23.116310
v -39.294373 -15.931956 13.884428
v -50.545872 -15.931428 13.925107
v -39.294353 -15.550673 13.884420
v -50.545853 -15.550144 13.925099
v -39.251148 -15.931714 25.839966
v -50.502647 -15.931186 25.880644
v -39.251129 -15.550431 25.839958
v -50.502632 -15.549902 25.880636
vn -0.0121 -0.9951 0.0980
vn -0.0116 -0.9569 0.2903
vn -0.0107 -0.8819 0.4714
vn -0.0094 -0.7730 0.6344
vn -0.0077 -0.6343 0.7730
vn -0.0057 -0.4714 0.8819
vn -0.0035 -0.2903 0.9569
vn -0.0012 -0.0980 0.9952
vn 0.0012 0.0980 0.9952
vn 0.0035 0.2903 0.9569
vn 0.0057 0.4714 0.8819
vn 0.0077 0.6343 0.7730
vn 0.0094 0.7730 0.6344
vn 0.0107 0.8819 0.4714
vn 0.0116 0.9569 0.2903
vn 0.0121 0.9951 0.0980
vn 0.0121 0.9951 -0.0980
vn 0.0116 0.9569 -0.2903
vn 0.0107 0.8819 -0.4714
vn 0.0094 0.7730 -0.6344
vn 0.0077 0.6343 -0.7730
vn 0.0057 0.4714 -0.8819
vn 0.0035 0.2903 -0.9569
vn 0.0012 0.0980 -0.9952
vn -0.0012 -0.0980 -0.9952
vn -0.0035 -0.2903 -0.9569
vn -0.0057 -0.4714 -0.8819
vn -0.0077 -0.6343 -0.7730
vn -0.0094 -0.7730 -0.6344
vn -0.0107 -0.8819 -0.4714
vn 0.9999 -0.0121 -0.0000
vn -0.0116 -0.9569 -0.2903
vn -0.0121 -0.9951 -0.0980
vn 0.3358 -0.9225 -0.1902
vn 0.9952 -0.0000 0.0980
vn 0.9569 -0.0000 0.2903
vn 0.8819 -0.0000 0.4714
vn 0.7730 -0.0000 0.6344
vn 0.6344 -0.0000 0.7730
vn 0.4714 -0.0000 0.8819
vn 0.2903 -0.0000 0.9569
vn 0.0980 -0.0000 0.9952
vn -0.0980 -0.0000 0.9952
vn -0.2903 -0.0000 0.9569
vn -0.4714 -0.0000 0.8819
vn -0.6344 -0.0000 0.7730
vn -0.7730 -0.0000 0.6344
vn -0.8819 -0.0000 0.4714
vn -0.9569 -0.0000 0.2903
vn -0.9952 -0.0000 0.0980
vn -0.9952 -0.0000 -0.0980
vn -0.9569 -0.0000 -0.2903
vn -0.8819 -0.0000 -0.4714
vn -0.7730 -0.0000 -0.6344
vn -0.6344 -0.0000 -0.7730
vn -0.4714 -0.0000 -0.8819
vn -0.2903 -0.0000 -0.9569
vn -0.0980 -0.0000 -0.9952
vn 0.0980 -0.0000 -0.9952
vn 0.2903 -0.0000 -0.9569
vn 0.4714 -0.0000 -0.8819
vn 0.6344 -0.0000 -0.7730
vn 0.7730 -0.0000 -0.6344
vn 0.8819 -0.0000 -0.4714
vn 0.3400 -0.9383 -0.0627
vn 0.9569 -0.0000 -0.2903
vn 0.9952 -0.0000 -0.0980
vn -0.0000 -1.0000 -0.0000
vn 0.3261 -0.8883 -0.3235
vn 0.3084 -0.8296 -0.4654
vn 0.2780 -0.7369 -0.6162
vn 0.2289 -0.5964 -0.7694
vn 0.1548 -0.3961 -0.9050
vn 0.0557 -0.1398 -0.9886
vn -0.0564 0.1391 -0.9887
vn -0.1612 0.3907 -0.9063
vn -0.2449 0.5848 -0.7733
vn -0.3057 0.7202 -0.6228
vn -0.3475 0.8096 -0.4731
vn -0.3750 0.8661 -0.3305
vn -0.3915 0.8993 -0.1951
vn -0.3993 0.9145 -0.0644
vn -0.3993 0.9145 0.0644
vn -0.3915 0.8993 0.1951
vn -0.3750 0.8661 0.3305
vn -0.3475 0.8096 0.4731
vn -0.3057 0.7202 0.6228
vn -0.2449 0.5848 0.7733
vn -0.1612 0.3907 0.9063
vn -0.0564 0.1391 0.9887
vn 0.0557 -0.1398 0.9886
vn 0.1548 -0.3961 0.9050
vn 0.2289 -0.5964 0.7694
vn 0.2780 -0.7369 0.6162
vn 0.3084 -0.8296 0.4654
vn 0.3261 -0.8883 0.3235
vn 0.3358 -0.9225 0.1902
vn 0.3401 -0.9383 0.0627
vn 0.0094 0.7729 0.6344
vn 0.3401 -0.9383 -0.0628
vn -0.1611 0.3907 -0.9063
vn -0.2450 0.5848 -0.7733
vn -0.3915 0.8993 -0.1950
vn -0.3993 0.9145 -0.0645
vn -0.3993 0.9145 0.0645
vn -0.3915 0.8993 0.1950
vn -0.3749 0.8661 0.3305
vn -0.1611 0.3907 0.9063
vn 0.3400 -0.9383 0.0628
vn -0.0036 -0.0000 -1.0000
vn -0.0000 1.0000 -0.0000
vn 0.0036 -0.0000 1.0000
vn 1.0000 -0.0000 -0.0036
vn -1.0000 0.0001 0.0036
vt 1.000000 0.500000
vt 1.000000 1.000000
vt 0.968750 1.000000
vt 0.968750 0.500000
vt 0.937500 1.000000
vt 0.937500 0.500000
vt 0.906250 1.000000
vt 0.906250 0.500000
vt 0.875000 1.000000
vt 0.875000 0.500000
vt 0.843750 1.000000
vt 0.843750 0.500000
vt 0.812500 1.000000
vt 0.812500 0.500000
vt 0.781250 1.000000
vt 0.781250 0.500000
vt 0.750000 1.000000
vt 0.750000 0.500000
vt 0.718750 1.000000
vt 0.718750 0.500000
vt 0.687500 1.000000
vt 0.687500 0.500000
vt 0.656250 1.000000
vt 0.656250 0.500000
vt 0.625000 1.000000
vt 0.625000 0.500000
vt 0.593750 1.000000
vt 0.593750 0.500000
vt 0.562500 1.000000
vt 0.562500 0.500000
vt 0.531250 1.000000
vt 0.531250 0.500000
vt 0.500000 1.000000
vt 0.500000 0.500000
vt 0.468750 1.000000
vt 0.468750 0.500000
vt 0.437500 1.000000
vt 0.437500 0.500000
vt 0.406250 1.000000
vt 0.406250 0.500000
vt 0.375000 1.000000
vt 0.375000 0.500000
vt 0.343750 1.000000
vt 0.343750 0.500000
vt 0.312500 1.000000
vt 0.312500 0.500000
vt 0.281250 1.000000
vt 0.281250 0.500000
vt 0.250000 1.000000
vt 0.250000 0.500000
vt 0.218750 1.000000
vt 0.218750 0.500000
vt 0.187500 1.000000
vt 0.187500 0.500000
vt 0.156250 1.000000
vt 0.156250 0.500000
vt 0.125000 1.000000
vt 0.125000 0.500000
vt 0.093750 1.000000
vt 0.093750 0.500000
vt 0.062500 1.000000
vt 0.062500 0.500000
vt 0.296822 0.485388
vt 0.250000 0.490000
vt 0.203178 0.485388
vt 0.158156 0.471731
vt 0.116663 0.449553
vt 0.080294 0.419706
vt 0.050447 0.383337
vt 0.028269 0.341844
vt 0.014612 0.296822
vt 0.010000 0.250000
vt 0.014612 0.203178
vt 0.028269 0.158156
vt 0.050447 0.116663
vt 0.080294 0.080294
vt 0.116663 0.050447
vt 0.158156 0.028269
vt 0.203178 0.014612
vt 0.250000 0.010000
vt 0.296822 0.014612
vt 0.341844 0.028269
vt 0.383337 0.050447
vt 0.419706 0.080294
vt 0.449553 0.116663
vt 0.471731 0.158156
vt 0.485388 0.203178
vt 0.490000 0.250000
vt 0.485388 0.296822
vt 0.471731 0.341844
vt 0.449553 0.383337
vt 0.419706 0.419706
vt 0.383337 0.449553
vt 0.341844 0.471731
vt 0.031250 1.000000
vt 0.031250 0.500000
vt 0.000000 1.000000
vt 0.000000 0.500000
vt 0.750000 0.490000
vt 0.796822 0.485388
vt 0.841844 0.471731
vt 0.883337 0.449553
vt 0.919706 0.419706
vt 0.949553 0.383337
vt 0.971731 0.341844
vt 0.985388 0.296822
vt 0.990000 0.250000
vt 0.985388 0.203178
vt 0.971731 0.158156
vt 0.949553 0.116663
vt 0.919706 0.080294
vt 0.883337 0.050447
vt 0.841844 0.028269
vt 0.796822 0.014612
vt 0.750000 0.010000
vt 0.703178 0.014612
vt 0.658156 0.028269
vt 0.616663 0.050447
vt 0.580294 0.080294
vt 0.550447 0.116663
vt 0.528269 0.158156
vt 0.514612 0.203178
vt 0.510000 0.250000
vt 0.514612 0.296822
vt 0.528269 0.341844
vt 0.550447 0.383337
vt 0.580294 0.419706
vt 0.616663 0.449553
vt 0.658156 0.471731
vt 0.703178 0.485388
vt 0.375000 0.000000
vt 0.625000 0.000000
vt 0.625000 0.250000
vt 0.375000 0.250000
vt 0.625000 0.750000
vt 0.375000 0.750000
vt 0.125000 0.750000
vt 0.875000 0.750000
s 1
usemtl Material.001
f 1/1/1 2/2/1 4/3/1 3/4/1
f 3/4/2 4/3/2 6/5/2 5/6/2
f 5/6/3 6/5/3 8/7/3 7/8/3
f 7/8/4 8/7/4 10/9/4 9/10/4
f 9/10/5 10/9/5 12/11/5 11/12/5
f 11/12/6 12/11/6 14/13/6 13/14/6
f 13/14/7 14/13/7 16/15/7 15/16/7
f 15/16/8 16/15/8 18/17/8 17/18/8
f 17/18/9 18/17/9 20/19/9 19/20/9
f 19/20/10 20/19/10 22/21/10 21/22/10
f 21/22/11 22/21/11 24/23/11 23/24/11
f 23/24/12 24/23/12 26/25/12 25/26/12
f 25/26/13 26/25/13 28/27/13 27/28/13
f 27/28/14 28/27/14 30/29/14 29/30/14
f 29/30/15 30/29/15 32/31/15 31/32/15
f 31/32/16 32/31/16 34/33/16 33/34/16
f 33/34/17 34/33/17 36/35/17 35/36/17
f 35/36/18 36/35/18 38/37/18 37/38/18
f 37/38/19 38/37/19 40/39/19 39/40/19
f 39/40/20 40/39/20 42/41/20 41/42/20
f 41/42/21 42/41/21 44/43/21 43/44/21
f 43/44/22 44/43/22 46/45/22 45/46/22
f 45/46/23 46/45/23 48/47/23 47/48/23
f 47/48/24 48/47/24 50/49/24 49/50/24
f 49/50/25 50/49/25 52/51/25 51/52/25
f 51/52/26 52/51/26 54/53/26 53/54/26
f 53/54/27 54/53/27 56/55/27 55/56/27
f 55/56/28 56/55/28 58/57/28 57/58/28
f 57/58/29 58/57/29 60/59/29 59/60/29
f 59/60/30 60/59/30 62/61/30 61/62/30
f 4/63/31 2/64/31 64/65/31 62/66/31 60/67/31 58/68/31 56/69/31 54/70/31 52/71/31 50/72/31 48/73/31 46/74/31 44/75/31 42/76/31 40/77/31 38/78/31 36/79/31 34/80/31 32/81/31 30/82/31 28/83/31 26/84/31 24/85/31 22/86/31 20/87/31 18/88/31 16/89/31 14/90/31 12/91/31 10/92/31 8/93/31 6/94/31
f 61/62/32 62/61/32 64/95/32 63/96/32
f 63/96/33 64/95/33 2/97/33 1/98/33
f 128/95/34 126/61/34 61/62/34 63/96/34
f 65/1/35 66/2/35 68/3/35 67/4/35
f 67/4/36 68/3/36 70/5/36 69/6/36
f 69/6/37 70/5/37 72/7/37 71/8/37
f 71/8/38 72/7/38 74/9/38 73/10/38
f 73/10/39 74/9/39 76/11/39 75/12/39
f 75/12/40 76/11/40 78/13/40 77/14/40
f 77/14/41 78/13/41 80/15/41 79/16/41
f 79/16/42 80/15/42 82/17/42 81/18/42
f 81/18/43 82/17/43 84/19/43 83/20/43
f 83/20/44 84/19/44 86/21/44 85/22/44
f 85/22/45 86/21/45 88/23/45 87/24/45
f 87/24/46 88/23/46 90/25/46 89/26/46
f 89/26/47 90/25/47 92/27/47 91/28/47
f 91/28/48 92/27/48 94/29/48 93/30/48
f 93/30/49 94/29/49 96/31/49 95/32/49
f 95/32/50 96/31/50 98/33/50 97/34/50
f 97/34/51 98/33/51 100/35/51 99/36/51
f 99/36/52 100/35/52 102/37/52 101/38/52
f 101/38/53 102/37/53 104/39/53 103/40/53
f 103/40/54 104/39/54 106/41/54 105/42/54
f 105/42/55 106/41/55 108/43/55 107/44/55
f 107/44/56 108/43/56 110/45/56 109/46/56
f 109/46/57 110/45/57 112/47/57 111/48/57
f 111/48/58 112/47/58 114/49/58 113/50/58
f 113/50/59 114/49/59 116/51/59 115/52/59
f 115/52/60 116/51/60 118/53/60 117/54/60
f 117/54/61 118/53/61 120/55/61 119/56/61
f 119/56/62 120/55/62 122/57/62 121/58/62
f 121/58/63 122/57/63 124/59/63 123/60/63
f 123/60/64 124/59/64 126/61/64 125/62/64
f 66/97/65 128/95/65 63/96/65 1/98/65
f 125/62/66 126/61/66 128/95/66 127/96/66
f 127/96/67 128/95/67 66/97/67 65/98/67
f 65/99/68 67/100/68 69/101/68 71/102/68 73/103/68 75/104/68 77/105/68 79/106/68 81/107/68 83/108/68 85/109/68 87/110/68 89/111/68 91/112/68 93/113/68 95/114/68 97/115/68 99/116/68 101/117/68 103/118/68 105/119/68 107/120/68 109/121/68 111/122/68 113/123/68 115/124/68 117/125/68 119/126/68 121/127/68 123/128/68 125/129/68 127/130/68
f 126/61/69 124/59/69 59/60/69 61/62/69
f 124/59/70 122/57/70 57/58/70 59/60/70
f 122/57/71 120/55/71 55/56/71 57/58/71
f 120/55/72 118/53/72 53/54/72 55/56/72
f 118/53/73 116/51/73 51/52/73 53/54/73
f 116/51/74 114/49/74 49/50/74 51/52/74
f 114/49/75 112/47/75 47/48/75 49/50/75
f 112/47/76 110/45/76 45/46/76 47/48/76
f 110/45/77 108/43/77 43/44/77 45/46/77
f 108/43/78 106/41/78 41/42/78 43/44/78
f 106/41/79 104/39/79 39/40/79 41/42/79
f 104/39/80 102/37/80 37/38/80 39/40/80
f 102/37/81 100/35/81 35/36/81 37/38/81
f 100/35/82 98/33/82 33/34/82 35/36/82
f 98/33/83 96/31/83 31/32/83 33/34/83
f 96/31/84 94/29/84 29/30/84 31/32/84
f 94/29/85 92/27/85 27/28/85 29/30/85
f 92/27/86 90/25/86 25/26/86 27/28/86
f 90/25/87 88/23/87 23/24/87 25/26/87
f 88/23/88 86/21/88 21/22/88 23/24/88
f 86/21/89 84/19/89 19/20/89 21/22/89
f 84/19/90 82/17/90 17/18/90 19/20/90
f 82/17/91 80/15/91 15/16/91 17/18/91
f 80/15/92 78/13/92 13/14/92 15/16/92
f 78/13/93 76/11/93 11/12/93 13/14/93
f 76/11/94 74/9/94 9/10/94 11/12/94
f 74/9/95 72/7/95 7/8/95 9/10/95
f 72/7/96 70/5/96 5/6/96 7/8/96
f 70/5/97 68/3/97 3/4/97 5/6/97
f 68/3/98 66/2/98 1/1/98 3/4/98
f 129/1/1 130/2/1 132/3/1 131/4/1
f 131/4/2 132/3/2 134/5/2 133/6/2
f 133/6/3 134/5/3 136/7/3 135/8/3
f 135/8/4 136/7/4 138/9/4 137/10/4
f 137/10/5 138/9/5 140/11/5 139/12/5
f 139/12/6 140/11/6 142/13/6 141/14/6
f 141/14/7 142/13/7 144/15/7 143/16/7
f 143/16/8 144/15/8 146/17/8 145/18/8
f 145/18/9 146/17/9 148/19/9 147/20/9
f 147/20/10 148/19/10 150/21/10 149/22/10
f 149/22/11 150/21/11 152/23/11 151/24/11
f 151/24/12 152/23/12 154/25/12 153/26/12
f 153/26/99 154/25/99 156/27/99 155/28/99
f 155/28/14 156/27/14 158/29/14 157/30/14
f 157/30/15 158/29/15 160/31/15 159/32/15
f 159/32/16 160/31/16 162/33/16 161/34/16
f 161/34/17 162/33/17 164/35/17 163/36/17
f 163/36/18 164/35/18 166/37/18 165/38/18
f 165/38/19 166/37/19 168/39/19 167/40/19
f 167/40/20 168/39/20 170/41/20 169/42/20
f 169/42/21 170/41/21 172/43/21 171/44/21
f 171/44/22 172/43/22 174/45/22 173/46/22
f 173/46/23 174/45/23 176/47/23 175/48/23
f 175/48/24 176/47/24 178/49/24 177/50/24
f 177/50/25 178/49/25 180/51/25 179/52/25
f 179/52/26 180/51/26 182/53/26 181/54/26
f 181/54/27 182/53/27 184/55/27 183/56/27
f 183/56/28 184/55/28 186/57/28 185/58/28
f 185/58/29 186/57/29 188/59/29 187/60/29
f 187/60/30 188/59/30 190/61/30 189/62/30
f 132/63/31 130/64/31 192/65/31 190/66/31 188/67/31 186/68/31 184/69/31 182/70/31 180/71/31 178/72/31 176/73/31 174/74/31 172/75/31 170/76/31 168/77/31 166/78/31 164/79/31 162/80/31 160/81/31 158/82/31 156/83/31 154/84/31 152/85/31 150/86/31 148/87/31 146/88/31 144/89/31 142/90/31 140/91/31 138/92/31 136/93/31 134/94/31
f 189/62/32 190/61/32 192/95/32 191/96/32
f 191/96/33 192/95/33 130/97/33 129/98/33
f 256/95/34 254/61/34 189/62/34 191/96/34
f 193/1/35 194/2/35 196/3/35 195/4/35
f 195/4/36 196/3/36 198/5/36 197/6/36
f 197/6/37 198/5/37 200/7/37 199/8/37
f 199/8/38 200/7/38 202/9/38 201/10/38
f 201/10/39 202/9/39 204/11/39 203/12/39
f 203/12/40 204/11/40 206/13/40 205/14/40
f 205/14/41 206/13/41 208/15/41 207/16/41
f 207/16/42 208/15/42 210/17/42 209/18/42
f 209/18/43 210/17/43 212/19/43 211/20/43
f 211/20/44 212/19/44 214/21/44 213/22/44
f 213/22/45 214/21/45 216/23/45 215/24/45
f 215/24/46 216/23/46 218/25/46 217/26/46
f 217/26/47 218/25/47 220/27/47 219/28/47
f 219/28/48 220/27/48 222/29/48 221/30/48
f 221/30/49 222/29/49 224/31/49 223/32/49
f 223/32/50 224/31/50 226/33/50 225/34/50
f 225/34/51 226/33/51 228/35/51 227/36/51
f 227/36/52 228/35/52 230/37/52 229/38/52
f 229/38/53 230/37/53 232/39/53 231/40/53
f 231/40/54 232/39/54 234/41/54 233/42/54
f 233/42/55 234/41/55 236/43/55 235/44/55
f 235/44/56 236/43/56 238/45/56 237/46/56
f 237/46/57 238/45/57 240/47/57 239/48/57
f 239/48/58 240/47/58 242/49/58 241/50/58
f 241/50/59 242/49/59 244/51/59 243/52/59
f 243/52/60 244/51/60 246/53/60 245/54/60
f 245/54/61 246/53/61 248/55/61 247/56/61
f 247/56/62 248/55/62 250/57/62 249/58/62
f 249/58/63 250/57/63 252/59/63 251/60/63
f 251/60/64 252/59/64 254/61/64 253/62/64
f 194/97/100 256/95/100 191/96/100 129/98/100
f 253/62/66 254/61/66 256/95/66 255/96/66
f 255/96/67 256/95/67 194/97/67 193/98/67
f 193/99/68 195/100/68 197/101/68 199/102/68 201/103/68 203/104/68 205/105/68 207/106/68 209/107/68 211/108/68 213/109/68 215/110/68 217/111/68 219/112/68 221/113/68 223/114/68 225/115/68 227/116/68 229/117/68 231/118/68 233/119/68 235/120/68 237/121/68 239/122/68 241/123/68 243/124/68 245/125/68 247/126/68 249/127/68 251/128/68 253/129/68 255/130/68
f 254/61/69 252/59/69 187/60/69 189/62/69
f 252/59/70 250/57/70 185/58/70 187/60/70
f 250/57/71 248/55/71 183/56/71 185/58/71
f 248/55/72 246/53/72 181/54/72 183/56/72
f 246/53/73 244/51/73 179/52/73 181/54/73
f 244/51/74 242/49/74 177/50/74 179/52/74
f 242/49/75 240/47/75 175/48/75 177/50/75
f 240/47/101 238/45/101 173/46/101 175/48/101
f 238/45/102 236/43/102 171/44/102 173/46/102
f 236/43/78 234/41/78 169/42/78 171/44/78
f 234/41/79 232/39/79 167/40/79 169/42/79
f 232/39/80 230/37/80 165/38/80 167/40/80
f 230/37/103 228/35/103 163/36/103 165/38/103
f 228/35/104 226/33/104 161/34/104 163/36/104
f 226/33/105 224/31/105 159/32/105 161/34/105
f 224/31/106 222/29/106 157/30/106 159/32/106
f 222/29/107 220/27/107 155/28/107 157/30/107
f 220/27/86 218/25/86 153/26/86 155/28/86
f 218/25/87 216/23/87 151/24/87 153/26/87
f 216/23/88 214/21/88 149/22/88 151/24/88
f 214/21/108 212/19/108 147/20/108 149/22/108
f 212/19/90 210/17/90 145/18/90 147/20/90
f 210/17/91 208/15/91 143/16/91 145/18/91
f 208/15/92 206/13/92 141/14/92 143/16/92
f 206/13/93 204/11/93 139/12/93 141/14/93
f 204/11/94 202/9/94 137/10/94 139/12/94
f 202/9/95 200/7/95 135/8/95 137/10/95
f 200/7/96 198/5/96 133/6/96 135/8/96
f 198/5/97 196/3/97 131/4/97 133/6/97
f 196/3/109 194/2/109 129/1/109 131/4/109
f 257/131/110 258/132/110 260/133/110 259/134/110
f 259/134/111 260/133/111 264/26/111 263/42/111
f 263/42/112 264/26/112 262/135/112 261/136/112
f 261/136/68 262/135/68 258/25/68 257/41/68
f 259/58/113 263/42/113 261/136/113 257/137/113
f 264/26/114 260/10/114 258/138/114 262/135/114
