# This file uses centimeters as units for non-parametric coordinates.

mtllib Rund Låda 1.mtl
g default
v -1.020274 0.157801 -0.245780
v -0.980278 0.197797 -0.245780
v -0.560270 0.197797 -0.245780
v -0.520274 0.157801 -0.245780
v -1.020274 -0.162207 -0.245780
v -0.980278 -0.202203 -0.245780
v -0.560270 -0.202203 -0.245780
v -0.520274 -0.162207 -0.245780
v -0.980278 -0.202203 -0.221080
v -1.020274 -0.162207 -0.221080
v -1.020274 0.157801 -0.221080
v -0.980278 0.197797 -0.221080
v -0.560270 0.197797 -0.221080
v -0.520274 0.157801 -0.221080
v -0.520274 -0.162207 -0.221080
v -0.560270 -0.202203 -0.221080
v -1.020274 -0.202007 -0.221080
v -1.020274 -0.202007 -0.245780
v -0.520274 -0.202007 -0.221080
v -0.520274 -0.202007 -0.245780
v -0.520274 0.197601 -0.221080
v -0.520274 0.197601 -0.245780
v -1.020274 0.197601 -0.221080
v -1.020274 0.197601 -0.245780
v -0.988271 -0.141724 -0.221080
v -0.953395 -0.176600 -0.221080
v -0.988271 0.137318 -0.221080
v -0.953395 0.172194 -0.221080
v -0.587154 0.172194 -0.221080
v -0.552278 0.137318 -0.221080
v -0.552278 -0.141724 -0.221080
v -0.587154 -0.176600 -0.221080
v -0.953395 0.172194 -0.245780
v -0.587154 0.172194 -0.245780
v -0.587154 -0.176600 -0.245780
v -0.953395 -0.176600 -0.245780
v -0.552278 -0.141724 -0.245780
v -0.552278 0.137318 -0.245780
v -0.988271 -0.141724 -0.245780
v -0.988271 0.137318 -0.245780
v -0.871085 -0.098211 -0.178569
v -0.890284 -0.079011 -0.178569
v -0.890284 0.074605 -0.178569
v -0.871085 0.093805 -0.178569
v -0.669464 0.093805 -0.178569
v -0.650265 0.074605 -0.178569
v -0.650265 -0.079011 -0.178569
v -0.669464 -0.098211 -0.178569
v -0.669464 -0.098211 -0.198821
v -0.650265 -0.079011 -0.198821
v -0.650265 0.074605 -0.198821
v -0.669464 0.093805 -0.198821
v -0.890284 -0.079011 -0.198821
v -0.871085 -0.098211 -0.198821
v -0.871085 0.093805 -0.198821
v -0.890284 0.074605 -0.198821
v -1.020274 0.157801 0.251089
v -0.980278 0.197797 0.251089
v -0.560270 0.197797 0.251089
v -0.520274 0.157801 0.251089
v -1.020274 -0.162207 0.251089
v -0.980278 -0.202203 0.251089
v -0.560270 -0.202203 0.251089
v -0.520274 -0.162207 0.251089
v -0.980278 -0.202203 0.275790
v -1.020274 -0.162207 0.275790
v -1.020274 0.157801 0.275790
v -0.980278 0.197797 0.275790
v -0.560270 0.197797 0.275790
v -0.520274 0.157801 0.275790
v -0.520274 -0.162207 0.275790
v -0.560270 -0.202203 0.275790
v -1.020274 -0.202007 0.275790
v -1.020274 -0.202007 0.251089
v -0.520274 -0.202007 0.275790
v -0.520274 -0.202007 0.251089
v -0.520274 0.197601 0.275790
v -0.520274 0.197601 0.251089
v -1.020274 0.197601 0.275790
v -1.020274 0.197601 0.251089
v -0.988271 -0.141724 0.275790
v -0.953395 -0.176600 0.275790
v -0.988271 0.137318 0.275790
v -0.953395 0.172194 0.275790
v -0.587154 0.172194 0.275790
v -0.552278 0.137318 0.275790
v -0.552278 -0.141724 0.275790
v -0.587154 -0.176600 0.275790
v -0.953395 0.172194 0.251089
v -0.587154 0.172194 0.251089
v -0.587154 -0.176600 0.251089
v -0.953395 -0.176600 0.251089
v -0.552278 -0.141724 0.251089
v -0.552278 0.137318 0.251089
v -0.988271 -0.141724 0.251089
v -0.988271 0.137318 0.251089
v -0.871085 -0.098211 0.228831
v -0.890284 -0.079011 0.228831
v -0.890284 0.074605 0.228831
v -0.871085 0.093805 0.228831
v -0.669464 0.093805 0.228831
v -0.650265 0.074605 0.228831
v -0.650265 -0.079011 0.228831
v -0.669464 -0.098211 0.228831
v -0.669464 -0.098211 0.208578
v -0.650265 -0.079011 0.208578
v -0.650265 0.074605 0.208578
v -0.669464 0.093805 0.208578
v -0.890284 -0.079011 0.208578
v -0.871085 -0.098211 0.208578
v -0.871085 0.093805 0.208578
v -0.890284 0.074605 0.208578
v -0.669890 -0.147168 -0.180941
v -0.858706 -0.147168 -0.180941
v -0.953115 -0.000000 -0.180941
v -0.858706 0.147168 -0.180941
v -0.669890 0.147168 -0.180941
v -0.575482 -0.000000 -0.180941
v -0.669890 -0.147168 -0.210738
v -0.858706 -0.147168 -0.210738
v -0.953115 -0.000000 -0.210738
v -0.858706 0.147168 -0.210738
v -0.669890 0.147168 -0.210738
v -0.575482 -0.000000 -0.210738
v -0.858707 -0.147168 0.210430
v -0.669890 -0.147168 0.210430
v -0.575482 -0.000000 0.210430
v -0.669890 0.147168 0.210430
v -0.858707 0.147168 0.210430
v -0.953115 -0.000000 0.210430
v -0.858707 -0.147168 0.240227
v -0.669890 -0.147168 0.240227
v -0.575482 -0.000000 0.240227
v -0.669890 0.147168 0.240227
v -0.858707 0.147168 0.240227
v -0.953115 0.000000 0.240227
v -0.666432 -0.152558 -0.180941
v -0.862164 -0.152558 -0.180941
v -0.862164 -0.152558 -0.210738
v -0.666432 -0.152558 -0.210738
v -0.960030 -0.000000 -0.180941
v -0.960030 -0.000000 -0.210738
v -0.862164 0.152558 -0.180941
v -0.862164 0.152558 -0.210738
v -0.666432 0.152558 -0.180941
v -0.666432 0.152558 -0.210738
v -0.568566 -0.000000 -0.180941
v -0.568566 -0.000000 -0.210738
v -0.862164 -0.152558 0.210430
v -0.666432 -0.152558 0.210430
v -0.666432 -0.152558 0.240227
v -0.862164 -0.152558 0.240227
v -0.568566 -0.000000 0.210430
v -0.568566 -0.000000 0.240227
v -0.666432 0.152558 0.210430
v -0.666432 0.152558 0.240227
v -0.862164 0.152558 0.210430
v -0.862164 0.152558 0.240227
v -0.960030 -0.000000 0.210430
v -0.960030 0.000000 0.240227
v -0.669890 -0.147168 -0.233359
v -0.858706 -0.147168 -0.233359
v -0.764298 -0.000000 -0.233359
v -0.953115 -0.000000 -0.233359
v -0.858706 0.147168 -0.233359
v -0.669890 0.147168 -0.233359
v -0.575482 -0.000000 -0.233359
v -0.858707 -0.147168 0.262847
v -0.669890 -0.147168 0.262847
v -0.764298 0.000000 0.262847
v -0.575482 -0.000000 0.262847
v -0.669890 0.147168 0.262847
v -0.858707 0.147168 0.262847
v -0.953115 0.000000 0.262847
vt 0.375000 0.766665
vt 0.625000 0.766665
vt 0.375000 0.483335
vt 0.392220 0.476431
vt 0.614675 0.473972
vt 0.607521 0.760131
vt 0.385120 0.733873
vt 0.858335 0.024998
vt 0.858335 0.225002
vt 0.141665 0.024998
vt 0.141665 0.225002
vt 0.625000 0.483335
vt 0.393026 0.765313
vt 0.375000 0.771811
vt 0.146811 0.024998
vt 0.375000 0.478189
vt 0.146811 0.225002
vt 0.394855 0.478250
vt 0.605043 0.478162
vt 0.625000 0.478189
vt 0.853189 0.225002
vt 0.625000 0.771811
vt 0.853189 0.024998
vt 0.605377 0.769890
vt 0.375000 0.771811
vt 0.375000 0.766665
vt 0.625000 0.771811
vt 0.625000 0.766665
vt 0.625000 0.478189
vt 0.625000 0.483335
vt 0.375000 0.478189
vt 0.375000 0.483335
vt 0.260905 0.398404
vt 0.393026 0.765313
vt 0.260905 0.351596
vt 0.394855 0.478250
vt 0.605043 0.478162
vt 0.739095 0.351596
vt 0.739094 0.398404
vt 0.605377 0.769890
vt 0.392220 0.476431
vt 0.614675 0.473972
vt 0.607521 0.760131
vt 0.385120 0.733873
vt 0.625000 0.766665
vt 0.858335 0.225002
vt 0.141665 0.024998
vt 0.375000 0.483335
vt 0.000000 0.000000
vt 1.000000 0.000000
vt 1.000000 1.000000
vt 0.000000 1.000000
vt 0.000000 0.000000
vt 1.000000 0.000000
vt 1.000000 1.000000
vt 0.000000 1.000000
vt 0.000000 0.000000
vt 1.000000 0.000000
vt 1.000000 1.000000
vt 0.000000 1.000000
vt 0.000000 0.000000
vt 1.000000 0.000000
vt 1.000000 1.000000
vt 0.000000 1.000000
vt 0.000000 0.000000
vt 1.000000 0.000000
vt 1.000000 1.000000
vt 0.000000 1.000000
vt 0.000000 0.000000
vt 1.000000 0.000000
vt 1.000000 1.000000
vt 0.000000 1.000000
vt 0.000000 0.000000
vt 1.000000 0.000000
vt 1.000000 1.000000
vt 0.000000 1.000000
vt 0.000000 0.000000
vt 1.000000 0.000000
vt 1.000000 1.000000
vt 0.000000 1.000000
vt 0.000000 0.000000
vt 1.000000 0.000000
vt 1.000000 1.000000
vt 0.000000 1.000000
vt 0.000000 0.000000
vt 1.000000 0.000000
vt 1.000000 1.000000
vt 0.000000 1.000000
vt 0.000000 0.000000
vt 1.000000 0.000000
vt 1.000000 1.000000
vt 0.000000 1.000000
vt 0.000000 0.000000
vt 1.000000 0.000000
vt 1.000000 1.000000
vt 0.000000 1.000000
vt 0.000000 0.000000
vt 1.000000 0.000000
vt 1.000000 1.000000
vt 0.000000 1.000000
vt 0.000000 0.000000
vt 1.000000 0.000000
vt 1.000000 1.000000
vt 0.000000 1.000000
vt 0.000000 0.000000
vt 1.000000 0.000000
vt 1.000000 1.000000
vt 0.000000 1.000000
vt 0.000000 0.000000
vt 1.000000 0.000000
vt 1.000000 1.000000
vt 0.000000 1.000000
vt 0.393026 0.765313
vt 0.375000 0.771811
vt 0.375000 0.766665
vt 0.385120 0.733873
vt 0.607521 0.760131
vt 0.605377 0.769890
vt 0.625000 0.771811
vt 0.625000 0.766665
vt 0.853189 0.225002
vt 0.853189 0.024998
vt 0.858335 0.024998
vt 0.858335 0.225002
vt 0.605043 0.478162
vt 0.625000 0.478189
vt 0.625000 0.483335
vt 0.614675 0.473972
vt 0.141665 0.024998
vt 0.146811 0.024998
vt 0.146811 0.225002
vt 0.141665 0.225002
vt 0.375000 0.771811
vt 0.375000 0.766665
vt 0.625000 0.771811
vt 0.625000 0.766665
vt 0.625000 0.478189
vt 0.625000 0.483335
vt 0.375000 0.478189
vt 0.394855 0.478250
vt 0.375000 0.478189
vt 0.392220 0.476431
vt 0.375000 0.483335
vt 0.375000 0.483335
vt 0.393026 0.765313
vt 0.260905 0.398404
vt 0.260905 0.351596
vt 0.394855 0.478250
vt 0.605043 0.478162
vt 0.739095 0.351596
vt 0.739094 0.398404
vt 0.605377 0.769890
vt 0.614675 0.473972
vt 0.392220 0.476431
vt 0.385120 0.733873
vt 0.607521 0.760131
vt 0.625000 0.766665
vt 0.858335 0.225002
vt 0.141665 0.024998
vt 0.375000 0.483335
vt 0.000000 0.000000
vt 1.000000 0.000000
vt 1.000000 1.000000
vt 0.000000 1.000000
vt 0.000000 0.000000
vt 1.000000 0.000000
vt 1.000000 1.000000
vt 0.000000 1.000000
vt 0.000000 0.000000
vt 1.000000 0.000000
vt 1.000000 1.000000
vt 0.000000 1.000000
vt 0.000000 0.000000
vt 1.000000 0.000000
vt 1.000000 1.000000
vt 0.000000 1.000000
vt 0.000000 0.000000
vt 1.000000 0.000000
vt 1.000000 1.000000
vt 0.000000 1.000000
vt 0.000000 0.000000
vt 1.000000 0.000000
vt 1.000000 1.000000
vt 0.000000 1.000000
vt 0.000000 0.000000
vt 1.000000 0.000000
vt 1.000000 1.000000
vt 0.000000 1.000000
vt 0.000000 0.000000
vt 1.000000 0.000000
vt 1.000000 1.000000
vt 0.000000 1.000000
vt 0.000000 0.000000
vt 1.000000 0.000000
vt 1.000000 1.000000
vt 0.000000 1.000000
vt 0.000000 0.000000
vt 1.000000 0.000000
vt 1.000000 1.000000
vt 0.000000 1.000000
vt 0.000000 0.000000
vt 1.000000 0.000000
vt 1.000000 1.000000
vt 0.000000 1.000000
vt 0.000000 0.000000
vt 1.000000 0.000000
vt 1.000000 1.000000
vt 0.000000 1.000000
vt 0.000000 0.000000
vt 1.000000 0.000000
vt 1.000000 1.000000
vt 0.000000 1.000000
vt 0.000000 0.000000
vt 1.000000 0.000000
vt 1.000000 1.000000
vt 0.000000 1.000000
vt 0.000000 0.000000
vt 1.000000 0.000000
vt 1.000000 1.000000
vt 0.000000 1.000000
vt 0.000000 0.000000
vt 1.000000 0.000000
vt 1.000000 1.000000
vt 0.000000 1.000000
vt 0.578125 0.979066
vt 0.421875 0.979066
vt 0.500000 0.843750
vt 0.343750 0.843750
vt 0.421875 0.708434
vt 0.578125 0.708434
vt 0.656250 0.843750
vt 0.578125 0.979066
vt 0.421875 0.979066
vt 0.421875 0.979066
vt 0.578125 0.979066
vt 0.343750 0.843750
vt 0.343750 0.843750
vt 0.421875 0.708434
vt 0.421875 0.708434
vt 0.578125 0.708434
vt 0.578125 0.708434
vt 0.656250 0.843750
vt 0.656250 0.843750
vt 0.578125 0.979066
vt 0.421875 0.979066
vt 0.500000 0.843750
vt 0.343750 0.843750
vt 0.421875 0.708434
vt 0.578125 0.708434
vt 0.656250 0.843750
vt 0.577991 0.978880
vt 0.421970 0.978858
vt 0.421875 0.979066
vt 0.578125 0.979066
vt 0.343978 0.843728
vt 0.343750 0.843750
vt 0.421997 0.708640
vt 0.421875 0.708434
vt 0.578016 0.708622
vt 0.578125 0.708434
vt 0.656020 0.843770
vt 0.656250 0.843750
vt 0.000000 0.000000
vt 1.000000 0.000000
vt 0.998950 1.035572
vt 0.001398 1.035631
vt 0.000000 0.000000
vt 1.000000 0.000000
vt 0.998950 1.035572
vt 0.001398 1.035631
vt 0.000000 0.000000
vt 1.000000 0.000000
vt 0.998951 1.035572
vt 0.001399 1.035631
vt 0.000000 0.000000
vt 1.000000 0.000000
vt 0.998602 1.035631
vt 0.001049 1.035572
vt 0.000000 0.000000
vt 1.000000 0.000000
vt 0.998951 1.035572
vt 0.001399 1.035631
vt 0.000000 0.000000
vt 1.000000 0.000000
vt 0.998951 1.035572
vt 0.001398 1.035631
vt 0.578125 0.979066
vt 0.421875 0.979066
vt 0.421875 0.979066
vt 0.578125 0.979066
vt 0.343750 0.843750
vt 0.343750 0.843750
vt 0.421875 0.708434
vt 0.421875 0.708434
vt 0.578125 0.708434
vt 0.578125 0.708434
vt 0.656250 0.843750
vt 0.656250 0.843750
vt 0.577991 0.978880
vt 0.421970 0.978858
vt 0.421875 0.979066
vt 0.578125 0.979066
vt 0.343978 0.843728
vt 0.343750 0.843750
vt 0.421997 0.708640
vt 0.421875 0.708434
vt 0.578016 0.708622
vt 0.578125 0.708434
vt 0.656020 0.843770
vt 0.656250 0.843750
vn -0.004898 -0.999988 0.000000
vn -0.004898 -0.999988 0.000000
vn -0.004898 -0.999988 0.000000
vn -0.004898 -0.999988 0.000000
vn 0.000000 -1.000000 0.000000
vn 0.000000 -1.000000 0.000000
vn 0.000000 -1.000000 0.000000
vn 0.000000 -1.000000 0.000000
vn 0.004898 -0.999988 0.000000
vn 0.004898 -0.999988 0.000000
vn 0.004898 -0.999988 0.000000
vn 0.004898 -0.999988 0.000000
vn 1.000000 0.000000 0.000000
vn 1.000000 0.000000 0.000000
vn 1.000000 0.000000 0.000000
vn 1.000000 0.000000 0.000000
vn 0.004897 0.999988 0.000000
vn 0.004897 0.999988 0.000000
vn 0.004897 0.999988 0.000000
vn 0.004897 0.999988 0.000000
vn -1.000000 0.000000 0.000000
vn -1.000000 0.000000 0.000000
vn -1.000000 0.000000 0.000000
vn -1.000000 0.000000 0.000000
vn 0.000000 0.000000 1.000000
vn 0.000000 0.000000 1.000000
vn 0.000000 0.000000 1.000000
vn -1.000000 0.000000 0.000000
vn -1.000000 0.000000 0.000000
vn -1.000000 0.000000 0.000000
vn -1.000000 0.000000 0.000000
vn -0.000001 0.000000 -1.000000
vn -0.000001 0.000000 -1.000000
vn -0.000001 0.000000 -1.000000
vn 0.000000 0.000000 1.000000
vn 0.000000 0.000000 1.000000
vn 0.000000 0.000000 1.000000
vn 0.000001 0.000000 -1.000000
vn 0.000001 0.000000 -1.000000
vn 0.000001 0.000000 -1.000000
vn 1.000000 0.000000 0.000000
vn 1.000000 0.000000 0.000000
vn 1.000000 0.000000 0.000000
vn 1.000000 0.000000 0.000000
vn -0.000000 0.000000 1.000000
vn -0.000000 0.000000 1.000000
vn -0.000000 0.000000 1.000000
vn 1.000000 0.000000 0.000000
vn 1.000000 0.000000 0.000000
vn 1.000000 0.000000 0.000000
vn 1.000000 0.000000 0.000000
vn 0.000000 0.000000 -1.000000
vn 0.000000 0.000000 -1.000000
vn 0.000000 0.000000 -1.000000
vn 0.000000 0.000000 1.000000
vn 0.000000 0.000000 1.000000
vn 0.000000 0.000000 1.000000
vn -0.000001 0.000000 -1.000000
vn -0.000001 0.000000 -1.000000
vn -0.000001 0.000000 -1.000000
vn -1.000000 0.000000 0.000000
vn -1.000000 0.000000 0.000000
vn -1.000000 0.000000 0.000000
vn -1.000000 0.000000 0.000000
vn -0.000001 -0.000001 1.000000
vn -0.000001 -0.000001 1.000000
vn -0.000001 -0.000001 1.000000
vn -0.000001 -0.000001 1.000000
vn -0.000002 0.000000 1.000000
vn -0.000002 0.000000 1.000000
vn -0.000002 0.000000 1.000000
vn -0.000002 0.000000 1.000000
vn -0.000001 0.000001 1.000000
vn -0.000001 0.000001 1.000000
vn -0.000001 0.000001 1.000000
vn -0.000001 0.000001 1.000000
vn 0.000000 0.000002 1.000000
vn 0.000000 0.000002 1.000000
vn 0.000000 0.000002 1.000000
vn 0.000000 0.000002 1.000000
vn 0.000001 0.000001 1.000000
vn 0.000001 0.000001 1.000000
vn 0.000001 0.000001 1.000000
vn 0.000001 0.000001 1.000000
vn 0.000002 0.000000 1.000000
vn 0.000002 0.000000 1.000000
vn 0.000002 0.000000 1.000000
vn 0.000002 0.000000 1.000000
vn 0.000001 -0.000001 1.000000
vn 0.000001 -0.000001 1.000000
vn 0.000001 -0.000001 1.000000
vn 0.000001 -0.000001 1.000000
vn 0.000000 -0.000002 1.000000
vn 0.000000 -0.000002 1.000000
vn 0.000000 -0.000002 1.000000
vn 0.000000 -0.000002 1.000000
vn 0.000000 0.000000 -1.000000
vn 0.000000 0.000000 -1.000000
vn 0.000000 0.000000 -1.000000
vn 0.000000 0.000000 -1.000000
vn 0.000000 0.000000 -1.000000
vn 0.000000 0.000000 -1.000000
vn 0.000000 0.000000 -1.000000
vn 0.000000 0.000000 -1.000000
vn 0.000000 0.000000 -1.000000
vn 0.000000 0.000000 -1.000000
vn 0.000000 0.000000 -1.000000
vn 0.000000 0.000000 -1.000000
vn 0.000000 0.000000 -1.000000
vn 0.000000 0.000000 -1.000000
vn 0.000000 0.000000 -1.000000
vn 0.000000 0.000000 -1.000000
vn 0.000000 0.000000 -1.000000
vn 0.000000 0.000000 -1.000000
vn 0.000000 0.000000 -1.000000
vn 0.000000 0.000000 -1.000000
vn -0.000000 0.000000 -1.000000
vn -0.000000 0.000000 -1.000000
vn -0.000000 0.000000 -1.000000
vn -0.000000 0.000000 -1.000000
vn -0.000000 0.000000 -1.000000
vn -0.000000 0.000000 -1.000000
vn -0.000000 0.000000 -1.000000
vn -0.000000 0.000000 -1.000000
vn 0.000000 0.000000 -1.000000
vn 0.000000 0.000000 -1.000000
vn 0.000000 0.000000 -1.000000
vn 0.000000 0.000000 -1.000000
vn 0.000000 1.000000 0.000000
vn 0.000000 1.000000 0.000000
vn 0.000000 1.000000 0.000000
vn 0.000000 1.000000 0.000000
vn 1.000000 0.000000 0.000000
vn 1.000000 0.000000 0.000000
vn 1.000000 0.000000 0.000000
vn 1.000000 0.000000 0.000000
vn 0.000000 -1.000000 0.000000
vn 0.000000 -1.000000 0.000000
vn 0.000000 -1.000000 0.000000
vn 0.000000 -1.000000 0.000000
vn -1.000000 0.000000 0.000000
vn -1.000000 0.000000 0.000000
vn -1.000000 0.000000 0.000000
vn -1.000000 0.000000 0.000000
vn 0.000000 1.000000 0.000000
vn 0.000000 1.000000 0.000000
vn 0.000000 1.000000 0.000000
vn 0.000000 1.000000 0.000000
vn -0.004897 0.999988 0.000000
vn -0.004897 0.999988 0.000000
vn -0.004897 0.999988 0.000000
vn -0.004897 0.999988 0.000000
vn -0.247765 -0.247766 0.936602
vn -0.247765 -0.247766 0.936603
vn -0.247765 -0.247766 0.936603
vn -0.247765 -0.247766 0.936603
vn -0.247766 0.247766 0.936602
vn -0.247766 0.247766 0.936602
vn -0.247766 0.247766 0.936602
vn -0.247766 0.247766 0.936602
vn 0.247766 0.247766 0.936602
vn 0.247766 0.247766 0.936602
vn 0.247766 0.247766 0.936602
vn 0.247766 0.247766 0.936602
vn 0.247766 -0.247766 0.936602
vn 0.247766 -0.247766 0.936603
vn 0.247766 -0.247766 0.936603
vn 0.247766 -0.247766 0.936602
vn -0.270062 0.270063 -0.924193
vn -0.270062 0.270063 -0.924193
vn -0.270062 0.270063 -0.924193
vn -0.270062 0.270063 -0.924193
vn -0.270062 -0.270063 -0.924193
vn -0.270062 -0.270063 -0.924193
vn -0.270062 -0.270063 -0.924193
vn -0.270062 -0.270063 -0.924193
vn 0.270062 0.270062 -0.924193
vn 0.270062 0.270062 -0.924193
vn 0.270062 0.270062 -0.924193
vn 0.270062 0.270062 -0.924193
vn 0.270062 -0.270063 -0.924193
vn 0.270062 -0.270063 -0.924193
vn 0.270062 -0.270063 -0.924193
vn 0.270062 -0.270063 -0.924193
vn -0.689648 -0.724145 0.000000
vn -0.689648 -0.724145 0.000000
vn -0.689648 -0.724145 0.000000
vn -0.689648 -0.724145 0.000000
vn 0.689648 -0.724145 0.000000
vn 0.689648 -0.724145 0.000000
vn 0.689648 -0.724145 0.000000
vn 0.689648 -0.724145 0.000000
vn -0.539063 0.842265 0.000000
vn -0.539063 0.842265 0.000000
vn -0.539063 0.842265 0.000000
vn -0.539063 0.842265 0.000000
vn -0.539063 -0.842265 0.000000
vn -0.539063 -0.842265 0.000000
vn -0.539063 -0.842265 0.000000
vn -0.539063 -0.842265 0.000000
vn 0.689649 0.724144 0.000000
vn 0.689649 0.724144 0.000000
vn 0.689649 0.724144 0.000000
vn 0.689649 0.724144 0.000000
vn -0.689648 0.724145 0.000000
vn -0.689648 0.724145 0.000000
vn -0.689648 0.724145 0.000000
vn -0.689648 0.724145 0.000000
vn 0.539062 -0.842266 0.000000
vn 0.539062 -0.842266 0.000000
vn 0.539062 -0.842266 0.000000
vn 0.539062 -0.842266 0.000000
vn 0.539063 0.842266 0.000000
vn 0.539063 0.842266 0.000000
vn 0.539063 0.842266 0.000000
vn 0.539063 0.842266 0.000000
vn -0.004898 -0.999988 0.000000
vn -0.004898 -0.999988 0.000000
vn -0.004898 -0.999988 0.000000
vn -0.004898 -0.999988 0.000000
vn 0.000000 -1.000000 0.000000
vn 0.000000 -1.000000 0.000000
vn 0.000000 -1.000000 0.000000
vn 0.000000 -1.000000 0.000000
vn 0.004898 -0.999988 0.000000
vn 0.004898 -0.999988 0.000000
vn 0.004898 -0.999988 0.000000
vn 0.004898 -0.999988 0.000000
vn 1.000000 0.000000 0.000000
vn 1.000000 0.000000 0.000000
vn 1.000000 0.000000 0.000000
vn 1.000000 0.000000 0.000000
vn 0.004897 0.999988 0.000000
vn 0.004897 0.999988 0.000000
vn 0.004897 0.999988 0.000000
vn 0.004897 0.999988 0.000000
vn -1.000000 0.000000 0.000000
vn -1.000000 0.000000 0.000000
vn -1.000000 0.000000 0.000000
vn -1.000000 0.000000 0.000000
vn -0.000001 0.000000 1.000000
vn -0.000001 0.000000 1.000000
vn -0.000001 0.000000 1.000000
vn -1.000000 0.000000 0.000000
vn -1.000000 0.000000 0.000000
vn -1.000000 0.000000 0.000000
vn -1.000000 0.000000 0.000000
vn 0.000000 0.000000 -1.000000
vn 0.000000 0.000000 -1.000000
vn 0.000000 0.000000 -1.000000
vn 0.000001 0.000000 1.000000
vn 0.000001 0.000000 1.000000
vn 0.000001 0.000000 1.000000
vn 0.000000 0.000000 -1.000000
vn 0.000000 0.000000 -1.000000
vn 0.000000 0.000000 -1.000000
vn 1.000000 0.000000 0.000000
vn 1.000000 0.000000 0.000000
vn 1.000000 0.000000 0.000000
vn 1.000000 0.000000 0.000000
vn 0.000000 0.000000 1.000000
vn 0.000000 0.000000 1.000000
vn 0.000000 0.000000 1.000000
vn 1.000000 0.000000 0.000000
vn 1.000000 0.000000 0.000000
vn 1.000000 0.000000 0.000000
vn 1.000000 0.000000 0.000000
vn 0.000000 0.000000 -1.000000
vn 0.000000 0.000000 -1.000000
vn 0.000000 0.000000 -1.000000
vn 0.000000 0.000000 1.000000
vn 0.000000 0.000000 1.000000
vn 0.000000 0.000000 1.000000
vn -0.000000 0.000000 -1.000000
vn -0.000000 0.000000 -1.000000
vn -0.000000 0.000000 -1.000000
vn -1.000000 0.000000 0.000000
vn -1.000000 0.000000 0.000000
vn -1.000000 0.000000 0.000000
vn -1.000000 0.000000 0.000000
vn -0.000001 -0.000001 1.000000
vn -0.000001 -0.000001 1.000000
vn -0.000001 -0.000001 1.000000
vn -0.000001 -0.000001 1.000000
vn -0.000002 0.000000 1.000000
vn -0.000002 0.000000 1.000000
vn -0.000002 0.000000 1.000000
vn -0.000002 0.000000 1.000000
vn -0.000001 0.000001 1.000000
vn -0.000001 0.000001 1.000000
vn -0.000001 0.000001 1.000000
vn -0.000001 0.000001 1.000000
vn 0.000000 0.000002 1.000000
vn 0.000000 0.000002 1.000000
vn 0.000000 0.000002 1.000000
vn 0.000000 0.000002 1.000000
vn 0.000001 0.000001 1.000000
vn 0.000001 0.000001 1.000000
vn 0.000001 0.000001 1.000000
vn 0.000001 0.000001 1.000000
vn 0.000002 0.000000 1.000000
vn 0.000002 0.000000 1.000000
vn 0.000002 0.000000 1.000000
vn 0.000002 0.000000 1.000000
vn 0.000001 -0.000001 1.000000
vn 0.000001 -0.000001 1.000000
vn 0.000001 -0.000001 1.000000
vn 0.000001 -0.000001 1.000000
vn 0.000000 -0.000002 1.000000
vn 0.000000 -0.000002 1.000000
vn 0.000000 -0.000002 1.000000
vn 0.000000 -0.000002 1.000000
vn 0.000000 0.000000 -1.000000
vn 0.000000 0.000000 -1.000000
vn 0.000000 0.000000 -1.000000
vn 0.000000 0.000000 -1.000000
vn 0.000000 0.000000 -1.000000
vn 0.000000 0.000000 -1.000000
vn 0.000000 0.000000 -1.000000
vn 0.000000 0.000000 -1.000000
vn 0.000000 0.000000 -1.000000
vn 0.000000 0.000000 -1.000000
vn 0.000000 0.000000 -1.000000
vn 0.000000 0.000000 -1.000000
vn -0.000000 0.000000 -1.000000
vn -0.000000 0.000000 -1.000000
vn -0.000000 0.000000 -1.000000
vn -0.000000 0.000000 -1.000000
vn 0.000000 0.000000 -1.000000
vn 0.000000 0.000000 -1.000000
vn 0.000000 0.000000 -1.000000
vn 0.000000 0.000000 -1.000000
vn 0.000000 0.000000 -1.000000
vn 0.000000 0.000000 -1.000000
vn 0.000000 0.000000 -1.000000
vn 0.000000 0.000000 -1.000000
vn -0.000000 0.000000 -1.000000
vn -0.000000 0.000000 -1.000000
vn -0.000000 0.000000 -1.000000
vn -0.000000 0.000000 -1.000000
vn 0.000000 0.000000 -1.000000
vn 0.000000 0.000000 -1.000000
vn 0.000000 0.000000 -1.000000
vn 0.000000 0.000000 -1.000000
vn 0.000000 1.000000 0.000000
vn 0.000000 1.000000 0.000000
vn 0.000000 1.000000 0.000000
vn 0.000000 1.000000 0.000000
vn 1.000000 0.000000 0.000000
vn 1.000000 0.000000 0.000000
vn 1.000000 0.000000 0.000000
vn 1.000000 0.000000 0.000000
vn 0.000000 -1.000000 0.000000
vn 0.000000 -1.000000 0.000000
vn 0.000000 -1.000000 0.000000
vn 0.000000 -1.000000 0.000000
vn -1.000000 0.000000 0.000000
vn -1.000000 0.000000 0.000000
vn -1.000000 0.000000 0.000000
vn -1.000000 0.000000 0.000000
vn 0.000000 1.000000 0.000000
vn 0.000000 1.000000 0.000000
vn 0.000000 1.000000 0.000000
vn 0.000000 1.000000 0.000000
vn -0.004897 0.999988 0.000000
vn -0.004897 0.999988 0.000000
vn -0.004897 0.999988 0.000000
vn -0.004897 0.999988 0.000000
vn 0.270062 0.270063 0.924193
vn 0.270062 0.270063 0.924193
vn 0.270062 0.270063 0.924193
vn 0.270062 0.270063 0.924193
vn 0.270062 -0.270063 0.924193
vn 0.270062 -0.270063 0.924193
vn 0.270062 -0.270063 0.924193
vn 0.270062 -0.270063 0.924193
vn -0.270062 -0.270063 0.924193
vn -0.270062 -0.270063 0.924193
vn -0.270062 -0.270063 0.924193
vn -0.270062 -0.270063 0.924193
vn -0.270062 0.270063 0.924193
vn -0.270062 0.270063 0.924193
vn -0.270062 0.270063 0.924193
vn -0.270062 0.270063 0.924193
vn 0.247766 -0.247766 -0.936602
vn 0.247766 -0.247766 -0.936602
vn 0.247766 -0.247766 -0.936602
vn 0.247766 -0.247766 -0.936602
vn 0.247766 0.247767 -0.936602
vn 0.247766 0.247767 -0.936602
vn 0.247766 0.247767 -0.936602
vn 0.247766 0.247767 -0.936602
vn -0.247766 -0.247767 -0.936602
vn -0.247766 -0.247767 -0.936602
vn -0.247766 -0.247767 -0.936602
vn -0.247766 -0.247767 -0.936602
vn -0.247766 0.247767 -0.936602
vn -0.247766 0.247767 -0.936602
vn -0.247766 0.247767 -0.936602
vn -0.247766 0.247767 -0.936602
vn -0.689648 -0.724145 0.000000
vn -0.689648 -0.724145 0.000000
vn -0.689648 -0.724145 0.000000
vn -0.689648 -0.724145 0.000000
vn 0.689647 -0.724145 0.000000
vn 0.689647 -0.724145 0.000000
vn 0.689647 -0.724145 0.000000
vn 0.689647 -0.724145 0.000000
vn -0.539063 0.842265 0.000000
vn -0.539063 0.842265 0.000000
vn -0.539063 0.842265 0.000000
vn -0.539063 0.842265 0.000000
vn -0.539062 -0.842266 0.000000
vn -0.539062 -0.842266 0.000000
vn -0.539062 -0.842266 0.000000
vn -0.539062 -0.842266 0.000000
vn 0.689648 0.724145 0.000000
vn 0.689648 0.724145 0.000000
vn 0.689648 0.724145 0.000000
vn 0.689648 0.724145 0.000000
vn -0.689648 0.724145 0.000000
vn -0.689648 0.724145 0.000000
vn -0.689648 0.724145 0.000000
vn -0.689648 0.724145 0.000000
vn 0.539063 -0.842265 0.000000
vn 0.539063 -0.842265 0.000000
vn 0.539063 -0.842265 0.000000
vn 0.539063 -0.842265 0.000000
vn 0.539063 0.842265 0.000000
vn 0.539063 0.842265 0.000000
vn 0.539063 0.842265 0.000000
vn 0.539063 0.842265 0.000000
vn 0.000000 0.000000 -1.000000
vn 0.000000 0.000000 -1.000000
vn 0.000000 0.000000 -1.000000
vn 0.000000 0.000000 -1.000000
vn 0.000000 0.000000 -1.000000
vn 0.000000 0.000000 -1.000000
vn 0.000000 0.000000 -1.000000
vn 0.000000 -1.000000 0.000000
vn 0.000000 -1.000000 0.000000
vn 0.000000 -1.000000 0.000000
vn 0.000000 -1.000000 0.000000
vn -0.841697 -0.539950 0.000000
vn -0.841697 -0.539950 0.000000
vn -0.841697 -0.539950 0.000000
vn -0.841697 -0.539950 0.000000
vn -0.841698 0.539949 0.000000
vn -0.841698 0.539949 0.000000
vn -0.841698 0.539949 0.000000
vn -0.841698 0.539949 0.000000
vn 0.000000 1.000000 0.000000
vn 0.000000 1.000000 0.000000
vn 0.000000 1.000000 0.000000
vn 0.000000 1.000000 0.000000
vn 0.841698 0.539949 0.000000
vn 0.841698 0.539949 0.000000
vn 0.841698 0.539949 0.000000
vn 0.841698 0.539949 0.000000
vn 0.841698 -0.539949 0.000000
vn 0.841698 -0.539949 0.000000
vn 0.841698 -0.539949 0.000000
vn 0.841698 -0.539949 0.000000
vn 0.000000 0.000000 1.000000
vn 0.000000 0.000000 1.000000
vn -0.000000 0.000000 1.000000
vn -0.000000 0.000000 1.000000
vn -0.000000 0.000000 1.000000
vn 0.000000 0.000000 1.000000
vn 0.000000 0.000000 1.000000
vn -0.000000 -1.000000 0.000000
vn -0.000000 -1.000000 0.000000
vn -0.000000 -1.000000 0.000000
vn -0.000000 -1.000000 0.000000
vn 0.841697 -0.539950 0.000000
vn 0.841697 -0.539950 0.000000
vn 0.841697 -0.539950 0.000000
vn 0.841697 -0.539950 0.000000
vn 0.841698 0.539949 0.000000
vn 0.841698 0.539949 0.000000
vn 0.841698 0.539949 0.000000
vn 0.841698 0.539949 0.000000
vn 0.000000 1.000000 0.000000
vn 0.000000 1.000000 0.000000
vn 0.000000 1.000000 0.000000
vn 0.000000 1.000000 0.000000
vn -0.841698 0.539949 0.000000
vn -0.841698 0.539949 0.000000
vn -0.841698 0.539949 0.000000
vn -0.841698 0.539949 0.000000
vn -0.841697 -0.539949 0.000000
vn -0.841697 -0.539949 0.000000
vn -0.841697 -0.539949 0.000000
vn -0.841697 -0.539949 0.000000
vn 0.000000 -1.000000 0.000000
vn 0.000000 -1.000000 0.000000
vn 0.000000 -1.000000 0.000000
vn 0.000000 -1.000000 0.000000
vn -0.841697 -0.539950 -0.000000
vn -0.841697 -0.539950 -0.000000
vn -0.841697 -0.539950 -0.000000
vn -0.841697 -0.539950 -0.000000
vn -0.841698 0.539949 -0.000000
vn -0.841698 0.539949 -0.000000
vn -0.841698 0.539949 -0.000000
vn -0.841698 0.539949 -0.000000
vn 0.000000 1.000000 0.000000
vn 0.000000 1.000000 0.000000
vn 0.000000 1.000000 0.000000
vn 0.000000 1.000000 0.000000
vn 0.841698 0.539949 0.000000
vn 0.841698 0.539949 0.000000
vn 0.841698 0.539949 0.000000
vn 0.841698 0.539949 0.000000
vn 0.841697 -0.539950 0.000000
vn 0.841697 -0.539950 0.000000
vn 0.841697 -0.539950 0.000000
vn 0.841697 -0.539950 0.000000
vn 0.000000 0.000000 1.000000
vn 0.000000 0.000000 1.000000
vn 0.000000 0.000000 1.000000
vn 0.000000 0.000000 1.000000
vn 0.000000 0.000000 -1.000000
vn 0.000000 0.000000 -1.000000
vn 0.000000 0.000000 -1.000000
vn 0.000000 0.000000 -1.000000
vn -0.000001 0.000000 1.000000
vn -0.000001 0.000000 1.000000
vn -0.000001 0.000000 1.000000
vn -0.000001 0.000000 1.000000
vn 0.000000 0.000000 -1.000000
vn 0.000000 0.000000 -1.000000
vn 0.000000 0.000000 -1.000000
vn 0.000000 0.000000 -1.000000
vn 0.000000 0.000000 1.000000
vn 0.000000 0.000000 1.000000
vn 0.000000 0.000000 1.000000
vn 0.000000 0.000000 1.000000
vn -0.000001 0.000000 -1.000000
vn -0.000001 0.000000 -1.000000
vn -0.000001 0.000000 -1.000000
vn -0.000001 0.000000 -1.000000
vn 0.000000 0.000000 1.000000
vn 0.000000 0.000000 1.000000
vn 0.000000 0.000000 1.000000
vn 0.000000 0.000000 1.000000
vn 0.000000 0.000000 -1.000000
vn 0.000000 0.000000 -1.000000
vn 0.000000 0.000000 -1.000000
vn 0.000000 0.000000 -1.000000
vn 0.000001 0.000000 1.000000
vn 0.000001 0.000000 1.000000
vn 0.000001 0.000000 1.000000
vn 0.000001 0.000000 1.000000
vn 0.000000 0.000000 -1.000000
vn 0.000000 0.000000 -1.000000
vn 0.000000 0.000000 -1.000000
vn 0.000000 0.000000 -1.000000
vn 0.000002 0.000000 1.000000
vn 0.000002 0.000000 1.000000
vn 0.000002 0.000000 1.000000
vn 0.000002 0.000000 1.000000
vn 0.000001 0.000000 -1.000000
vn 0.000001 0.000000 -1.000000
vn 0.000001 0.000000 -1.000000
vn 0.000001 0.000000 -1.000000
vn 0.000000 0.000000 -1.000000
vn 0.000000 0.000000 -1.000000
vn 0.000000 0.000000 -1.000000
vn 0.000000 0.000000 -1.000000
vn 0.000000 0.000000 1.000000
vn 0.000000 0.000000 1.000000
vn 0.000000 0.000000 1.000000
vn 0.000000 0.000000 1.000000
vn 0.000001 0.000000 -1.000000
vn 0.000001 0.000000 -1.000000
vn 0.000001 0.000000 -1.000000
vn 0.000001 0.000000 -1.000000
vn -0.000000 0.000000 1.000000
vn -0.000000 0.000000 1.000000
vn -0.000000 0.000000 1.000000
vn -0.000000 0.000000 1.000000
vn -0.000000 0.000000 -1.000000
vn -0.000000 0.000000 -1.000000
vn -0.000000 0.000000 -1.000000
vn -0.000000 0.000000 -1.000000
vn 0.000002 0.000000 1.000000
vn 0.000002 0.000000 1.000000
vn 0.000002 0.000000 1.000000
vn 0.000002 0.000000 1.000000
vn -0.000000 0.000000 -1.000000
vn -0.000000 0.000000 -1.000000
vn -0.000000 0.000000 -1.000000
vn -0.000000 0.000000 -1.000000
vn 0.000000 0.000000 1.000000
vn 0.000000 0.000000 1.000000
vn 0.000000 0.000000 1.000000
vn 0.000000 0.000000 1.000000
vn 0.000001 0.000000 -1.000000
vn 0.000001 0.000000 -1.000000
vn 0.000001 0.000000 -1.000000
vn 0.000001 0.000000 -1.000000
vn 0.000000 0.000000 1.000000
vn 0.000000 0.000000 1.000000
vn 0.000000 0.000000 1.000000
vn 0.000000 0.000000 1.000000
vn -0.000000 0.000000 -1.000000
vn -0.000000 0.000000 -1.000000
vn -0.000000 0.000000 -1.000000
vn -0.000000 0.000000 -1.000000
vn -0.000002 0.000000 1.000000
vn -0.000002 0.000000 1.000000
vn -0.000002 0.000000 1.000000
vn -0.000002 0.000000 1.000000
vn 0.000000 -1.000000 0.000000
vn 0.000000 -1.000000 0.000000
vn 0.000000 -1.000000 0.000000
vn 0.000000 -1.000000 0.000000
vn -0.841697 -0.539949 0.000000
vn -0.841697 -0.539949 0.000000
vn -0.841697 -0.539949 0.000000
vn -0.841697 -0.539949 0.000000
vn -0.841698 0.539949 0.000000
vn -0.841698 0.539949 0.000000
vn -0.841698 0.539949 0.000000
vn -0.841698 0.539949 0.000000
vn 0.000000 1.000000 0.000000
vn 0.000000 1.000000 0.000000
vn 0.000000 1.000000 0.000000
vn 0.000000 1.000000 0.000000
vn 0.841697 0.539949 0.000000
vn 0.841697 0.539949 0.000000
vn 0.841697 0.539949 0.000000
vn 0.841697 0.539949 0.000000
vn 0.841698 -0.539949 0.000000
vn 0.841698 -0.539949 0.000000
vn 0.841698 -0.539949 0.000000
vn 0.841698 -0.539949 0.000000
vn -0.000000 -1.000000 0.000000
vn -0.000000 -1.000000 0.000000
vn -0.000000 -1.000000 0.000000
vn -0.000000 -1.000000 0.000000
vn 0.841697 -0.539950 0.000000
vn 0.841697 -0.539950 0.000000
vn 0.841697 -0.539950 0.000000
vn 0.841697 -0.539950 0.000000
vn 0.841697 0.539950 0.000000
vn 0.841697 0.539950 0.000000
vn 0.841697 0.539950 0.000000
vn 0.841697 0.539950 0.000000
vn 0.000000 1.000000 0.000000
vn 0.000000 1.000000 0.000000
vn 0.000000 1.000000 0.000000
vn 0.000000 1.000000 0.000000
vn -0.841697 0.539950 0.000000
vn -0.841697 0.539950 0.000000
vn -0.841697 0.539950 0.000000
vn -0.841697 0.539950 0.000000
vn -0.841698 -0.539949 0.000000
vn -0.841698 -0.539949 0.000000
vn -0.841698 -0.539949 0.000000
vn -0.841698 -0.539949 0.000000
s off
g pCube12
usemtl initialShadingGroup
f 9/13/1 17/25/2 18/26/3 6/7/4
f 6/7/5 7/6/6 16/24/7 9/13/8
f 19/27/9 16/24/10 7/6/11 20/28/12
f 14/21/13 15/23/14 8/8/15 4/9/16
f 13/19/17 21/29/18 22/30/19 3/5/20
f 5/10/21 10/15/22 11/17/23 1/11/24
f 9/13/25 10/14/26 17/25/27
f 10/14/28 5/1/29 18/26/30 17/25/31
f 5/1/32 6/7/33 18/26/34
f 15/22/35 16/24/36 19/27/37
f 7/6/38 8/2/39 20/28/40
f 8/2/41 15/22/42 19/27/43 20/28/44
f 13/19/45 14/20/46 21/29/47
f 14/20/48 4/12/49 22/30/50 21/29/51
f 4/12/52 3/5/53 22/30/54
f 11/16/55 12/18/56 23/31/57
f 2/4/58 1/3/59 24/32/60
f 1/3/61 11/16/62 23/31/63 24/32/64
f 10/14/65 9/13/66 26/34/67 25/33/68
f 11/17/69 10/15/70 25/33/71 27/35/72
f 12/18/73 11/16/74 27/35/75 28/36/76
f 13/19/77 12/18/78 28/36/79 29/37/80
f 14/20/81 13/19/82 29/37/83 30/38/84
f 15/23/85 14/21/86 30/38/87 31/39/88
f 16/24/89 15/22/90 31/39/91 32/40/92
f 9/13/93 16/24/94 32/40/95 26/34/96
f 2/4/97 3/5/98 34/42/99 33/41/100
f 7/6/101 6/7/102 36/44/103 35/43/104
f 8/2/105 7/6/106 35/43/107 37/45/108
f 3/5/109 4/9/110 38/46/111 34/42/112
f 4/9/113 8/2/114 37/45/115 38/46/116
f 6/7/117 5/10/118 39/47/119 36/44/120
f 5/10/121 1/3/122 40/48/123 39/47/124
f 1/3/125 2/4/126 33/41/127 40/48/128
f 26/34/129 32/40/130 35/43/131 36/44/132
f 27/35/133 25/33/134 39/47/135 40/48/136
f 29/37/137 28/36/138 33/41/139 34/42/140
f 31/39/141 30/38/142 38/46/143 37/45/144
f 3/5/145 2/4/146 12/18/147 13/19/148
f 24/32/149 23/31/150 12/18/151 2/4/152
f 25/49/153 26/50/154 41/51/155 42/52/156
f 28/53/157 27/54/158 43/55/159 44/56/160
f 30/57/161 29/58/162 45/59/163 46/60/164
f 32/61/165 31/62/166 47/63/167 48/64/168
f 37/65/169 35/66/170 49/67/171 50/68/172
f 34/69/173 38/70/174 51/71/175 52/72/176
f 36/73/177 39/74/178 53/75/179 54/76/180
f 40/77/181 33/78/182 55/79/183 56/80/184
f 35/81/185 32/82/186 48/83/187 49/84/188
f 26/85/189 36/86/190 54/87/191 41/88/192
f 39/89/193 25/90/194 42/91/195 53/92/196
f 27/93/197 40/94/198 56/95/199 43/96/200
f 33/97/201 28/98/202 44/99/203 55/100/204
f 29/101/205 34/102/206 52/103/207 45/104/208
f 38/105/209 30/106/210 46/107/211 51/108/212
f 31/109/213 37/110/214 50/111/215 47/112/216
f 65/113/217 73/114/218 74/115/219 62/116/220
f 62/116/221 63/117/222 72/118/223 65/113/224
f 75/119/225 72/118/226 63/117/227 76/120/228
f 70/121/229 71/122/230 64/123/231 60/124/232
f 69/125/233 77/126/234 78/127/235 59/128/236
f 61/129/237 66/130/238 67/131/239 57/132/240
f 65/113/241 66/133/242 73/114/243
f 66/133/244 61/134/245 74/115/246 73/114/247
f 61/134/248 62/116/249 74/115/250
f 71/135/251 72/118/252 75/119/253
f 63/117/254 64/136/255 76/120/256
f 64/136/257 71/135/258 75/119/259 76/120/260
f 69/125/261 70/137/262 77/126/263
f 70/137/264 60/138/265 78/127/266 77/126/267
f 60/138/268 59/128/269 78/127/270
f 67/139/271 68/140/272 79/141/273
f 58/142/274 57/143/275 80/144/276
f 57/143/277 67/139/278 79/141/279 80/144/280
f 66/133/281 65/113/282 82/145/283 81/146/284
f 67/131/285 66/130/286 81/146/287 83/147/288
f 68/140/289 67/139/290 83/147/291 84/148/292
f 69/125/293 68/140/294 84/148/295 85/149/296
f 70/137/297 69/125/298 85/149/299 86/150/300
f 71/122/301 70/121/302 86/150/303 87/151/304
f 72/118/305 71/135/306 87/151/307 88/152/308
f 65/113/309 72/118/310 88/152/311 82/145/312
f 58/142/313 59/128/314 90/153/315 89/154/316
f 63/117/317 62/116/318 92/155/319 91/156/320
f 64/136/321 63/117/322 91/156/323 93/157/324
f 59/128/325 60/124/326 94/158/327 90/153/328
f 60/124/329 64/136/330 93/157/331 94/158/332
f 62/116/333 61/129/334 95/159/335 92/155/336
f 61/129/337 57/143/338 96/160/339 95/159/340
f 57/143/341 58/142/342 89/154/343 96/160/344
f 82/145/345 88/152/346 91/156/347 92/155/348
f 83/147/349 81/146/350 95/159/351 96/160/352
f 85/149/353 84/148/354 89/154/355 90/153/356
f 87/151/357 86/150/358 94/158/359 93/157/360
f 59/128/361 58/142/362 68/140/363 69/125/364
f 80/144/365 79/141/366 68/140/367 58/142/368
f 81/161/369 82/162/370 97/163/371 98/164/372
f 84/165/373 83/166/374 99/167/375 100/168/376
f 86/169/377 85/170/378 101/171/379 102/172/380
f 88/173/381 87/174/382 103/175/383 104/176/384
f 93/177/385 91/178/386 105/179/387 106/180/388
f 90/181/389 94/182/390 107/183/391 108/184/392
f 92/185/393 95/186/394 109/187/395 110/188/396
f 96/189/397 89/190/398 111/191/399 112/192/400
f 91/193/401 88/194/402 104/195/403 105/196/404
f 82/197/405 92/198/406 110/199/407 97/200/408
f 95/201/409 81/202/410 98/203/411 109/204/412
f 83/205/413 96/206/414 112/207/415 99/208/416
f 89/209/417 84/210/418 100/211/419 111/212/420
f 85/213/421 90/214/422 108/215/423 101/216/424
f 94/217/425 86/218/426 102/219/427 107/220/428
f 87/221/429 93/222/430 106/223/431 103/224/432
s 1
f 161/225/433 162/226/434 163/227/435
f 162/226/434 164/228/436 163/227/435
f 164/228/436 165/229/437 163/227/435
f 165/229/437 166/230/438 163/227/435
f 166/230/438 167/231/439 163/227/435
f 167/231/439 161/225/433 163/227/435
s off
f 137/232/440 138/233/441 139/234/442 140/235/443
f 138/233/444 141/236/445 142/237/446 139/234/447
f 141/236/448 143/238/449 144/239/450 142/237/451
f 143/238/452 145/240/453 146/241/454 144/239/455
f 145/240/456 147/242/457 148/243/458 146/241/459
f 147/242/460 137/232/461 140/235/462 148/243/463
s 2
f 168/244/464 169/245/465 170/246/466
f 169/245/465 171/247/467 170/246/466
f 171/247/467 172/248/468 170/246/466
f 172/248/468 173/249/469 170/246/466
f 173/249/469 174/250/470 170/246/466
f 174/250/470 168/244/464 170/246/466
s off
f 149/251/471 150/252/472 151/253/473 152/254/474
f 150/252/475 153/255/476 154/256/477 151/253/478
f 153/255/479 155/257/480 156/258/481 154/256/482
f 155/257/483 157/259/484 158/260/485 156/258/486
f 157/259/487 159/261/488 160/262/489 158/260/490
f 159/261/491 149/251/492 152/254/493 160/262/494
f 114/263/495 113/264/496 126/265/497 125/266/498
f 115/267/499 114/268/500 125/269/501 130/270/502
f 116/271/503 115/272/504 130/273/505 129/274/506
f 117/275/507 116/276/508 129/277/509 128/278/510
f 118/279/511 117/280/512 128/281/513 127/282/514
f 113/283/515 118/284/516 127/285/517 126/286/518
f 113/287/519 114/288/520 138/233/521 137/232/522
f 120/289/523 119/290/524 140/235/525 139/234/526
f 114/288/527 115/291/528 141/236/529 138/233/530
f 121/292/531 120/289/532 139/234/533 142/237/534
f 115/291/535 116/293/536 143/238/537 141/236/538
f 122/294/539 121/292/540 142/237/541 144/239/542
f 116/293/543 117/295/544 145/240/545 143/238/546
f 123/296/547 122/294/548 144/239/549 146/241/550
f 117/295/551 118/297/552 147/242/553 145/240/554
f 124/298/555 123/296/556 146/241/557 148/243/558
f 118/297/559 113/287/560 137/232/561 147/242/562
f 119/290/563 124/298/564 148/243/565 140/235/566
f 125/299/567 126/300/568 150/252/569 149/251/570
f 132/301/571 131/302/572 152/254/573 151/253/574
f 126/300/575 127/303/576 153/255/577 150/252/578
f 133/304/579 132/301/580 151/253/581 154/256/582
f 127/303/583 128/305/584 155/257/585 153/255/586
f 134/306/587 133/304/588 154/256/589 156/258/590
f 128/305/591 129/307/592 157/259/593 155/257/594
f 135/308/595 134/306/596 156/258/597 158/260/598
f 129/307/599 130/309/600 159/261/601 157/259/602
f 136/310/603 135/308/604 158/260/605 160/262/606
f 130/309/607 125/299/608 149/251/609 159/261/610
f 131/302/611 136/310/612 160/262/613 152/254/614
f 119/290/615 120/289/616 162/226/617 161/225/618
f 120/289/619 121/292/620 164/228/621 162/226/622
f 121/292/623 122/294/624 165/229/625 164/228/626
f 122/294/627 123/296/628 166/230/629 165/229/630
f 123/296/631 124/298/632 167/231/633 166/230/634
f 124/298/635 119/290/636 161/225/637 167/231/638
f 131/302/639 132/301/640 169/245/641 168/244/642
f 132/301/643 133/304/644 171/247/645 169/245/646
f 133/304/647 134/306/648 172/248/649 171/247/650
f 134/306/651 135/308/652 173/249/653 172/248/654
f 135/308/655 136/310/656 174/250/657 173/249/658
f 136/310/659 131/302/660 168/244/661 174/250/662
