# This file uses centimeters as units for non-parametric coordinates.

mtllib Väggljus 1.mtl
g default
v -0.524467 0.049512 -0.233073
v -0.533441 -0.108536 -0.260202
v 0.533441 -0.108536 -0.260202
v 0.524467 0.049512 -0.233073
v -0.524467 0.049512 0.238900
v -0.533441 -0.108536 0.266707
v 0.533441 -0.108536 0.266707
v 0.524467 0.049512 0.238900
v 0.000000 -0.108536 0.325252
v 0.000000 0.049512 0.291341
v 0.000000 0.049512 -0.291341
v 0.000000 -0.108536 -0.325252
v 0.000000 -0.108536 -0.260202
v 0.000000 -0.108536 0.266707
v 0.456360 0.049512 0.291341
v 0.464168 -0.108536 0.325252
v 0.464168 -0.108536 0.266707
v 0.464168 -0.108536 -0.260202
v 0.464168 -0.108536 -0.325252
v 0.456360 0.049512 -0.291341
v -0.464168 -0.108536 0.325252
v -0.456360 0.049512 0.291341
v -0.456360 0.049512 -0.291341
v -0.464168 -0.108536 -0.325252
v -0.464168 -0.108536 -0.260202
v -0.464168 -0.108536 0.266707
v -0.608790 0.049512 -0.296956
v -0.608790 -0.108536 -0.296956
v -0.608790 -0.108536 0.304379
v -0.608790 0.049512 0.304380
v 0.608790 -0.108536 0.304379
v 0.608790 0.049512 0.304380
v 0.608790 -0.108536 -0.296956
v 0.608790 0.049512 -0.296956
v 0.000000 -0.108536 0.371195
v 0.000000 0.049512 0.371195
v 0.529732 -0.108536 0.371195
v 0.529732 0.049512 0.371195
v 0.000000 0.049512 -0.371195
v 0.000000 -0.108536 -0.371195
v 0.529732 0.049512 -0.371195
v 0.529732 -0.108536 -0.371195
v -0.529732 -0.108536 0.371195
v -0.529732 0.049512 0.371195
v -0.529732 0.049512 -0.371195
v -0.529732 -0.108536 -0.371195
v -0.352970 0.207235 0.153343
v -0.524467 0.130061 0.238900
v -0.352970 0.207235 -0.147517
v -0.524467 0.130061 -0.233073
v 0.352970 0.207235 -0.147517
v 0.352970 0.207235 0.153343
v 0.524467 0.130061 0.238900
v 0.524467 0.130061 -0.233073
v 0.000000 0.207235 0.153343
v 0.000000 0.207235 -0.147517
v 0.000000 0.130061 0.291341
v 0.456360 0.130061 0.291341
v 0.000000 0.130061 -0.291341
v 0.456360 0.130061 -0.291341
v -0.456360 0.130061 0.291341
v -0.456360 0.130061 -0.291341
vt 0.150000 0.250000
vt 0.375000 0.475000
vt 0.150000 0.000000
vt 0.375000 0.775000
vt 0.625000 0.775000
vt 0.850000 0.000000
vt 0.625000 0.475000
vt 0.850000 0.250000
vt 0.352500 0.250000
vt 0.375000 0.272500
vt 0.352500 0.000000
vt 0.375000 0.977500
vt 0.625000 0.977500
vt 0.647500 0.000000
vt 0.625000 0.272500
vt 0.647500 0.250000
vt 0.500000 0.000000
vt 0.500000 1.000000
vt 0.500000 0.250000
vt 0.500000 0.272500
vt 0.500000 0.475000
vt 0.500000 0.500000
vt 0.500000 0.750000
vt 0.500000 0.775000
vt 0.500000 0.977500
vt 0.612500 0.475000
vt 0.612500 0.272500
vt 0.612500 0.250000
vt 0.612500 0.000000
vt 0.612500 1.000000
vt 0.612500 0.977500
vt 0.612500 0.775000
vt 0.612500 0.750000
vt 0.612500 0.500000
vt 0.387500 0.000000
vt 0.387500 1.000000
vt 0.387500 0.250000
vt 0.387500 0.272500
vt 0.387500 0.475000
vt 0.387500 0.500000
vt 0.387500 0.750000
vt 0.387500 0.775000
vt 0.387500 0.977500
vt 0.150000 0.000000
vt 0.352500 0.000000
vt 0.352500 0.250000
vt 0.150000 0.250000
vt 0.647500 0.000000
vt 0.850000 0.000000
vt 0.850000 0.250000
vt 0.647500 0.250000
vt 0.500000 0.000000
vt 0.612500 0.000000
vt 0.612500 0.250000
vt 0.500000 0.250000
vt 0.500000 0.500000
vt 0.612500 0.500000
vt 0.612500 0.750000
vt 0.500000 0.750000
vt 0.387500 0.000000
vt 0.387500 0.250000
vt 0.387500 0.500000
vt 0.387500 0.750000
vt 0.375000 0.475000
vt 0.375000 0.272500
vt 0.625000 0.272500
vt 0.625000 0.475000
vt 0.500000 0.250000
vt 0.612500 0.250000
vt 0.612500 0.500000
vt 0.500000 0.500000
vt 0.387500 0.250000
vt 0.387500 0.500000
vt 0.352500 0.250000
vt 0.850000 0.250000
vn -1.000000 0.000000 0.000000
vn -1.000000 0.000000 0.000000
vn -1.000000 0.000000 0.000000
vn -1.000000 0.000000 0.000000
vn 0.000000 -1.000000 0.000000
vn 0.000000 -1.000000 0.000000
vn 0.000000 -1.000000 0.000000
vn 0.000000 -1.000000 0.000000
vn 1.000000 0.000000 0.000000
vn 1.000000 0.000000 0.000000
vn 1.000000 0.000000 0.000000
vn 1.000000 0.000000 0.000000
vn -0.410366 0.911921 0.000000
vn -0.143003 0.979641 0.140905
vn -0.141608 0.980081 -0.139243
vn -0.410366 0.911921 0.000000
vn 0.141608 0.980081 -0.139243
vn 0.143003 0.979641 0.140905
vn 0.410366 0.911921 0.000000
vn 0.410366 0.911921 0.000000
vn 0.000000 -1.000000 0.000000
vn 0.000000 -1.000000 0.000000
vn 0.000000 -1.000000 0.000000
vn 0.000000 -1.000000 0.000000
vn 0.000000 0.982430 -0.186629
vn 0.000000 0.981929 0.189248
vn 0.000000 0.872788 0.488099
vn 0.000000 0.872788 0.488099
vn 0.000000 0.000000 1.000000
vn 0.000000 0.000000 1.000000
vn 0.000000 0.000000 1.000000
vn 0.000000 0.000000 1.000000
vn 0.000000 -1.000000 0.000000
vn 0.000000 -1.000000 0.000000
vn 0.000000 -1.000000 0.000000
vn 0.000000 -1.000000 0.000000
vn 0.000000 -1.000000 0.000000
vn 0.000000 -1.000000 0.000000
vn 0.000000 0.000000 -1.000000
vn 0.000000 0.000000 -1.000000
vn 0.000000 0.000000 -1.000000
vn 0.000000 0.000000 -1.000000
vn 0.000000 0.881161 -0.472817
vn 0.000000 0.881161 -0.472817
vn 0.000000 0.000000 1.000000
vn 0.000000 0.000000 1.000000
vn 0.000000 0.872788 0.488099
vn 0.000000 0.881161 -0.472817
vn 0.000000 0.000000 -1.000000
vn 0.000000 0.000000 -1.000000
vn 0.000000 -1.000000 0.000000
vn 0.000000 -1.000000 0.000000
vn -0.645491 -0.000000 0.763768
vn -0.645491 -0.000000 0.763767
vn -0.645491 -0.000000 0.763768
vn -0.645491 -0.000000 0.763768
vn -0.249245 0.912739 0.323703
vn -0.249245 0.912739 0.323703
vn -0.249245 0.912739 0.323703
vn 0.645491 -0.000000 0.763767
vn 0.645491 -0.000000 0.763768
vn 0.645491 -0.000000 0.763768
vn 0.645491 -0.000000 0.763768
vn -0.684541 0.000000 -0.728975
vn -0.684541 0.000000 -0.728975
vn -0.684541 0.000000 -0.728975
vn -0.684541 0.000000 -0.728975
vn 0.684541 0.000000 -0.728975
vn 0.684541 0.000000 -0.728975
vn 0.684541 0.000000 -0.728975
vn 0.684541 0.000000 -0.728975
vn 0.260442 0.916242 -0.304420
vn 0.260442 0.916242 -0.304420
vn 0.260442 0.916242 -0.304420
vn 0.249245 0.912739 0.323703
vn 0.249245 0.912739 0.323703
vn 0.249245 0.912739 0.323703
vn -0.260442 0.916242 -0.304420
vn -0.260442 0.916242 -0.304420
vn -0.260442 0.916242 -0.304420
vn 0.000000 -1.000000 0.000000
vn 0.000000 -1.000000 0.000000
vn 0.000000 -1.000000 0.000000
vn 0.000000 -1.000000 0.000000
vn 0.000000 -1.000000 0.000000
vn 0.000000 -1.000000 0.000000
vn 0.000000 -1.000000 0.000000
vn 0.000000 -1.000000 0.000000
vn 0.000000 -1.000000 0.000000
vn 0.000000 -1.000000 0.000000
vn 0.000000 -1.000000 0.000000
vn 0.000000 -1.000000 0.000000
vn 0.000000 -1.000000 0.000000
vn 0.000000 -1.000000 0.000000
vn 0.000000 -1.000000 0.000000
vn 0.000000 -1.000000 0.000000
vn -0.000000 1.000000 0.000000
vn -0.000000 1.000000 0.000000
vn -0.000000 1.000000 0.000000
vn -0.000000 1.000000 0.000000
vn 0.000000 -1.000000 0.000000
vn 0.000000 -1.000000 0.000000
vn 0.000000 -1.000000 0.000000
vn 0.000000 -1.000000 0.000000
vn 0.000000 1.000000 0.000000
vn 0.000000 1.000000 0.000000
vn 0.000000 1.000000 0.000000
vn 0.000000 1.000000 0.000000
vn 0.000000 -1.000000 0.000000
vn 0.000000 -1.000000 0.000000
vn 0.000000 -1.000000 0.000000
vn 0.000000 -1.000000 0.000000
vn 0.000000 1.000000 0.000000
vn 0.000000 1.000000 0.000000
vn 0.000000 1.000000 0.000000
vn 0.000000 1.000000 0.000000
vn 0.000000 1.000000 -0.000000
vn 0.000000 1.000000 -0.000000
vn 0.000000 1.000000 -0.000000
vn 0.000000 1.000000 -0.000000
vn 0.000000 -1.000000 0.000000
vn 0.000000 -1.000000 0.000000
vn 0.000000 -1.000000 0.000000
vn 0.000000 -1.000000 0.000000
vn 0.000000 -1.000000 -0.000000
vn 0.000000 -1.000000 -0.000000
vn 0.000000 -1.000000 -0.000000
vn 0.000000 -1.000000 -0.000000
vn 0.000000 1.000000 0.000000
vn 0.000000 1.000000 0.000000
vn 0.000000 1.000000 0.000000
vn 0.000000 1.000000 0.000000
vn 0.000000 1.000000 -0.000000
vn 0.000000 1.000000 -0.000000
vn 0.000000 1.000000 -0.000000
vn 0.000000 1.000000 -0.000000
vn 0.000000 -1.000000 0.000000
vn 0.000000 -1.000000 0.000000
vn 0.000000 -1.000000 0.000000
vn 0.000000 -1.000000 0.000000
vn 0.000000 -1.000000 0.000000
vn 0.000000 -1.000000 0.000000
vn 0.000000 -1.000000 0.000000
vn 0.000000 -1.000000 0.000000
vn -0.000000 1.000000 0.000000
vn -0.000000 1.000000 0.000000
vn -0.000000 1.000000 0.000000
vn -0.000000 1.000000 0.000000
vn 0.000000 1.000000 0.000000
vn 0.000000 1.000000 0.000000
vn 0.000000 1.000000 0.000000
vn 0.000000 1.000000 0.000000
vn 0.000000 -1.000000 0.000000
vn 0.000000 -1.000000 0.000000
vn 0.000000 -1.000000 0.000000
vn 0.000000 -1.000000 0.000000
vn -0.000000 1.000000 -0.000000
vn -0.000000 1.000000 -0.000000
vn -0.000000 1.000000 -0.000000
vn -0.000000 1.000000 -0.000000
vn 0.000000 -1.000000 0.000000
vn 0.000000 -1.000000 0.000000
vn 0.000000 -1.000000 0.000000
vn 0.000000 -1.000000 0.000000
vn 0.000000 -1.000000 0.000000
vn 0.000000 -1.000000 0.000000
vn 0.000000 -1.000000 0.000000
vn 0.000000 -1.000000 0.000000
vn 0.000000 1.000000 -0.000000
vn 0.000000 1.000000 -0.000000
vn 0.000000 1.000000 -0.000000
vn 0.000000 1.000000 -0.000000
vn -1.000000 0.000000 0.000000
vn -1.000000 0.000000 0.000000
vn -1.000000 0.000000 0.000000
vn -1.000000 0.000000 0.000000
vn 1.000000 0.000000 0.000000
vn 1.000000 0.000000 0.000000
vn 1.000000 0.000000 0.000000
vn 1.000000 0.000000 0.000000
vn 0.000000 0.000000 1.000000
vn 0.000000 0.000000 1.000000
vn 0.000000 0.000000 1.000000
vn 0.000000 0.000000 1.000000
vn 0.000000 0.000000 -1.000000
vn 0.000000 0.000000 -1.000000
vn 0.000000 0.000000 -1.000000
vn 0.000000 0.000000 -1.000000
vn 0.000000 0.000000 1.000000
vn 0.000000 0.000000 1.000000
vn 0.000000 0.000000 1.000000
vn 0.000000 0.000000 1.000000
vn 0.000000 0.000000 -1.000000
vn 0.000000 0.000000 -1.000000
vn 0.000000 0.000000 -1.000000
vn 0.000000 0.000000 -1.000000
vn -0.610083 0.000000 0.792337
vn -0.610083 0.000000 0.792337
vn -0.610083 0.000000 0.792337
vn -0.610083 0.000000 0.792337
vn 0.650086 0.000000 -0.759861
vn 0.650086 0.000000 -0.759861
vn 0.650086 0.000000 -0.759861
vn 0.650086 0.000000 -0.759861
vn 0.610083 0.000000 0.792337
vn 0.610083 0.000000 0.792337
vn 0.610083 0.000000 0.792337
vn 0.610083 0.000000 0.792337
vn -0.650086 0.000000 -0.759861
vn -0.650086 0.000000 -0.759861
vn -0.650086 0.000000 -0.759861
vn -0.650086 0.000000 -0.759861
s off
g pCube1
usemtl initialShadingGroup
f 27/47/1 28/44/2 29/45/3 30/46/4
s 1
f 2/4/5 25/42/6 26/43/7 6/12/8
s off
f 32/51/9 31/48/10 33/49/11 34/50/12
s 2
f 48/65/13 47/38/14 49/39/15 50/64/16
f 51/26/17 52/27/18 53/66/19 54/67/20
s 1
f 17/31/21 18/32/22 3/5/23 7/13/24
s 2
f 56/21/25 55/20/26 52/27/18 51/26/17
f 55/20/26 57/68/27 58/69/28 52/27/18
s 5
f 36/55/29 35/52/30 37/53/31 38/54/32
s 1
f 9/18/33 14/25/34 17/31/21 16/30/35
f 14/25/34 13/24/36 18/32/22 17/31/21
f 13/24/36 12/23/37 19/33/38 18/32/22
s 7
f 40/59/39 39/56/40 41/57/41 42/58/42
s 2
f 59/71/43 56/21/25 51/26/17 60/70/44
s 5
f 44/61/45 43/60/46 35/52/30 36/55/29
s 2
f 47/38/14 61/72/47 57/68/27 55/20/26
f 49/39/15 47/38/14 55/20/26 56/21/25
f 62/73/48 49/39/15 56/21/25 59/71/43
s 7
f 46/63/49 45/62/50 39/56/40 40/59/39
s 1
f 25/42/6 24/41/51 12/23/37 13/24/36
f 26/43/7 25/42/6 13/24/36 14/25/34
f 21/36/52 26/43/7 14/25/34 9/18/33
s off
f 30/46/53 29/45/54 43/60/55 44/61/56
f 48/74/57 61/72/58 47/38/59
f 31/48/60 32/51/61 38/54/62 37/53/63
f 28/44/64 27/47/65 45/62/66 46/63/67
f 34/50/68 33/49/69 42/58/70 41/57/71
f 51/26/72 54/75/73 60/70/74
f 52/27/75 58/69/76 53/66/77
f 50/64/78 49/39/79 62/73/80
f 26/43/81 21/35/82 6/12/83
f 25/42/84 2/3/85 24/41/86
f 3/5/87 18/32/88 19/33/89
f 7/14/90 16/30/91 17/31/92
f 2/3/93 6/11/94 29/45/95 28/44/96
f 5/9/97 1/1/98 27/47/99 30/46/100
f 7/14/101 3/6/102 33/49/103 31/48/104
f 4/8/105 8/16/106 32/51/107 34/50/108
f 9/17/109 16/29/110 37/53/111 35/52/112
f 15/28/113 10/19/114 36/55/115 38/54/116
f 11/22/117 20/34/118 41/57/119 39/56/120
f 19/33/121 12/23/122 40/59/123 42/58/124
f 21/35/125 9/17/126 35/52/127 43/60/128
f 10/19/129 22/37/130 44/61/131 36/55/132
f 23/40/133 11/22/134 39/56/135 45/62/136
f 12/23/137 24/41/138 46/63/139 40/59/140
f 6/11/141 21/35/142 43/60/143 29/45/144
f 22/37/145 5/9/146 30/46/147 44/61/148
f 8/16/149 15/28/150 38/54/151 32/51/152
f 16/29/153 7/14/154 31/48/155 37/53/156
f 1/1/157 23/40/158 45/62/159 27/47/160
f 24/41/161 2/3/162 28/44/163 46/63/164
f 3/6/165 19/33/166 42/58/167 33/49/168
f 20/34/169 4/8/170 34/50/171 41/57/172
f 1/2/173 5/10/174 48/65/175 50/64/176
f 8/15/177 4/7/178 54/67/179 53/66/180
f 10/19/181 15/28/182 58/69/183 57/68/184
f 20/34/185 11/22/186 59/71/187 60/70/188
f 22/37/189 10/19/190 57/68/191 61/72/192
f 11/22/193 23/40/194 62/73/195 59/71/196
f 5/9/197 22/37/198 61/72/199 48/74/200
f 4/8/201 20/34/202 60/70/203 54/75/204
f 15/28/205 8/15/206 53/66/207 58/69/208
f 23/40/209 1/2/210 50/64/211 62/73/212
